<?xml version="1.0" encoding="utf-8"?>
<!-- Generator: Adobe Illustrator 12.0.0, SVG Export Plug-In . SVG Version: 6.00 Build 51448)  -->
<!DOCTYPE svg PUBLIC "-//W3C//DTD SVG 1.1//EN" "http://www.w3.org/Graphics/SVG/1.1/DTD/svg11.dtd" [
	<!ENTITY ns_svg "http://www.w3.org/2000/svg">
	<!ENTITY ns_xlink "http://www.w3.org/1999/xlink">
]>
<svg  version="1.1" id="Layer_1" xmlns="&ns_svg;" xmlns:xlink="&ns_xlink;" width="839.472" height="656.388"
	 viewBox="0 0 839.472 656.388" overflow="visible" enable-background="new 0 0 839.472 656.388" xml:space="preserve">
<g>
	<path fill="#3E4547" d="M659.644,239.954c0-66.273-23.441-122.851-70.272-169.682S485.963,0,419.74,0
		c-66.273,0-122.851,23.441-169.682,70.272c-46.832,46.831-70.222,103.409-70.222,169.682c0,66.224,23.391,122.801,70.222,169.632
		c46.831,46.832,103.409,70.272,169.682,70.322c66.223-0.05,122.8-23.491,169.631-70.322S659.644,306.178,659.644,239.954
		L659.644,239.954z M599.667,239.904c0,49.68-17.593,92.113-52.729,127.249s-77.569,52.729-127.199,52.729
		c-49.68,0-92.113-17.593-127.249-52.729c-35.136-35.136-52.729-77.569-52.679-127.249c-0.05-49.68,17.543-92.113,52.679-127.249
		c35.136-35.136,77.569-52.679,127.249-52.679c49.629,0,92.063,17.543,127.199,52.679
		C582.074,147.791,599.667,190.224,599.667,239.904L599.667,239.904z"/>
	<path fill="#FF00C9" d="M531.794,223.311c-0.05-6.447-1.699-12.295-5.048-17.443v-0.05l-88.465-88.465h-0.05c0,0,0,0-0.05-0.05
		c-1.949-1.949-3.998-3.599-6.247-4.898c-0.7-0.4-1.399-0.75-2.149-1.1c-3.898-1.849-8.196-2.799-12.844-2.849
		c-0.55,0-1.1,0-1.649,0.05c-1.549,0.05-3.099,0.25-4.548,0.55c-3.049,0.6-5.848,1.649-8.447,3.148c-0.899,0.45-1.749,1-2.599,1.649
		v0.05l-88.814,88.115h0.05c-0.05,0-0.05,0-0.05,0.05c-1.999,1.949-3.648,3.999-4.948,6.248c-0.45,0.7-0.8,1.399-1.1,2.149
		c-1.899,3.898-2.849,8.197-2.898,12.845c0.05,8.247,2.999,15.294,8.896,21.142c5.848,5.848,12.895,8.797,21.141,8.847
		c8.297-0.05,15.394-2.999,21.242-8.847c0.05-0.05,0.05-0.05,0.1-0.05l63.625-63.575l67.373,67.423
		c5.198,3.349,11.046,4.998,17.493,5.048c8.246-0.05,15.344-2.949,21.191-8.796S531.794,231.558,531.794,223.311L531.794,223.311z"
		/>
	<path fill="#3E4547" d="M523.048,324.52c5.848-5.848,8.746-12.945,8.746-21.191c0-8.296-2.898-15.394-8.746-21.241
		c-5.897-5.848-12.995-8.797-21.292-8.747c-0.05,0-0.05,0-0.1,0l-175.08-0.05c-6.047,1.3-11.395,4.249-15.943,8.797
		c-5.848,5.848-8.796,12.945-8.796,21.241c0,8.247,2.949,15.344,8.796,21.191c4.548,4.548,9.896,7.498,15.994,8.747l-0.05,0.05
		h175.08v-0.05c0.05,0,0.05,0,0.1,0c2.749,0,5.398-0.3,7.897-0.949c0.75-0.2,1.549-0.45,2.299-0.7
		C516.001,330.168,519.699,327.769,523.048,324.52L523.048,324.52z"/>
	<path fill="#FF00C9" d="M107.915,559.727c1.699-2.699,2.549-5.698,2.599-8.997c-0.05-4.248-1.549-7.896-4.548-10.896
		c-2.999-3.049-6.647-4.548-10.896-4.548c-3.349,0-6.347,0.85-8.996,2.599l-45.532,45.532h0.05h-0.05
		c-1.05,0.999-1.899,2.099-2.549,3.248c-0.2,0.351-0.399,0.7-0.55,1.1c-0.949,1.999-1.449,4.198-1.449,6.598c0,0.25,0,0.55,0,0.85
		c0.05,0.8,0.15,1.6,0.3,2.349c0.3,1.55,0.85,2.999,1.649,4.349c0.25,0.45,0.5,0.899,0.8,1.35h0.05l45.332,45.682v-0.05v0.05
		c1,1,2.099,1.85,3.249,2.549c0.35,0.2,0.7,0.4,1.1,0.55c1.999,0.95,4.198,1.449,6.597,1.449c4.249,0,7.847-1.499,10.896-4.498
		c2.999-3.049,4.498-6.647,4.548-10.896c-0.05-4.248-1.549-7.896-4.548-10.945l-0.05-0.05l-32.687-32.737L107.915,559.727
		L107.915,559.727z"/>
	<path fill="#3E4547" d="M15.401,535.236c-4.248,0-7.897,1.499-10.896,4.548c-2.349,2.349-3.849,5.048-4.498,8.196v90.114
		c-0.05,1.399,0.15,2.749,0.5,4.049c0.1,0.399,0.2,0.8,0.35,1.199c0.75,2.099,1.949,3.998,3.648,5.697
		c2.999,2.999,6.647,4.499,10.896,4.499c4.249,0,7.897-1.5,10.946-4.499c2.999-3.049,4.498-6.697,4.498-10.945V547.98
		c-0.65-3.148-2.149-5.848-4.498-8.196C23.298,536.735,19.65,535.236,15.401,535.236L15.401,535.236z"/>
	<path fill="#3E4547" d="M820.629,557.327c-0.05-5.947-1.749-10.695-5.198-14.244c-3.448-3.549-8.146-5.398-14.145-5.548
		c-4.147-0.05-7.696,0.6-10.695,1.899c-2.999,1.35-5.647,3.798-7.997,7.396l-38.484,59.526c-1.05,1.449-2.149,3.349-3.249,5.598
		s-1.699,4.648-1.799,7.197c0,1.449,0.399,2.999,1.249,4.599c0.8,1.549,2.149,2.898,4.099,4.048c1.899,1.1,4.498,1.649,7.747,1.699
		h43.282v10.996c0.051,4.647,1.15,8.146,3.399,10.596c2.199,2.449,5.298,3.648,9.246,3.648c3.898,0,6.947-1.25,9.146-3.698
		c2.249-2.449,3.349-6.048,3.398-10.846v-10.696h5.548c4.048,0,7.297-0.899,9.646-2.749c2.35-1.898,3.599-4.897,3.649-8.946
		c-0.051-3.998-1.3-6.947-3.649-8.847c-2.349-1.849-5.598-2.748-9.646-2.748h-5.548V557.327L820.629,557.327z M795.089,564.924h0.35
		v41.284h-24.29L795.089,564.924L795.089,564.924z"/>
	<path fill="#3E4547" d="M732.564,551.629c-0.051-3.598-0.75-6.347-2.05-8.246c-1.35-1.85-2.999-3.148-4.998-3.849
		c-1.999-0.75-4.048-1.1-6.098-1.05h-21.341c-4.049,0.15-7.147,1.449-9.196,3.799c-1.999,2.449-2.999,5.198-2.999,8.297
		c0,3.148,1,5.947,2.999,8.396c2.049,2.349,5.147,3.648,9.196,3.799h8.246v78.068c0.051,4.548,1.25,8.047,3.699,10.396
		c2.349,2.35,5.497,3.499,9.396,3.499s7.048-1.149,9.396-3.499c2.449-2.349,3.698-5.848,3.749-10.396V551.629L732.564,551.629z"/>
	<path fill="#3E4547" d="M612.662,541.033c-2.449,2.35-3.699,5.848-3.749,10.446v54.729h-0.3l-43.582-54.578
		c-2.85-3.649-5.148-6.498-6.997-8.547c-1.85-2.05-3.599-3.499-5.248-4.349s-3.599-1.249-5.848-1.199
		c-3.898,0-7.048,1.149-9.396,3.498c-2.449,2.35-3.648,5.848-3.698,10.446v89.364c0.05,4.548,1.249,8.047,3.698,10.396
		c2.349,2.35,5.498,3.499,9.396,3.499s7.047-1.149,9.396-3.499c2.449-2.349,3.699-5.848,3.749-10.396v-54.729h0.3l43.583,54.528
		c2.799,3.648,5.098,6.498,6.946,8.547c1.85,2.049,3.6,3.499,5.299,4.349c1.648,0.85,3.598,1.249,5.848,1.199
		c3.898,0,7.047-1.149,9.396-3.499c2.449-2.349,3.699-5.848,3.749-10.396v-89.364c-0.05-4.599-1.3-8.097-3.749-10.446
		c-2.349-2.349-5.497-3.498-9.396-3.498S615.011,538.685,612.662,541.033L612.662,541.033z"/>
	<path fill="#3E4547" d="M516.95,564.274c-4.648-8.996-11.245-15.943-19.692-20.892c-8.446-4.948-18.393-7.447-29.838-7.497
		c-11.495,0.05-21.441,2.549-29.888,7.497s-15.044,11.896-19.692,20.892c-4.648,8.946-7.047,19.592-7.097,31.887
		c0.05,12.245,2.449,22.892,7.097,31.838c4.648,9.046,11.246,15.993,19.692,20.892c8.446,4.948,18.393,7.447,29.888,7.497
		c11.445-0.05,21.392-2.549,29.838-7.497c8.447-4.898,15.044-11.846,19.692-20.892c4.648-8.946,7.047-19.593,7.098-31.838
		C523.997,583.866,521.599,573.221,516.95,564.274L516.95,564.274z M495.908,596.161c0.051,6.198-0.949,11.996-2.948,17.443
		c-1.949,5.448-4.998,9.846-9.146,13.295c-4.248,3.349-9.696,5.098-16.394,5.248c-6.747-0.15-12.195-1.899-16.443-5.248
		c-4.148-3.449-7.197-7.847-9.146-13.295c-1.949-5.447-2.948-11.245-2.948-17.443c0-6.247,0.999-12.045,2.948-17.492
		c1.949-5.448,4.998-9.847,9.146-13.295c4.248-3.349,9.696-5.098,16.443-5.198c6.697,0.101,12.146,1.85,16.394,5.198
		c4.148,3.448,7.197,7.847,9.146,13.295C494.959,584.116,495.959,589.914,495.908,596.161L495.908,596.161z"/>
	<path fill="#3E4547" d="M390.151,552.879c-2.649-4.448-6.347-7.947-11.195-10.496c-4.798-2.549-10.546-3.849-17.243-3.898h-30.938
		c-3.549,0-6.547,1.149-9.097,3.398c-2.549,2.25-3.898,5.498-3.998,9.746v89.015c0.1,4.249,1.449,7.497,3.998,9.746
		c2.549,2.249,5.548,3.398,9.097,3.398h32.587c9.396-0.1,17.043-1.749,22.941-4.997c5.897-3.199,10.246-7.397,13.044-12.646
		c2.749-5.248,4.099-10.995,4.099-17.144c-0.1-7.347-2.199-13.544-6.297-18.592c-4.148-5.048-9.746-8.347-16.844-9.796
		c1.949-1.1,3.949-2.649,6.048-4.599c2.149-1.949,3.948-4.349,5.398-7.247c1.549-2.898,2.299-6.298,2.349-10.196
		C394.05,562.625,392.75,557.377,390.151,552.879L390.151,552.879z M367.86,572.571c-0.05,3.548-1.1,6.247-3.149,8.097
		c-2.099,1.749-5.048,2.648-8.796,2.648H343.92v-21.491h11.995c3.799,0,6.748,0.899,8.796,2.699
		C366.811,566.373,367.86,569.022,367.86,572.571L367.86,572.571z M343.92,630.448v-23.791h16.494c2.649,0,5.198,0.35,7.547,1.1
		c2.449,0.8,4.398,2.049,5.897,3.799c1.549,1.749,2.349,4.048,2.399,6.947c-0.1,4.398-1.649,7.497-4.648,9.346
		c-2.949,1.8-6.697,2.649-11.195,2.6H343.92L343.92,630.448z"/>
	<path fill="#3E4547" d="M303.136,555.428c-3.148-5.348-7.597-9.446-13.345-12.395c-5.748-2.949-12.595-4.499-20.442-4.549h-31.537
		c-3.549,0-6.547,1.149-9.096,3.398c-2.549,2.25-3.898,5.498-3.999,9.746v89.215c0.05,4.548,1.25,8.047,3.698,10.396
		c2.349,2.35,5.498,3.499,9.396,3.499s7.047-1.149,9.396-3.499c2.449-2.349,3.699-5.848,3.749-10.396v-33.236h0.3l32.287,40.634
		c1.45,2.049,3.049,3.648,4.798,4.748c1.799,1.149,4.348,1.749,7.597,1.749c3.349-0.101,5.998-0.85,7.997-2.299
		c1.949-1.45,3.349-3.149,4.198-5.049c0.9-1.898,1.299-3.498,1.25-4.848c0-2.099-0.5-4.049-1.449-5.848
		c-0.85-1.749-2.199-3.549-3.999-5.447l-22.841-24.591c8.347-1.649,14.844-5.298,19.592-10.995
		c4.748-5.648,7.147-12.745,7.247-21.342C307.884,567.073,306.285,560.775,303.136,555.428L303.136,555.428z M277.747,566.124
		c2.549,2.148,3.848,5.197,3.948,9.146c0,3.699-1.149,6.748-3.449,9.196c-2.349,2.35-5.647,3.599-9.996,3.699h-17.293v-25.39h17.293
		C272.099,562.825,275.297,563.975,277.747,566.124L277.747,566.124z"/>
	<path fill="#3E4547" d="M177.886,539.234c-2.699-2.149-6.247-3.299-10.695-3.349c-4.298,0.05-7.797,1.199-10.446,3.349
		c-2.648,2.149-4.848,5.048-6.547,8.597c-1.75,3.599-3.349,7.547-4.798,11.845l-25.34,68.173c-1.1,2.999-1.949,5.498-2.499,7.447
		c-0.55,1.899-0.899,3.549-1.1,4.898c-0.15,1.299-0.25,2.599-0.25,3.848c0.05,3.249,1.2,5.848,3.549,7.747
		c2.249,1.899,5.298,2.899,9.096,2.949c4.148-0.101,7.197-1.3,9.146-3.648c1.949-2.35,3.499-5.398,4.598-9.146l3.249-10.396h43.033
		l3.249,10.396c1.1,3.748,2.599,6.797,4.548,9.146c1.949,2.349,5.048,3.548,9.196,3.648c3.799-0.05,6.848-1.05,9.097-2.949
		c2.299-1.899,3.499-4.498,3.548-7.747c0-1.249-0.1-2.549-0.25-3.848c-0.2-1.35-0.549-2.999-1.099-4.898
		c-0.55-1.949-1.399-4.448-2.549-7.447l-25.29-68.173c-1.45-4.298-3.049-8.246-4.798-11.845
		C182.785,544.282,180.585,541.384,177.886,539.234L177.886,539.234z M167.69,565.074h0.3l13.145,42.232h-27.539L167.69,565.074
		L167.69,565.074z"/>
</g>
</svg>
