<?xml version="1.0" encoding="UTF-8" standalone="no"?>
<!-- Generator: Adobe Illustrator 12.0.0, SVG Export Plug-In . SVG Version: 6.00 Build 51448)  -->
<svg
   xmlns:dc="http://purl.org/dc/elements/1.1/"
   xmlns:cc="http://creativecommons.org/ns#"
   xmlns:rdf="http://www.w3.org/1999/02/22-rdf-syntax-ns#"
   xmlns:svg="http://www.w3.org/2000/svg"
   xmlns="http://www.w3.org/2000/svg"
   xmlns:xlink="http://www.w3.org/1999/xlink"
   xmlns:sodipodi="http://sodipodi.sourceforge.net/DTD/sodipodi-0.dtd"
   xmlns:inkscape="http://www.inkscape.org/namespaces/inkscape"
   version="1.1"
   id="Layer_1"
   width="839.472"
   height="656.388"
   viewBox="0 0 839.472 656.388"
   overflow="visible"
   enable-background="new 0 0 839.472 656.388"
   xml:space="preserve"
   sodipodi:version="0.32"
   inkscape:version="0.46"
   sodipodi:docname="karbon14.svg"
   inkscape:output_extension="org.inkscape.output.svg.inkscape"><metadata
   id="metadata32"><rdf:RDF><cc:Work
       rdf:about=""><dc:format>image/svg+xml</dc:format><dc:type
         rdf:resource="http://purl.org/dc/dcmitype/StillImage" /></cc:Work></rdf:RDF></metadata><defs
   id="defs30"><linearGradient
   inkscape:collect="always"
   id="linearGradient3650"><stop
     style="stop-color:#31383b;stop-opacity:1"
     offset="0"
     id="stop3652" /><stop
     style="stop-color:#41484b;stop-opacity:1"
     offset="1"
     id="stop3654" /></linearGradient><linearGradient
   inkscape:collect="always"
   id="linearGradient3642"><stop
     style="stop-color:#ff2fd8;stop-opacity:1"
     offset="0"
     id="stop3644" /><stop
     style="stop-color:#ff60e2;stop-opacity:1"
     offset="1"
     id="stop3646" /></linearGradient><inkscape:perspective
   sodipodi:type="inkscape:persp3d"
   inkscape:vp_x="0 : 328.194 : 1"
   inkscape:vp_y="0 : 1000 : 0"
   inkscape:vp_z="839.47198 : 328.194 : 1"
   inkscape:persp3d-origin="419.73599 : 218.796 : 1"
   id="perspective34" /><inkscape:perspective
   sodipodi:type="inkscape:persp3d"
   inkscape:vp_x="0 : 526.18109 : 1"
   inkscape:vp_y="0 : 1000 : 0"
   inkscape:vp_z="744.09448 : 526.18109 : 1"
   inkscape:persp3d-origin="372.04724 : 350.78739 : 1"
   id="perspective3805" /><linearGradient
   gradientUnits="userSpaceOnUse"
   y2="656.414"
   x2="531.8385"
   y1="535.20917"
   x1="531.8385"
   id="linearGradient3742"
   xlink:href="#linearGradient3547"
   inkscape:collect="always" /><linearGradient
   gradientTransform="translate(-378.36905,0)"
   y2="535.28601"
   x2="86.482048"
   y1="653.7666"
   x1="86.482048"
   gradientUnits="userSpaceOnUse"
   id="linearGradient2950"
   xlink:href="#linearGradient3613"
   inkscape:collect="always" /><linearGradient
   y2="657.29523"
   x2="277.88239"
   y1="535.23602"
   x1="277.88239"
   gradientUnits="userSpaceOnUse"
   id="linearGradient2911"
   xlink:href="#linearGradient3547"
   inkscape:collect="always" />
	
	
	
	
	
	
	
	
	
<linearGradient
   y2="657.29523"
   x2="277.88239"
   y1="535.23602"
   x1="277.88239"
   gradientUnits="userSpaceOnUse"
   id="linearGradient2878"
   xlink:href="#linearGradient3547"
   inkscape:collect="always" /><linearGradient
   id="linearGradient3547"><stop
     style="stop-color:#777d7e;stop-opacity:1"
     offset="0"
     id="stop3549" /><stop
     id="stop3551"
     offset="0.49315068"
     style="stop-color:#323a3c;stop-opacity:1" /><stop
     style="stop-color:#222b2d;stop-opacity:1"
     offset="0.50999999"
     id="stop3553" /><stop
     style="stop-color:#222b2d;stop-opacity:1"
     offset="1"
     id="stop3555" /></linearGradient><inkscape:perspective
   sodipodi:type="inkscape:persp3d"
   inkscape:vp_x="0 : 328.194 : 1"
   inkscape:vp_y="0 : 1000 : 0"
   inkscape:vp_z="585.47302 : 328.194 : 1"
   inkscape:persp3d-origin="292.73651 : 218.796 : 1"
   id="perspective32" /><inkscape:perspective
   sodipodi:type="inkscape:persp3d"
   inkscape:vp_x="0 : 526.18109 : 1"
   inkscape:vp_y="0 : 1000 : 0"
   inkscape:vp_z="744.09448 : 526.18109 : 1"
   inkscape:persp3d-origin="372.04724 : 350.78739 : 1"
   id="perspective3781" /><linearGradient
   gradientUnits="userSpaceOnUse"
   y2="656.67908"
   x2="608.49701"
   y1="533.84344"
   x1="608.49701"
   id="linearGradient3571"
   xlink:href="#linearGradient3565"
   inkscape:collect="always" /><linearGradient
   gradientTransform="matrix(1.0651466,0,0,1.0651466,578.5521,109.09212)"
   gradientUnits="userSpaceOnUse"
   y2="-139.44724"
   x2="-268.33029"
   y1="293.09766"
   x1="-268.33029"
   id="linearGradient3488"
   xlink:href="#linearGradient3482"
   inkscape:collect="always" /><linearGradient
   y2="-160"
   x2="292.741"
   y1="319.90799"
   x1="292.741"
   gradientTransform="translate(0,100)"
   gradientUnits="userSpaceOnUse"
   id="linearGradient3467"
   xlink:href="#linearGradient3207"
   inkscape:collect="always" /><linearGradient
   gradientTransform="translate(0,100)"
   y2="-160"
   x2="292.741"
   y1="319.90799"
   x1="292.741"
   gradientUnits="userSpaceOnUse"
   id="linearGradient3459"
   xlink:href="#linearGradient3207"
   inkscape:collect="always" /><inkscape:perspective
   sodipodi:type="inkscape:persp3d"
   inkscape:vp_x="0 : 526.18109 : 1"
   inkscape:vp_y="0 : 1000 : 0"
   inkscape:vp_z="744.09448 : 526.18109 : 1"
   inkscape:persp3d-origin="372.04724 : 350.78739 : 1"
   id="perspective3448" /><linearGradient
   gradientUnits="userSpaceOnUse"
   y2="-160"
   x2="292.741"
   y1="319.90799"
   x1="292.741"
   id="linearGradient3213"
   xlink:href="#linearGradient3207"
   inkscape:collect="always" />
	
	
	
	
	
	
	
	
	
	
	
<inkscape:perspective
   id="perspective2616"
   inkscape:persp3d-origin="292.73651 : 218.796 : 1"
   inkscape:vp_z="585.47302 : 328.194 : 1"
   inkscape:vp_y="0 : 1000 : 0"
   inkscape:vp_x="0 : 328.194 : 1"
   sodipodi:type="inkscape:persp3d" /><linearGradient
   id="linearGradient3191"><stop
     id="stop3193"
     offset="0"
     style="stop-color:#3e4547;stop-opacity:1;" /><stop
     id="stop3195"
     offset="1"
     style="stop-color:#3e4547;stop-opacity:0;" /></linearGradient><linearGradient
   id="linearGradient3207"
   inkscape:collect="always"><stop
     id="stop3209"
     offset="0"
     style="stop-color:#283133;stop-opacity:1" /><stop
     id="stop3211"
     offset="1"
     style="stop-color:#8f9495;stop-opacity:1" /></linearGradient><linearGradient
   id="linearGradient3482"
   inkscape:collect="always"><stop
     id="stop3484"
     offset="0"
     style="stop-color:#222b2d;stop-opacity:1" /><stop
     id="stop3486"
     offset="1"
     style="stop-color:#8f9495;stop-opacity:1" /></linearGradient><linearGradient
   id="linearGradient3493"
   inkscape:collect="always"><stop
     id="stop3495"
     offset="0"
     style="stop-color:#707677;stop-opacity:1" /><stop
     id="stop3497"
     offset="1"
     style="stop-color:#2e3739;stop-opacity:1" /></linearGradient><linearGradient
   id="linearGradient3505"
   inkscape:collect="always"><stop
     id="stop3507"
     offset="0"
     style="stop-color:#0e61c1;stop-opacity:1" /><stop
     id="stop3509"
     offset="1"
     style="stop-color:#80b0e1;stop-opacity:1" /></linearGradient><linearGradient
   id="linearGradient3565"><stop
     id="stop3567"
     offset="0"
     style="stop-color:#777d7e;stop-opacity:1" /><stop
     style="stop-color:#323a3c;stop-opacity:1"
     offset="0.49315068"
     id="stop3583" /><stop
     id="stop3585"
     offset="0.50999999"
     style="stop-color:#222b2d;stop-opacity:1" /><stop
     id="stop3569"
     offset="1"
     style="stop-color:#222b2d;stop-opacity:0;" /></linearGradient><linearGradient
   id="linearGradient3613"><stop
     style="stop-color:#0058bd;stop-opacity:1"
     offset="0"
     id="stop3615" /><stop
     id="stop3617"
     offset="0.49315068"
     style="stop-color:#0058bd;stop-opacity:1" /><stop
     style="stop-color:#1868c3;stop-opacity:1"
     offset="0.50999999"
     id="stop3619" /><stop
     style="stop-color:#6a9ad7;stop-opacity:1"
     offset="1"
     id="stop3621" /></linearGradient>
	
	
	
	
	
	
	
	
	
	
	
<linearGradient
   inkscape:collect="always"
   xlink:href="#linearGradient3482"
   id="linearGradient2696"
   gradientUnits="userSpaceOnUse"
   gradientTransform="matrix(1.0651466,0,0,1.0651466,-33.92727,87.963755)"
   x1="-268.33652"
   y1="292.97763"
   x2="-268.33652"
   y2="-102.41982" /><linearGradient
   inkscape:collect="always"
   xlink:href="#linearGradient3613"
   id="linearGradient2712"
   gradientUnits="userSpaceOnUse"
   x1="73.253998"
   y1="653.48999"
   x2="73.253998"
   y2="535.28601"
   gradientTransform="translate(-612.47936,-21.128365)" /><linearGradient
   inkscape:collect="always"
   xlink:href="#linearGradient3493"
   id="linearGradient2715"
   gradientUnits="userSpaceOnUse"
   x1="217.771"
   y1="124.95"
   x2="217.771"
   y2="354.90799"
   gradientTransform="translate(-612.47936,-21.128365)" /><linearGradient
   inkscape:collect="always"
   xlink:href="#linearGradient3505"
   id="linearGradient2718"
   gradientUnits="userSpaceOnUse"
   x1="324.15704"
   y1="356.80353"
   x2="324.15704"
   y2="125.45686"
   gradientTransform="translate(-612.47936,-21.128365)" /><linearGradient
   inkscape:collect="always"
   xlink:href="#linearGradient3547"
   id="linearGradient3522"
   x1="277.88239"
   y1="535.23602"
   x2="277.88239"
   y2="657.29523"
   gradientUnits="userSpaceOnUse" /><linearGradient
   inkscape:collect="always"
   xlink:href="#linearGradient3565"
   id="linearGradient3524"
   gradientUnits="userSpaceOnUse"
   x1="608.49701"
   y1="533.84344"
   x2="608.49701"
   y2="656.67908" /><linearGradient
   inkscape:collect="always"
   xlink:href="#linearGradient3565"
   id="linearGradient3527"
   gradientUnits="userSpaceOnUse"
   x1="608.49701"
   y1="533.84344"
   x2="608.49701"
   y2="656.67908"
   gradientTransform="translate(-612.47936,-21.128365)" /><linearGradient
   inkscape:collect="always"
   xlink:href="#linearGradient3565"
   id="linearGradient3530"
   gradientUnits="userSpaceOnUse"
   x1="608.49701"
   y1="533.84344"
   x2="608.49701"
   y2="656.67908"
   gradientTransform="translate(-612.47936,-21.128365)" /><linearGradient
   inkscape:collect="always"
   xlink:href="#linearGradient3565"
   id="linearGradient3533"
   gradientUnits="userSpaceOnUse"
   x1="608.49701"
   y1="533.84344"
   x2="608.49701"
   y2="656.67908"
   gradientTransform="translate(-612.47936,-21.128365)" /><linearGradient
   inkscape:collect="always"
   xlink:href="#linearGradient3565"
   id="linearGradient3536"
   gradientUnits="userSpaceOnUse"
   x1="396.37399"
   y1="537.53497"
   x2="396.37399"
   y2="654.73798"
   gradientTransform="translate(-612.47936,-21.128365)" /><linearGradient
   inkscape:collect="always"
   xlink:href="#linearGradient3565"
   id="linearGradient3539"
   gradientUnits="userSpaceOnUse"
   x1="608.49701"
   y1="533.84344"
   x2="608.49701"
   y2="656.67908"
   gradientTransform="translate(-612.47936,-21.128365)" /><linearGradient
   inkscape:collect="always"
   xlink:href="#linearGradient3565"
   id="linearGradient3542"
   gradientUnits="userSpaceOnUse"
   x1="608.49701"
   y1="533.84344"
   x2="608.49701"
   y2="656.67908"
   gradientTransform="translate(-612.47936,-21.128365)" /><linearGradient
   inkscape:collect="always"
   xlink:href="#linearGradient3565"
   id="linearGradient3545"
   gradientUnits="userSpaceOnUse"
   x1="608.49701"
   y1="533.84344"
   x2="608.49701"
   y2="656.67908"
   gradientTransform="translate(-612.47936,-21.128365)" /><inkscape:perspective
   id="perspective28"
   inkscape:persp3d-origin="239.9045 : 218.796 : 1"
   inkscape:vp_z="479.80899 : 328.194 : 1"
   inkscape:vp_y="0 : 1000 : 0"
   inkscape:vp_x="0 : 328.194 : 1"
   sodipodi:type="inkscape:persp3d" /><linearGradient
   id="linearGradient3835"><stop
     id="stop3837"
     offset="0"
     style="stop-color:#ff6ae2;stop-opacity:1" /><stop
     style="stop-color:#ff16d4;stop-opacity:1"
     offset="0.49315068"
     id="stop3839" /><stop
     id="stop3841"
     offset="0.50999999"
     style="stop-color:#ff02d0;stop-opacity:1" /><stop
     id="stop3843"
     offset="1"
     style="stop-color:#ff00d0;stop-opacity:1" /></linearGradient>
	
	
	
	
	
	
	
	
	
	
	
	
<linearGradient
   inkscape:collect="always"
   xlink:href="#linearGradient3482"
   id="linearGradient2769"
   gradientUnits="userSpaceOnUse"
   gradientTransform="matrix(1.006734,0,0,1.006734,-85.7972,-1.4180434)"
   x1="502.15091"
   y1="419.75024"
   x2="502.15091"
   y2="1.4085541" /><linearGradient
   inkscape:collect="always"
   xlink:href="#linearGradient3835"
   id="linearGradient2788"
   gradientUnits="userSpaceOnUse"
   gradientTransform="translate(-334.48716,-6.3937527e-7)"
   x1="384.48117"
   y1="535.2818"
   x2="384.48117"
   y2="653.49103" /><linearGradient
   inkscape:collect="always"
   xlink:href="#linearGradient3547"
   id="linearGradient2800"
   gradientUnits="userSpaceOnUse"
   x1="531.8385"
   y1="535.20917"
   x2="531.8385"
   y2="656.414" /><linearGradient
   inkscape:collect="always"
   xlink:href="#linearGradient3547"
   id="linearGradient3588"
   x1="654.29333"
   y1="535.23602"
   x2="654.29333"
   y2="656.47644"
   gradientUnits="userSpaceOnUse" /><inkscape:perspective
   id="perspective3636"
   inkscape:persp3d-origin="372.04724 : 350.78739 : 1"
   inkscape:vp_z="744.09448 : 526.18109 : 1"
   inkscape:vp_y="0 : 1000 : 0"
   inkscape:vp_x="0 : 526.18109 : 1"
   sodipodi:type="inkscape:persp3d" /><linearGradient
   inkscape:collect="always"
   xlink:href="#linearGradient3642"
   id="linearGradient3648"
   x1="459.26608"
   y1="253.29901"
   x2="459.26608"
   y2="108.456"
   gradientUnits="userSpaceOnUse" /><linearGradient
   inkscape:collect="always"
   xlink:href="#linearGradient3650"
   id="linearGradient3656"
   x1="433.03259"
   y1="333.31702"
   x2="433.03259"
   y2="273.29099"
   gradientUnits="userSpaceOnUse" /></defs><sodipodi:namedview
   inkscape:window-height="827"
   inkscape:window-width="1440"
   inkscape:pageshadow="2"
   inkscape:pageopacity="0.0"
   guidetolerance="10.0"
   gridtolerance="10.0"
   objecttolerance="10.0"
   borderopacity="1.0"
   bordercolor="#666666"
   pagecolor="#ffffff"
   id="base"
   showgrid="false"
   showguides="true"
   inkscape:guide-bbox="true"
   inkscape:zoom="0.64802639"
   inkscape:cx="361.59896"
   inkscape:cy="328.194"
   inkscape:window-x="0"
   inkscape:window-y="0"
   inkscape:current-layer="Layer_1" />
<path
   style="fill:url(#linearGradient3648);fill-opacity:1"
   id="path7"
   d="M 531.794,223.311 C 531.744,216.864 530.095,211.016 526.746,205.868 L 526.746,205.818 L 438.281,117.353 L 438.231,117.353 C 438.231,117.353 438.231,117.353 438.181,117.303 C 436.232,115.354 434.183,113.704 431.934,112.405 C 431.234,112.005 430.535,111.655 429.785,111.305 C 425.887,109.456 421.589,108.506 416.941,108.456 C 416.391,108.456 415.841,108.456 415.292,108.506 C 413.743,108.556 412.193,108.756 410.744,109.056 C 407.695,109.656 404.896,110.705 402.297,112.204 C 401.398,112.654 400.548,113.204 399.698,113.853 L 399.698,113.903 L 310.884,202.018 L 310.934,202.018 C 310.884,202.018 310.884,202.018 310.884,202.068 C 308.885,204.017 307.236,206.067 305.936,208.316 C 305.486,209.016 305.136,209.715 304.836,210.465 C 302.937,214.363 301.987,218.662 301.938,223.31 C 301.988,231.557 304.937,238.604 310.834,244.452 C 316.682,250.3 323.729,253.249 331.975,253.299 C 340.272,253.249 347.369,250.3 353.217,244.452 C 353.267,244.402 353.267,244.402 353.317,244.402 L 416.942,180.827 L 484.315,248.25 C 489.513,251.599 495.361,253.248 501.808,253.298 C 510.054,253.248 517.152,250.349 522.999,244.502 C 528.846,238.655 531.794,231.558 531.794,223.311 L 531.794,223.311 z" /><path
   style="fill:url(#linearGradient3656);fill-opacity:1"
   id="path9"
   d="M 523.048,324.52 C 528.896,318.672 531.794,311.575 531.794,303.329 C 531.794,295.033 528.896,287.935 523.048,282.088 C 517.151,276.24 510.053,273.291 501.756,273.341 C 501.706,273.341 501.706,273.341 501.656,273.341 L 326.576,273.291 C 320.529,274.591 315.181,277.54 310.633,282.088 C 304.785,287.936 301.837,295.033 301.837,303.329 C 301.837,311.576 304.786,318.673 310.633,324.52 C 315.181,329.068 320.529,332.018 326.627,333.267 L 326.577,333.317 L 501.657,333.317 L 501.657,333.267 C 501.707,333.267 501.707,333.267 501.757,333.267 C 504.506,333.267 507.155,332.967 509.654,332.318 C 510.404,332.118 511.203,331.868 511.953,331.618 C 516.001,330.168 519.699,327.769 523.048,324.52 L 523.048,324.52 z" /><g
   id="g2802"
   style="fill-opacity:1;fill:url(#linearGradient3588)"><path
     d="M 15.401,535.236 C 11.153,535.236 7.504,536.735 4.505,539.784 C 2.156,542.133 0.656,544.832 0.007,547.98 L 0.007,638.094 C -0.043,639.493 0.157,640.843 0.507,642.143 C 0.607,642.542 0.707,642.943 0.857,643.342 C 1.607,645.441 2.806,647.34 4.505,649.039 C 7.504,652.038 11.152,653.538 15.401,653.538 C 19.65,653.538 23.298,652.038 26.347,649.039 C 29.346,645.99 30.845,642.342 30.845,638.094 L 30.845,547.98 C 30.195,544.832 28.696,542.132 26.347,539.784 C 23.298,536.735 19.65,535.236 15.401,535.236 L 15.401,535.236 z"
     id="path13"
     style="fill:url(#linearGradient3588);fill-opacity:1.0" /><path
     d="M 820.629,557.327 C 820.579,551.38 818.88,546.632 815.431,543.083 C 811.983,539.534 807.285,537.685 801.286,537.535 C 797.139,537.485 793.59,538.135 790.591,539.434 C 787.592,540.784 784.944,543.232 782.594,546.83 L 744.11,606.356 C 743.06,607.805 741.961,609.705 740.861,611.954 C 739.761,614.203 739.162,616.602 739.062,619.151 C 739.062,620.6 739.461,622.15 740.311,623.75 C 741.111,625.299 742.46,626.648 744.41,627.798 C 746.309,628.898 748.908,629.447 752.157,629.497 L 795.439,629.497 L 795.439,640.493 C 795.49,645.14 796.589,648.639 798.838,651.089 C 801.037,653.538 804.136,654.737 808.084,654.737 C 811.982,654.737 815.031,653.487 817.23,651.039 C 819.479,648.59 820.579,644.991 820.628,640.193 L 820.628,629.497 L 826.176,629.497 C 830.224,629.497 833.473,628.598 835.822,626.748 C 838.172,624.85 839.421,621.851 839.471,617.802 C 839.42,613.804 838.171,610.855 835.822,608.955 C 833.473,607.106 830.224,606.207 826.176,606.207 L 820.628,606.207 L 820.628,557.327 L 820.629,557.327 z M 795.089,564.924 L 795.439,564.924 L 795.439,606.208 L 771.149,606.208 L 795.089,564.924 L 795.089,564.924 z"
     id="path15"
     style="fill:url(#linearGradient3588);fill-opacity:1.0" /><path
     d="M 732.564,551.629 C 732.513,548.031 731.814,545.282 730.514,543.383 C 729.164,541.533 727.515,540.235 725.516,539.534 C 723.517,538.784 721.468,538.434 719.418,538.484 L 698.077,538.484 C 694.028,538.634 690.93,539.933 688.881,542.283 C 686.882,544.732 685.882,547.481 685.882,550.58 C 685.882,553.728 686.882,556.527 688.881,558.976 C 690.93,561.325 694.028,562.624 698.077,562.775 L 706.323,562.775 L 706.323,640.843 C 706.374,645.391 707.573,648.89 710.022,651.239 C 712.371,653.589 715.519,654.738 719.418,654.738 C 723.317,654.738 726.466,653.589 728.814,651.239 C 731.263,648.89 732.512,645.391 732.563,640.843 L 732.563,551.629 L 732.564,551.629 z"
     id="path17"
     style="fill:url(#linearGradient3588);fill-opacity:1.0" /><path
     d="M 612.662,541.033 C 610.213,543.383 608.963,546.881 608.913,551.479 L 608.913,606.208 L 608.613,606.208 L 565.031,551.63 C 562.181,547.981 559.883,545.132 558.034,543.083 C 556.184,541.033 554.435,539.584 552.786,538.734 C 551.137,537.884 549.187,537.485 546.938,537.535 C 543.04,537.535 539.89,538.684 537.542,541.033 C 535.093,543.383 533.894,546.881 533.844,551.479 L 533.844,640.843 C 533.894,645.391 535.093,648.89 537.542,651.239 C 539.891,653.589 543.04,654.738 546.938,654.738 C 550.836,654.738 553.985,653.589 556.334,651.239 C 558.783,648.89 560.033,645.391 560.083,640.843 L 560.083,586.114 L 560.383,586.114 L 603.966,640.642 C 606.765,644.29 609.064,647.14 610.912,649.189 C 612.762,651.238 614.512,652.688 616.211,653.538 C 617.859,654.388 619.809,654.787 622.059,654.737 C 625.957,654.737 629.106,653.588 631.455,651.238 C 633.904,648.889 635.154,645.39 635.204,640.842 L 635.204,551.478 C 635.154,546.879 633.904,543.381 631.455,541.032 C 629.106,538.683 625.958,537.534 622.059,537.534 C 618.16,537.534 615.011,538.685 612.662,541.033 L 612.662,541.033 z"
     id="path19"
     style="fill:url(#linearGradient3588);fill-opacity:1.0" /><path
     d="M 516.95,564.274 C 512.302,555.278 505.705,548.331 497.258,543.382 C 488.812,538.434 478.865,535.935 467.42,535.885 C 455.925,535.935 445.979,538.434 437.532,543.382 C 429.085,548.33 422.488,555.278 417.84,564.274 C 413.192,573.22 410.793,583.866 410.743,596.161 C 410.793,608.406 413.192,619.053 417.84,627.999 C 422.488,637.045 429.086,643.992 437.532,648.891 C 445.978,653.839 455.925,656.338 467.42,656.388 C 478.865,656.338 488.812,653.839 497.258,648.891 C 505.705,643.993 512.302,637.045 516.95,627.999 C 521.598,619.053 523.997,608.406 524.048,596.161 C 523.997,583.866 521.599,573.221 516.95,564.274 L 516.95,564.274 z M 495.908,596.161 C 495.959,602.359 494.959,608.157 492.96,613.604 C 491.011,619.052 487.962,623.45 483.814,626.899 C 479.566,630.248 474.118,631.997 467.42,632.147 C 460.673,631.997 455.225,630.248 450.977,626.899 C 446.829,623.45 443.78,619.052 441.831,613.604 C 439.882,608.157 438.883,602.359 438.883,596.161 C 438.883,589.914 439.882,584.116 441.831,578.669 C 443.78,573.221 446.829,568.822 450.977,565.374 C 455.225,562.025 460.673,560.276 467.42,560.176 C 474.117,560.277 479.566,562.026 483.814,565.374 C 487.962,568.822 491.011,573.221 492.96,578.669 C 494.959,584.116 495.959,589.914 495.908,596.161 L 495.908,596.161 z"
     id="path21"
     style="fill:url(#linearGradient3588);fill-opacity:1.0" /><path
     d="M 390.151,552.879 C 387.502,548.431 383.804,544.932 378.956,542.383 C 374.158,539.834 368.41,538.534 361.713,538.485 L 330.775,538.485 C 327.226,538.485 324.228,539.634 321.678,541.883 C 319.129,544.133 317.78,547.381 317.68,551.629 L 317.68,640.644 C 317.78,644.893 319.129,648.141 321.678,650.39 C 324.227,652.639 327.226,653.788 330.775,653.788 L 363.362,653.788 C 372.758,653.688 380.405,652.039 386.303,648.791 C 392.2,645.592 396.549,641.394 399.347,636.145 C 402.096,630.897 403.446,625.15 403.446,619.001 C 403.346,611.654 401.247,605.457 397.149,600.409 C 393.001,595.361 387.403,592.062 380.305,590.613 C 382.254,589.513 384.254,587.964 386.353,586.014 C 388.502,584.065 390.301,581.665 391.751,578.767 C 393.3,575.869 394.05,572.469 394.1,568.571 C 394.05,562.625 392.75,557.377 390.151,552.879 L 390.151,552.879 z M 367.86,572.571 C 367.81,576.119 366.76,578.818 364.711,580.668 C 362.612,582.417 359.663,583.316 355.915,583.316 L 343.92,583.316 L 343.92,561.825 L 355.915,561.825 C 359.714,561.825 362.663,562.724 364.711,564.524 C 366.811,566.373 367.86,569.022 367.86,572.571 L 367.86,572.571 z M 343.92,630.448 L 343.92,606.657 L 360.414,606.657 C 363.063,606.657 365.612,607.007 367.961,607.757 C 370.41,608.557 372.359,609.806 373.858,611.556 C 375.407,613.305 376.207,615.604 376.257,618.503 C 376.157,622.901 374.608,626 371.609,627.849 C 368.66,629.649 364.912,630.498 360.414,630.449 L 343.92,630.449 L 343.92,630.448 z"
     id="path23"
     style="fill:url(#linearGradient3588);fill-opacity:1.0" /><path
     d="M 303.136,555.428 C 299.988,550.08 295.539,545.982 289.791,543.033 C 284.043,540.084 277.196,538.534 269.349,538.484 L 237.812,538.484 C 234.263,538.484 231.265,539.633 228.716,541.882 C 226.167,544.132 224.818,547.38 224.717,551.628 L 224.717,640.843 C 224.767,645.391 225.967,648.89 228.415,651.239 C 230.764,653.589 233.913,654.738 237.811,654.738 C 241.709,654.738 244.858,653.589 247.207,651.239 C 249.656,648.89 250.906,645.391 250.956,640.843 L 250.956,607.607 L 251.256,607.607 L 283.543,648.241 C 284.993,650.29 286.592,651.889 288.341,652.989 C 290.14,654.138 292.689,654.738 295.938,654.738 C 299.287,654.637 301.936,653.888 303.935,652.439 C 305.884,650.989 307.284,649.29 308.133,647.39 C 309.033,645.492 309.432,643.892 309.383,642.542 C 309.383,640.443 308.883,638.493 307.934,636.694 C 307.084,634.945 305.735,633.145 303.935,631.247 L 281.094,606.656 C 289.441,605.007 295.938,601.358 300.686,595.661 C 305.434,590.013 307.833,582.916 307.933,574.319 C 307.884,567.073 306.285,560.775 303.136,555.428 L 303.136,555.428 z M 277.747,566.124 C 280.296,568.272 281.595,571.321 281.695,575.27 C 281.695,578.969 280.546,582.018 278.246,584.466 C 275.897,586.816 272.599,588.065 268.25,588.165 L 250.957,588.165 L 250.957,562.775 L 268.25,562.775 C 272.099,562.825 275.297,563.975 277.747,566.124 L 277.747,566.124 z"
     id="path25"
     style="fill:url(#linearGradient3588);fill-opacity:1.0" /><path
     d="M 177.886,539.234 C 175.187,537.085 171.639,535.935 167.191,535.885 C 162.893,535.935 159.394,537.084 156.745,539.234 C 154.097,541.383 151.897,544.282 150.198,547.831 C 148.448,551.43 146.849,555.378 145.4,559.676 L 120.06,627.849 C 118.96,630.848 118.111,633.347 117.561,635.296 C 117.011,637.195 116.662,638.845 116.461,640.194 C 116.311,641.493 116.211,642.793 116.211,644.042 C 116.261,647.291 117.411,649.89 119.76,651.789 C 122.009,653.688 125.058,654.688 128.856,654.738 C 133.004,654.637 136.053,653.438 138.002,651.09 C 139.951,648.74 141.501,645.692 142.6,641.944 L 145.849,631.548 L 188.882,631.548 L 192.131,641.944 C 193.231,645.692 194.73,648.741 196.679,651.09 C 198.628,653.439 201.727,654.638 205.875,654.738 C 209.674,654.688 212.723,653.688 214.972,651.789 C 217.271,649.89 218.471,647.291 218.52,644.042 C 218.52,642.793 218.42,641.493 218.27,640.194 C 218.07,638.844 217.721,637.195 217.171,635.296 C 216.621,633.347 215.772,630.848 214.622,627.849 L 189.332,559.676 C 187.882,555.378 186.283,551.43 184.534,547.831 C 182.785,544.282 180.585,541.384 177.886,539.234 L 177.886,539.234 z M 167.69,565.074 L 167.99,565.074 L 181.135,607.306 L 153.596,607.306 L 167.69,565.074 L 167.69,565.074 z"
     id="path27"
     style="fill:url(#linearGradient3588);fill-opacity:1.0" /></g>
<path
   style="fill:url(#linearGradient2788);fill-opacity:1"
   id="path2738"
   d="M 107.917,559.727 C 109.616,557.028 110.466,554.029 110.516,550.73 C 110.466,546.482 108.967,542.834 105.968,539.834 C 102.969,536.785 99.321,535.286 95.072,535.286 C 91.723,535.286 88.724,536.136 86.075,537.885 L 40.543,583.417 L 40.593,583.417 L 40.543,583.417 C 39.494,584.416 38.644,585.516 37.994,586.665 C 37.794,587.016 37.594,587.365 37.444,587.765 C 36.494,589.764 35.994,591.963 35.994,594.363 C 35.994,594.613 35.994,594.913 35.994,595.213 C 36.044,596.013 36.144,596.813 36.294,597.562 C 36.594,599.112 37.144,600.561 37.943,601.911 C 38.193,602.361 38.443,602.81 38.743,603.261 L 38.793,603.261 L 84.125,648.943 L 84.125,648.893 L 84.125,648.943 C 85.125,649.943 86.224,650.793 87.374,651.492 C 87.724,651.692 88.074,651.892 88.473,652.042 C 90.473,652.992 92.672,653.491 95.071,653.491 C 99.319,653.491 102.918,651.992 105.967,648.993 C 108.966,645.944 110.465,642.346 110.515,638.097 C 110.465,633.849 108.966,630.201 105.967,627.152 L 105.917,627.102 L 73.23,594.365 L 107.917,559.727 L 107.917,559.727 z" /><path
   style="fill:#222b2d;fill-opacity:1"
   id="path2664"
   d="M 659.6392,239.954 C 659.6392,173.681 636.1982,117.103 589.3672,70.271999 C 542.5362,23.440999 485.9582,-1.9968768e-07 419.7352,-1.9968768e-07 C 353.4612,-1.9968768e-07 296.8842,23.440999 250.0532,70.271999 C 203.2212,117.103 179.8312,173.681 179.8312,239.954 C 179.8312,306.178 203.2222,362.755 250.0532,409.586 C 296.8842,456.418 353.4622,479.858 419.7352,479.908 C 485.9582,479.858 542.5352,456.417 589.3662,409.586 C 636.1972,362.755 659.6392,306.178 659.6392,239.954 L 659.6392,239.954 z M 419.7352,59.975999 C 469.3642,59.975999 511.7982,77.518999 546.9342,112.655 C 582.0702,147.791 599.6632,190.224 599.6632,239.904 C 599.6632,289.584 582.0702,332.017 546.9342,367.153 C 511.7982,402.289 469.3652,419.882 419.7352,419.882 C 370.0552,419.882 327.6222,402.289 292.4862,367.153 C 257.3502,332.017 239.7572,289.584 239.8072,239.904 C 239.7572,190.224 257.3502,147.791 292.4862,112.655 C 327.6212,77.518999 370.0552,59.975999 419.7352,59.975999 L 419.7352,59.975999 z" /><g
   id="g2756"
   inkscape:label="New"
   transform="translate(-191.48516,-21.128366)" /><path
   style="fill:url(#linearGradient2769);fill-opacity:1;stroke:none;stroke-width:1.00677967;stroke-miterlimit:4;stroke-dasharray:none;stroke-dashoffset:0;stroke-opacity:1"
   d="M 419.74419,-1.9968768e-07 C 417.92414,-1.9968768e-07 416.11211,0.027142953 414.30669,0.062499801 C 300.5742,2.9471382 209.15044,96.170161 209.15044,210.59375 C 209.15044,326.83358 303.50434,421.15625 419.74419,421.15625 C 535.98402,421.15625 630.30668,326.83358 630.30669,210.59375 C 630.30669,96.170162 538.91417,2.9471382 425.18169,0.062499801 C 423.37641,0.016711889 421.56044,-1.9968768e-07 419.74419,-1.9968768e-07 z M 419.74419,59.968749 C 469.3732,59.968747 511.79569,77.520249 546.93169,112.65625 C 582.0677,147.79225 599.65044,190.22625 599.65044,239.90625 C 599.65045,289.58624 582.06769,332.02025 546.93169,367.15625 C 511.7957,402.29224 469.37419,419.875 419.74419,419.875 C 370.0642,419.87501 327.63019,402.29225 292.49419,367.15625 C 257.3582,332.02024 239.75669,289.58625 239.80669,239.90625 C 239.75669,190.22624 257.35819,147.79225 292.49419,112.65625 C 327.6292,77.52025 370.06419,59.968749 419.74419,59.968749 z"
   id="path2685" /><g
   transform="translate(-811.48517,-21.128366)"
   inkscape:label="New"
   id="g2854" /></svg>