<?xml version="1.0" encoding="UTF-8" standalone="no"?>
<!-- Generator: Adobe Illustrator 12.0.0, SVG Export Plug-In . SVG Version: 6.00 Build 51448)  -->
<svg
   xmlns:dc="http://purl.org/dc/elements/1.1/"
   xmlns:cc="http://creativecommons.org/ns#"
   xmlns:rdf="http://www.w3.org/1999/02/22-rdf-syntax-ns#"
   xmlns:svg="http://www.w3.org/2000/svg"
   xmlns="http://www.w3.org/2000/svg"
   xmlns:xlink="http://www.w3.org/1999/xlink"
   xmlns:sodipodi="http://sodipodi.sourceforge.net/DTD/sodipodi-0.dtd"
   xmlns:inkscape="http://www.inkscape.org/namespaces/inkscape"
   version="1.1"
   id="Layer_1"
   width="839.472"
   height="656.388"
   viewBox="0 0 839.472 656.388"
   overflow="visible"
   enable-background="new 0 0 839.472 656.388"
   xml:space="preserve"
   sodipodi:version="0.32"
   inkscape:version="0.46"
   sodipodi:docname="karbon14.svg"
   inkscape:output_extension="org.inkscape.output.svg.inkscape"><metadata
   id="metadata32"><rdf:RDF><cc:Work
       rdf:about=""><dc:format>image/svg+xml</dc:format><dc:type
         rdf:resource="http://purl.org/dc/dcmitype/StillImage" /></cc:Work></rdf:RDF></metadata><defs
   id="defs30"><inkscape:perspective
   sodipodi:type="inkscape:persp3d"
   inkscape:vp_x="0 : 328.194 : 1"
   inkscape:vp_y="0 : 1000 : 0"
   inkscape:vp_z="839.47198 : 328.194 : 1"
   inkscape:persp3d-origin="419.73599 : 218.796 : 1"
   id="perspective34" /><linearGradient
   gradientUnits="userSpaceOnUse"
   y2="534.97424"
   x2="232.97664"
   y1="656.388"
   x1="232.97664"
   id="linearGradient3359"
   xlink:href="#linearGradient3353"
   inkscape:collect="always" />
	
	
	
	
	
	
	
	
	
	
	
<inkscape:perspective
   sodipodi:type="inkscape:persp3d"
   inkscape:vp_x="0 : 526.18109 : 1"
   inkscape:vp_y="0 : 1000 : 0"
   inkscape:vp_z="744.09448 : 526.18109 : 1"
   inkscape:persp3d-origin="372.04724 : 350.78739 : 1"
   id="perspective2469" /><inkscape:perspective
   id="perspective32"
   inkscape:persp3d-origin="292.73651 : 218.796 : 1"
   inkscape:vp_z="585.47302 : 328.194 : 1"
   inkscape:vp_y="0 : 1000 : 0"
   inkscape:vp_x="0 : 328.194 : 1"
   sodipodi:type="inkscape:persp3d" /><linearGradient
   id="linearGradient3292"><stop
     id="stop3294"
     offset="0"
     style="stop-color:#8f9495;stop-opacity:1" /><stop
     id="stop3296"
     offset="1"
     style="stop-color:#222b2d;stop-opacity:1" /></linearGradient><linearGradient
   id="linearGradient3314"><stop
     id="stop3316"
     offset="0"
     style="stop-color:#ff2fd8;stop-opacity:1" /><stop
     id="stop3318"
     offset="1"
     style="stop-color:#ff62e2;stop-opacity:1" /></linearGradient><linearGradient
   id="linearGradient3353"><stop
     id="stop3355"
     offset="0"
     style="stop-color:#20292b;stop-opacity:1" /><stop
     style="stop-color:#20292b;stop-opacity:1"
     offset="0.5"
     id="stop3363" /><stop
     style="stop-color:#31393b;stop-opacity:1"
     offset="0.50999999"
     id="stop3361" /><stop
     id="stop3357"
     offset="1"
     style="stop-color:#787d7f;stop-opacity:1" /></linearGradient><linearGradient
   id="linearGradient3367"><stop
     style="stop-color:#ff00d0;stop-opacity:1"
     offset="0"
     id="stop3369" /><stop
     id="stop3371"
     offset="0.5"
     style="stop-color:#ff00d0;stop-opacity:1" /><stop
     id="stop3373"
     offset="0.50999999"
     style="stop-color:#ff00d0;stop-opacity:1" /><stop
     style="stop-color:#ff6ae2;stop-opacity:1"
     offset="1"
     id="stop3375" /></linearGradient><linearGradient
   inkscape:collect="always"
   xlink:href="#linearGradient3367"
   id="linearGradient2607"
   gradientUnits="userSpaceOnUse"
   x1="68.389832"
   y1="653.48999"
   x2="68.389832"
   y2="535.18597"
   gradientTransform="translate(895.48654,4.2581206)" /><linearGradient
   inkscape:collect="always"
   xlink:href="#linearGradient3314"
   id="linearGradient2613"
   gradientUnits="userSpaceOnUse"
   x1="317.72427"
   y1="353.60373"
   x2="317.72427"
   y2="125.0482"
   gradientTransform="translate(895.48654,4.2581206)" />
	
	
	
	
	
	
	
	
	
	
	
	
<linearGradient
   inkscape:collect="always"
   xlink:href="#linearGradient3292"
   id="linearGradient2659"
   gradientUnits="userSpaceOnUse"
   gradientTransform="translate(126.99899,1.1e-6)"
   x1="292.75"
   y1="-2.8303274e-14"
   x2="292.75"
   y2="420.03125" /><linearGradient
   inkscape:collect="always"
   xlink:href="#linearGradient3292"
   id="linearGradient2661"
   gradientUnits="userSpaceOnUse"
   gradientTransform="translate(126.999,1e-6)"
   x1="292.75"
   y1="7.1270186e-08"
   x2="292.75"
   y2="420.03125" /><linearGradient
   inkscape:collect="always"
   xlink:href="#linearGradient3353"
   id="linearGradient2674"
   x1="520.03998"
   y1="656.388"
   x2="520.03998"
   y2="535.07886"
   gradientUnits="userSpaceOnUse" /><linearGradient
   inkscape:collect="always"
   xlink:href="#linearGradient3292"
   id="linearGradient2676"
   x1="416.81549"
   y1="1.0499649"
   x2="416.81549"
   y2="481.16464"
   gradientUnits="userSpaceOnUse" /><inkscape:perspective
   id="perspective2783"
   inkscape:persp3d-origin="372.04724 : 350.78739 : 1"
   inkscape:vp_z="744.09448 : 526.18109 : 1"
   inkscape:vp_y="0 : 1000 : 0"
   inkscape:vp_x="0 : 526.18109 : 1"
   sodipodi:type="inkscape:persp3d" /><linearGradient
   inkscape:collect="always"
   xlink:href="#linearGradient3367"
   id="linearGradient3559"
   x1="77.234322"
   y1="653.55798"
   x2="77.234322"
   y2="535.28601"
   gradientUnits="userSpaceOnUse" /><linearGradient
   inkscape:collect="always"
   xlink:href="#linearGradient3314"
   id="linearGradient3561"
   x1="402.24255"
   y1="253.299"
   x2="402.24255"
   y2="108.45598"
   gradientUnits="userSpaceOnUse" /></defs><sodipodi:namedview
   inkscape:window-height="827"
   inkscape:window-width="1440"
   inkscape:pageshadow="2"
   inkscape:pageopacity="0.0"
   guidetolerance="10.0"
   gridtolerance="10.0"
   objecttolerance="10.0"
   borderopacity="1.0"
   bordercolor="#666666"
   pagecolor="#ffffff"
   id="base"
   showgrid="false"
   inkscape:zoom="0.91644771"
   inkscape:cx="472.20112"
   inkscape:cy="330.89977"
   inkscape:window-x="0"
   inkscape:window-y="0"
   inkscape:current-layer="Layer_1" />
<path
   style="fill:url(#linearGradient3561)"
   id="path7"
   d="M 531.794,223.311 C 531.744,216.864 530.095,211.016 526.746,205.868 L 526.746,205.818 L 438.281,117.353 L 438.231,117.353 C 438.231,117.353 438.231,117.353 438.181,117.303 C 436.232,115.354 434.183,113.704 431.934,112.405 C 431.234,112.005 430.535,111.655 429.785,111.305 C 425.887,109.456 421.589,108.506 416.941,108.456 C 416.391,108.456 415.841,108.456 415.292,108.506 C 413.743,108.556 412.193,108.756 410.744,109.056 C 407.695,109.656 404.896,110.705 402.297,112.204 C 401.398,112.654 400.548,113.204 399.698,113.853 L 399.698,113.903 L 310.884,202.018 L 310.934,202.018 C 310.884,202.018 310.884,202.018 310.884,202.068 C 308.885,204.017 307.236,206.067 305.936,208.316 C 305.486,209.016 305.136,209.715 304.836,210.465 C 302.937,214.363 301.987,218.662 301.938,223.31 C 301.988,231.557 304.937,238.604 310.834,244.452 C 316.682,250.3 323.729,253.249 331.975,253.299 C 340.272,253.249 347.369,250.3 353.217,244.452 C 353.267,244.402 353.267,244.402 353.317,244.402 L 416.942,180.827 L 484.315,248.25 C 489.513,251.599 495.361,253.248 501.808,253.298 C 510.054,253.248 517.152,250.349 522.999,244.502 C 528.846,238.655 531.794,231.558 531.794,223.311 L 531.794,223.311 z" /><path
   style="fill:url(#linearGradient2676)"
   id="path9"
   d="M 523.048,324.52 C 528.896,318.672 531.794,311.575 531.794,303.329 C 531.794,295.033 528.896,287.935 523.048,282.088 C 517.151,276.24 510.053,273.291 501.756,273.341 C 501.706,273.341 501.706,273.341 501.656,273.341 L 326.576,273.291 C 320.529,274.591 315.181,277.54 310.633,282.088 C 304.785,287.936 301.837,295.033 301.837,303.329 C 301.837,311.576 304.786,318.673 310.633,324.52 C 315.181,329.068 320.529,332.018 326.627,333.267 L 326.577,333.317 L 501.657,333.317 L 501.657,333.267 C 501.707,333.267 501.707,333.267 501.757,333.267 C 504.506,333.267 507.155,332.967 509.654,332.318 C 510.404,332.118 511.203,331.868 511.953,331.618 C 516.001,330.168 519.699,327.769 523.048,324.52 L 523.048,324.52 z" /><path
   style="fill:url(#linearGradient3559)"
   id="path11"
   d="M 107.915,559.727 C 109.614,557.028 110.464,554.029 110.514,550.73 C 110.464,546.482 108.965,542.834 105.966,539.834 C 102.967,536.785 99.319,535.286 95.07,535.286 C 91.721,535.286 88.723,536.136 86.074,537.885 L 40.542,583.417 L 40.592,583.417 L 40.542,583.417 C 39.492,584.416 38.643,585.516 37.993,586.665 C 37.793,587.016 37.594,587.365 37.443,587.765 C 36.494,589.764 35.994,591.963 35.994,594.363 C 35.994,594.613 35.994,594.913 35.994,595.213 C 36.044,596.013 36.144,596.813 36.294,597.562 C 36.594,599.112 37.144,600.561 37.943,601.911 C 38.193,602.361 38.443,602.81 38.743,603.261 L 38.793,603.261 L 84.125,648.943 L 84.125,648.893 L 84.125,648.943 C 85.125,649.943 86.224,650.793 87.374,651.492 C 87.724,651.692 88.074,651.892 88.474,652.042 C 90.473,652.992 92.672,653.491 95.071,653.491 C 99.32,653.491 102.918,651.992 105.967,648.993 C 108.966,645.944 110.465,642.346 110.515,638.097 C 110.465,633.849 108.966,630.201 105.967,627.152 L 105.917,627.102 L 73.23,594.365 L 107.915,559.727 L 107.915,559.727 z" /><g
   id="g2664"
   style="fill:url(#linearGradient2674)"><path
     d="M 15.401,535.236 C 11.153,535.236 7.504,536.735 4.505,539.784 C 2.156,542.133 0.656,544.832 0.007,547.98 L 0.007,638.094 C -0.043,639.493 0.157,640.843 0.507,642.143 C 0.607,642.542 0.707,642.943 0.857,643.342 C 1.607,645.441 2.806,647.34 4.505,649.039 C 7.504,652.038 11.152,653.538 15.401,653.538 C 19.65,653.538 23.298,652.038 26.347,649.039 C 29.346,645.99 30.845,642.342 30.845,638.094 L 30.845,547.98 C 30.195,544.832 28.696,542.132 26.347,539.784 C 23.298,536.735 19.65,535.236 15.401,535.236 L 15.401,535.236 z"
     id="path13"
     style="fill:url(#linearGradient2674)" /><path
     d="M 820.629,557.327 C 820.579,551.38 818.88,546.632 815.431,543.083 C 811.983,539.534 807.285,537.685 801.286,537.535 C 797.139,537.485 793.59,538.135 790.591,539.434 C 787.592,540.784 784.944,543.232 782.594,546.83 L 744.11,606.356 C 743.06,607.805 741.961,609.705 740.861,611.954 C 739.761,614.203 739.162,616.602 739.062,619.151 C 739.062,620.6 739.461,622.15 740.311,623.75 C 741.111,625.299 742.46,626.648 744.41,627.798 C 746.309,628.898 748.908,629.447 752.157,629.497 L 795.439,629.497 L 795.439,640.493 C 795.49,645.14 796.589,648.639 798.838,651.089 C 801.037,653.538 804.136,654.737 808.084,654.737 C 811.982,654.737 815.031,653.487 817.23,651.039 C 819.479,648.59 820.579,644.991 820.628,640.193 L 820.628,629.497 L 826.176,629.497 C 830.224,629.497 833.473,628.598 835.822,626.748 C 838.172,624.85 839.421,621.851 839.471,617.802 C 839.42,613.804 838.171,610.855 835.822,608.955 C 833.473,607.106 830.224,606.207 826.176,606.207 L 820.628,606.207 L 820.628,557.327 L 820.629,557.327 z M 795.089,564.924 L 795.439,564.924 L 795.439,606.208 L 771.149,606.208 L 795.089,564.924 L 795.089,564.924 z"
     id="path15"
     style="fill:url(#linearGradient2674)" /><path
     d="M 732.564,551.629 C 732.513,548.031 731.814,545.282 730.514,543.383 C 729.164,541.533 727.515,540.235 725.516,539.534 C 723.517,538.784 721.468,538.434 719.418,538.484 L 698.077,538.484 C 694.028,538.634 690.93,539.933 688.881,542.283 C 686.882,544.732 685.882,547.481 685.882,550.58 C 685.882,553.728 686.882,556.527 688.881,558.976 C 690.93,561.325 694.028,562.624 698.077,562.775 L 706.323,562.775 L 706.323,640.843 C 706.374,645.391 707.573,648.89 710.022,651.239 C 712.371,653.589 715.519,654.738 719.418,654.738 C 723.317,654.738 726.466,653.589 728.814,651.239 C 731.263,648.89 732.512,645.391 732.563,640.843 L 732.563,551.629 L 732.564,551.629 z"
     id="path17"
     style="fill:url(#linearGradient2674)" /><path
     d="M 612.662,541.033 C 610.213,543.383 608.963,546.881 608.913,551.479 L 608.913,606.208 L 608.613,606.208 L 565.031,551.63 C 562.181,547.981 559.883,545.132 558.034,543.083 C 556.184,541.033 554.435,539.584 552.786,538.734 C 551.137,537.884 549.187,537.485 546.938,537.535 C 543.04,537.535 539.89,538.684 537.542,541.033 C 535.093,543.383 533.894,546.881 533.844,551.479 L 533.844,640.843 C 533.894,645.391 535.093,648.89 537.542,651.239 C 539.891,653.589 543.04,654.738 546.938,654.738 C 550.836,654.738 553.985,653.589 556.334,651.239 C 558.783,648.89 560.033,645.391 560.083,640.843 L 560.083,586.114 L 560.383,586.114 L 603.966,640.642 C 606.765,644.29 609.064,647.14 610.912,649.189 C 612.762,651.238 614.512,652.688 616.211,653.538 C 617.859,654.388 619.809,654.787 622.059,654.737 C 625.957,654.737 629.106,653.588 631.455,651.238 C 633.904,648.889 635.154,645.39 635.204,640.842 L 635.204,551.478 C 635.154,546.879 633.904,543.381 631.455,541.032 C 629.106,538.683 625.958,537.534 622.059,537.534 C 618.16,537.534 615.011,538.685 612.662,541.033 L 612.662,541.033 z"
     id="path19"
     style="fill:url(#linearGradient2674)" /><path
     d="M 516.95,564.274 C 512.302,555.278 505.705,548.331 497.258,543.382 C 488.812,538.434 478.865,535.935 467.42,535.885 C 455.925,535.935 445.979,538.434 437.532,543.382 C 429.085,548.33 422.488,555.278 417.84,564.274 C 413.192,573.22 410.793,583.866 410.743,596.161 C 410.793,608.406 413.192,619.053 417.84,627.999 C 422.488,637.045 429.086,643.992 437.532,648.891 C 445.978,653.839 455.925,656.338 467.42,656.388 C 478.865,656.338 488.812,653.839 497.258,648.891 C 505.705,643.993 512.302,637.045 516.95,627.999 C 521.598,619.053 523.997,608.406 524.048,596.161 C 523.997,583.866 521.599,573.221 516.95,564.274 L 516.95,564.274 z M 495.908,596.161 C 495.959,602.359 494.959,608.157 492.96,613.604 C 491.011,619.052 487.962,623.45 483.814,626.899 C 479.566,630.248 474.118,631.997 467.42,632.147 C 460.673,631.997 455.225,630.248 450.977,626.899 C 446.829,623.45 443.78,619.052 441.831,613.604 C 439.882,608.157 438.883,602.359 438.883,596.161 C 438.883,589.914 439.882,584.116 441.831,578.669 C 443.78,573.221 446.829,568.822 450.977,565.374 C 455.225,562.025 460.673,560.276 467.42,560.176 C 474.117,560.277 479.566,562.026 483.814,565.374 C 487.962,568.822 491.011,573.221 492.96,578.669 C 494.959,584.116 495.959,589.914 495.908,596.161 L 495.908,596.161 z"
     id="path21"
     style="fill:url(#linearGradient2674)" /><path
     d="M 390.151,552.879 C 387.502,548.431 383.804,544.932 378.956,542.383 C 374.158,539.834 368.41,538.534 361.713,538.485 L 330.775,538.485 C 327.226,538.485 324.228,539.634 321.678,541.883 C 319.129,544.133 317.78,547.381 317.68,551.629 L 317.68,640.644 C 317.78,644.893 319.129,648.141 321.678,650.39 C 324.227,652.639 327.226,653.788 330.775,653.788 L 363.362,653.788 C 372.758,653.688 380.405,652.039 386.303,648.791 C 392.2,645.592 396.549,641.394 399.347,636.145 C 402.096,630.897 403.446,625.15 403.446,619.001 C 403.346,611.654 401.247,605.457 397.149,600.409 C 393.001,595.361 387.403,592.062 380.305,590.613 C 382.254,589.513 384.254,587.964 386.353,586.014 C 388.502,584.065 390.301,581.665 391.751,578.767 C 393.3,575.869 394.05,572.469 394.1,568.571 C 394.05,562.625 392.75,557.377 390.151,552.879 L 390.151,552.879 z M 367.86,572.571 C 367.81,576.119 366.76,578.818 364.711,580.668 C 362.612,582.417 359.663,583.316 355.915,583.316 L 343.92,583.316 L 343.92,561.825 L 355.915,561.825 C 359.714,561.825 362.663,562.724 364.711,564.524 C 366.811,566.373 367.86,569.022 367.86,572.571 L 367.86,572.571 z M 343.92,630.448 L 343.92,606.657 L 360.414,606.657 C 363.063,606.657 365.612,607.007 367.961,607.757 C 370.41,608.557 372.359,609.806 373.858,611.556 C 375.407,613.305 376.207,615.604 376.257,618.503 C 376.157,622.901 374.608,626 371.609,627.849 C 368.66,629.649 364.912,630.498 360.414,630.449 L 343.92,630.449 L 343.92,630.448 z"
     id="path23"
     style="fill:url(#linearGradient2674)" /><path
     d="M 303.136,555.428 C 299.988,550.08 295.539,545.982 289.791,543.033 C 284.043,540.084 277.196,538.534 269.349,538.484 L 237.812,538.484 C 234.263,538.484 231.265,539.633 228.716,541.882 C 226.167,544.132 224.818,547.38 224.717,551.628 L 224.717,640.843 C 224.767,645.391 225.967,648.89 228.415,651.239 C 230.764,653.589 233.913,654.738 237.811,654.738 C 241.709,654.738 244.858,653.589 247.207,651.239 C 249.656,648.89 250.906,645.391 250.956,640.843 L 250.956,607.607 L 251.256,607.607 L 283.543,648.241 C 284.993,650.29 286.592,651.889 288.341,652.989 C 290.14,654.138 292.689,654.738 295.938,654.738 C 299.287,654.637 301.936,653.888 303.935,652.439 C 305.884,650.989 307.284,649.29 308.133,647.39 C 309.033,645.492 309.432,643.892 309.383,642.542 C 309.383,640.443 308.883,638.493 307.934,636.694 C 307.084,634.945 305.735,633.145 303.935,631.247 L 281.094,606.656 C 289.441,605.007 295.938,601.358 300.686,595.661 C 305.434,590.013 307.833,582.916 307.933,574.319 C 307.884,567.073 306.285,560.775 303.136,555.428 L 303.136,555.428 z M 277.747,566.124 C 280.296,568.272 281.595,571.321 281.695,575.27 C 281.695,578.969 280.546,582.018 278.246,584.466 C 275.897,586.816 272.599,588.065 268.25,588.165 L 250.957,588.165 L 250.957,562.775 L 268.25,562.775 C 272.099,562.825 275.297,563.975 277.747,566.124 L 277.747,566.124 z"
     id="path25"
     style="fill:url(#linearGradient2674)" /><path
     d="M 177.886,539.234 C 175.187,537.085 171.639,535.935 167.191,535.885 C 162.893,535.935 159.394,537.084 156.745,539.234 C 154.097,541.383 151.897,544.282 150.198,547.831 C 148.448,551.43 146.849,555.378 145.4,559.676 L 120.06,627.849 C 118.96,630.848 118.111,633.347 117.561,635.296 C 117.011,637.195 116.662,638.845 116.461,640.194 C 116.311,641.493 116.211,642.793 116.211,644.042 C 116.261,647.291 117.411,649.89 119.76,651.789 C 122.009,653.688 125.058,654.688 128.856,654.738 C 133.004,654.637 136.053,653.438 138.002,651.09 C 139.951,648.74 141.501,645.692 142.6,641.944 L 145.849,631.548 L 188.882,631.548 L 192.131,641.944 C 193.231,645.692 194.73,648.741 196.679,651.09 C 198.628,653.439 201.727,654.638 205.875,654.738 C 209.674,654.688 212.723,653.688 214.972,651.789 C 217.271,649.89 218.471,647.291 218.52,644.042 C 218.52,642.793 218.42,641.493 218.27,640.194 C 218.07,638.844 217.721,637.195 217.171,635.296 C 216.621,633.347 215.772,630.848 214.622,627.849 L 189.332,559.676 C 187.882,555.378 186.283,551.43 184.534,547.831 C 182.785,544.282 180.585,541.384 177.886,539.234 L 177.886,539.234 z M 167.69,565.074 L 167.99,565.074 L 181.135,607.306 L 153.596,607.306 L 167.69,565.074 L 167.69,565.074 z"
     id="path27"
     style="fill:url(#linearGradient2674)" /></g>
<path
   style="fill:#222b2d;fill-opacity:1"
   id="path2555"
   d="M 659.64396,239.954 C 659.64396,173.681 636.20296,117.103 589.37196,70.272001 C 542.54096,23.441001 485.96296,1e-06 419.73996,1e-06 C 353.46596,1e-06 296.88896,23.441001 250.05796,70.272001 C 203.226,117.103 179.836,173.681 179.836,239.954 C 179.836,306.178 203.227,362.755 250.05796,409.586 C 296.88896,456.418 353.46696,479.858 419.73996,479.908 C 485.96296,479.858 542.53996,456.417 589.37096,409.586 C 636.20196,362.755 659.64396,306.178 659.64396,239.954 L 659.64396,239.954 z M 419.73996,59.976001 C 469.36896,59.976001 511.80296,77.519001 546.93896,112.655 C 582.07496,147.791 599.66796,190.224 599.66796,239.904 C 599.66796,289.584 582.07496,332.017 546.93896,367.153 C 511.80296,402.289 469.36996,419.882 419.73996,419.882 C 370.05996,419.882 327.62696,402.289 292.49096,367.153 C 257.35496,332.017 239.76196,289.584 239.81196,239.904 C 239.76196,190.224 257.35496,147.791 292.49096,112.655 C 327.62596,77.519001 370.05996,59.976001 419.73996,59.976001 L 419.73996,59.976001 z" /><path
   style="fill:url(#linearGradient2659);fill-opacity:1;stroke:url(#linearGradient2661);stroke-width:0.5;stroke-miterlimit:4;stroke-dasharray:none;stroke-dashoffset:0;stroke-opacity:1"
   d="M 419.74896,1e-06 C 407.32266,1e-06 395.24326,0.8208919 383.49896,2.468751 C 383.15566,2.5288754 382.81046,2.5632013 382.46776,2.625001 C 284.50326,20.290473 210.09274,106.30253 210.09274,209.65625 C 210.09274,325.77633 304.01766,420.03125 419.74896,420.03125 C 535.48026,420.03125 629.40526,325.77633 629.40526,209.65625 C 629.40526,106.34766 555.05636,20.373672 457.15526,2.656251 C 457.05016,2.6409634 456.94796,2.608906 456.84276,2.593751 C 444.82976,0.8627845 432.47506,1e-06 419.74896,1e-06 z M 419.74896,59.968751 C 469.37796,59.968749 511.80046,77.520251 546.93646,112.65625 C 582.07246,147.79225 599.65526,190.22625 599.65526,239.90625 C 599.65526,289.58624 582.07246,332.02025 546.93646,367.15625 C 511.80046,402.29224 469.37896,419.875 419.74896,419.875 C 370.06896,419.87501 327.63496,402.29225 292.49896,367.15625 C 257.36296,332.02024 239.76146,289.58625 239.81146,239.90625 C 239.76146,190.22624 257.36296,147.79225 292.49896,112.65625 C 327.63396,77.520252 370.06896,59.968751 419.74896,59.968751 z"
   id="path2506" /></svg>