<?xml version="1.0" encoding="UTF-8" standalone="no"?>
<!-- Generator: Adobe Illustrator 12.0.0, SVG Export Plug-In . SVG Version: 6.00 Build 51448)  -->
<svg
   xmlns:dc="http://purl.org/dc/elements/1.1/"
   xmlns:cc="http://creativecommons.org/ns#"
   xmlns:rdf="http://www.w3.org/1999/02/22-rdf-syntax-ns#"
   xmlns:svg="http://www.w3.org/2000/svg"
   xmlns="http://www.w3.org/2000/svg"
   xmlns:xlink="http://www.w3.org/1999/xlink"
   xmlns:sodipodi="http://sodipodi.sourceforge.net/DTD/sodipodi-0.dtd"
   xmlns:inkscape="http://www.inkscape.org/namespaces/inkscape"
   version="1.1"
   id="Layer_1"
   width="594.319"
   height="656.388"
   viewBox="0 0 594.319 656.388"
   overflow="visible"
   enable-background="new 0 0 594.319 656.388"
   xml:space="preserve"
   sodipodi:version="0.32"
   inkscape:version="0.46"
   sodipodi:docname="kchart.svg"
   inkscape:output_extension="org.inkscape.output.svg.inkscape"><metadata
   id="metadata28"><rdf:RDF><cc:Work
       rdf:about=""><dc:format>image/svg+xml</dc:format><dc:type
         rdf:resource="http://purl.org/dc/dcmitype/StillImage" /></cc:Work></rdf:RDF></metadata><defs
   id="defs26"><linearGradient
   inkscape:collect="always"
   id="linearGradient3891"><stop
     style="stop-color:#3f474a;stop-opacity:1"
     offset="0"
     id="stop3893" /><stop
     style="stop-color:#73797b;stop-opacity:1"
     offset="1"
     id="stop3895" /></linearGradient><linearGradient
   inkscape:collect="always"
   id="linearGradient3883"><stop
     style="stop-color:#98c30f;stop-opacity:1"
     offset="0"
     id="stop3885" /><stop
     style="stop-color:#b2d249;stop-opacity:1"
     offset="1"
     id="stop3887" /></linearGradient><linearGradient
   id="linearGradient3873"><stop
     style="stop-color:#cae084;stop-opacity:1"
     offset="0"
     id="stop3875" /><stop
     id="stop3877"
     offset="0.49315068"
     style="stop-color:#9dc619;stop-opacity:1" /><stop
     style="stop-color:#93c000;stop-opacity:1"
     offset="0.50999999"
     id="stop3879" /><stop
     style="stop-color:#92bf00;stop-opacity:1"
     offset="1"
     id="stop3881" /></linearGradient><inkscape:perspective
   sodipodi:type="inkscape:persp3d"
   inkscape:vp_x="0 : 328.194 : 1"
   inkscape:vp_y="0 : 1000 : 0"
   inkscape:vp_z="594.31897 : 328.194 : 1"
   inkscape:persp3d-origin="297.15948 : 218.796 : 1"
   id="perspective30" /><inkscape:perspective
   id="perspective2467"
   inkscape:persp3d-origin="372.04724 : 350.78739 : 1"
   inkscape:vp_z="744.09448 : 526.18109 : 1"
   inkscape:vp_y="0 : 1000 : 0"
   inkscape:vp_x="0 : 526.18109 : 1"
   sodipodi:type="inkscape:persp3d" /><inkscape:perspective
   sodipodi:type="inkscape:persp3d"
   inkscape:vp_x="0 : 526.18109 : 1"
   inkscape:vp_y="0 : 1000 : 0"
   inkscape:vp_z="744.09448 : 526.18109 : 1"
   inkscape:persp3d-origin="372.04724 : 350.78739 : 1"
   id="perspective3783" /><linearGradient
   gradientUnits="userSpaceOnUse"
   y2="651.17731"
   x2="321.40845"
   y1="531.60095"
   x1="321.40845"
   id="linearGradient3720"
   xlink:href="#linearGradient3547"
   inkscape:collect="always" /><linearGradient
   y2="656.414"
   x2="531.8385"
   y1="535.20917"
   x1="531.8385"
   gradientUnits="userSpaceOnUse"
   id="linearGradient2935"
   xlink:href="#linearGradient3547"
   inkscape:collect="always" />
	
	
	
	
	
	
	
	
	
<linearGradient
   y2="656.414"
   x2="531.8385"
   y1="535.20917"
   x1="531.8385"
   gradientUnits="userSpaceOnUse"
   id="linearGradient2891"
   xlink:href="#linearGradient3547"
   inkscape:collect="always" /><linearGradient
   id="linearGradient3835"><stop
     style="stop-color:#ff6ae2;stop-opacity:1"
     offset="0"
     id="stop3837" /><stop
     id="stop3839"
     offset="0.49315068"
     style="stop-color:#ff16d4;stop-opacity:1" /><stop
     style="stop-color:#ff02d0;stop-opacity:1"
     offset="0.50999999"
     id="stop3841" /><stop
     style="stop-color:#ff00d0;stop-opacity:1"
     offset="1"
     id="stop3843" /></linearGradient><inkscape:perspective
   sodipodi:type="inkscape:persp3d"
   inkscape:vp_x="0 : 328.194 : 1"
   inkscape:vp_y="0 : 1000 : 0"
   inkscape:vp_z="479.80899 : 328.194 : 1"
   inkscape:persp3d-origin="239.9045 : 218.796 : 1"
   id="perspective2754" /><linearGradient
   gradientTransform="translate(-612.47936,-21.128365)"
   y2="656.67908"
   x2="608.49701"
   y1="533.84344"
   x1="608.49701"
   gradientUnits="userSpaceOnUse"
   id="linearGradient3545"
   xlink:href="#linearGradient3565"
   inkscape:collect="always" /><linearGradient
   gradientTransform="translate(-612.47936,-21.128365)"
   y2="656.67908"
   x2="608.49701"
   y1="533.84344"
   x1="608.49701"
   gradientUnits="userSpaceOnUse"
   id="linearGradient3542"
   xlink:href="#linearGradient3565"
   inkscape:collect="always" /><linearGradient
   gradientTransform="translate(-612.47936,-21.128365)"
   y2="656.67908"
   x2="608.49701"
   y1="533.84344"
   x1="608.49701"
   gradientUnits="userSpaceOnUse"
   id="linearGradient3539"
   xlink:href="#linearGradient3565"
   inkscape:collect="always" /><linearGradient
   gradientTransform="translate(-612.47936,-21.128365)"
   y2="654.73798"
   x2="396.37399"
   y1="537.53497"
   x1="396.37399"
   gradientUnits="userSpaceOnUse"
   id="linearGradient3536"
   xlink:href="#linearGradient3565"
   inkscape:collect="always" /><linearGradient
   gradientTransform="translate(-612.47936,-21.128365)"
   y2="656.67908"
   x2="608.49701"
   y1="533.84344"
   x1="608.49701"
   gradientUnits="userSpaceOnUse"
   id="linearGradient3533"
   xlink:href="#linearGradient3565"
   inkscape:collect="always" /><linearGradient
   gradientTransform="translate(-612.47936,-21.128365)"
   y2="656.67908"
   x2="608.49701"
   y1="533.84344"
   x1="608.49701"
   gradientUnits="userSpaceOnUse"
   id="linearGradient3530"
   xlink:href="#linearGradient3565"
   inkscape:collect="always" /><linearGradient
   gradientTransform="translate(-612.47936,-21.128365)"
   y2="656.67908"
   x2="608.49701"
   y1="533.84344"
   x1="608.49701"
   gradientUnits="userSpaceOnUse"
   id="linearGradient3527"
   xlink:href="#linearGradient3565"
   inkscape:collect="always" /><linearGradient
   y2="656.67908"
   x2="608.49701"
   y1="533.84344"
   x1="608.49701"
   gradientUnits="userSpaceOnUse"
   id="linearGradient3524"
   xlink:href="#linearGradient3565"
   inkscape:collect="always" /><linearGradient
   gradientUnits="userSpaceOnUse"
   y2="657.29523"
   x2="277.88239"
   y1="535.23602"
   x1="277.88239"
   id="linearGradient3522"
   xlink:href="#linearGradient3547"
   inkscape:collect="always" /><linearGradient
   gradientTransform="translate(-612.47936,-21.128365)"
   y2="125.45686"
   x2="324.15704"
   y1="356.80353"
   x1="324.15704"
   gradientUnits="userSpaceOnUse"
   id="linearGradient2718"
   xlink:href="#linearGradient3505"
   inkscape:collect="always" /><linearGradient
   gradientTransform="translate(-612.47936,-21.128365)"
   y2="354.90799"
   x2="217.771"
   y1="124.95"
   x1="217.771"
   gradientUnits="userSpaceOnUse"
   id="linearGradient2715"
   xlink:href="#linearGradient3493"
   inkscape:collect="always" /><linearGradient
   gradientTransform="translate(-612.47936,-21.128365)"
   y2="535.28601"
   x2="73.253998"
   y1="653.48999"
   x1="73.253998"
   gradientUnits="userSpaceOnUse"
   id="linearGradient2712"
   xlink:href="#linearGradient3613"
   inkscape:collect="always" /><linearGradient
   y2="-102.41982"
   x2="-268.33652"
   y1="292.97763"
   x1="-268.33652"
   gradientTransform="matrix(1.0651466,0,0,1.0651466,-33.92727,87.963755)"
   gradientUnits="userSpaceOnUse"
   id="linearGradient2696"
   xlink:href="#linearGradient3482"
   inkscape:collect="always" />
	
	
	
	
	
	
	
	
	
	
	
<linearGradient
   id="linearGradient3613"><stop
     id="stop3615"
     offset="0"
     style="stop-color:#0058bd;stop-opacity:1" /><stop
     style="stop-color:#0058bd;stop-opacity:1"
     offset="0.49315068"
     id="stop3617" /><stop
     id="stop3619"
     offset="0.50999999"
     style="stop-color:#1868c3;stop-opacity:1" /><stop
     id="stop3621"
     offset="1"
     style="stop-color:#6a9ad7;stop-opacity:1" /></linearGradient><linearGradient
   id="linearGradient3565"><stop
     style="stop-color:#777d7e;stop-opacity:1"
     offset="0"
     id="stop3567" /><stop
     id="stop3583"
     offset="0.49315068"
     style="stop-color:#323a3c;stop-opacity:1" /><stop
     style="stop-color:#222b2d;stop-opacity:1"
     offset="0.50999999"
     id="stop3585" /><stop
     style="stop-color:#222b2d;stop-opacity:0;"
     offset="1"
     id="stop3569" /></linearGradient><linearGradient
   inkscape:collect="always"
   id="linearGradient3505"><stop
     style="stop-color:#0e61c1;stop-opacity:1"
     offset="0"
     id="stop3507" /><stop
     style="stop-color:#80b0e1;stop-opacity:1"
     offset="1"
     id="stop3509" /></linearGradient><linearGradient
   inkscape:collect="always"
   id="linearGradient3493"><stop
     style="stop-color:#707677;stop-opacity:1"
     offset="0"
     id="stop3495" /><stop
     style="stop-color:#2e3739;stop-opacity:1"
     offset="1"
     id="stop3497" /></linearGradient><linearGradient
   inkscape:collect="always"
   id="linearGradient3482"><stop
     style="stop-color:#222b2d;stop-opacity:1"
     offset="0"
     id="stop3484" /><stop
     style="stop-color:#8f9495;stop-opacity:1"
     offset="1"
     id="stop3486" /></linearGradient><linearGradient
   inkscape:collect="always"
   id="linearGradient3207"><stop
     style="stop-color:#283133;stop-opacity:1"
     offset="0"
     id="stop3209" /><stop
     style="stop-color:#8f9495;stop-opacity:1"
     offset="1"
     id="stop3211" /></linearGradient><linearGradient
   id="linearGradient3191"><stop
     style="stop-color:#3e4547;stop-opacity:1;"
     offset="0"
     id="stop3193" /><stop
     style="stop-color:#3e4547;stop-opacity:0;"
     offset="1"
     id="stop3195" /></linearGradient><inkscape:perspective
   sodipodi:type="inkscape:persp3d"
   inkscape:vp_x="0 : 328.194 : 1"
   inkscape:vp_y="0 : 1000 : 0"
   inkscape:vp_z="585.47302 : 328.194 : 1"
   inkscape:persp3d-origin="292.73651 : 218.796 : 1"
   id="perspective2616" />
	
	
	
	
	
	
	
	
	
	
	
<linearGradient
   inkscape:collect="always"
   xlink:href="#linearGradient3207"
   id="linearGradient3213"
   x1="292.741"
   y1="319.90799"
   x2="292.741"
   y2="-160"
   gradientUnits="userSpaceOnUse" /><inkscape:perspective
   id="perspective3448"
   inkscape:persp3d-origin="372.04724 : 350.78739 : 1"
   inkscape:vp_z="744.09448 : 526.18109 : 1"
   inkscape:vp_y="0 : 1000 : 0"
   inkscape:vp_x="0 : 526.18109 : 1"
   sodipodi:type="inkscape:persp3d" /><linearGradient
   inkscape:collect="always"
   xlink:href="#linearGradient3207"
   id="linearGradient3459"
   gradientUnits="userSpaceOnUse"
   x1="292.741"
   y1="319.90799"
   x2="292.741"
   y2="-160"
   gradientTransform="translate(0,100)" /><linearGradient
   inkscape:collect="always"
   xlink:href="#linearGradient3207"
   id="linearGradient3467"
   gradientUnits="userSpaceOnUse"
   gradientTransform="translate(0,100)"
   x1="292.741"
   y1="319.90799"
   x2="292.741"
   y2="-160" /><linearGradient
   inkscape:collect="always"
   xlink:href="#linearGradient3482"
   id="linearGradient3488"
   x1="-268.33029"
   y1="293.09766"
   x2="-268.33029"
   y2="-139.44724"
   gradientUnits="userSpaceOnUse"
   gradientTransform="matrix(1.0651466,0,0,1.0651466,578.5521,109.09212)" /><linearGradient
   inkscape:collect="always"
   xlink:href="#linearGradient3565"
   id="linearGradient3571"
   x1="608.49701"
   y1="533.84344"
   x2="608.49701"
   y2="656.67908"
   gradientUnits="userSpaceOnUse" /><inkscape:perspective
   id="perspective3781"
   inkscape:persp3d-origin="372.04724 : 350.78739 : 1"
   inkscape:vp_z="744.09448 : 526.18109 : 1"
   inkscape:vp_y="0 : 1000 : 0"
   inkscape:vp_x="0 : 526.18109 : 1"
   sodipodi:type="inkscape:persp3d" /><inkscape:perspective
   id="perspective32"
   inkscape:persp3d-origin="292.73651 : 218.796 : 1"
   inkscape:vp_z="585.47302 : 328.194 : 1"
   inkscape:vp_y="0 : 1000 : 0"
   inkscape:vp_x="0 : 328.194 : 1"
   sodipodi:type="inkscape:persp3d" /><linearGradient
   id="linearGradient3547"><stop
     id="stop3549"
     offset="0"
     style="stop-color:#777d7e;stop-opacity:1" /><stop
     style="stop-color:#323a3c;stop-opacity:1"
     offset="0.49315068"
     id="stop3551" /><stop
     id="stop3553"
     offset="0.50999999"
     style="stop-color:#222b2d;stop-opacity:1" /><stop
     id="stop3555"
     offset="1"
     style="stop-color:#222b2d;stop-opacity:1" /></linearGradient><linearGradient
   inkscape:collect="always"
   xlink:href="#linearGradient3547"
   id="linearGradient2878"
   gradientUnits="userSpaceOnUse"
   x1="277.88239"
   y1="535.23602"
   x2="277.88239"
   y2="657.29523" />
	
	
	
	
	
	
	
	
	
<linearGradient
   inkscape:collect="always"
   xlink:href="#linearGradient3547"
   id="linearGradient2911"
   gradientUnits="userSpaceOnUse"
   x1="277.88239"
   y1="535.23602"
   x2="277.88239"
   y2="657.29523" /><linearGradient
   inkscape:collect="always"
   xlink:href="#linearGradient3613"
   id="linearGradient2950"
   gradientUnits="userSpaceOnUse"
   x1="86.482048"
   y1="653.7666"
   x2="86.482048"
   y2="535.28601"
   gradientTransform="translate(-378.36905,0)" /><linearGradient
   inkscape:collect="always"
   xlink:href="#linearGradient3547"
   id="linearGradient3742"
   x1="531.8385"
   y1="535.20917"
   x2="531.8385"
   y2="656.414"
   gradientUnits="userSpaceOnUse" /><inkscape:perspective
   id="perspective3805"
   inkscape:persp3d-origin="372.04724 : 350.78739 : 1"
   inkscape:vp_z="744.09448 : 526.18109 : 1"
   inkscape:vp_y="0 : 1000 : 0"
   inkscape:vp_x="0 : 526.18109 : 1"
   sodipodi:type="inkscape:persp3d" /><inkscape:perspective
   id="perspective28"
   inkscape:persp3d-origin="239.9045 : 218.24599 : 1"
   inkscape:vp_z="479.80899 : 327.36899 : 1"
   inkscape:vp_y="0 : 1000 : 0"
   inkscape:vp_x="0 : 327.36899 : 1"
   sodipodi:type="inkscape:persp3d" />
	
	
	
	
	
	
	
	
	
	
<linearGradient
   inkscape:collect="always"
   xlink:href="#linearGradient3482"
   id="linearGradient2871"
   gradientUnits="userSpaceOnUse"
   gradientTransform="matrix(1.006734,0,0,1.006734,-208.3742,-1.4180431)"
   x1="502.15091"
   y1="419.75024"
   x2="502.15091"
   y2="1.4085541" /><linearGradient
   inkscape:collect="always"
   xlink:href="#linearGradient3547"
   id="linearGradient2900"
   gradientUnits="userSpaceOnUse"
   x1="321.40845"
   y1="531.60095"
   x2="321.40845"
   y2="651.17731" /><linearGradient
   inkscape:collect="always"
   xlink:href="#linearGradient3547"
   id="linearGradient3686"
   x1="391.48563"
   y1="535.23602"
   x2="391.48563"
   y2="656.59253"
   gradientUnits="userSpaceOnUse" /><inkscape:perspective
   id="perspective3785"
   inkscape:persp3d-origin="297.15948 : 218.796 : 1"
   inkscape:vp_z="594.31897 : 328.194 : 1"
   inkscape:vp_y="0 : 1000 : 0"
   inkscape:vp_x="0 : 328.194 : 1"
   sodipodi:type="inkscape:persp3d" /><inkscape:perspective
   id="perspective3859"
   inkscape:persp3d-origin="372.04724 : 350.78739 : 1"
   inkscape:vp_z="744.09448 : 526.18109 : 1"
   inkscape:vp_y="0 : 1000 : 0"
   inkscape:vp_x="0 : 526.18109 : 1"
   sodipodi:type="inkscape:persp3d" /><linearGradient
   inkscape:collect="always"
   xlink:href="#linearGradient3873"
   id="linearGradient3871"
   x1="73.253502"
   y1="535.28601"
   x2="73.253502"
   y2="653.49103"
   gradientUnits="userSpaceOnUse" /><linearGradient
   inkscape:collect="always"
   xlink:href="#linearGradient3883"
   id="linearGradient3889"
   x1="257.38544"
   y1="352.85144"
   x2="257.38544"
   y2="172.78099"
   gradientUnits="userSpaceOnUse" /><linearGradient
   inkscape:collect="always"
   xlink:href="#linearGradient3891"
   id="linearGradient3897"
   x1="318.18051"
   y1="271.84201"
   x2="318.18051"
   y2="111.854"
   gradientUnits="userSpaceOnUse" /></defs><sodipodi:namedview
   inkscape:window-height="827"
   inkscape:window-width="1440"
   inkscape:pageshadow="2"
   inkscape:pageopacity="0.0"
   guidetolerance="10.0"
   gridtolerance="10.0"
   objecttolerance="10.0"
   borderopacity="1.0"
   bordercolor="#666666"
   pagecolor="#ffffff"
   id="base"
   showgrid="false"
   inkscape:zoom="0.70994595"
   inkscape:cx="26.012081"
   inkscape:cy="328.194"
   inkscape:window-x="0"
   inkscape:window-y="0"
   inkscape:current-layer="Layer_1" />
<path
   style="fill:url(#linearGradient3897);fill-opacity:1"
   id="path7"
   d="M 296.989,120.652 C 292.391,125.2 289.442,130.548 288.193,136.646 L 288.193,241.704 C 288.193,241.754 288.193,241.754 288.193,241.804 C 288.193,244.553 288.493,247.202 289.142,249.701 C 289.342,250.451 289.592,251.25 289.892,252 C 291.341,256.048 293.69,259.747 296.989,263.095 C 302.836,268.943 309.884,271.842 318.18,271.842 C 326.427,271.842 333.525,268.943 339.372,263.095 C 345.22,257.198 348.168,250.1 348.168,241.803 C 348.168,241.753 348.168,241.753 348.168,241.753 L 348.168,220.861 C 348.168,220.211 348.168,219.511 348.168,218.861 C 348.168,212.863 348.168,206.866 348.168,200.868 C 348.168,196.869 348.168,192.871 348.168,188.923 L 348.168,136.594 C 346.818,130.546 343.92,125.198 339.372,120.65 C 333.524,114.802 326.427,111.854 318.18,111.854 C 309.884,111.855 302.836,114.804 296.989,120.652 L 296.989,120.652 z" /><path
   style="fill:url(#linearGradient3889);fill-opacity:1"
   id="path9"
   d="M 255.355,181.578 C 249.507,175.73 242.41,172.781 234.163,172.781 C 225.867,172.781 218.819,175.73 212.972,181.578 C 208.424,186.126 205.475,191.424 204.176,197.472 L 204.176,197.522 L 204.176,322.622 L 204.176,322.672 C 204.176,325.421 204.476,328.07 205.126,330.619 C 205.376,331.368 205.626,332.118 205.876,332.868 C 207.326,336.966 209.674,340.665 212.973,343.964 C 213.323,344.363 213.723,344.763 214.173,345.113 C 215.322,346.162 216.522,347.062 217.772,347.912 C 220.321,349.661 223.02,350.911 225.968,351.71 C 226.918,351.96 227.917,352.21 228.967,352.36 L 229.017,352.36 L 354.118,352.809 L 354.067,352.809 C 354.118,352.759 354.118,352.759 354.168,352.809 C 356.917,352.809 359.565,352.509 362.064,351.86 C 362.814,351.61 363.614,351.36 364.363,351.11 C 368.462,349.711 372.16,347.362 375.459,344.113 C 381.307,338.216 384.206,331.118 384.155,322.872 C 384.206,314.575 381.306,307.478 375.459,301.63 C 369.562,295.782 362.464,292.834 354.168,292.883 C 354.118,292.833 354.118,292.833 354.118,292.833 L 264.154,292.833 L 264.154,197.521 L 264.204,197.521 C 262.852,191.474 259.903,186.125 255.355,181.578 L 255.355,181.578 z" /><path
   style="fill:url(#linearGradient3871);fill-opacity:1"
   id="path11"
   d="M 107.914,559.727 C 109.614,557.028 110.463,554.029 110.513,550.73 C 110.463,546.482 108.964,542.834 105.965,539.834 C 102.966,536.785 99.318,535.286 95.069,535.286 C 91.72,535.286 88.722,536.136 86.073,537.885 L 40.541,583.417 L 40.591,583.417 L 40.541,583.417 C 39.492,584.416 38.642,585.516 37.992,586.665 C 37.792,587.016 37.592,587.365 37.442,587.765 C 36.492,589.764 35.993,591.963 35.993,594.363 C 35.993,594.613 35.993,594.913 35.993,595.213 C 36.043,596.013 36.143,596.813 36.293,597.562 C 36.593,599.112 37.143,600.561 37.942,601.911 C 38.192,602.361 38.442,602.81 38.742,603.261 L 38.792,603.261 L 84.124,648.943 L 84.124,648.893 L 84.124,648.943 C 85.124,649.943 86.223,650.793 87.373,651.492 C 87.723,651.692 88.073,651.892 88.473,652.042 C 90.472,652.992 92.671,653.491 95.07,653.491 C 99.319,653.491 102.917,651.992 105.966,648.993 C 108.965,645.944 110.465,642.346 110.514,638.097 C 110.464,633.849 108.965,630.201 105.966,627.152 L 105.916,627.102 L 73.229,594.365 L 107.914,559.727 L 107.914,559.727 z" /><g
   id="g2902"
   style="fill-opacity:1;fill:url(#linearGradient3686)"><path
     d="M 15.401,535.236 C 11.152,535.236 7.504,536.735 4.505,539.784 C 2.156,542.133 0.656,544.832 0.006,547.98 L 0.006,638.094 C -0.044,639.493 0.156,640.843 0.506,642.143 C 0.606,642.542 0.706,642.943 0.856,643.342 C 1.606,645.441 2.805,647.34 4.505,649.039 C 7.504,652.038 11.152,653.538 15.401,653.538 C 19.649,653.538 23.297,652.038 26.346,649.039 C 29.345,645.99 30.845,642.342 30.845,638.094 L 30.845,547.98 C 30.195,544.832 28.696,542.132 26.346,539.784 C 23.298,536.735 19.649,535.236 15.401,535.236 L 15.401,535.236 z"
     id="path13"
     style="fill:url(#linearGradient3686);fill-opacity:1.0" /><path
     d="M 590.871,541.733 C 588.522,539.633 585.173,538.534 580.725,538.484 L 525.097,538.484 C 520.649,538.534 517.3,539.633 514.951,541.733 C 512.602,543.882 511.453,546.831 511.453,550.58 C 511.453,554.328 512.602,557.327 514.951,559.476 C 517.301,561.624 520.649,562.724 525.097,562.775 L 539.79,562.775 L 539.79,640.843 C 539.841,645.391 541.04,648.89 543.489,651.239 C 545.838,653.589 548.986,654.738 552.885,654.738 C 556.834,654.738 559.983,653.589 562.331,651.239 C 564.78,648.89 565.98,645.391 566.03,640.843 L 566.03,562.775 L 580.724,562.775 C 585.171,562.724 588.521,561.625 590.87,559.476 C 593.169,557.327 594.318,554.328 594.318,550.58 C 594.319,546.831 593.17,543.883 590.871,541.733 L 590.871,541.733 z"
     id="path15"
     style="fill:url(#linearGradient3686);fill-opacity:1.0" /><path
     d="M 507.154,555.428 C 504.006,550.08 499.557,545.982 493.809,543.033 C 488.062,540.084 481.214,538.534 473.368,538.484 L 441.831,538.484 C 438.282,538.484 435.283,539.633 432.734,541.882 C 430.185,544.132 428.836,547.38 428.736,551.628 L 428.736,640.843 C 428.786,645.391 429.985,648.89 432.434,651.239 C 434.783,653.589 437.932,654.738 441.83,654.738 C 445.728,654.738 448.877,653.589 451.226,651.239 C 453.675,648.89 454.925,645.391 454.975,640.843 L 454.975,607.607 L 455.275,607.607 L 487.562,648.241 C 489.011,650.29 490.611,651.889 492.36,652.989 C 494.16,654.138 496.709,654.738 499.957,654.738 C 503.306,654.637 505.955,653.888 507.954,652.439 C 509.903,650.989 511.303,649.29 512.152,647.39 C 513.051,645.492 513.452,643.892 513.402,642.542 C 513.402,640.443 512.902,638.493 511.952,636.694 C 511.102,634.945 509.754,633.145 507.954,631.247 L 485.113,606.656 C 493.46,605.007 499.957,601.358 504.705,595.661 C 509.454,590.013 511.852,582.916 511.952,574.319 C 511.902,567.073 510.304,560.775 507.154,555.428 L 507.154,555.428 z M 481.765,566.124 C 484.314,568.272 485.614,571.321 485.713,575.27 C 485.713,578.969 484.564,582.018 482.265,584.466 C 479.915,586.816 476.617,588.065 472.269,588.165 L 454.976,588.165 L 454.976,562.775 L 472.269,562.775 C 476.117,562.825 479.315,563.975 481.765,566.124 L 481.765,566.124 z"
     id="path17"
     style="fill:url(#linearGradient3686);fill-opacity:1.0" /><path
     d="M 381.904,539.234 C 379.206,537.085 375.657,535.935 371.209,535.885 C 366.911,535.935 363.412,537.084 360.763,539.234 C 358.115,541.383 355.915,544.282 354.216,547.831 C 352.467,551.43 350.867,555.378 349.418,559.676 L 324.078,627.849 C 322.978,630.848 322.129,633.347 321.579,635.296 C 321.029,637.195 320.679,638.845 320.479,640.194 C 320.329,641.493 320.229,642.793 320.229,644.042 C 320.279,647.291 321.428,649.89 323.778,651.789 C 326.027,653.688 329.076,654.688 332.874,654.738 C 337.022,654.637 340.071,653.438 342.02,651.09 C 343.969,648.74 345.519,645.692 346.619,641.944 L 349.867,631.548 L 392.9,631.548 L 396.149,641.944 C 397.249,645.692 398.748,648.741 400.697,651.09 C 402.646,653.439 405.745,654.638 409.893,654.738 C 413.692,654.688 416.741,653.688 418.99,651.789 C 421.289,649.89 422.488,647.291 422.538,644.042 C 422.538,642.793 422.438,641.493 422.288,640.194 C 422.089,638.844 421.738,637.195 421.188,635.296 C 420.639,633.347 419.789,630.848 418.639,627.849 L 393.35,559.676 C 391.9,555.378 390.301,551.43 388.551,547.831 C 386.803,544.282 384.604,541.384 381.904,539.234 L 381.904,539.234 z M 371.709,565.074 L 372.009,565.074 L 385.154,607.306 L 357.615,607.306 L 371.709,565.074 L 371.709,565.074 z"
     id="path19"
     style="fill:url(#linearGradient3686);fill-opacity:1.0" /><path
     d="M 287.792,551.38 L 287.792,582.367 L 238.961,582.367 L 238.961,551.38 C 238.911,546.831 237.661,543.383 235.212,541.033 C 232.863,538.684 229.714,537.535 225.816,537.535 C 221.918,537.535 218.769,538.684 216.42,541.033 C 213.971,543.383 212.772,546.831 212.721,551.38 L 212.721,640.744 C 212.771,645.391 213.971,648.89 216.42,651.239 C 218.769,653.589 221.918,654.738 225.816,654.738 C 229.714,654.738 232.863,653.589 235.212,651.239 C 237.661,648.89 238.911,645.391 238.961,640.744 L 238.961,606.657 L 287.792,606.657 L 287.792,640.744 C 287.842,645.391 289.091,648.89 291.541,651.239 C 293.89,653.589 297.039,654.738 300.937,654.738 C 304.835,654.738 307.984,653.589 310.333,651.239 C 312.782,648.89 314.032,645.391 314.082,640.744 L 314.082,551.38 C 314.032,546.831 312.782,543.383 310.333,541.033 C 307.984,538.684 304.836,537.535 300.937,537.535 C 297.038,537.535 293.889,538.684 291.541,541.033 C 289.092,543.383 287.842,546.831 287.792,551.38 L 287.792,551.38 z"
     id="path21"
     style="fill:url(#linearGradient3686);fill-opacity:1.0" /><path
     d="M 205.725,554.179 C 205.675,550.73 204.576,547.881 202.476,545.533 C 200.427,543.183 197.678,541.284 194.279,539.835 C 190.83,538.485 187.082,537.486 183.033,536.836 C 178.985,536.187 174.936,535.887 170.938,535.887 C 159.293,535.987 149.197,538.586 140.65,543.734 C 132.153,548.832 125.556,555.88 120.858,564.925 C 116.21,573.922 113.811,584.318 113.76,596.162 C 113.76,604.509 115.01,612.256 117.459,619.453 C 120.008,626.75 123.657,633.147 128.455,638.695 C 133.303,644.143 139.251,648.491 146.248,651.64 C 153.295,654.788 161.342,656.338 170.388,656.388 C 174.087,656.388 177.985,656.037 182.134,655.388 C 186.282,654.689 190.231,653.589 193.929,652.039 C 197.628,650.59 200.677,648.591 203.026,646.042 C 205.375,643.593 206.625,640.544 206.674,636.945 C 206.724,635.746 206.474,634.196 205.974,632.297 C 205.424,630.398 204.325,628.698 202.625,627.199 C 200.976,625.699 198.427,624.9 195.028,624.75 C 192.879,624.9 190.83,625.35 188.981,626.199 C 187.082,627.049 184.633,627.898 181.684,628.799 C 178.735,629.649 174.587,630.098 169.289,630.149 C 163.242,630.098 158.194,628.5 154.145,625.401 C 150.097,622.301 147.048,618.204 144.999,613.055 C 142.95,607.957 141.9,602.31 141.9,596.161 C 141.85,590.114 142.849,584.416 144.849,579.168 C 146.898,573.82 150.047,569.522 154.395,566.273 C 158.793,562.924 164.491,561.225 171.539,561.126 C 174.937,561.176 177.986,561.625 180.635,562.525 C 183.284,563.424 185.783,564.324 188.032,565.223 C 190.231,566.073 192.33,566.523 194.329,566.673 C 197.828,566.523 200.577,565.223 202.576,562.775 C 204.625,560.326 205.675,557.427 205.725,554.179 L 205.725,554.179 z"
     id="path23"
     style="fill:url(#linearGradient3686);fill-opacity:1.0" /></g>
<path
   style="fill:#222b2d;fill-opacity:1"
   id="path2664"
   d="M 537.0622,239.954 C 537.0622,173.681 513.6212,117.103 466.7902,70.272 C 419.9592,23.441 363.3812,1e-07 297.1582,1e-07 C 230.8842,1e-07 174.3072,23.441 127.4762,70.272 C 80.644199,117.103 57.254199,173.681 57.254199,239.954 C 57.254199,306.178 80.645199,362.755 127.4762,409.586 C 174.3072,456.418 230.8852,479.858 297.1582,479.908 C 363.3812,479.858 419.9582,456.417 466.7892,409.586 C 513.6202,362.755 537.0622,306.178 537.0622,239.954 L 537.0622,239.954 z M 297.1582,59.976 C 346.7872,59.976 389.2212,77.519 424.3572,112.655 C 459.4932,147.791 477.0862,190.224 477.0862,239.904 C 477.0862,289.584 459.4932,332.017 424.3572,367.153 C 389.2212,402.289 346.7882,419.882 297.1582,419.882 C 247.4782,419.882 205.0452,402.289 169.9092,367.153 C 134.7732,332.017 117.1802,289.584 117.2302,239.904 C 117.1802,190.224 134.7732,147.791 169.9092,112.655 C 205.0442,77.519 247.4782,59.976 297.1582,59.976 L 297.1582,59.976 z" /><g
   id="g2756"
   inkscape:label="New"
   transform="translate(-314.06216,-21.128365)" /><path
   style="fill:url(#linearGradient2871);fill-opacity:1;stroke:none;stroke-width:1.00677967;stroke-miterlimit:4;stroke-dasharray:none;stroke-dashoffset:0;stroke-opacity:1"
   d="M 297.16719,1e-07 C 295.34714,1e-07 293.53511,0.0271433 291.72969,0.0625001 C 177.9972,2.9471385 86.573439,96.170162 86.573439,210.59375 C 86.573439,326.83358 180.92734,421.15625 297.16719,421.15625 C 413.40702,421.15625 507.72968,326.83358 507.72969,210.59375 C 507.72969,96.170163 416.33717,2.9471385 302.60469,0.0625001 C 300.79941,0.0167122 298.98344,1e-07 297.16719,1e-07 z M 297.16719,59.96875 C 346.7962,59.968748 389.21869,77.52025 424.35469,112.65625 C 459.4907,147.79225 477.07344,190.22625 477.07344,239.90625 C 477.07345,289.58624 459.49069,332.02025 424.35469,367.15625 C 389.2187,402.29224 346.79719,419.875 297.16719,419.875 C 247.4872,419.87501 205.05319,402.29225 169.91719,367.15625 C 134.7812,332.02024 117.17969,289.58625 117.22969,239.90625 C 117.17969,190.22624 134.78119,147.79225 169.91719,112.65625 C 205.0522,77.520251 247.48719,59.96875 297.16719,59.96875 z"
   id="path2685" /><g
   transform="translate(-934.06217,-21.128365)"
   inkscape:label="New"
   id="g2854" /></svg>