<?xml version="1.0" encoding="UTF-8" standalone="no"?>
<!-- Generator: Adobe Illustrator 12.0.0, SVG Export Plug-In . SVG Version: 6.00 Build 51448)  -->
<svg
   xmlns:dc="http://purl.org/dc/elements/1.1/"
   xmlns:cc="http://creativecommons.org/ns#"
   xmlns:rdf="http://www.w3.org/1999/02/22-rdf-syntax-ns#"
   xmlns:svg="http://www.w3.org/2000/svg"
   xmlns="http://www.w3.org/2000/svg"
   xmlns:xlink="http://www.w3.org/1999/xlink"
   xmlns:sodipodi="http://sodipodi.sourceforge.net/DTD/sodipodi-0.dtd"
   xmlns:inkscape="http://www.inkscape.org/namespaces/inkscape"
   version="1.1"
   id="Layer_1"
   width="594.319"
   height="656.388"
   viewBox="0 0 594.319 656.388"
   overflow="visible"
   enable-background="new 0 0 594.319 656.388"
   xml:space="preserve"
   sodipodi:version="0.32"
   inkscape:version="0.46"
   sodipodi:docname="kchart.svg"
   inkscape:output_extension="org.inkscape.output.svg.inkscape"><metadata
   id="metadata28"><rdf:RDF><cc:Work
       rdf:about=""><dc:format>image/svg+xml</dc:format><dc:type
         rdf:resource="http://purl.org/dc/dcmitype/StillImage" /></cc:Work></rdf:RDF></metadata><defs
   id="defs26"><inkscape:perspective
   sodipodi:type="inkscape:persp3d"
   inkscape:vp_x="0 : 328.194 : 1"
   inkscape:vp_y="0 : 1000 : 0"
   inkscape:vp_z="594.31897 : 328.194 : 1"
   inkscape:persp3d-origin="297.15948 : 218.796 : 1"
   id="perspective30" /><linearGradient
   gradientUnits="userSpaceOnUse"
   y2="534.97424"
   x2="232.97664"
   y1="656.388"
   x1="232.97664"
   id="linearGradient3359"
   xlink:href="#linearGradient3353"
   inkscape:collect="always" />
	
	
	
	
	
	
	
	
	
	
	
<inkscape:perspective
   sodipodi:type="inkscape:persp3d"
   inkscape:vp_x="0 : 526.18109 : 1"
   inkscape:vp_y="0 : 1000 : 0"
   inkscape:vp_z="744.09448 : 526.18109 : 1"
   inkscape:persp3d-origin="372.04724 : 350.78739 : 1"
   id="perspective2469" /><inkscape:perspective
   id="perspective32"
   inkscape:persp3d-origin="292.73651 : 218.796 : 1"
   inkscape:vp_z="585.47302 : 328.194 : 1"
   inkscape:vp_y="0 : 1000 : 0"
   inkscape:vp_x="0 : 328.194 : 1"
   sodipodi:type="inkscape:persp3d" /><linearGradient
   id="linearGradient3292"><stop
     id="stop3294"
     offset="0"
     style="stop-color:#8f9495;stop-opacity:1" /><stop
     id="stop3296"
     offset="1"
     style="stop-color:#222b2d;stop-opacity:1" /></linearGradient><linearGradient
   id="linearGradient3314"><stop
     id="stop3316"
     offset="0"
     style="stop-color:#98c30f;stop-opacity:1" /><stop
     id="stop3318"
     offset="1"
     style="stop-color:#b2d24a;stop-opacity:1" /></linearGradient><linearGradient
   id="linearGradient3353"><stop
     id="stop3355"
     offset="0"
     style="stop-color:#20292b;stop-opacity:1" /><stop
     style="stop-color:#20292b;stop-opacity:1"
     offset="0.5"
     id="stop3363" /><stop
     style="stop-color:#31393b;stop-opacity:1"
     offset="0.50999999"
     id="stop3361" /><stop
     id="stop3357"
     offset="1"
     style="stop-color:#787d7f;stop-opacity:1" /></linearGradient><linearGradient
   id="linearGradient3367"><stop
     style="stop-color:#93c000;stop-opacity:1"
     offset="0"
     id="stop3369" /><stop
     id="stop3371"
     offset="0.5"
     style="stop-color:#93c000;stop-opacity:1" /><stop
     id="stop3373"
     offset="0.50999999"
     style="stop-color:#9dc617;stop-opacity:1" /><stop
     style="stop-color:#bed868;stop-opacity:1"
     offset="1"
     id="stop3375" /></linearGradient><linearGradient
   inkscape:collect="always"
   xlink:href="#linearGradient3353"
   id="linearGradient2621"
   gradientUnits="userSpaceOnUse"
   x1="232.97664"
   y1="656.388"
   x2="232.97664"
   y2="534.97424" /><linearGradient
   inkscape:collect="always"
   xlink:href="#linearGradient3353"
   id="linearGradient2623"
   gradientUnits="userSpaceOnUse"
   x1="232.97664"
   y1="656.388"
   x2="232.97664"
   y2="534.97424" /><linearGradient
   inkscape:collect="always"
   xlink:href="#linearGradient3353"
   id="linearGradient2625"
   gradientUnits="userSpaceOnUse"
   x1="232.97664"
   y1="656.388"
   x2="232.97664"
   y2="534.97424" /><linearGradient
   inkscape:collect="always"
   xlink:href="#linearGradient3353"
   id="linearGradient2627"
   gradientUnits="userSpaceOnUse"
   x1="232.97664"
   y1="656.388"
   x2="232.97664"
   y2="534.97424" /><linearGradient
   inkscape:collect="always"
   xlink:href="#linearGradient3353"
   id="linearGradient2629"
   gradientUnits="userSpaceOnUse"
   x1="232.97664"
   y1="656.388"
   x2="232.97664"
   y2="534.97424" /><linearGradient
   inkscape:collect="always"
   xlink:href="#linearGradient3353"
   id="linearGradient2631"
   gradientUnits="userSpaceOnUse"
   x1="232.97664"
   y1="656.388"
   x2="232.97664"
   y2="534.97424" /><linearGradient
   inkscape:collect="always"
   xlink:href="#linearGradient3353"
   id="linearGradient2633"
   gradientUnits="userSpaceOnUse"
   x1="232.97664"
   y1="656.388"
   x2="232.97664"
   y2="534.97424" /><linearGradient
   inkscape:collect="always"
   xlink:href="#linearGradient3367"
   id="linearGradient2649"
   gradientUnits="userSpaceOnUse"
   x1="68.389832"
   y1="653.48999"
   x2="68.389832"
   y2="535.18597"
   gradientTransform="translate(-609.66225,-11.143464)" /><linearGradient
   inkscape:collect="always"
   xlink:href="#linearGradient3292"
   id="linearGradient2652"
   gradientUnits="userSpaceOnUse"
   x1="294.96109"
   y1="-0.0057355352"
   x2="294.96109"
   y2="421.22168"
   gradientTransform="translate(-609.66225,-11.143464)" /><linearGradient
   inkscape:collect="always"
   xlink:href="#linearGradient3314"
   id="linearGradient2655"
   gradientUnits="userSpaceOnUse"
   x1="317.72427"
   y1="353.60373"
   x2="317.72427"
   y2="125.0482"
   gradientTransform="translate(-449.08664,8.5763482)" />
	
	
	
	
	
	
	
	
	
	
<linearGradient
   inkscape:collect="always"
   xlink:href="#linearGradient3292"
   id="linearGradient2700"
   x1="288.19299"
   y1="0.28411746"
   x2="288.19299"
   y2="420.46997"
   gradientUnits="userSpaceOnUse" /><linearGradient
   inkscape:collect="always"
   xlink:href="#linearGradient3292"
   id="linearGradient2703"
   gradientUnits="userSpaceOnUse"
   gradientTransform="translate(4.39799,-4e-6)"
   x1="292.75"
   y1="-2.8303274e-14"
   x2="292.75"
   y2="420.03125" /><linearGradient
   inkscape:collect="always"
   xlink:href="#linearGradient3292"
   id="linearGradient2705"
   gradientUnits="userSpaceOnUse"
   gradientTransform="translate(4.398,-4e-6)"
   x1="292.75"
   y1="7.1270186e-08"
   x2="292.75"
   y2="420.03125" /><linearGradient
   inkscape:collect="always"
   xlink:href="#linearGradient3353"
   id="linearGradient2716"
   x1="326.69196"
   y1="656.38806"
   x2="326.69196"
   y2="535.23602"
   gradientUnits="userSpaceOnUse" /><inkscape:perspective
   id="perspective2809"
   inkscape:persp3d-origin="372.04724 : 350.78739 : 1"
   inkscape:vp_z="744.09448 : 526.18109 : 1"
   inkscape:vp_y="0 : 1000 : 0"
   inkscape:vp_x="0 : 526.18109 : 1"
   sodipodi:type="inkscape:persp3d" /><linearGradient
   inkscape:collect="always"
   xlink:href="#linearGradient3367"
   id="linearGradient2815"
   x1="73.253502"
   y1="653.49103"
   x2="73.253502"
   y2="535.28601"
   gradientUnits="userSpaceOnUse" /><linearGradient
   inkscape:collect="always"
   xlink:href="#linearGradient3314"
   id="linearGradient3587"
   x1="275.69672"
   y1="352.81232"
   x2="275.69672"
   y2="172.78099"
   gradientUnits="userSpaceOnUse" /></defs><sodipodi:namedview
   inkscape:window-height="827"
   inkscape:window-width="1440"
   inkscape:pageshadow="2"
   inkscape:pageopacity="0.0"
   guidetolerance="10.0"
   gridtolerance="10.0"
   objecttolerance="10.0"
   borderopacity="1.0"
   bordercolor="#666666"
   pagecolor="#ffffff"
   id="base"
   showgrid="false"
   inkscape:zoom="0.70994595"
   inkscape:cx="432.9466"
   inkscape:cy="328.194"
   inkscape:window-x="0"
   inkscape:window-y="0"
   inkscape:current-layer="Layer_1" />
<path
   id="path7"
   d="M 296.989,120.652 C 292.391,125.2 289.442,130.548 288.193,136.646 L 288.193,241.704 C 288.193,241.754 288.193,241.754 288.193,241.804 C 288.193,244.553 288.493,247.202 289.142,249.701 C 289.342,250.451 289.592,251.25 289.892,252 C 291.341,256.048 293.69,259.747 296.989,263.095 C 302.836,268.943 309.884,271.842 318.18,271.842 C 326.427,271.842 333.525,268.943 339.372,263.095 C 345.22,257.198 348.168,250.1 348.168,241.803 C 348.168,241.753 348.168,241.753 348.168,241.753 L 348.168,220.861 C 348.168,220.211 348.168,219.511 348.168,218.861 C 348.168,212.863 348.168,206.866 348.168,200.868 C 348.168,196.869 348.168,192.871 348.168,188.923 L 348.168,136.594 C 346.818,130.546 343.92,125.198 339.372,120.65 C 333.524,114.802 326.427,111.854 318.18,111.854 C 309.884,111.855 302.836,114.804 296.989,120.652 L 296.989,120.652 z"
   style="fill:url(#linearGradient2700)" /><path
   id="path9"
   d="M 255.355,181.578 C 249.507,175.73 242.41,172.781 234.163,172.781 C 225.867,172.781 218.819,175.73 212.972,181.578 C 208.424,186.126 205.475,191.424 204.176,197.472 L 204.176,197.522 L 204.176,322.622 L 204.176,322.672 C 204.176,325.421 204.476,328.07 205.126,330.619 C 205.376,331.368 205.626,332.118 205.876,332.868 C 207.326,336.966 209.674,340.665 212.973,343.964 C 213.323,344.363 213.723,344.763 214.173,345.113 C 215.322,346.162 216.522,347.062 217.772,347.912 C 220.321,349.661 223.02,350.911 225.968,351.71 C 226.918,351.96 227.917,352.21 228.967,352.36 L 229.017,352.36 L 354.118,352.809 L 354.067,352.809 C 354.118,352.759 354.118,352.759 354.168,352.809 C 356.917,352.809 359.565,352.509 362.064,351.86 C 362.814,351.61 363.614,351.36 364.363,351.11 C 368.462,349.711 372.16,347.362 375.459,344.113 C 381.307,338.216 384.206,331.118 384.155,322.872 C 384.206,314.575 381.306,307.478 375.459,301.63 C 369.562,295.782 362.464,292.834 354.168,292.883 C 354.118,292.833 354.118,292.833 354.118,292.833 L 264.154,292.833 L 264.154,197.521 L 264.204,197.521 C 262.852,191.474 259.903,186.125 255.355,181.578 L 255.355,181.578 z"
   style="fill:url(#linearGradient3587)" /><path
   id="path11"
   d="M 107.914,559.727 C 109.614,557.028 110.463,554.029 110.513,550.73 C 110.463,546.482 108.964,542.834 105.965,539.834 C 102.966,536.785 99.318,535.286 95.069,535.286 C 91.72,535.286 88.722,536.136 86.073,537.885 L 40.541,583.417 L 40.591,583.417 L 40.541,583.417 C 39.492,584.416 38.642,585.516 37.992,586.665 C 37.792,587.016 37.592,587.365 37.442,587.765 C 36.492,589.764 35.993,591.963 35.993,594.363 C 35.993,594.613 35.993,594.913 35.993,595.213 C 36.043,596.013 36.143,596.813 36.293,597.562 C 36.593,599.112 37.143,600.561 37.942,601.911 C 38.192,602.361 38.442,602.81 38.742,603.261 L 38.792,603.261 L 84.124,648.943 L 84.124,648.893 L 84.124,648.943 C 85.124,649.943 86.223,650.793 87.373,651.492 C 87.723,651.692 88.073,651.892 88.473,652.042 C 90.472,652.992 92.671,653.491 95.07,653.491 C 99.319,653.491 102.917,651.992 105.966,648.993 C 108.965,645.944 110.465,642.346 110.514,638.097 C 110.464,633.849 108.965,630.201 105.966,627.152 L 105.916,627.102 L 73.229,594.365 L 107.914,559.727 L 107.914,559.727 z"
   style="fill:url(#linearGradient2815)" /><g
   id="g2708"
   style="fill:url(#linearGradient2716)"><path
     style="fill:url(#linearGradient2716)"
     d="M 15.401,535.236 C 11.152,535.236 7.504,536.735 4.505,539.784 C 2.156,542.133 0.656,544.832 0.006,547.98 L 0.006,638.094 C -0.044,639.493 0.156,640.843 0.506,642.143 C 0.606,642.542 0.706,642.943 0.856,643.342 C 1.606,645.441 2.805,647.34 4.505,649.039 C 7.504,652.038 11.152,653.538 15.401,653.538 C 19.649,653.538 23.297,652.038 26.346,649.039 C 29.345,645.99 30.845,642.342 30.845,638.094 L 30.845,547.98 C 30.195,544.832 28.696,542.132 26.346,539.784 C 23.298,536.735 19.649,535.236 15.401,535.236 L 15.401,535.236 z"
     id="path13" /><path
     style="fill:url(#linearGradient2716)"
     d="M 590.871,541.733 C 588.522,539.633 585.173,538.534 580.725,538.484 L 525.097,538.484 C 520.649,538.534 517.3,539.633 514.951,541.733 C 512.602,543.882 511.453,546.831 511.453,550.58 C 511.453,554.328 512.602,557.327 514.951,559.476 C 517.301,561.624 520.649,562.724 525.097,562.775 L 539.79,562.775 L 539.79,640.843 C 539.841,645.391 541.04,648.89 543.489,651.239 C 545.838,653.589 548.986,654.738 552.885,654.738 C 556.834,654.738 559.983,653.589 562.331,651.239 C 564.78,648.89 565.98,645.391 566.03,640.843 L 566.03,562.775 L 580.724,562.775 C 585.171,562.724 588.521,561.625 590.87,559.476 C 593.169,557.327 594.318,554.328 594.318,550.58 C 594.319,546.831 593.17,543.883 590.871,541.733 L 590.871,541.733 z"
     id="path15" /><path
     style="fill:url(#linearGradient2716)"
     d="M 507.154,555.428 C 504.006,550.08 499.557,545.982 493.809,543.033 C 488.062,540.084 481.214,538.534 473.368,538.484 L 441.831,538.484 C 438.282,538.484 435.283,539.633 432.734,541.882 C 430.185,544.132 428.836,547.38 428.736,551.628 L 428.736,640.843 C 428.786,645.391 429.985,648.89 432.434,651.239 C 434.783,653.589 437.932,654.738 441.83,654.738 C 445.728,654.738 448.877,653.589 451.226,651.239 C 453.675,648.89 454.925,645.391 454.975,640.843 L 454.975,607.607 L 455.275,607.607 L 487.562,648.241 C 489.011,650.29 490.611,651.889 492.36,652.989 C 494.16,654.138 496.709,654.738 499.957,654.738 C 503.306,654.637 505.955,653.888 507.954,652.439 C 509.903,650.989 511.303,649.29 512.152,647.39 C 513.051,645.492 513.452,643.892 513.402,642.542 C 513.402,640.443 512.902,638.493 511.952,636.694 C 511.102,634.945 509.754,633.145 507.954,631.247 L 485.113,606.656 C 493.46,605.007 499.957,601.358 504.705,595.661 C 509.454,590.013 511.852,582.916 511.952,574.319 C 511.902,567.073 510.304,560.775 507.154,555.428 L 507.154,555.428 z M 481.765,566.124 C 484.314,568.272 485.614,571.321 485.713,575.27 C 485.713,578.969 484.564,582.018 482.265,584.466 C 479.915,586.816 476.617,588.065 472.269,588.165 L 454.976,588.165 L 454.976,562.775 L 472.269,562.775 C 476.117,562.825 479.315,563.975 481.765,566.124 L 481.765,566.124 z"
     id="path17" /><path
     style="fill:url(#linearGradient2716)"
     d="M 381.904,539.234 C 379.206,537.085 375.657,535.935 371.209,535.885 C 366.911,535.935 363.412,537.084 360.763,539.234 C 358.115,541.383 355.915,544.282 354.216,547.831 C 352.467,551.43 350.867,555.378 349.418,559.676 L 324.078,627.849 C 322.978,630.848 322.129,633.347 321.579,635.296 C 321.029,637.195 320.679,638.845 320.479,640.194 C 320.329,641.493 320.229,642.793 320.229,644.042 C 320.279,647.291 321.428,649.89 323.778,651.789 C 326.027,653.688 329.076,654.688 332.874,654.738 C 337.022,654.637 340.071,653.438 342.02,651.09 C 343.969,648.74 345.519,645.692 346.619,641.944 L 349.867,631.548 L 392.9,631.548 L 396.149,641.944 C 397.249,645.692 398.748,648.741 400.697,651.09 C 402.646,653.439 405.745,654.638 409.893,654.738 C 413.692,654.688 416.741,653.688 418.99,651.789 C 421.289,649.89 422.488,647.291 422.538,644.042 C 422.538,642.793 422.438,641.493 422.288,640.194 C 422.089,638.844 421.738,637.195 421.188,635.296 C 420.639,633.347 419.789,630.848 418.639,627.849 L 393.35,559.676 C 391.9,555.378 390.301,551.43 388.551,547.831 C 386.803,544.282 384.604,541.384 381.904,539.234 L 381.904,539.234 z M 371.709,565.074 L 372.009,565.074 L 385.154,607.306 L 357.615,607.306 L 371.709,565.074 L 371.709,565.074 z"
     id="path19" /><path
     style="fill:url(#linearGradient2716)"
     d="M 287.792,551.38 L 287.792,582.367 L 238.961,582.367 L 238.961,551.38 C 238.911,546.831 237.661,543.383 235.212,541.033 C 232.863,538.684 229.714,537.535 225.816,537.535 C 221.918,537.535 218.769,538.684 216.42,541.033 C 213.971,543.383 212.772,546.831 212.721,551.38 L 212.721,640.744 C 212.771,645.391 213.971,648.89 216.42,651.239 C 218.769,653.589 221.918,654.738 225.816,654.738 C 229.714,654.738 232.863,653.589 235.212,651.239 C 237.661,648.89 238.911,645.391 238.961,640.744 L 238.961,606.657 L 287.792,606.657 L 287.792,640.744 C 287.842,645.391 289.091,648.89 291.541,651.239 C 293.89,653.589 297.039,654.738 300.937,654.738 C 304.835,654.738 307.984,653.589 310.333,651.239 C 312.782,648.89 314.032,645.391 314.082,640.744 L 314.082,551.38 C 314.032,546.831 312.782,543.383 310.333,541.033 C 307.984,538.684 304.836,537.535 300.937,537.535 C 297.038,537.535 293.889,538.684 291.541,541.033 C 289.092,543.383 287.842,546.831 287.792,551.38 L 287.792,551.38 z"
     id="path21" /><path
     style="fill:url(#linearGradient2716)"
     d="M 205.725,554.179 C 205.675,550.73 204.576,547.881 202.476,545.533 C 200.427,543.183 197.678,541.284 194.279,539.835 C 190.83,538.485 187.082,537.486 183.033,536.836 C 178.985,536.187 174.936,535.887 170.938,535.887 C 159.293,535.987 149.197,538.586 140.65,543.734 C 132.153,548.832 125.556,555.88 120.858,564.925 C 116.21,573.922 113.811,584.318 113.76,596.162 C 113.76,604.509 115.01,612.256 117.459,619.453 C 120.008,626.75 123.657,633.147 128.455,638.695 C 133.303,644.143 139.251,648.491 146.248,651.64 C 153.295,654.788 161.342,656.338 170.388,656.388 C 174.087,656.388 177.985,656.037 182.134,655.388 C 186.282,654.689 190.231,653.589 193.929,652.039 C 197.628,650.59 200.677,648.591 203.026,646.042 C 205.375,643.593 206.625,640.544 206.674,636.945 C 206.724,635.746 206.474,634.196 205.974,632.297 C 205.424,630.398 204.325,628.698 202.625,627.199 C 200.976,625.699 198.427,624.9 195.028,624.75 C 192.879,624.9 190.83,625.35 188.981,626.199 C 187.082,627.049 184.633,627.898 181.684,628.799 C 178.735,629.649 174.587,630.098 169.289,630.149 C 163.242,630.098 158.194,628.5 154.145,625.401 C 150.097,622.301 147.048,618.204 144.999,613.055 C 142.95,607.957 141.9,602.31 141.9,596.161 C 141.85,590.114 142.849,584.416 144.849,579.168 C 146.898,573.82 150.047,569.522 154.395,566.273 C 158.793,562.924 164.491,561.225 171.539,561.126 C 174.937,561.176 177.986,561.625 180.635,562.525 C 183.284,563.424 185.783,564.324 188.032,565.223 C 190.231,566.073 192.33,566.523 194.329,566.673 C 197.828,566.523 200.577,565.223 202.576,562.775 C 204.625,560.326 205.675,557.427 205.725,554.179 L 205.725,554.179 z"
     id="path23" /></g>
<path
   style="fill:#222b2d;fill-opacity:1"
   id="path2598"
   d="M 537.043,239.954 C 537.043,173.681 513.602,117.103 466.771,70.271996 C 419.94,23.440996 363.362,-4e-06 297.139,-4e-06 C 230.865,-4e-06 174.288,23.440996 127.457,70.271996 C 80.625,117.103 57.235,173.681 57.235,239.954 C 57.235,306.178 80.626,362.755 127.457,409.586 C 174.288,456.418 230.866,479.858 297.139,479.908 C 363.362,479.858 419.939,456.417 466.77,409.586 C 513.601,362.755 537.043,306.178 537.043,239.954 L 537.043,239.954 z M 297.139,59.975996 C 346.768,59.975996 389.202,77.518996 424.338,112.655 C 459.474,147.791 477.067,190.224 477.067,239.904 C 477.067,289.584 459.474,332.017 424.338,367.153 C 389.202,402.289 346.769,419.882 297.139,419.882 C 247.459,419.882 205.026,402.289 169.89,367.153 C 134.754,332.017 117.161,289.584 117.211,239.904 C 117.161,190.224 134.754,147.791 169.89,112.655 C 205.025,77.518996 247.459,59.975996 297.139,59.975996 L 297.139,59.975996 z" /><path
   style="fill:url(#linearGradient2703);fill-opacity:1;stroke:url(#linearGradient2705);stroke-width:0.5;stroke-miterlimit:4;stroke-dasharray:none;stroke-dashoffset:0;stroke-opacity:1"
   d="M 297.14799,-4e-06 C 284.72162,-4e-06 272.64222,0.820887 260.89799,2.468746 C 260.5547,2.5288704 260.20945,2.5631963 259.86674,2.624996 C 161.90225,20.290468 87.49174,106.30253 87.49174,209.65625 C 87.49174,325.77633 181.41669,420.03125 297.14799,420.03125 C 412.8793,420.03125 506.80423,325.77633 506.80424,209.65625 C 506.80424,106.34766 432.45539,20.373667 334.55424,2.656246 C 334.44912,2.6409584 334.34692,2.608901 334.24174,2.593746 C 322.22873,0.86278 309.8741,-4e-06 297.14799,-4e-06 z M 297.14799,59.968746 C 346.777,59.968744 389.19949,77.520246 424.33549,112.65625 C 459.4715,147.79225 477.05424,190.22625 477.05424,239.90625 C 477.05425,289.58624 459.47149,332.02025 424.33549,367.15625 C 389.1995,402.29224 346.77799,419.875 297.14799,419.875 C 247.468,419.87501 205.03399,402.29225 169.89799,367.15625 C 134.762,332.02024 117.16049,289.58625 117.21049,239.90625 C 117.16049,190.22624 134.76199,147.79225 169.89799,112.65625 C 205.033,77.520247 247.46799,59.968746 297.14799,59.968746 z"
   id="path2506" /></svg>