<?xml version="1.0" encoding="UTF-8" standalone="no"?>
<!-- Generator: Adobe Illustrator 12.0.0, SVG Export Plug-In . SVG Version: 6.00 Build 51448)  -->
<svg
   xmlns:dc="http://purl.org/dc/elements/1.1/"
   xmlns:cc="http://creativecommons.org/ns#"
   xmlns:rdf="http://www.w3.org/1999/02/22-rdf-syntax-ns#"
   xmlns:svg="http://www.w3.org/2000/svg"
   xmlns="http://www.w3.org/2000/svg"
   xmlns:xlink="http://www.w3.org/1999/xlink"
   xmlns:sodipodi="http://sodipodi.sourceforge.net/DTD/sodipodi-0.dtd"
   xmlns:inkscape="http://www.inkscape.org/namespaces/inkscape"
   version="1.1"
   id="Layer_1"
   width="479.809"
   height="654.741"
   viewBox="0 0 479.809 654.741"
   overflow="visible"
   enable-background="new 0 0 479.809 654.741"
   xml:space="preserve"
   sodipodi:version="0.32"
   inkscape:version="0.46"
   sodipodi:docname="kexi.svg"
   inkscape:output_extension="org.inkscape.output.svg.inkscape"><metadata
   id="metadata26"><rdf:RDF><cc:Work
       rdf:about=""><dc:format>image/svg+xml</dc:format><dc:type
         rdf:resource="http://purl.org/dc/dcmitype/StillImage" /></cc:Work></rdf:RDF></metadata><defs
   id="defs24"><inkscape:perspective
   sodipodi:type="inkscape:persp3d"
   inkscape:vp_x="0 : 327.37051 : 1"
   inkscape:vp_y="0 : 1000 : 0"
   inkscape:vp_z="479.80899 : 327.37051 : 1"
   inkscape:persp3d-origin="239.9045 : 218.24701 : 1"
   id="perspective28" /><linearGradient
   y2="534.97424"
   x2="232.97664"
   y1="656.388"
   x1="232.97664"
   gradientUnits="userSpaceOnUse"
   id="linearGradient2446"
   xlink:href="#linearGradient3353"
   inkscape:collect="always" /><linearGradient
   y2="534.97424"
   x2="232.97664"
   y1="656.388"
   x1="232.97664"
   gradientUnits="userSpaceOnUse"
   id="linearGradient2443"
   xlink:href="#linearGradient3353"
   inkscape:collect="always" /><linearGradient
   y2="534.97424"
   x2="232.97664"
   y1="656.388"
   x1="232.97664"
   gradientUnits="userSpaceOnUse"
   id="linearGradient2440"
   xlink:href="#linearGradient3353"
   inkscape:collect="always" /><linearGradient
   y2="534.97424"
   x2="232.97664"
   y1="656.388"
   x1="232.97664"
   gradientUnits="userSpaceOnUse"
   id="linearGradient2437"
   xlink:href="#linearGradient3353"
   inkscape:collect="always" /><linearGradient
   y2="534.97424"
   x2="232.97664"
   y1="656.388"
   x1="232.97664"
   gradientUnits="userSpaceOnUse"
   id="linearGradient2434"
   xlink:href="#linearGradient3353"
   inkscape:collect="always" /><linearGradient
   y2="534.97424"
   x2="232.97664"
   y1="656.388"
   x1="232.97664"
   gradientUnits="userSpaceOnUse"
   id="linearGradient2431"
   xlink:href="#linearGradient3353"
   inkscape:collect="always" /><linearGradient
   y2="534.97424"
   x2="232.97664"
   y1="656.388"
   x1="232.97664"
   gradientUnits="userSpaceOnUse"
   id="linearGradient2428"
   xlink:href="#linearGradient3353"
   inkscape:collect="always" /><linearGradient
   y2="534.97424"
   x2="232.97664"
   y1="656.388"
   x1="232.97664"
   gradientUnits="userSpaceOnUse"
   id="linearGradient2426"
   xlink:href="#linearGradient3353"
   inkscape:collect="always" /><linearGradient
   y2="534.97424"
   x2="232.97664"
   y1="656.388"
   x1="232.97664"
   gradientUnits="userSpaceOnUse"
   id="linearGradient2424"
   xlink:href="#linearGradient3353"
   inkscape:collect="always" /><linearGradient
   y2="534.97424"
   x2="232.97664"
   y1="656.388"
   x1="232.97664"
   gradientUnits="userSpaceOnUse"
   id="linearGradient2422"
   xlink:href="#linearGradient3353"
   inkscape:collect="always" /><linearGradient
   y2="534.97424"
   x2="232.97664"
   y1="656.388"
   x1="232.97664"
   gradientUnits="userSpaceOnUse"
   id="linearGradient2420"
   xlink:href="#linearGradient3353"
   inkscape:collect="always" /><linearGradient
   y2="534.97424"
   x2="232.97664"
   y1="656.388"
   x1="232.97664"
   gradientUnits="userSpaceOnUse"
   id="linearGradient2418"
   xlink:href="#linearGradient3353"
   inkscape:collect="always" /><linearGradient
   y2="534.97424"
   x2="232.97664"
   y1="656.388"
   x1="232.97664"
   gradientUnits="userSpaceOnUse"
   id="linearGradient2416"
   xlink:href="#linearGradient3353"
   inkscape:collect="always" /><linearGradient
   y2="534.97424"
   x2="232.97664"
   y1="656.388"
   x1="232.97664"
   gradientUnits="userSpaceOnUse"
   id="linearGradient2414"
   xlink:href="#linearGradient3353"
   inkscape:collect="always" /><linearGradient
   gradientTransform="translate(-7.895,34.834)"
   gradientUnits="userSpaceOnUse"
   y2="535.18597"
   x2="68.389832"
   y1="653.48999"
   x1="68.389832"
   id="linearGradient3365"
   xlink:href="#linearGradient3367"
   inkscape:collect="always" /><linearGradient
   gradientUnits="userSpaceOnUse"
   y2="534.97424"
   x2="232.97664"
   y1="656.388"
   x1="232.97664"
   id="linearGradient3359"
   xlink:href="#linearGradient3353"
   inkscape:collect="always" /><linearGradient
   gradientUnits="userSpaceOnUse"
   y2="125.0482"
   x2="317.72427"
   y1="353.60373"
   x1="317.72427"
   id="linearGradient3320"
   xlink:href="#linearGradient3314"
   inkscape:collect="always" /><linearGradient
   gradientUnits="userSpaceOnUse"
   y2="421.22168"
   x2="294.96109"
   y1="-0.0057355352"
   x1="294.96109"
   id="linearGradient3312"
   xlink:href="#linearGradient3292"
   inkscape:collect="always" />
	
	
	
	
	
	
	
	
	
	
	
<inkscape:perspective
   sodipodi:type="inkscape:persp3d"
   inkscape:vp_x="0 : 526.18109 : 1"
   inkscape:vp_y="0 : 1000 : 0"
   inkscape:vp_z="744.09448 : 526.18109 : 1"
   inkscape:persp3d-origin="372.04724 : 350.78739 : 1"
   id="perspective2469" /><inkscape:perspective
   id="perspective32"
   inkscape:persp3d-origin="292.73651 : 218.796 : 1"
   inkscape:vp_z="585.47302 : 328.194 : 1"
   inkscape:vp_y="0 : 1000 : 0"
   inkscape:vp_x="0 : 328.194 : 1"
   sodipodi:type="inkscape:persp3d" /><linearGradient
   id="linearGradient3292"><stop
     id="stop3294"
     offset="0"
     style="stop-color:#8f9495;stop-opacity:1" /><stop
     id="stop3296"
     offset="1"
     style="stop-color:#222b2d;stop-opacity:1" /></linearGradient><linearGradient
   id="linearGradient3314"><stop
     id="stop3316"
     offset="0"
     style="stop-color:#fe790f;stop-opacity:1;" /><stop
     id="stop3318"
     offset="1"
     style="stop-color:#fea25b;stop-opacity:1;" /></linearGradient><linearGradient
   id="linearGradient3353"><stop
     id="stop3355"
     offset="0"
     style="stop-color:#20292b;stop-opacity:1" /><stop
     style="stop-color:#20292b;stop-opacity:1"
     offset="0.5"
     id="stop3363" /><stop
     style="stop-color:#31393b;stop-opacity:1"
     offset="0.50999999"
     id="stop3361" /><stop
     id="stop3357"
     offset="1"
     style="stop-color:#787d7f;stop-opacity:1" /></linearGradient><linearGradient
   id="linearGradient3367"><stop
     style="stop-color:#fe7100;stop-opacity:1;"
     offset="0"
     id="stop3369" /><stop
     id="stop3371"
     offset="0.5"
     style="stop-color:#fe7100;stop-opacity:1;" /><stop
     id="stop3373"
     offset="0.50999999"
     style="stop-color:#fe801b;stop-opacity:1;" /><stop
     style="stop-color:#feaa66;stop-opacity:1;"
     offset="1"
     id="stop3375" /></linearGradient><linearGradient
   inkscape:collect="always"
   xlink:href="#linearGradient3353"
   id="linearGradient2585"
   gradientUnits="userSpaceOnUse"
   x1="232.97664"
   y1="656.388"
   x2="232.97664"
   y2="534.97424"
   gradientTransform="translate(-99.179799,-0.4262079)" />
	
	
	
	
	
	
	
	
	
<linearGradient
   inkscape:collect="always"
   xlink:href="#linearGradient3292"
   id="linearGradient2601"
   gradientUnits="userSpaceOnUse"
   gradientTransform="translate(-571.79218,21.475341)"
   x1="292.75"
   y1="-2.8303274e-14"
   x2="292.75"
   y2="420.03125" /><linearGradient
   inkscape:collect="always"
   xlink:href="#linearGradient3292"
   id="linearGradient2603"
   gradientUnits="userSpaceOnUse"
   gradientTransform="translate(-571.79217,21.475341)"
   x1="292.75"
   y1="7.1270186e-08"
   x2="292.75"
   y2="420.03125" /><linearGradient
   inkscape:collect="always"
   xlink:href="#linearGradient3353"
   id="linearGradient2611"
   x1="197.11394"
   y1="654.73938"
   x2="197.11394"
   y2="535.23602"
   gradientUnits="userSpaceOnUse" /><linearGradient
   inkscape:collect="always"
   xlink:href="#linearGradient3367"
   id="linearGradient2613"
   x1="133.54099"
   y1="653.49103"
   x2="133.54099"
   y2="535.21124"
   gradientUnits="userSpaceOnUse" /><inkscape:perspective
   id="perspective2705"
   inkscape:persp3d-origin="372.04724 : 350.78739 : 1"
   inkscape:vp_z="744.09448 : 526.18109 : 1"
   inkscape:vp_y="0 : 1000 : 0"
   inkscape:vp_x="0 : 526.18109 : 1"
   sodipodi:type="inkscape:persp3d" /><linearGradient
   inkscape:collect="always"
   xlink:href="#linearGradient3314"
   id="linearGradient2721"
   x1="206.33565"
   y1="355.55756"
   x2="206.33565"
   y2="125.099"
   gradientUnits="userSpaceOnUse" /><linearGradient
   inkscape:collect="always"
   xlink:href="#linearGradient3292"
   id="linearGradient2438"
   x1="237.37856"
   y1="-0.18070547"
   x2="237.37856"
   y2="419.44904"
   gradientUnits="userSpaceOnUse" /></defs><sodipodi:namedview
   inkscape:window-height="828"
   inkscape:window-width="1440"
   inkscape:pageshadow="2"
   inkscape:pageopacity="0.0"
   guidetolerance="10.0"
   gridtolerance="10.0"
   objecttolerance="10.0"
   borderopacity="1.0"
   bordercolor="#666666"
   pagecolor="#ffffff"
   id="base"
   showgrid="false"
   inkscape:zoom="0.86751857"
   inkscape:cx="225.7265"
   inkscape:cy="312.27064"
   inkscape:window-x="0"
   inkscape:window-y="0"
   inkscape:current-layer="Layer_1" />
<path
   style="fill:url(#linearGradient2721);fill-opacity:1"
   id="path9"
   d="M 171.981,129.048 C 171.231,128.598 170.531,128.249 169.832,127.948 C 165.884,126.049 161.636,125.099 156.987,125.099 C 148.691,125.099 141.643,128.048 135.796,133.945 C 129.948,139.793 127,146.84 127,155.087 C 127,163.384 129.949,170.481 135.796,176.329 C 135.846,176.379 135.846,176.379 135.896,176.429 L 199.47,240.054 L 132.047,307.427 L 131.997,307.427 C 128.648,312.625 126.999,318.472 126.999,324.92 C 126.999,333.167 129.948,340.264 135.795,346.111 C 141.642,351.958 148.69,354.908 156.986,354.908 C 163.433,354.858 169.231,353.209 174.429,349.86 L 174.479,349.86 L 262.944,261.395 L 262.893,261.345 C 262.893,261.345 262.893,261.345 262.944,261.295 C 264.793,259.446 266.342,257.546 267.591,255.498 C 267.692,255.348 267.791,255.198 267.891,255.048 C 268.291,254.348 268.641,253.649 268.991,252.899 C 270.841,249.001 271.79,244.702 271.841,240.054 C 271.79,239.504 271.79,238.954 271.79,238.405 C 271.69,236.856 271.49,235.306 271.24,233.857 C 270.791,231.808 270.191,229.809 269.342,227.91 C 268.942,227.06 268.492,226.21 268.042,225.411 C 267.592,224.511 267.042,223.661 266.442,222.812 L 266.392,222.812 L 178.277,133.998 L 178.277,134.048 C 178.227,133.998 178.227,133.998 178.227,133.998 C 176.28,131.997 174.181,130.348 171.981,129.048 L 171.981,129.048 z" /><g
   id="g2433"
   style="fill:url(#linearGradient2438)"><path
     d="M 346.812,133.896 C 340.964,128.048 333.867,125.1 325.621,125.1 C 319.123,125.1 313.275,126.799 308.128,130.198 L 269.144,169.182 C 269.094,169.182 269.094,169.182 269.094,169.232 C 267.145,171.181 265.495,173.231 264.196,175.48 C 263.747,176.18 263.396,176.879 263.047,177.629 C 261.197,181.527 260.248,185.826 260.248,190.474 C 260.198,198.721 263.146,205.818 268.994,211.665 C 274.842,217.512 281.939,220.461 290.236,220.461 C 298.482,220.411 305.58,217.462 311.477,211.614 C 311.477,211.564 311.477,211.564 311.527,211.564 L 323.572,199.569 L 350.511,172.58 C 353.86,167.382 355.559,161.535 355.61,155.087 C 355.558,146.792 352.659,139.744 346.812,133.896 L 346.812,133.896 z"
     id="path7"
     style="fill:url(#linearGradient2438)" /><path
     d="M 335.216,293.133 L 308.227,266.144 C 307.677,265.794 307.127,265.494 306.578,265.144 C 301.83,262.445 296.532,261.096 290.734,261.096 C 282.438,261.096 275.39,264.045 269.543,269.892 C 263.696,275.739 260.747,282.787 260.747,291.083 C 260.747,297.531 262.446,303.378 265.845,308.576 L 304.829,347.56 C 304.829,347.56 304.829,347.56 304.879,347.611 C 306.828,349.56 308.878,351.159 311.127,352.508 C 311.826,352.908 312.526,353.258 313.275,353.608 C 317.173,355.458 321.472,356.407 326.121,356.457 C 334.367,356.457 341.465,353.509 347.312,347.661 C 353.159,341.813 356.108,334.716 356.108,326.469 C 356.058,318.173 353.109,311.075 347.261,305.228 C 347.211,305.178 347.211,305.178 347.211,305.128 L 335.216,293.133 L 335.216,293.133 z"
     id="path11"
     style="fill:url(#linearGradient2438)" /></g><path
   style="fill:url(#linearGradient2613)"
   id="path13"
   d="M 189.324,559.727 C 191.024,557.028 191.873,554.029 191.923,550.73 C 191.873,546.482 190.374,542.834 187.375,539.834 C 184.376,536.785 180.728,535.286 176.479,535.286 C 173.13,535.286 170.132,536.136 167.483,537.885 L 121.951,583.417 L 122.001,583.417 L 121.951,583.417 C 120.902,584.416 120.052,585.516 119.402,586.665 C 119.202,587.016 119.002,587.365 118.852,587.765 C 117.902,589.764 117.403,591.963 117.403,594.363 C 117.403,594.613 117.403,594.913 117.403,595.213 C 117.453,596.013 117.553,596.813 117.703,597.562 C 118.003,599.112 118.553,600.561 119.352,601.911 C 119.602,602.361 119.852,602.81 120.152,603.261 L 120.202,603.261 L 165.534,648.943 L 165.534,648.893 L 165.534,648.943 C 166.534,649.943 167.633,650.793 168.783,651.492 C 169.133,651.692 169.483,651.892 169.883,652.042 C 171.882,652.992 174.081,653.491 176.48,653.491 C 180.729,653.491 184.327,651.992 187.376,648.993 C 190.375,645.944 191.875,642.346 191.924,638.097 C 191.874,633.849 190.375,630.201 187.376,627.152 L 187.326,627.102 L 154.639,594.365 L 189.324,559.727 L 189.324,559.727 z" /><g
   id="g2605"
   style="fill:url(#linearGradient2611);fill-opacity:1"><path
     d="M 96.812,535.236 C 92.563,535.236 88.915,536.735 85.916,539.784 C 83.567,542.133 82.067,544.832 81.417,547.98 L 81.417,638.094 C 81.367,639.493 81.567,640.843 81.917,642.143 C 82.017,642.542 82.117,642.943 82.267,643.342 C 83.017,645.441 84.216,647.34 85.916,649.039 C 88.915,652.038 92.563,653.538 96.812,653.538 C 101.06,653.538 104.709,652.038 107.757,649.039 C 110.756,645.99 112.256,642.342 112.256,638.094 L 112.256,547.98 C 111.606,544.832 110.107,542.132 107.757,539.784 C 104.708,536.735 101.06,535.236 96.812,535.236 L 96.812,535.236 z"
     id="path15"
     style="fill:url(#linearGradient2611);fill-opacity:1.0" /><path
     d="M 375.899,541.033 C 373.451,543.383 372.251,546.881 372.201,551.479 L 372.201,640.843 C 372.251,645.391 373.451,648.89 375.899,651.239 C 378.249,653.589 381.397,654.738 385.295,654.738 C 389.193,654.738 392.342,653.589 394.691,651.239 C 397.14,648.89 398.389,645.391 398.439,640.843 L 398.439,551.479 C 398.389,546.88 397.14,543.382 394.691,541.033 C 392.341,538.684 389.193,537.535 385.295,537.535 C 381.397,537.535 378.249,538.685 375.899,541.033 L 375.899,541.033 z"
     id="path17"
     style="fill:url(#linearGradient2611);fill-opacity:1.0" /><path
     d="M 337.665,541.134 C 335.416,543.383 333.167,546.232 331.018,549.58 L 316.324,569.872 L 301.53,549.58 C 299.382,546.231 297.132,543.383 294.883,541.134 C 292.684,538.885 289.835,537.685 286.337,537.535 C 283.238,537.585 280.689,538.234 278.69,539.385 C 276.641,540.584 275.091,542.133 274.092,543.983 C 273.092,545.833 272.592,547.732 272.592,549.731 C 272.592,551.83 273.042,553.829 273.942,555.728 C 274.792,557.578 275.941,559.477 277.441,561.375 L 300.431,591.813 L 272.443,629.348 C 270.994,631.197 269.894,632.746 269.045,633.995 C 268.245,635.245 267.646,636.494 267.295,637.744 C 266.945,638.893 266.745,640.293 266.745,641.942 C 266.846,645.741 268.045,648.79 270.393,651.088 C 272.743,653.437 275.791,654.687 279.539,654.736 C 281.788,654.786 283.937,654.286 285.936,653.136 C 287.986,652.036 290.134,649.988 292.383,646.989 L 316.323,614.252 L 340.214,646.989 C 342.463,649.988 344.612,652.037 346.611,653.136 C 348.61,654.285 350.759,654.785 353.008,654.736 C 356.757,654.686 359.806,653.436 362.204,651.088 C 364.503,648.789 365.703,645.74 365.803,641.942 C 365.803,640.293 365.603,638.893 365.253,637.744 C 364.903,636.494 364.304,635.245 363.504,633.995 C 362.654,632.746 361.555,631.196 360.106,629.348 L 332.117,591.813 L 355.158,561.375 C 356.607,559.477 357.757,557.577 358.606,555.728 C 359.506,553.829 359.956,551.83 359.956,549.731 C 359.956,547.732 359.456,545.833 358.457,543.983 C 357.457,542.133 355.908,540.585 353.858,539.385 C 351.859,538.235 349.31,537.585 346.212,537.535 C 342.763,537.685 339.914,538.885 337.665,541.134 L 337.665,541.134 z"
     id="path19"
     style="fill:url(#linearGradient2611);fill-opacity:1.0" /><path
     d="M 261.046,541.833 C 258.797,539.685 255.548,538.534 251.4,538.484 L 211.216,538.484 C 207.667,538.484 204.669,539.633 202.119,541.882 C 199.57,544.132 198.221,547.38 198.121,551.628 L 198.121,640.643 C 198.221,644.892 199.57,648.14 202.119,650.389 C 204.668,652.638 207.667,653.787 211.216,653.787 L 252.35,653.787 C 256.497,653.737 259.746,652.638 261.996,650.489 C 264.295,648.34 265.445,645.341 265.445,641.593 C 265.445,637.794 264.295,634.845 261.996,632.746 C 259.747,630.646 256.498,629.547 252.35,629.497 L 224.36,629.497 L 224.36,607.906 L 249.1,607.906 C 253.248,607.855 256.496,606.806 258.746,604.707 C 261.095,602.558 262.244,599.56 262.244,595.761 C 262.244,592.013 261.095,589.064 258.746,586.914 C 256.496,584.766 253.248,583.716 249.1,583.666 L 224.36,583.666 L 224.36,562.774 L 251.399,562.774 C 255.547,562.723 258.796,561.674 261.045,559.525 C 263.294,557.425 264.443,554.427 264.493,550.579 C 264.444,546.932 263.295,543.982 261.046,541.833 L 261.046,541.833 z"
     id="path21"
     style="fill:url(#linearGradient2611);fill-opacity:1.0" /></g>
<g
   id="g2588"
   transform="translate(518.95617,-21.47534)"><path
     d="M -39.14717,261.42934 C -39.14717,195.15634 -62.58817,138.57834 -109.41917,91.747341 C -156.25017,44.916341 -212.82817,21.475341 -279.05117,21.475341 C -345.32517,21.475341 -401.90217,44.916341 -448.73317,91.747341 C -495.56517,138.57834 -518.95517,195.15634 -518.95517,261.42934 C -518.95517,327.65334 -495.56417,384.23034 -448.73317,431.06134 C -401.90217,477.89334 -345.32417,501.33334 -279.05117,501.38334 C -212.82817,501.33334 -156.25117,477.89234 -109.42017,431.06134 C -62.58917,384.23034 -39.14717,327.65334 -39.14717,261.42934 L -39.14717,261.42934 z M -279.05117,81.451341 C -229.42217,81.451341 -186.98817,98.994341 -151.85217,134.13034 C -116.71617,169.26634 -99.12317,211.69934 -99.12317,261.37934 C -99.12317,311.05934 -116.71617,353.49234 -151.85217,388.62834 C -186.98817,423.76434 -229.42117,441.35734 -279.05117,441.35734 C -328.73117,441.35734 -371.16417,423.76434 -406.30017,388.62834 C -441.43617,353.49234 -459.02917,311.05934 -458.97917,261.37934 C -459.02917,211.69934 -441.43617,169.26634 -406.30017,134.13034 C -371.16517,98.994341 -328.73117,81.451341 -279.05117,81.451341 L -279.05117,81.451341 z"
     id="path2574"
     style="fill:#222b2d;fill-opacity:1" /><path
     id="path2506"
     d="M -279.04218,21.475341 C -291.46855,21.475341 -303.54795,22.296232 -315.29218,23.944091 C -315.63547,24.004215 -315.98072,24.038541 -316.32343,24.100341 C -414.28792,41.765813 -488.69843,127.77787 -488.69843,231.13159 C -488.69843,347.25167 -394.77348,441.50659 -279.04218,441.50659 C -163.31087,441.50659 -69.38594,347.25167 -69.38593,231.13159 C -69.38593,127.823 -143.73478,41.849012 -241.63593,24.131591 C -241.74105,24.116303 -241.84325,24.084246 -241.94843,24.069091 C -253.96144,22.338125 -266.31607,21.475341 -279.04218,21.475341 z M -279.04218,81.444091 C -229.41317,81.444089 -186.99068,98.995591 -151.85468,134.13159 C -116.71867,169.26759 -99.13593,211.70159 -99.13593,261.38159 C -99.13592,311.06158 -116.71868,353.49559 -151.85468,388.63159 C -186.99067,423.76758 -229.41218,441.35034 -279.04218,441.35034 C -328.72217,441.35035 -371.15618,423.76759 -406.29218,388.63159 C -441.42817,353.49558 -459.02968,311.06159 -458.97968,261.38159 C -459.02968,211.70158 -441.42818,169.26759 -406.29218,134.13159 C -371.15717,98.995592 -328.72218,81.444091 -279.04218,81.444091 z"
     style="fill:url(#linearGradient2601);fill-opacity:1;stroke:url(#linearGradient2603);stroke-width:0.5;stroke-miterlimit:4;stroke-dasharray:none;stroke-dashoffset:0;stroke-opacity:1" /></g></svg>