<?xml version="1.0" encoding="UTF-8" standalone="no"?>
<!-- Generator: Adobe Illustrator 12.0.0, SVG Export Plug-In . SVG Version: 6.00 Build 51448)  -->
<svg
   xmlns:dc="http://purl.org/dc/elements/1.1/"
   xmlns:cc="http://creativecommons.org/ns#"
   xmlns:rdf="http://www.w3.org/1999/02/22-rdf-syntax-ns#"
   xmlns:svg="http://www.w3.org/2000/svg"
   xmlns="http://www.w3.org/2000/svg"
   xmlns:xlink="http://www.w3.org/1999/xlink"
   xmlns:sodipodi="http://sodipodi.sourceforge.net/DTD/sodipodi-0.dtd"
   xmlns:inkscape="http://www.inkscape.org/namespaces/inkscape"
   version="1.1"
   id="Layer_1"
   width="821.279"
   height="656.388"
   viewBox="0 0 821.279 656.388"
   overflow="visible"
   enable-background="new 0 0 821.279 656.388"
   xml:space="preserve"
   sodipodi:version="0.32"
   inkscape:version="0.46"
   sodipodi:docname="kformula.svg"
   inkscape:output_extension="org.inkscape.output.svg.inkscape"><metadata
   id="metadata30"><rdf:RDF><cc:Work
       rdf:about=""><dc:format>image/svg+xml</dc:format><dc:type
         rdf:resource="http://purl.org/dc/dcmitype/StillImage" /></cc:Work></rdf:RDF></metadata><defs
   id="defs28"><linearGradient
   id="linearGradient2924"><stop
     id="stop2926"
     offset="0"
     style="stop-color:#9fc720;stop-opacity:1" /><stop
     id="stop2928"
     offset="1"
     style="stop-color:#b5d451;stop-opacity:1" /></linearGradient><inkscape:perspective
   sodipodi:type="inkscape:persp3d"
   inkscape:vp_x="0 : 328.194 : 1"
   inkscape:vp_y="0 : 1000 : 0"
   inkscape:vp_z="821.27899 : 328.194 : 1"
   inkscape:persp3d-origin="410.6395 : 218.796 : 1"
   id="perspective32" /><inkscape:perspective
   sodipodi:type="inkscape:persp3d"
   inkscape:vp_x="0 : 526.18109 : 1"
   inkscape:vp_y="0 : 1000 : 0"
   inkscape:vp_z="744.09448 : 526.18109 : 1"
   inkscape:persp3d-origin="372.04724 : 350.78739 : 1"
   id="perspective2809" /><linearGradient
   gradientUnits="userSpaceOnUse"
   y2="535.23602"
   x2="326.69196"
   y1="656.38806"
   x1="326.69196"
   id="linearGradient2716"
   xlink:href="#linearGradient3353"
   inkscape:collect="always" />
	
	
	
	
	
	
	
	
	
	
<linearGradient
   gradientTransform="translate(-449.08664,8.5763482)"
   y2="125.0482"
   x2="317.72427"
   y1="353.60373"
   x1="317.72427"
   gradientUnits="userSpaceOnUse"
   id="linearGradient2655"
   xlink:href="#linearGradient3314"
   inkscape:collect="always" /><linearGradient
   gradientTransform="translate(-609.66225,-11.143464)"
   y2="421.22168"
   x2="294.96109"
   y1="-0.0057355352"
   x1="294.96109"
   gradientUnits="userSpaceOnUse"
   id="linearGradient2652"
   xlink:href="#linearGradient3292"
   inkscape:collect="always" /><linearGradient
   gradientTransform="translate(-609.66225,-11.143464)"
   y2="535.18597"
   x2="68.389832"
   y1="653.48999"
   x1="68.389832"
   gradientUnits="userSpaceOnUse"
   id="linearGradient2649"
   xlink:href="#linearGradient3367"
   inkscape:collect="always" /><linearGradient
   y2="534.97424"
   x2="232.97664"
   y1="656.388"
   x1="232.97664"
   gradientUnits="userSpaceOnUse"
   id="linearGradient2633"
   xlink:href="#linearGradient3353"
   inkscape:collect="always" /><linearGradient
   y2="534.97424"
   x2="232.97664"
   y1="656.388"
   x1="232.97664"
   gradientUnits="userSpaceOnUse"
   id="linearGradient2631"
   xlink:href="#linearGradient3353"
   inkscape:collect="always" /><linearGradient
   y2="534.97424"
   x2="232.97664"
   y1="656.388"
   x1="232.97664"
   gradientUnits="userSpaceOnUse"
   id="linearGradient2629"
   xlink:href="#linearGradient3353"
   inkscape:collect="always" /><linearGradient
   y2="534.97424"
   x2="232.97664"
   y1="656.388"
   x1="232.97664"
   gradientUnits="userSpaceOnUse"
   id="linearGradient2627"
   xlink:href="#linearGradient3353"
   inkscape:collect="always" /><linearGradient
   y2="534.97424"
   x2="232.97664"
   y1="656.388"
   x1="232.97664"
   gradientUnits="userSpaceOnUse"
   id="linearGradient2625"
   xlink:href="#linearGradient3353"
   inkscape:collect="always" /><linearGradient
   y2="534.97424"
   x2="232.97664"
   y1="656.388"
   x1="232.97664"
   gradientUnits="userSpaceOnUse"
   id="linearGradient2623"
   xlink:href="#linearGradient3353"
   inkscape:collect="always" /><linearGradient
   y2="534.97424"
   x2="232.97664"
   y1="656.388"
   x1="232.97664"
   gradientUnits="userSpaceOnUse"
   id="linearGradient2621"
   xlink:href="#linearGradient3353"
   inkscape:collect="always" /><linearGradient
   id="linearGradient3367"><stop
     id="stop3369"
     offset="0"
     style="stop-color:#93c000;stop-opacity:1" /><stop
     style="stop-color:#93c000;stop-opacity:1"
     offset="0.5"
     id="stop3371" /><stop
     style="stop-color:#9dc617;stop-opacity:1"
     offset="0.50999999"
     id="stop3373" /><stop
     id="stop3375"
     offset="1"
     style="stop-color:#bed868;stop-opacity:1" /></linearGradient><linearGradient
   id="linearGradient3353"><stop
     style="stop-color:#20292b;stop-opacity:1"
     offset="0"
     id="stop3355" /><stop
     id="stop3363"
     offset="0.5"
     style="stop-color:#20292b;stop-opacity:1" /><stop
     id="stop3361"
     offset="0.50999999"
     style="stop-color:#31393b;stop-opacity:1" /><stop
     style="stop-color:#787d7f;stop-opacity:1"
     offset="1"
     id="stop3357" /></linearGradient><linearGradient
   id="linearGradient3314"><stop
     style="stop-color:#98c30f;stop-opacity:1"
     offset="0"
     id="stop3316" /><stop
     style="stop-color:#b2d24a;stop-opacity:1"
     offset="1"
     id="stop3318" /></linearGradient><linearGradient
   id="linearGradient3292"><stop
     style="stop-color:#8f9495;stop-opacity:1"
     offset="0"
     id="stop3294" /><stop
     style="stop-color:#222b2d;stop-opacity:1"
     offset="1"
     id="stop3296" /></linearGradient><inkscape:perspective
   sodipodi:type="inkscape:persp3d"
   inkscape:vp_x="0 : 328.194 : 1"
   inkscape:vp_y="0 : 1000 : 0"
   inkscape:vp_z="585.47302 : 328.194 : 1"
   inkscape:persp3d-origin="292.73651 : 218.796 : 1"
   id="perspective2701" /><inkscape:perspective
   id="perspective2469"
   inkscape:persp3d-origin="372.04724 : 350.78739 : 1"
   inkscape:vp_z="744.09448 : 526.18109 : 1"
   inkscape:vp_y="0 : 1000 : 0"
   inkscape:vp_x="0 : 526.18109 : 1"
   sodipodi:type="inkscape:persp3d" />
	
	
	
	
	
	
	
	
	
	
	
<linearGradient
   inkscape:collect="always"
   xlink:href="#linearGradient3353"
   id="linearGradient3359"
   x1="232.97664"
   y1="656.388"
   x2="232.97664"
   y2="534.97424"
   gradientUnits="userSpaceOnUse" /><inkscape:perspective
   id="perspective30"
   inkscape:persp3d-origin="297.15948 : 218.796 : 1"
   inkscape:vp_z="594.31897 : 328.194 : 1"
   inkscape:vp_y="0 : 1000 : 0"
   inkscape:vp_x="0 : 328.194 : 1"
   sodipodi:type="inkscape:persp3d" /><linearGradient
   inkscape:collect="always"
   xlink:href="#linearGradient3367"
   id="linearGradient2785"
   gradientUnits="userSpaceOnUse"
   x1="73.253502"
   y1="653.49103"
   x2="73.253502"
   y2="535.28601"
   gradientTransform="translate(-1e-3,-2.7978572e-6)" />
	
	
	
	
	
	
	
	
	
	
	
<linearGradient
   inkscape:collect="always"
   xlink:href="#linearGradient3292"
   id="linearGradient2808"
   gradientUnits="userSpaceOnUse"
   gradientTransform="translate(-612.76021,-14.680997)"
   x1="292.75"
   y1="-2.8303274e-14"
   x2="292.75"
   y2="420.03125" /><linearGradient
   inkscape:collect="always"
   xlink:href="#linearGradient3292"
   id="linearGradient2810"
   gradientUnits="userSpaceOnUse"
   gradientTransform="translate(-612.7602,-14.680997)"
   x1="292.75"
   y1="7.1270186e-08"
   x2="292.75"
   y2="420.03125" /><linearGradient
   inkscape:collect="always"
   xlink:href="#linearGradient3292"
   id="linearGradient2812"
   x1="407.34399"
   y1="0.15048245"
   x2="407.34399"
   y2="419.20895"
   gradientUnits="userSpaceOnUse" /><linearGradient
   inkscape:collect="always"
   xlink:href="#linearGradient3353"
   id="linearGradient2823"
   x1="298.99936"
   y1="656.388"
   x2="298.99936"
   y2="534.95337"
   gradientUnits="userSpaceOnUse" /><inkscape:perspective
   id="perspective2916"
   inkscape:persp3d-origin="372.04724 : 350.78739 : 1"
   inkscape:vp_z="744.09448 : 526.18109 : 1"
   inkscape:vp_y="0 : 1000 : 0"
   inkscape:vp_x="0 : 526.18109 : 1"
   sodipodi:type="inkscape:persp3d" /><linearGradient
   inkscape:collect="always"
   xlink:href="#linearGradient2924"
   id="linearGradient2922"
   x1="383.70499"
   y1="297.68201"
   x2="383.70499"
   y2="152.838"
   gradientUnits="userSpaceOnUse" /><linearGradient
   inkscape:collect="always"
   xlink:href="#linearGradient3292"
   id="linearGradient2931"
   gradientUnits="userSpaceOnUse"
   gradientTransform="translate(117.90299,-7e-6)"
   x1="292.75"
   y1="-2.8303274e-14"
   x2="292.75"
   y2="420.03125" /><linearGradient
   inkscape:collect="always"
   xlink:href="#linearGradient3292"
   id="linearGradient2933"
   gradientUnits="userSpaceOnUse"
   gradientTransform="translate(117.903,-7e-6)"
   x1="292.75"
   y1="7.1270186e-08"
   x2="292.75"
   y2="420.03125" /></defs><sodipodi:namedview
   inkscape:window-height="827"
   inkscape:window-width="1440"
   inkscape:pageshadow="2"
   inkscape:pageopacity="0.0"
   guidetolerance="10.0"
   gridtolerance="10.0"
   objecttolerance="10.0"
   borderopacity="1.0"
   bordercolor="#666666"
   pagecolor="#ffffff"
   id="base"
   showgrid="false"
   inkscape:zoom="1"
   inkscape:cx="79.614839"
   inkscape:cy="377.63591"
   inkscape:window-x="0"
   inkscape:window-y="0"
   inkscape:current-layer="Layer_1" />
<path
   style="fill:url(#linearGradient2922);fill-opacity:1"
   id="path7"
   d="M 495.76,195.672 C 497.609,191.774 498.559,187.475 498.609,182.827 C 498.559,174.58 495.61,167.533 489.762,161.685 C 483.914,155.787 476.818,152.838 468.571,152.838 C 460.274,152.838 453.177,155.787 447.33,161.685 L 447.279,161.685 L 383.654,225.31 L 316.281,157.887 C 311.083,154.538 305.236,152.839 298.788,152.839 C 290.492,152.839 283.444,155.788 277.597,161.635 C 271.75,167.482 268.801,174.53 268.801,182.827 C 268.801,189.274 270.5,195.122 273.849,200.27 L 273.849,200.32 L 362.314,288.785 L 362.364,288.785 C 364.313,290.734 366.412,292.384 368.661,293.733 C 369.361,294.133 370.06,294.483 370.81,294.833 C 374.708,296.683 379.006,297.632 383.655,297.682 C 384.205,297.632 384.755,297.632 385.304,297.632 C 386.853,297.532 388.353,297.332 389.802,297.082 C 392.851,296.482 395.65,295.433 398.299,293.934 C 399.199,293.434 400.049,292.884 400.898,292.285 L 400.898,292.235 L 489.713,204.12 L 489.663,204.12 C 489.663,204.07 489.663,204.07 489.713,204.07 C 491.662,202.121 493.312,200.022 494.661,197.822 C 495.06,197.071 495.409,196.372 495.76,195.672 L 495.76,195.672 z" /><path
   style="fill:url(#linearGradient2812)"
   id="path9"
   d="M 522.199,217.813 C 515.701,217.763 509.853,219.462 504.656,222.861 L 416.241,311.326 C 416.191,311.376 416.191,311.376 416.191,311.426 C 414.242,313.375 412.592,315.425 411.292,317.674 C 410.893,318.374 410.542,319.073 410.193,319.823 C 408.294,323.671 407.344,327.969 407.344,332.618 C 407.344,340.864 410.293,347.962 416.141,353.809 C 421.989,359.657 429.036,362.606 437.332,362.606 C 445.628,362.606 452.726,359.657 458.573,353.809 C 458.623,353.759 458.623,353.759 458.623,353.759 L 473.367,338.965 C 473.817,338.515 474.317,338.015 474.816,337.566 C 479.065,333.317 483.263,329.119 487.511,324.871 C 489.81,322.572 492.11,320.273 494.408,317.974 C 504.353,308.028 509.601,302.78 510.151,302.281 L 547.136,265.296 C 550.485,260.048 552.134,254.251 552.184,247.803 C 552.134,239.507 549.236,232.409 543.388,226.562 C 537.54,220.715 530.445,217.763 522.199,217.813 L 522.199,217.813 z" /><g
   id="g2814"
   style="fill:url(#linearGradient2823)"><path
     d="M 15.401,535.236 C 11.153,535.236 7.505,536.735 4.505,539.784 C 2.155,542.133 0.656,544.832 0.007,547.98 L 0.007,638.094 C -0.043,639.493 0.156,640.843 0.507,642.143 C 0.607,642.542 0.706,642.943 0.857,643.342 C 1.606,645.441 2.806,647.34 4.505,649.039 C 7.504,652.038 11.152,653.538 15.401,653.538 C 19.65,653.538 23.297,652.038 26.346,649.039 C 29.345,645.99 30.844,642.342 30.844,638.094 L 30.844,547.98 C 30.195,544.832 28.696,542.132 26.346,539.784 C 23.298,536.735 19.649,535.236 15.401,535.236 L 15.401,535.236 z"
     id="path13"
     style="fill:url(#linearGradient2823)" /><path
     d="M 821.029,640.194 C 820.829,638.844 820.479,637.195 819.929,635.296 C 819.379,633.347 818.53,630.848 817.38,627.849 L 792.09,559.676 C 790.641,555.378 789.041,551.43 787.292,547.831 C 785.542,544.282 783.344,541.384 780.645,539.234 C 777.946,537.084 774.397,535.935 769.949,535.885 C 765.651,535.935 762.152,537.084 759.504,539.234 C 756.855,541.383 754.656,544.282 752.956,547.831 C 751.207,551.43 749.607,555.378 748.158,559.676 L 722.818,627.849 C 721.718,630.848 720.869,633.347 720.319,635.296 C 720.219,635.646 720.119,635.945 720.069,636.245 C 719.519,634.896 718.67,633.696 717.57,632.747 C 715.321,630.647 712.073,629.548 707.924,629.498 L 679.785,629.498 L 679.785,551.479 C 679.734,546.88 678.485,543.382 676.036,541.033 C 673.687,538.684 670.538,537.535 666.64,537.535 C 662.742,537.535 659.593,538.684 657.244,541.033 C 654.795,543.383 653.595,546.881 653.545,551.479 L 653.545,640.643 C 653.646,644.892 654.995,648.14 657.544,650.389 C 660.093,652.638 663.092,653.787 666.64,653.787 L 707.924,653.787 C 712.072,653.737 715.32,652.638 717.57,650.489 C 718.42,649.739 719.12,648.84 719.67,647.84 C 720.22,649.39 721.169,650.689 722.519,651.788 C 724.768,653.687 727.817,654.687 731.616,654.737 C 735.764,654.637 738.813,653.437 740.762,651.089 C 742.711,648.739 744.26,645.691 745.36,641.943 L 748.609,631.547 L 791.641,631.547 L 794.89,641.943 C 795.99,645.691 797.489,648.74 799.438,651.089 C 801.387,653.438 804.487,654.638 808.634,654.737 C 812.433,654.687 815.482,653.687 817.731,651.788 C 820.03,649.89 821.23,647.29 821.28,644.041 C 821.279,642.793 821.18,641.493 821.029,640.194 L 821.029,640.194 z M 770.449,565.074 L 770.749,565.074 L 783.895,607.306 L 756.356,607.306 L 770.449,565.074 L 770.449,565.074 z"
     id="path15"
     style="fill:url(#linearGradient2823)" /><path
     d="M 619.16,541.033 C 616.711,543.383 615.512,546.881 615.462,551.479 L 615.462,607.556 C 615.411,612.655 614.312,616.952 612.213,620.501 C 610.064,624.05 607.165,626.698 603.567,628.498 C 600.018,630.297 596.02,631.196 591.622,631.196 C 587.323,631.196 583.375,630.297 579.776,628.498 C 576.228,626.698 573.429,624.05 571.33,620.501 C 569.231,616.952 568.132,612.654 568.081,607.556 L 568.081,551.479 C 568.031,546.88 566.782,543.382 564.383,541.033 C 561.984,538.684 558.835,537.535 554.937,537.535 C 551.039,537.535 547.89,538.684 545.541,541.033 C 543.093,543.383 541.893,546.881 541.843,551.479 L 541.843,607.556 C 541.944,617.702 544.092,626.449 548.29,633.696 C 552.539,640.943 558.336,646.541 565.783,650.49 C 573.28,654.388 581.877,656.338 591.623,656.387 C 601.469,656.337 610.115,654.388 617.562,650.49 C 625.059,646.541 630.957,640.943 635.205,633.696 C 639.454,626.449 641.602,617.703 641.703,607.556 L 641.703,551.479 C 641.653,546.88 640.403,543.382 637.954,541.033 C 635.605,538.684 632.457,537.535 628.558,537.535 C 624.659,537.535 621.509,538.685 619.16,541.033 L 619.16,541.033 z"
     id="path17"
     style="fill:url(#linearGradient2823)" /><path
     d="M 501.507,537.535 C 497.159,537.485 493.76,538.434 491.211,540.334 C 488.662,542.184 486.513,545.182 484.764,549.33 C 482.914,553.478 480.915,559.026 478.817,565.874 L 466.022,605.558 L 465.672,605.558 L 452.877,565.874 C 450.777,559.026 448.778,553.478 446.929,549.33 C 445.18,545.182 443.031,542.184 440.482,540.334 C 437.933,538.435 434.535,537.485 430.186,537.535 C 427.937,537.485 425.638,537.934 423.289,538.835 C 420.99,539.685 418.892,541.283 416.992,543.633 C 415.093,546.082 413.743,549.53 412.893,554.078 L 402.497,613.305 C 401.848,617.354 401.148,621.352 400.448,625.25 C 399.799,629.198 399.249,632.697 398.799,635.695 C 398.349,638.744 398.149,640.893 398.149,642.243 C 398.149,644.242 398.649,646.191 399.649,648.091 C 400.599,649.99 401.998,651.539 403.847,652.739 C 405.646,653.988 407.846,654.688 410.494,654.738 C 414.343,654.688 417.292,653.839 419.341,652.189 C 421.39,650.539 422.89,648.44 423.789,645.891 C 424.688,643.243 425.339,640.444 425.688,637.445 L 433.435,586.265 L 433.735,586.265 L 451.478,642.943 C 452.677,647.09 454.376,650.139 456.576,651.989 C 458.875,653.888 461.973,654.788 465.872,654.738 C 469.77,654.788 472.869,653.888 475.118,651.989 C 477.317,650.139 479.016,647.091 480.266,642.943 L 497.959,586.265 L 498.259,586.265 L 506.005,637.445 C 506.356,640.444 507.005,643.243 507.904,645.891 C 508.803,648.44 510.303,650.539 512.352,652.189 C 514.402,653.838 517.35,654.688 521.199,654.738 C 523.847,654.688 526.047,653.988 527.846,652.739 C 529.695,651.539 531.095,649.99 532.044,648.091 C 533.044,646.192 533.543,644.242 533.543,642.243 C 533.543,640.893 533.344,638.744 532.894,635.695 C 532.444,632.697 531.894,629.198 531.245,625.25 C 530.546,621.352 529.846,617.354 529.196,613.305 L 518.85,554.078 C 517.999,549.53 516.601,546.082 514.702,543.633 C 512.803,541.283 510.703,539.685 508.404,538.835 C 506.056,537.935 503.756,537.485 501.507,537.535 L 501.507,537.535 z"
     id="path19"
     style="fill:url(#linearGradient2823)" /><path
     d="M 387.202,555.428 C 384.054,550.08 379.605,545.982 373.858,543.033 C 368.11,540.084 361.263,538.534 353.416,538.484 L 321.878,538.484 C 318.33,538.484 315.331,539.633 312.782,541.882 C 310.233,544.132 308.884,547.38 308.783,551.628 L 308.783,640.843 C 308.833,645.391 310.033,648.89 312.482,651.239 C 314.831,653.589 317.98,654.738 321.878,654.738 C 325.776,654.738 328.925,653.589 331.274,651.239 C 333.723,648.89 334.972,645.391 335.023,640.843 L 335.023,607.607 L 335.323,607.607 L 367.61,648.241 C 369.059,650.29 370.659,651.889 372.408,652.989 C 374.207,654.138 376.756,654.738 380.005,654.738 C 383.354,654.637 386.003,653.888 388.002,652.439 C 389.951,650.989 391.351,649.29 392.2,647.39 C 393.1,645.492 393.5,643.892 393.45,642.542 C 393.45,640.443 392.95,638.493 392.001,636.694 C 391.151,634.945 389.802,633.145 388.002,631.247 L 365.161,606.656 C 373.508,605.007 380.005,601.358 384.753,595.661 C 389.501,590.013 391.9,582.916 392,574.319 C 391.951,567.073 390.351,560.775 387.202,555.428 L 387.202,555.428 z M 352.316,562.775 C 356.164,562.825 359.363,563.974 361.812,566.124 C 364.361,568.272 365.661,571.321 365.76,575.27 C 365.76,578.969 364.611,582.018 362.312,584.466 C 359.963,586.816 356.664,588.065 352.316,588.165 L 335.023,588.165 L 335.023,562.775 L 352.316,562.775 L 352.316,562.775 z"
     id="path21"
     style="fill:url(#linearGradient2823)" /><path
     d="M 291.891,627.999 C 296.539,619.053 298.938,608.406 298.988,596.161 C 298.938,583.866 296.539,573.221 291.891,564.274 C 287.243,555.278 280.645,548.331 272.199,543.382 C 263.753,538.434 253.806,535.935 242.361,535.885 C 230.865,535.935 220.92,538.434 212.473,543.382 C 204.027,548.33 197.429,555.278 192.781,564.274 C 188.133,573.22 185.734,583.866 185.684,596.161 C 185.734,608.406 188.133,619.053 192.781,627.999 C 197.429,637.045 204.027,643.992 212.473,648.891 C 220.92,653.839 230.866,656.338 242.361,656.388 C 253.806,656.338 263.753,653.839 272.199,648.891 C 280.645,643.992 287.242,637.045 291.891,627.999 L 291.891,627.999 z M 258.754,565.374 C 262.902,568.822 265.951,573.221 267.9,578.669 C 269.9,584.116 270.899,589.914 270.849,596.161 C 270.899,602.359 269.899,608.157 267.9,613.604 C 265.951,619.052 262.902,623.45 258.754,626.899 C 254.505,630.248 249.058,631.997 242.36,632.147 C 235.612,631.997 230.165,630.248 225.917,626.899 C 221.769,623.45 218.72,619.052 216.771,613.604 C 214.822,608.157 213.822,602.359 213.822,596.161 C 213.822,589.914 214.822,584.116 216.771,578.669 C 218.72,573.221 221.769,568.822 225.917,565.374 C 230.165,562.025 235.613,560.276 242.36,560.176 C 249.058,560.276 254.505,562.025 258.754,565.374 L 258.754,565.374 z"
     id="path23"
     style="fill:url(#linearGradient2823)" /><path
     d="M 179.635,541.833 C 177.386,539.685 174.137,538.534 169.989,538.484 L 129.805,538.484 C 126.257,538.484 123.258,539.633 120.709,541.882 C 118.16,544.132 116.811,547.38 116.71,551.628 L 116.71,640.843 C 116.76,645.391 117.96,648.89 120.409,651.239 C 122.758,653.589 125.907,654.738 129.805,654.738 C 133.703,654.738 136.852,653.589 139.201,651.239 C 141.65,648.89 142.899,645.391 142.95,640.843 L 142.95,607.607 L 166.591,607.607 C 170.739,607.556 173.988,606.507 176.237,604.358 C 178.486,602.209 179.635,599.21 179.686,595.412 C 179.636,591.663 178.486,588.715 176.237,586.565 C 173.988,584.465 170.739,583.367 166.591,583.316 L 142.95,583.316 L 142.95,562.775 L 169.989,562.775 C 174.137,562.724 177.386,561.675 179.635,559.526 C 181.884,557.426 183.034,554.428 183.084,550.58 C 183.034,546.932 181.884,543.982 179.635,541.833 L 179.635,541.833 z"
     id="path25"
     style="fill:url(#linearGradient2823)" /></g>
<path
   id="path2742"
   d="M 107.913,559.727 C 109.613,557.028 110.462,554.029 110.512,550.73 C 110.462,546.482 108.963,542.834 105.964,539.834 C 102.965,536.785 99.317,535.286 95.068,535.286 C 91.719,535.286 88.721,536.136 86.072,537.885 L 40.54,583.417 L 40.59,583.417 L 40.54,583.417 C 39.491,584.416 38.641,585.516 37.991,586.665 C 37.791,587.016 37.591,587.365 37.441,587.765 C 36.491,589.764 35.992,591.963 35.992,594.363 C 35.992,594.613 35.992,594.913 35.992,595.213 C 36.042,596.013 36.142,596.813 36.292,597.562 C 36.592,599.112 37.142,600.561 37.941,601.911 C 38.191,602.361 38.441,602.81 38.741,603.261 L 38.791,603.261 L 84.123,648.943 L 84.123,648.893 L 84.123,648.943 C 85.123,649.943 86.222,650.793 87.372,651.492 C 87.722,651.692 88.072,651.892 88.472,652.042 C 90.471,652.992 92.67,653.491 95.069,653.491 C 99.318,653.491 102.916,651.992 105.965,648.993 C 108.964,645.944 110.464,642.346 110.513,638.097 C 110.463,633.849 108.964,630.201 105.965,627.152 L 105.915,627.102 L 73.228,594.365 L 107.913,559.727 L 107.913,559.727 z"
   style="fill:url(#linearGradient2785)" /><path
   style="fill:#222b2d;fill-opacity:1"
   id="path2598"
   d="M 650.548,239.954 C 650.548,173.681 627.107,117.103 580.276,70.271993 C 533.445,23.440993 476.867,-7e-06 410.644,-7e-06 C 344.37,-7e-06 287.793,23.440993 240.962,70.271993 C 194.13,117.103 170.74,173.681 170.74,239.954 C 170.74,306.178 194.131,362.755 240.962,409.586 C 287.793,456.418 344.371,479.858 410.644,479.908 C 476.867,479.858 533.444,456.417 580.275,409.586 C 627.106,362.755 650.548,306.178 650.548,239.954 L 650.548,239.954 z M 410.644,59.975993 C 460.273,59.975993 502.707,77.518993 537.843,112.655 C 572.979,147.791 590.572,190.224 590.572,239.904 C 590.572,289.584 572.979,332.017 537.843,367.153 C 502.707,402.289 460.274,419.882 410.644,419.882 C 360.964,419.882 318.531,402.289 283.395,367.153 C 248.259,332.017 230.666,289.584 230.716,239.904 C 230.666,190.224 248.259,147.791 283.395,112.655 C 318.53,77.518993 360.964,59.975993 410.644,59.975993 L 410.644,59.975993 z" /><path
   style="fill:url(#linearGradient2931);fill-opacity:1;stroke:url(#linearGradient2933);stroke-width:0.5;stroke-miterlimit:4;stroke-dasharray:none;stroke-dashoffset:0;stroke-opacity:1"
   d="M 410.65299,-7e-06 C 398.22662,-7e-06 386.14722,0.820884 374.40299,2.468743 C 374.0597,2.528867 373.71445,2.563193 373.37174,2.624993 C 275.40725,20.290465 200.99674,106.30253 200.99674,209.65625 C 200.99674,325.77633 294.92169,420.03125 410.65299,420.03125 C 526.3843,420.03125 620.30923,325.77633 620.30924,209.65625 C 620.30924,106.34766 545.96039,20.373664 448.05924,2.656243 C 447.95412,2.640955 447.85192,2.608898 447.74674,2.593743 C 435.73373,0.862777 423.3791,-7e-06 410.65299,-7e-06 z M 410.65299,59.968743 C 460.282,59.968741 502.70449,77.520243 537.84049,112.65625 C 572.9765,147.79225 590.55924,190.22625 590.55924,239.90625 C 590.55925,289.58624 572.97649,332.02025 537.84049,367.15625 C 502.7045,402.29224 460.28299,419.875 410.65299,419.875 C 360.973,419.87501 318.53899,402.29225 283.40299,367.15625 C 248.267,332.02024 230.66549,289.58625 230.71549,239.90625 C 230.66549,190.22624 248.26699,147.79225 283.40299,112.65625 C 318.538,77.520244 360.97299,59.968743 410.65299,59.968743 z"
   id="path2506" /></svg>