<?xml version="1.0" encoding="UTF-8" standalone="no"?>
<!-- Generator: Adobe Illustrator 12.0.0, SVG Export Plug-In . SVG Version: 6.00 Build 51448)  -->
<svg
   xmlns:dc="http://purl.org/dc/elements/1.1/"
   xmlns:cc="http://creativecommons.org/ns#"
   xmlns:rdf="http://www.w3.org/1999/02/22-rdf-syntax-ns#"
   xmlns:svg="http://www.w3.org/2000/svg"
   xmlns="http://www.w3.org/2000/svg"
   xmlns:xlink="http://www.w3.org/1999/xlink"
   xmlns:sodipodi="http://sodipodi.sourceforge.net/DTD/sodipodi-0.dtd"
   xmlns:inkscape="http://www.inkscape.org/namespaces/inkscape"
   version="1.1"
   id="Layer_1"
   width="479.809"
   height="656.388"
   viewBox="0 0 479.809 656.388"
   overflow="visible"
   enable-background="new 0 0 479.809 656.388"
   xml:space="preserve"
   sodipodi:version="0.32"
   inkscape:version="0.46"
   sodipodi:docname="kivio.svg"
   inkscape:output_extension="org.inkscape.output.svg.inkscape"><metadata
   id="metadata26"><rdf:RDF><cc:Work
       rdf:about=""><dc:format>image/svg+xml</dc:format><dc:type
         rdf:resource="http://purl.org/dc/dcmitype/StillImage" /></cc:Work></rdf:RDF></metadata><defs
   id="defs24"><linearGradient
   id="linearGradient3835"><stop
     style="stop-color:#ff6ae2;stop-opacity:1"
     offset="0"
     id="stop3837" /><stop
     id="stop3839"
     offset="0.49315068"
     style="stop-color:#ff16d4;stop-opacity:1" /><stop
     style="stop-color:#ff02d0;stop-opacity:1"
     offset="0.50999999"
     id="stop3841" /><stop
     style="stop-color:#ff00d0;stop-opacity:1"
     offset="1"
     id="stop3843" /></linearGradient><linearGradient
   inkscape:collect="always"
   id="linearGradient3819"><stop
     style="stop-color:#1f272a;stop-opacity:1"
     offset="0"
     id="stop3821" /><stop
     style="stop-color:#4b5254;stop-opacity:1"
     offset="1"
     id="stop3823" /></linearGradient><linearGradient
   inkscape:collect="always"
   id="linearGradient3811"><stop
     style="stop-color:#ff5ae1;stop-opacity:1"
     offset="0"
     id="stop3813" /><stop
     style="stop-color:#ff2bd8;stop-opacity:1"
     offset="1"
     id="stop3815" /></linearGradient><inkscape:perspective
   sodipodi:type="inkscape:persp3d"
   inkscape:vp_x="0 : 328.194 : 1"
   inkscape:vp_y="0 : 1000 : 0"
   inkscape:vp_z="479.80899 : 328.194 : 1"
   inkscape:persp3d-origin="239.9045 : 218.796 : 1"
   id="perspective28" /><linearGradient
   gradientTransform="translate(-612.47936,-21.128365)"
   y2="656.67908"
   x2="608.49701"
   y1="533.84344"
   x1="608.49701"
   gradientUnits="userSpaceOnUse"
   id="linearGradient3545"
   xlink:href="#linearGradient3565"
   inkscape:collect="always" /><linearGradient
   gradientTransform="translate(-612.47936,-21.128365)"
   y2="656.67908"
   x2="608.49701"
   y1="533.84344"
   x1="608.49701"
   gradientUnits="userSpaceOnUse"
   id="linearGradient3542"
   xlink:href="#linearGradient3565"
   inkscape:collect="always" /><linearGradient
   gradientTransform="translate(-612.47936,-21.128365)"
   y2="656.67908"
   x2="608.49701"
   y1="533.84344"
   x1="608.49701"
   gradientUnits="userSpaceOnUse"
   id="linearGradient3539"
   xlink:href="#linearGradient3565"
   inkscape:collect="always" /><linearGradient
   gradientTransform="translate(-612.47936,-21.128365)"
   y2="654.73798"
   x2="396.37399"
   y1="537.53497"
   x1="396.37399"
   gradientUnits="userSpaceOnUse"
   id="linearGradient3536"
   xlink:href="#linearGradient3565"
   inkscape:collect="always" /><linearGradient
   gradientTransform="translate(-612.47936,-21.128365)"
   y2="656.67908"
   x2="608.49701"
   y1="533.84344"
   x1="608.49701"
   gradientUnits="userSpaceOnUse"
   id="linearGradient3533"
   xlink:href="#linearGradient3565"
   inkscape:collect="always" /><linearGradient
   gradientTransform="translate(-612.47936,-21.128365)"
   y2="656.67908"
   x2="608.49701"
   y1="533.84344"
   x1="608.49701"
   gradientUnits="userSpaceOnUse"
   id="linearGradient3530"
   xlink:href="#linearGradient3565"
   inkscape:collect="always" /><linearGradient
   gradientTransform="translate(-612.47936,-21.128365)"
   y2="656.67908"
   x2="608.49701"
   y1="533.84344"
   x1="608.49701"
   gradientUnits="userSpaceOnUse"
   id="linearGradient3527"
   xlink:href="#linearGradient3565"
   inkscape:collect="always" /><linearGradient
   y2="656.67908"
   x2="608.49701"
   y1="533.84344"
   x1="608.49701"
   gradientUnits="userSpaceOnUse"
   id="linearGradient3524"
   xlink:href="#linearGradient3565"
   inkscape:collect="always" /><linearGradient
   gradientUnits="userSpaceOnUse"
   y2="657.29523"
   x2="277.88239"
   y1="535.23602"
   x1="277.88239"
   id="linearGradient3522"
   xlink:href="#linearGradient3547"
   inkscape:collect="always" /><linearGradient
   gradientTransform="translate(-612.47936,-21.128365)"
   y2="125.45686"
   x2="324.15704"
   y1="356.80353"
   x1="324.15704"
   gradientUnits="userSpaceOnUse"
   id="linearGradient2718"
   xlink:href="#linearGradient3505"
   inkscape:collect="always" /><linearGradient
   gradientTransform="translate(-612.47936,-21.128365)"
   y2="354.90799"
   x2="217.771"
   y1="124.95"
   x1="217.771"
   gradientUnits="userSpaceOnUse"
   id="linearGradient2715"
   xlink:href="#linearGradient3493"
   inkscape:collect="always" /><linearGradient
   gradientTransform="translate(-612.47936,-21.128365)"
   y2="535.28601"
   x2="73.253998"
   y1="653.48999"
   x1="73.253998"
   gradientUnits="userSpaceOnUse"
   id="linearGradient2712"
   xlink:href="#linearGradient3613"
   inkscape:collect="always" /><linearGradient
   y2="-102.41982"
   x2="-268.33652"
   y1="292.97763"
   x1="-268.33652"
   gradientTransform="matrix(1.0651466,0,0,1.0651466,-33.92727,87.963755)"
   gradientUnits="userSpaceOnUse"
   id="linearGradient2696"
   xlink:href="#linearGradient3482"
   inkscape:collect="always" />
	
	
	
	
	
	
	
	
	
	
	
<linearGradient
   id="linearGradient3613"><stop
     id="stop3615"
     offset="0"
     style="stop-color:#0058bd;stop-opacity:1" /><stop
     style="stop-color:#0058bd;stop-opacity:1"
     offset="0.49315068"
     id="stop3617" /><stop
     id="stop3619"
     offset="0.50999999"
     style="stop-color:#1868c3;stop-opacity:1" /><stop
     id="stop3621"
     offset="1"
     style="stop-color:#6a9ad7;stop-opacity:1" /></linearGradient><linearGradient
   id="linearGradient3565"><stop
     style="stop-color:#777d7e;stop-opacity:1"
     offset="0"
     id="stop3567" /><stop
     id="stop3583"
     offset="0.49315068"
     style="stop-color:#323a3c;stop-opacity:1" /><stop
     style="stop-color:#222b2d;stop-opacity:1"
     offset="0.50999999"
     id="stop3585" /><stop
     style="stop-color:#222b2d;stop-opacity:0;"
     offset="1"
     id="stop3569" /></linearGradient><linearGradient
   inkscape:collect="always"
   id="linearGradient3505"><stop
     style="stop-color:#0e61c1;stop-opacity:1"
     offset="0"
     id="stop3507" /><stop
     style="stop-color:#80b0e1;stop-opacity:1"
     offset="1"
     id="stop3509" /></linearGradient><linearGradient
   inkscape:collect="always"
   id="linearGradient3493"><stop
     style="stop-color:#707677;stop-opacity:1"
     offset="0"
     id="stop3495" /><stop
     style="stop-color:#2e3739;stop-opacity:1"
     offset="1"
     id="stop3497" /></linearGradient><linearGradient
   inkscape:collect="always"
   id="linearGradient3482"><stop
     style="stop-color:#222b2d;stop-opacity:1"
     offset="0"
     id="stop3484" /><stop
     style="stop-color:#8f9495;stop-opacity:1"
     offset="1"
     id="stop3486" /></linearGradient><linearGradient
   inkscape:collect="always"
   id="linearGradient3207"><stop
     style="stop-color:#283133;stop-opacity:1"
     offset="0"
     id="stop3209" /><stop
     style="stop-color:#8f9495;stop-opacity:1"
     offset="1"
     id="stop3211" /></linearGradient><linearGradient
   id="linearGradient3191"><stop
     style="stop-color:#3e4547;stop-opacity:1;"
     offset="0"
     id="stop3193" /><stop
     style="stop-color:#3e4547;stop-opacity:0;"
     offset="1"
     id="stop3195" /></linearGradient><inkscape:perspective
   sodipodi:type="inkscape:persp3d"
   inkscape:vp_x="0 : 328.194 : 1"
   inkscape:vp_y="0 : 1000 : 0"
   inkscape:vp_z="585.47302 : 328.194 : 1"
   inkscape:persp3d-origin="292.73651 : 218.796 : 1"
   id="perspective2616" />
	
	
	
	
	
	
	
	
	
	
	
<linearGradient
   inkscape:collect="always"
   xlink:href="#linearGradient3207"
   id="linearGradient3213"
   x1="292.741"
   y1="319.90799"
   x2="292.741"
   y2="-160"
   gradientUnits="userSpaceOnUse" /><inkscape:perspective
   id="perspective3448"
   inkscape:persp3d-origin="372.04724 : 350.78739 : 1"
   inkscape:vp_z="744.09448 : 526.18109 : 1"
   inkscape:vp_y="0 : 1000 : 0"
   inkscape:vp_x="0 : 526.18109 : 1"
   sodipodi:type="inkscape:persp3d" /><linearGradient
   inkscape:collect="always"
   xlink:href="#linearGradient3207"
   id="linearGradient3459"
   gradientUnits="userSpaceOnUse"
   x1="292.741"
   y1="319.90799"
   x2="292.741"
   y2="-160"
   gradientTransform="translate(0,100)" /><linearGradient
   inkscape:collect="always"
   xlink:href="#linearGradient3207"
   id="linearGradient3467"
   gradientUnits="userSpaceOnUse"
   gradientTransform="translate(0,100)"
   x1="292.741"
   y1="319.90799"
   x2="292.741"
   y2="-160" /><linearGradient
   inkscape:collect="always"
   xlink:href="#linearGradient3482"
   id="linearGradient3488"
   x1="-268.33029"
   y1="293.09766"
   x2="-268.33029"
   y2="-139.44724"
   gradientUnits="userSpaceOnUse"
   gradientTransform="matrix(1.0651466,0,0,1.0651466,578.5521,109.09212)" /><linearGradient
   inkscape:collect="always"
   xlink:href="#linearGradient3565"
   id="linearGradient3571"
   x1="608.49701"
   y1="533.84344"
   x2="608.49701"
   y2="656.67908"
   gradientUnits="userSpaceOnUse" /><inkscape:perspective
   id="perspective3781"
   inkscape:persp3d-origin="372.04724 : 350.78739 : 1"
   inkscape:vp_z="744.09448 : 526.18109 : 1"
   inkscape:vp_y="0 : 1000 : 0"
   inkscape:vp_x="0 : 526.18109 : 1"
   sodipodi:type="inkscape:persp3d" /><inkscape:perspective
   id="perspective32"
   inkscape:persp3d-origin="292.73651 : 218.796 : 1"
   inkscape:vp_z="585.47302 : 328.194 : 1"
   inkscape:vp_y="0 : 1000 : 0"
   inkscape:vp_x="0 : 328.194 : 1"
   sodipodi:type="inkscape:persp3d" /><linearGradient
   id="linearGradient3547"><stop
     id="stop3549"
     offset="0"
     style="stop-color:#777d7e;stop-opacity:1" /><stop
     style="stop-color:#323a3c;stop-opacity:1"
     offset="0.49315068"
     id="stop3551" /><stop
     id="stop3553"
     offset="0.50999999"
     style="stop-color:#222b2d;stop-opacity:1" /><stop
     id="stop3555"
     offset="1"
     style="stop-color:#222b2d;stop-opacity:1" /></linearGradient><linearGradient
   inkscape:collect="always"
   xlink:href="#linearGradient3547"
   id="linearGradient2878"
   gradientUnits="userSpaceOnUse"
   x1="277.88239"
   y1="535.23602"
   x2="277.88239"
   y2="657.29523" />
	
	
	
	
	
	
	
	
	
<linearGradient
   inkscape:collect="always"
   xlink:href="#linearGradient3547"
   id="linearGradient2911"
   gradientUnits="userSpaceOnUse"
   x1="277.88239"
   y1="535.23602"
   x2="277.88239"
   y2="657.29523" /><linearGradient
   inkscape:collect="always"
   xlink:href="#linearGradient3482"
   id="linearGradient2916"
   gradientUnits="userSpaceOnUse"
   gradientTransform="matrix(1.006734,0,0,1.006734,-265.16044,-1.4180428)"
   x1="502.15091"
   y1="419.75024"
   x2="502.15091"
   y2="1.4085541" /><linearGradient
   inkscape:collect="always"
   xlink:href="#linearGradient3613"
   id="linearGradient2950"
   gradientUnits="userSpaceOnUse"
   x1="86.482048"
   y1="653.7666"
   x2="86.482048"
   y2="535.28601"
   gradientTransform="translate(-378.36905,0)" /><linearGradient
   inkscape:collect="always"
   xlink:href="#linearGradient3547"
   id="linearGradient3742"
   x1="531.8385"
   y1="535.20917"
   x2="531.8385"
   y2="656.414"
   gradientUnits="userSpaceOnUse" /><inkscape:perspective
   id="perspective3805"
   inkscape:persp3d-origin="372.04724 : 350.78739 : 1"
   inkscape:vp_z="744.09448 : 526.18109 : 1"
   inkscape:vp_y="0 : 1000 : 0"
   inkscape:vp_x="0 : 526.18109 : 1"
   sodipodi:type="inkscape:persp3d" /><linearGradient
   inkscape:collect="always"
   xlink:href="#linearGradient3811"
   id="linearGradient3817"
   x1="523.5636"
   y1="122.002"
   x2="523.5636"
   y2="266.79211"
   gradientUnits="userSpaceOnUse"
   gradientTransform="translate(-294,0)" /><linearGradient
   inkscape:collect="always"
   xlink:href="#linearGradient3819"
   id="linearGradient3825"
   x1="491.56357"
   y1="386.746"
   x2="491.56357"
   y2="241.94171"
   gradientUnits="userSpaceOnUse"
   gradientTransform="translate(-294,0)" /><linearGradient
   inkscape:collect="always"
   xlink:href="#linearGradient3835"
   id="linearGradient3833"
   x1="384.48117"
   y1="535.2818"
   x2="384.48117"
   y2="653.49103"
   gradientUnits="userSpaceOnUse"
   gradientTransform="translate(-294,0)" /><linearGradient
   inkscape:collect="always"
   xlink:href="#linearGradient3547"
   id="linearGradient3845"
   gradientUnits="userSpaceOnUse"
   x1="531.8385"
   y1="535.20917"
   x2="531.8385"
   y2="656.414" /><linearGradient
   inkscape:collect="always"
   xlink:href="#linearGradient3547"
   id="linearGradient3847"
   gradientUnits="userSpaceOnUse"
   x1="531.8385"
   y1="535.20917"
   x2="531.8385"
   y2="656.414" /><linearGradient
   inkscape:collect="always"
   xlink:href="#linearGradient3547"
   id="linearGradient3849"
   gradientUnits="userSpaceOnUse"
   x1="531.8385"
   y1="535.20917"
   x2="531.8385"
   y2="656.414" /><linearGradient
   inkscape:collect="always"
   xlink:href="#linearGradient3547"
   id="linearGradient3851"
   gradientUnits="userSpaceOnUse"
   x1="531.8385"
   y1="535.20917"
   x2="531.8385"
   y2="656.414" /><linearGradient
   inkscape:collect="always"
   xlink:href="#linearGradient3547"
   id="linearGradient3853"
   gradientUnits="userSpaceOnUse"
   x1="531.8385"
   y1="535.20917"
   x2="531.8385"
   y2="656.414" /></defs><sodipodi:namedview
   inkscape:window-height="827"
   inkscape:window-width="1440"
   inkscape:pageshadow="2"
   inkscape:pageopacity="0.0"
   guidetolerance="10.0"
   gridtolerance="10.0"
   objecttolerance="10.0"
   borderopacity="1.0"
   bordercolor="#666666"
   pagecolor="#ffffff"
   id="base"
   showgrid="false"
   inkscape:zoom="1"
   inkscape:cx="322.14975"
   inkscape:cy="201.22502"
   inkscape:window-x="0"
   inkscape:window-y="0"
   inkscape:current-layer="Layer_1" />
<path
   style="fill:url(#linearGradient3817);fill-opacity:1"
   id="path7"
   d="M 345.52616,130.798 C 339.67816,124.95 332.58116,122.002 324.33416,122.002 C 316.03816,122.002 308.94016,124.951 303.09316,130.798 C 303.04316,130.848 303.04316,130.848 303.04316,130.848 L 239.41816,194.473 L 172.04516,127.05 L 172.04516,127 C 166.79716,123.651 161.00016,122.002 154.55216,122.002 C 146.25616,122.002 139.15816,124.951 133.31116,130.798 C 127.46416,136.645 124.51516,143.693 124.56416,151.989 C 124.56416,158.436 126.26316,164.234 129.61216,169.432 L 129.61216,169.482 L 218.07716,257.946 L 218.07716,257.896 C 218.07716,257.896 218.07716,257.896 218.12716,257.946 C 220.07616,259.895 222.12616,261.545 224.37516,262.894 C 225.07516,263.244 225.77416,263.594 226.52416,263.943 C 230.42216,265.793 234.72116,266.742 239.36916,266.792 C 239.91916,266.792 240.51816,266.792 241.06816,266.792 C 242.61816,266.692 244.11716,266.492 245.56716,266.192 C 248.61616,265.592 251.41516,264.543 254.06316,263.044 C 254.91316,262.594 255.81216,262.044 256.66216,261.444 L 256.66216,261.394 L 345.42716,173.279 C 345.42716,173.229 345.42716,173.229 345.47716,173.229 C 347.42616,171.28 349.07616,169.181 350.42516,166.931 C 350.82516,166.231 351.17516,165.532 351.52516,164.782 C 353.37516,160.884 354.32416,156.636 354.37416,151.987 C 354.32116,143.693 351.37316,136.646 345.52616,130.798 L 345.52616,130.798 z" /><path
   style="fill:url(#linearGradient3825);fill-opacity:1"
   id="path9"
   d="M 351.52316,284.736 C 353.37316,280.838 354.32216,276.589 354.37216,271.941 C 354.32216,263.644 351.37416,256.597 345.52616,250.75 C 339.67816,244.903 332.58116,241.953 324.33416,241.953 C 316.03816,241.953 308.94016,244.902 303.09316,250.75 C 303.04316,250.8 303.04316,250.8 303.04316,250.8 L 239.41816,314.425 L 172.04516,247.002 L 172.04516,246.952 C 166.79716,243.603 161.00016,241.954 154.55216,241.954 C 146.25616,241.954 139.15816,244.903 133.31116,250.751 C 127.46416,256.599 124.51516,263.646 124.56416,271.942 C 124.56416,278.389 126.26316,284.187 129.61216,289.385 L 129.61216,289.435 L 218.07716,377.899 L 218.07716,377.849 C 218.07716,377.849 218.07716,377.849 218.12716,377.899 C 220.07616,379.848 222.12616,381.498 224.37516,382.847 C 225.07516,383.198 225.77416,383.547 226.52416,383.897 C 230.42216,385.747 234.72116,386.696 239.36916,386.746 C 239.91916,386.746 240.51816,386.746 241.06816,386.746 C 242.61816,386.646 244.11716,386.446 245.56716,386.146 C 248.61616,385.546 251.41516,384.497 254.06316,382.998 C 254.91316,382.548 255.81216,381.998 256.66216,381.398 L 256.66216,381.348 L 345.42716,293.233 C 345.42716,293.183 345.42716,293.183 345.47716,293.183 C 347.42616,291.234 349.07616,289.135 350.42516,286.886 C 350.82316,286.186 351.17316,285.486 351.52316,284.736 L 351.52316,284.736 z" /><path
   style="fill:url(#linearGradient3833);fill-opacity:1"
   id="path11"
   d="M 148.40416,559.727 C 150.10316,557.028 150.95316,554.029 151.00316,550.73 C 150.95316,546.482 149.45416,542.834 146.45516,539.834 C 143.45616,536.785 139.80816,535.286 135.55916,535.286 C 132.21016,535.286 129.21116,536.136 126.56216,537.885 L 81.03016,583.417 L 81.08016,583.417 L 81.03016,583.417 C 79.98116,584.416 79.13116,585.516 78.48116,586.665 C 78.28116,587.016 78.08116,587.365 77.93116,587.765 C 76.98116,589.764 76.48116,591.963 76.48116,594.363 C 76.48116,594.613 76.48116,594.913 76.48116,595.213 C 76.53116,596.013 76.63116,596.813 76.78116,597.562 C 77.08116,599.112 77.63116,600.561 78.43016,601.911 C 78.68016,602.361 78.93016,602.81 79.23016,603.261 L 79.28016,603.261 L 124.61216,648.943 L 124.61216,648.893 L 124.61216,648.943 C 125.61216,649.943 126.71116,650.793 127.86116,651.492 C 128.21116,651.692 128.56116,651.892 128.96016,652.042 C 130.96016,652.992 133.15916,653.491 135.55816,653.491 C 139.80616,653.491 143.40516,651.992 146.45416,648.993 C 149.45316,645.944 150.95216,642.346 151.00216,638.097 C 150.95216,633.849 149.45316,630.201 146.45416,627.152 L 146.40416,627.102 L 113.71716,594.365 L 148.40416,559.727 L 148.40416,559.727 z" /><g
   id="g3729"
   style="fill:url(#linearGradient3742);fill-opacity:1"
   transform="translate(-294,0)"><path
     d="M 349.89116,535.236 C 345.64316,535.236 341.99516,536.735 338.99516,539.784 C 336.64616,542.133 335.14716,544.832 334.49716,547.98 L 334.49716,638.094 C 334.44716,639.493 334.64716,640.843 334.99716,642.143 C 335.09716,642.542 335.19716,642.943 335.34716,643.342 C 336.09716,645.441 337.29616,647.34 338.99516,649.039 C 341.99416,652.038 345.64216,653.538 349.89116,653.538 C 354.13916,653.538 357.78716,652.038 360.83616,649.039 C 363.83516,645.99 365.33516,642.342 365.33516,638.094 L 365.33516,547.98 C 364.68516,544.832 363.18616,542.132 360.83616,539.784 C 357.78816,536.735 354.13916,535.236 349.89116,535.236 L 349.89116,535.236 z"
     id="path13"
     style="fill:url(#linearGradient3845);fill-opacity:1" /><path
     d="M 727.19016,564.274 C 722.54316,555.278 715.94516,548.331 707.49916,543.382 C 699.05216,538.434 689.10616,535.935 677.66016,535.885 C 666.16516,535.935 656.21916,538.434 647.77216,543.382 C 639.32516,548.33 632.72816,555.278 628.08016,564.274 C 623.43316,573.22 621.03316,583.866 620.98316,596.161 C 621.03316,608.406 623.43216,619.053 628.08016,627.999 C 632.72816,637.045 639.32616,643.992 647.77216,648.891 C 656.21816,653.839 666.16516,656.338 677.66016,656.388 C 689.10616,656.338 699.05216,653.839 707.49916,648.891 C 715.94516,643.993 722.54316,637.045 727.19016,627.999 C 731.83816,619.053 734.23816,608.406 734.28816,596.161 C 734.23716,583.866 731.83816,573.221 727.19016,564.274 L 727.19016,564.274 z M 661.21616,565.374 C 665.46516,562.025 670.91216,560.276 677.66016,560.176 C 684.35716,560.277 689.80516,562.026 694.05316,565.374 C 698.20116,568.822 701.25016,573.221 703.19916,578.669 C 705.19816,584.116 706.19816,589.914 706.14816,596.161 C 706.19816,602.359 705.19816,608.157 703.19916,613.604 C 701.25016,619.052 698.20116,623.45 694.05316,626.899 C 689.80516,630.248 684.35816,631.997 677.66016,632.147 C 670.91216,631.997 665.46516,630.248 661.21616,626.899 C 657.06916,623.45 654.02016,619.052 652.07016,613.604 C 650.12116,608.157 649.12116,602.359 649.12116,596.161 C 649.12116,589.914 650.12116,584.116 652.07016,578.669 C 654.02016,573.221 657.06816,568.822 661.21616,565.374 L 661.21616,565.374 z"
     id="path15"
     style="fill:url(#linearGradient3847);fill-opacity:1" /><path
     d="M 588.74516,541.033 C 586.29616,543.383 585.09716,546.881 585.04716,551.479 L 585.04716,640.843 C 585.09716,645.391 586.29616,648.89 588.74516,651.239 C 591.09516,653.589 594.24316,654.738 598.14116,654.738 C 602.03916,654.738 605.18816,653.589 607.53716,651.239 C 609.98616,648.89 611.23516,645.391 611.28516,640.843 L 611.28516,551.479 C 611.23516,546.88 609.98616,543.382 607.53716,541.033 C 605.18716,538.684 602.03916,537.535 598.14116,537.535 C 594.24316,537.535 591.09516,538.685 588.74516,541.033 L 588.74516,541.033 z"
     id="path17"
     style="fill:url(#linearGradient3849);fill-opacity:1" /><path
     d="M 581.89916,550.38 C 581.84816,546.932 580.64916,543.983 578.35016,541.434 C 576.00016,538.985 572.90216,537.685 569.05316,537.536 C 565.85516,537.586 563.35616,538.185 561.50616,539.285 C 559.65716,540.385 558.20816,541.834 557.20816,543.634 C 556.15816,545.433 555.25916,547.332 554.50916,549.331 L 532.21816,608.308 L 509.87716,549.331 C 509.12716,547.332 508.22816,545.433 507.17816,543.634 C 506.17816,541.834 504.72916,540.385 502.88016,539.285 C 501.03016,538.185 498.53116,537.586 495.28316,537.536 C 491.43416,537.685 488.38616,538.985 486.03616,541.434 C 483.73716,543.983 482.53716,546.932 482.48816,550.38 C 482.53816,551.68 482.93816,553.329 483.58816,555.278 C 484.23816,557.277 484.78816,558.826 485.28716,559.925 L 517.27416,640.843 C 518.12416,643.042 519.07316,645.192 520.07316,647.29 C 521.12316,649.439 522.52216,651.188 524.32216,652.538 C 526.17116,653.937 528.67016,654.687 531.81916,654.737 C 535.06816,654.687 537.56716,653.937 539.36616,652.538 C 541.21516,651.188 542.66516,649.439 543.71416,647.29 C 544.71416,645.191 545.61316,643.042 546.46316,640.843 L 579.10116,559.925 C 579.60016,558.825 580.15016,557.277 580.80016,555.278 C 581.44816,553.329 581.84816,551.68 581.89916,550.38 L 581.89916,550.38 z"
     id="path19"
     style="fill:url(#linearGradient3851);fill-opacity:1" /><path
     d="M 466.29516,537.535 C 462.39716,537.535 459.24816,538.684 456.89916,541.033 C 454.45016,543.383 453.25116,546.881 453.20116,551.479 L 453.20116,640.843 C 453.25116,645.391 454.45116,648.89 456.89916,651.239 C 459.24816,653.589 462.39716,654.738 466.29516,654.738 C 470.19316,654.738 473.34216,653.589 475.69116,651.239 C 478.14016,648.89 479.39016,645.391 479.44016,640.843 L 479.44016,551.479 C 479.39016,546.88 478.14116,543.382 475.69116,541.033 C 473.34116,538.685 470.19316,537.535 466.29516,537.535 L 466.29516,537.535 z"
     id="path21"
     style="fill:url(#linearGradient3853);fill-opacity:1" /></g>
<path
   style="fill:#222b2d;fill-opacity:1"
   id="path2664"
   d="M 480.27596,239.954 C 480.27596,173.681 456.83496,117.103 410.00396,70.272 C 363.17296,23.441 306.59496,4.3968758e-07 240.37196,4.3968758e-07 C 174.09796,4.3968758e-07 117.52096,23.441 70.68996,70.272 C 23.85796,117.103 0.46795966,173.681 0.46795966,239.954 C 0.46795966,306.178 23.85896,362.755 70.68996,409.586 C 117.52096,456.418 174.09896,479.858 240.37196,479.908 C 306.59496,479.858 363.17196,456.417 410.00296,409.586 C 456.83396,362.755 480.27596,306.178 480.27596,239.954 L 480.27596,239.954 z M 240.37196,59.976 C 290.00096,59.976 332.43496,77.519 367.57096,112.655 C 402.70696,147.791 420.29996,190.224 420.29996,239.904 C 420.29996,289.584 402.70696,332.017 367.57096,367.153 C 332.43496,402.289 290.00196,419.882 240.37196,419.882 C 190.69196,419.882 148.25896,402.289 113.12296,367.153 C 77.98696,332.017 60.39396,289.584 60.44396,239.904 C 60.39396,190.224 77.98696,147.791 113.12296,112.655 C 148.25796,77.519 190.69196,59.976 240.37196,59.976 L 240.37196,59.976 z" /><g
   id="g2756"
   inkscape:label="New"
   transform="translate(-370.8484,-21.128365)" /><path
   style="fill:url(#linearGradient2916);fill-opacity:1;stroke:none;stroke-width:1.00677967;stroke-miterlimit:4;stroke-dasharray:none;stroke-dashoffset:0;stroke-opacity:1"
   d="M 240.38095,4.3968758e-07 C 238.5609,4.3968758e-07 236.74887,0.027143592 234.94345,0.06250044 C 121.21096,2.9471388 29.7872,96.170162 29.7872,210.59375 C 29.7872,326.83358 124.1411,421.15625 240.38095,421.15625 C 356.62078,421.15625 450.94344,326.83358 450.94345,210.59375 C 450.94345,96.170163 359.55093,2.9471388 245.81845,0.06250044 C 244.01317,0.016712528 242.1972,4.3968758e-07 240.38095,4.3968758e-07 z M 240.38095,59.96875 C 290.00996,59.968748 332.43245,77.52025 367.56845,112.65625 C 402.70446,147.79225 420.2872,190.22625 420.2872,239.90625 C 420.28721,289.58624 402.70445,332.02025 367.56845,367.15625 C 332.43246,402.29224 290.01095,419.875 240.38095,419.875 C 190.70096,419.87501 148.26695,402.29225 113.13095,367.15625 C 77.99496,332.02024 60.39345,289.58625 60.44345,239.90625 C 60.39345,190.22624 77.99495,147.79225 113.13095,112.65625 C 148.26596,77.520251 190.70095,59.96875 240.38095,59.96875 z"
   id="path2685" /><g
   transform="translate(-990.84841,-21.128365)"
   inkscape:label="New"
   id="g2854" /></svg>