<?xml version="1.0" encoding="UTF-8" standalone="no"?>
<!-- Generator: Adobe Illustrator 12.0.0, SVG Export Plug-In . SVG Version: 6.00 Build 51448)  -->
<svg
   xmlns:dc="http://purl.org/dc/elements/1.1/"
   xmlns:cc="http://creativecommons.org/ns#"
   xmlns:rdf="http://www.w3.org/1999/02/22-rdf-syntax-ns#"
   xmlns:svg="http://www.w3.org/2000/svg"
   xmlns="http://www.w3.org/2000/svg"
   xmlns:xlink="http://www.w3.org/1999/xlink"
   xmlns:sodipodi="http://sodipodi.sourceforge.net/DTD/sodipodi-0.dtd"
   xmlns:inkscape="http://www.inkscape.org/namespaces/inkscape"
   version="1.1"
   id="Layer_1"
   width="479.809"
   height="656.388"
   viewBox="0 0 479.809 656.388"
   overflow="visible"
   enable-background="new 0 0 479.809 656.388"
   xml:space="preserve"
   sodipodi:version="0.32"
   inkscape:version="0.46"
   sodipodi:docname="kivio.svg"
   inkscape:output_extension="org.inkscape.output.svg.inkscape"><metadata
   id="metadata26"><rdf:RDF><cc:Work
       rdf:about=""><dc:format>image/svg+xml</dc:format><dc:type
         rdf:resource="http://purl.org/dc/dcmitype/StillImage" /></cc:Work></rdf:RDF></metadata><defs
   id="defs24"><inkscape:perspective
   sodipodi:type="inkscape:persp3d"
   inkscape:vp_x="0 : 328.194 : 1"
   inkscape:vp_y="0 : 1000 : 0"
   inkscape:vp_z="479.80899 : 328.194 : 1"
   inkscape:persp3d-origin="239.9045 : 218.796 : 1"
   id="perspective28" /><inkscape:perspective
   sodipodi:type="inkscape:persp3d"
   inkscape:vp_x="0 : 526.18109 : 1"
   inkscape:vp_y="0 : 1000 : 0"
   inkscape:vp_z="744.09448 : 526.18109 : 1"
   inkscape:persp3d-origin="372.04724 : 350.78739 : 1"
   id="perspective2910" /><linearGradient
   gradientUnits="userSpaceOnUse"
   y2="534.85809"
   x2="143.1814"
   y1="654.73798"
   x1="143.1814"
   id="linearGradient2806"
   xlink:href="#linearGradient3353"
   inkscape:collect="always" />
	
	
	
	
	
	
	
	
	
<inkscape:perspective
   sodipodi:type="inkscape:persp3d"
   inkscape:vp_x="0 : 328.194 : 1"
   inkscape:vp_y="0 : 1000 : 0"
   inkscape:vp_z="839.47198 : 328.194 : 1"
   inkscape:persp3d-origin="419.73599 : 218.796 : 1"
   id="perspective34" /><linearGradient
   gradientUnits="userSpaceOnUse"
   y2="534.97424"
   x2="232.97664"
   y1="656.388"
   x1="232.97664"
   id="linearGradient3359"
   xlink:href="#linearGradient3353"
   inkscape:collect="always" />
	
	
	
	
	
	
	
	
	
	
	
<inkscape:perspective
   sodipodi:type="inkscape:persp3d"
   inkscape:vp_x="0 : 526.18109 : 1"
   inkscape:vp_y="0 : 1000 : 0"
   inkscape:vp_z="744.09448 : 526.18109 : 1"
   inkscape:persp3d-origin="372.04724 : 350.78739 : 1"
   id="perspective2469" /><inkscape:perspective
   id="perspective32"
   inkscape:persp3d-origin="292.73651 : 218.796 : 1"
   inkscape:vp_z="585.47302 : 328.194 : 1"
   inkscape:vp_y="0 : 1000 : 0"
   inkscape:vp_x="0 : 328.194 : 1"
   sodipodi:type="inkscape:persp3d" /><linearGradient
   id="linearGradient3292"><stop
     id="stop3294"
     offset="0"
     style="stop-color:#8f9495;stop-opacity:1" /><stop
     id="stop3296"
     offset="1"
     style="stop-color:#222b2d;stop-opacity:1" /></linearGradient><linearGradient
   id="linearGradient3314"><stop
     id="stop3316"
     offset="0"
     style="stop-color:#ff65e2;stop-opacity:1;" /><stop
     id="stop3318"
     offset="1"
     style="stop-color:#ff2ad7;stop-opacity:1;" /></linearGradient><linearGradient
   id="linearGradient3353"><stop
     id="stop3355"
     offset="0"
     style="stop-color:#20292b;stop-opacity:1" /><stop
     style="stop-color:#20292b;stop-opacity:1"
     offset="0.5"
     id="stop3363" /><stop
     style="stop-color:#31393b;stop-opacity:1"
     offset="0.50999999"
     id="stop3361" /><stop
     id="stop3357"
     offset="1"
     style="stop-color:#787d7f;stop-opacity:1" /></linearGradient><linearGradient
   id="linearGradient3367"><stop
     style="stop-color:#ff00d0;stop-opacity:1"
     offset="0"
     id="stop3369" /><stop
     id="stop3371"
     offset="0.5"
     style="stop-color:#ff00d0;stop-opacity:1" /><stop
     id="stop3373"
     offset="0.50999999"
     style="stop-color:#ff00d0;stop-opacity:1" /><stop
     style="stop-color:#ff6ae2;stop-opacity:1"
     offset="1"
     id="stop3375" /></linearGradient><linearGradient
   inkscape:collect="always"
   xlink:href="#linearGradient3367"
   id="linearGradient2607"
   gradientUnits="userSpaceOnUse"
   x1="68.389832"
   y1="653.48999"
   x2="68.389832"
   y2="535.18597"
   gradientTransform="translate(895.48654,4.2581206)" /><linearGradient
   inkscape:collect="always"
   xlink:href="#linearGradient3314"
   id="linearGradient2613"
   gradientUnits="userSpaceOnUse"
   x1="317.72427"
   y1="353.60373"
   x2="317.72427"
   y2="125.0482"
   gradientTransform="translate(895.48654,4.2581206)" />
	
	
	
	
	
	
	
	
	
	
	
	
<linearGradient
   inkscape:collect="always"
   xlink:href="#linearGradient3353"
   id="linearGradient2674"
   x1="520.03998"
   y1="656.388"
   x2="520.03998"
   y2="535.07886"
   gradientUnits="userSpaceOnUse" /><inkscape:perspective
   id="perspective2783"
   inkscape:persp3d-origin="372.04724 : 350.78739 : 1"
   inkscape:vp_z="744.09448 : 526.18109 : 1"
   inkscape:vp_y="0 : 1000 : 0"
   inkscape:vp_x="0 : 526.18109 : 1"
   sodipodi:type="inkscape:persp3d" /><inkscape:perspective
   id="perspective2583"
   inkscape:persp3d-origin="239.9045 : 218.24599 : 1"
   inkscape:vp_z="479.80899 : 327.36899 : 1"
   inkscape:vp_y="0 : 1000 : 0"
   inkscape:vp_x="0 : 327.36899 : 1"
   sodipodi:type="inkscape:persp3d" />
	
	
	
	
	
	
	
	
	
<linearGradient
   inkscape:collect="always"
   xlink:href="#linearGradient3367"
   id="linearGradient2660"
   gradientUnits="userSpaceOnUse"
   gradientTransform="translate(40.025,3.9688641e-7)"
   x1="77.234322"
   y1="653.55798"
   x2="77.234322"
   y2="535.28601" /><linearGradient
   inkscape:collect="always"
   xlink:href="#linearGradient3353"
   id="linearGradient2681"
   x1="154.43205"
   y1="656.388"
   x2="154.43205"
   y2="534.78668"
   gradientUnits="userSpaceOnUse" /><linearGradient
   inkscape:collect="always"
   xlink:href="#linearGradient3292"
   id="linearGradient2683"
   gradientUnits="userSpaceOnUse"
   gradientTransform="translate(-612.73622,-68.331017)"
   x1="292.75"
   y1="-2.8303274e-14"
   x2="292.75"
   y2="420.03125" /><linearGradient
   inkscape:collect="always"
   xlink:href="#linearGradient3292"
   id="linearGradient2685"
   gradientUnits="userSpaceOnUse"
   gradientTransform="translate(-612.73621,-68.331017)"
   x1="292.75"
   y1="7.1270186e-08"
   x2="292.75"
   y2="420.03125" /><linearGradient
   inkscape:collect="always"
   xlink:href="#linearGradient3292"
   id="linearGradient2689"
   x1="239.0047"
   y1="2.3340583"
   x2="239.0047"
   y2="420.66586"
   gradientUnits="userSpaceOnUse" /><linearGradient
   inkscape:collect="always"
   xlink:href="#linearGradient3314"
   id="linearGradient2693"
   x1="280.10812"
   y1="121.92823"
   x2="280.10812"
   y2="266.79199"
   gradientUnits="userSpaceOnUse" /><inkscape:perspective
   id="perspective2785"
   inkscape:persp3d-origin="372.04724 : 350.78739 : 1"
   inkscape:vp_z="744.09448 : 526.18109 : 1"
   inkscape:vp_y="0 : 1000 : 0"
   inkscape:vp_x="0 : 526.18109 : 1"
   sodipodi:type="inkscape:persp3d" /></defs><sodipodi:namedview
   inkscape:window-height="828"
   inkscape:window-width="1440"
   inkscape:pageshadow="2"
   inkscape:pageopacity="0.0"
   guidetolerance="10.0"
   gridtolerance="10.0"
   objecttolerance="10.0"
   borderopacity="1.0"
   bordercolor="#666666"
   pagecolor="#ffffff"
   id="base"
   showgrid="false"
   inkscape:zoom="0.86534184"
   inkscape:cx="93.308424"
   inkscape:cy="337.7276"
   inkscape:window-x="0"
   inkscape:window-y="0"
   inkscape:current-layer="Layer_1" />
<path
   style="fill:url(#linearGradient2693)"
   id="path7"
   d="M 345.063,130.798 C 339.215,124.95 332.118,122.002 323.871,122.002 C 315.575,122.002 308.477,124.951 302.63,130.798 C 302.58,130.848 302.58,130.848 302.58,130.848 L 238.955,194.473 L 171.582,127.05 L 171.582,127 C 166.334,123.651 160.537,122.002 154.089,122.002 C 145.793,122.002 138.695,124.951 132.848,130.798 C 127.001,136.645 124.052,143.693 124.101,151.989 C 124.101,158.436 125.8,164.234 129.149,169.432 L 129.149,169.482 L 217.614,257.946 L 217.614,257.896 C 217.614,257.896 217.614,257.896 217.664,257.946 C 219.613,259.895 221.663,261.545 223.912,262.894 C 224.612,263.244 225.311,263.594 226.061,263.943 C 229.959,265.793 234.258,266.742 238.906,266.792 C 239.456,266.792 240.055,266.792 240.605,266.792 C 242.155,266.692 243.654,266.492 245.104,266.192 C 248.153,265.592 250.952,264.543 253.6,263.044 C 254.45,262.594 255.349,262.044 256.199,261.444 L 256.199,261.394 L 344.964,173.279 C 344.964,173.229 344.964,173.229 345.014,173.229 C 346.963,171.28 348.613,169.181 349.962,166.931 C 350.362,166.231 350.712,165.532 351.062,164.782 C 352.912,160.884 353.861,156.636 353.911,151.987 C 353.858,143.693 350.91,136.646 345.063,130.798 L 345.063,130.798 z" /><path
   style="fill:url(#linearGradient2689)"
   id="path9"
   d="M 351.06,284.736 C 352.91,280.838 353.859,276.589 353.909,271.941 C 353.859,263.644 350.911,256.597 345.063,250.75 C 339.215,244.903 332.118,241.953 323.871,241.953 C 315.575,241.953 308.477,244.902 302.63,250.75 C 302.58,250.8 302.58,250.8 302.58,250.8 L 238.955,314.425 L 171.582,247.002 L 171.582,246.952 C 166.334,243.603 160.537,241.954 154.089,241.954 C 145.793,241.954 138.695,244.903 132.848,250.751 C 127.001,256.599 124.052,263.646 124.101,271.942 C 124.101,278.389 125.8,284.187 129.149,289.385 L 129.149,289.435 L 217.614,377.899 L 217.614,377.849 C 217.614,377.849 217.614,377.849 217.664,377.899 C 219.613,379.848 221.663,381.498 223.912,382.847 C 224.612,383.198 225.311,383.547 226.061,383.897 C 229.959,385.747 234.258,386.696 238.906,386.746 C 239.456,386.746 240.055,386.746 240.605,386.746 C 242.155,386.646 243.654,386.446 245.104,386.146 C 248.153,385.546 250.952,384.497 253.6,382.998 C 254.45,382.548 255.349,381.998 256.199,381.398 L 256.199,381.348 L 344.964,293.233 C 344.964,293.183 344.964,293.183 345.014,293.183 C 346.963,291.234 348.613,289.135 349.962,286.886 C 350.36,286.186 350.71,285.486 351.06,284.736 L 351.06,284.736 z" /><g
   id="g2674"
   style="fill:url(#linearGradient2681)"><path
     d="M 55.428,535.236 C 51.18,535.236 47.532,536.735 44.532,539.784 C 42.183,542.133 40.684,544.832 40.034,547.98 L 40.034,638.094 C 39.984,639.493 40.184,640.843 40.534,642.143 C 40.634,642.542 40.734,642.943 40.884,643.342 C 41.634,645.441 42.833,647.34 44.532,649.039 C 47.531,652.038 51.179,653.538 55.428,653.538 C 59.676,653.538 63.324,652.038 66.373,649.039 C 69.372,645.99 70.872,642.342 70.872,638.094 L 70.872,547.98 C 70.222,544.832 68.723,542.132 66.373,539.784 C 63.325,536.735 59.676,535.236 55.428,535.236 L 55.428,535.236 z"
     id="path13"
     style="fill:url(#linearGradient2681)" /><path
     d="M 432.727,564.274 C 428.08,555.278 421.482,548.331 413.036,543.382 C 404.589,538.434 394.643,535.935 383.197,535.885 C 371.702,535.935 361.756,538.434 353.309,543.382 C 344.862,548.33 338.265,555.278 333.617,564.274 C 328.97,573.22 326.57,583.866 326.52,596.161 C 326.57,608.406 328.969,619.053 333.617,627.999 C 338.265,637.045 344.863,643.992 353.309,648.891 C 361.755,653.839 371.702,656.338 383.197,656.388 C 394.643,656.338 404.589,653.839 413.036,648.891 C 421.482,643.993 428.08,637.045 432.727,627.999 C 437.375,619.053 439.775,608.406 439.825,596.161 C 439.774,583.866 437.375,573.221 432.727,564.274 L 432.727,564.274 z M 366.753,565.374 C 371.002,562.025 376.449,560.276 383.197,560.176 C 389.894,560.277 395.342,562.026 399.59,565.374 C 403.738,568.822 406.787,573.221 408.736,578.669 C 410.735,584.116 411.735,589.914 411.685,596.161 C 411.735,602.359 410.735,608.157 408.736,613.604 C 406.787,619.052 403.738,623.45 399.59,626.899 C 395.342,630.248 389.895,631.997 383.197,632.147 C 376.449,631.997 371.002,630.248 366.753,626.899 C 362.606,623.45 359.557,619.052 357.607,613.604 C 355.658,608.157 354.658,602.359 354.658,596.161 C 354.658,589.914 355.658,584.116 357.607,578.669 C 359.557,573.221 362.605,568.822 366.753,565.374 L 366.753,565.374 z"
     id="path15"
     style="fill:url(#linearGradient2681)" /><path
     d="M 294.282,541.033 C 291.833,543.383 290.634,546.881 290.584,551.479 L 290.584,640.843 C 290.634,645.391 291.833,648.89 294.282,651.239 C 296.632,653.589 299.78,654.738 303.678,654.738 C 307.576,654.738 310.725,653.589 313.074,651.239 C 315.523,648.89 316.772,645.391 316.822,640.843 L 316.822,551.479 C 316.772,546.88 315.523,543.382 313.074,541.033 C 310.724,538.684 307.576,537.535 303.678,537.535 C 299.78,537.535 296.632,538.685 294.282,541.033 L 294.282,541.033 z"
     id="path17"
     style="fill:url(#linearGradient2681)" /><path
     d="M 287.436,550.38 C 287.385,546.932 286.186,543.983 283.887,541.434 C 281.537,538.985 278.439,537.685 274.59,537.536 C 271.392,537.586 268.893,538.185 267.043,539.285 C 265.194,540.385 263.745,541.834 262.745,543.634 C 261.695,545.433 260.796,547.332 260.046,549.331 L 237.755,608.308 L 215.414,549.331 C 214.664,547.332 213.765,545.433 212.715,543.634 C 211.715,541.834 210.266,540.385 208.417,539.285 C 206.567,538.185 204.068,537.586 200.82,537.536 C 196.971,537.685 193.923,538.985 191.573,541.434 C 189.274,543.983 188.074,546.932 188.025,550.38 C 188.075,551.68 188.475,553.329 189.125,555.278 C 189.775,557.277 190.325,558.826 190.824,559.925 L 222.811,640.843 C 223.661,643.042 224.61,645.192 225.61,647.29 C 226.66,649.439 228.059,651.188 229.859,652.538 C 231.708,653.937 234.207,654.687 237.356,654.737 C 240.605,654.687 243.104,653.937 244.903,652.538 C 246.752,651.188 248.202,649.439 249.251,647.29 C 250.251,645.191 251.15,643.042 252,640.843 L 284.638,559.925 C 285.137,558.825 285.687,557.277 286.337,555.278 C 286.985,553.329 287.385,551.68 287.436,550.38 L 287.436,550.38 z"
     id="path19"
     style="fill:url(#linearGradient2681)" /><path
     d="M 171.832,537.535 C 167.934,537.535 164.785,538.684 162.436,541.033 C 159.987,543.383 158.788,546.881 158.738,551.479 L 158.738,640.843 C 158.788,645.391 159.988,648.89 162.436,651.239 C 164.785,653.589 167.934,654.738 171.832,654.738 C 175.73,654.738 178.879,653.589 181.228,651.239 C 183.677,648.89 184.927,645.391 184.977,640.843 L 184.977,551.479 C 184.927,546.88 183.678,543.382 181.228,541.033 C 178.878,538.685 175.73,537.535 171.832,537.535 L 171.832,537.535 z"
     id="path21"
     style="fill:url(#linearGradient2681)" /></g>
<path
   style="fill:url(#linearGradient2660)"
   id="path2732"
   d="M 147.94,559.727 C 149.639,557.028 150.489,554.029 150.539,550.73 C 150.489,546.482 148.99,542.834 145.991,539.834 C 142.992,536.785 139.344,535.286 135.095,535.286 C 131.746,535.286 128.748,536.136 126.099,537.885 L 80.567,583.417 L 80.617,583.417 L 80.567,583.417 C 79.517,584.416 78.668,585.516 78.018,586.665 C 77.818,587.016 77.619,587.365 77.468,587.765 C 76.519,589.764 76.019,591.963 76.019,594.363 C 76.019,594.613 76.019,594.913 76.019,595.213 C 76.069,596.013 76.169,596.813 76.319,597.562 C 76.619,599.112 77.169,600.561 77.968,601.911 C 78.218,602.361 78.468,602.81 78.768,603.261 L 78.818,603.261 L 124.15,648.943 L 124.15,648.893 L 124.15,648.943 C 125.15,649.943 126.249,650.793 127.399,651.492 C 127.749,651.692 128.099,651.892 128.499,652.042 C 130.498,652.992 132.697,653.491 135.096,653.491 C 139.345,653.491 142.943,651.992 145.992,648.993 C 148.991,645.944 150.49,642.346 150.54,638.097 C 150.49,633.849 148.991,630.201 145.992,627.152 L 145.942,627.102 L 113.255,594.365 L 147.94,559.727 L 147.94,559.727 z" /><g
   id="g2808"
   transform="translate(559.90025,68.33102)"><path
     d="M -80.09125,171.62298 C -80.09125,105.34998 -103.53225,48.771982 -150.36325,1.940983 C -197.19425,-44.890017 -253.77225,-68.331017 -319.99525,-68.331017 C -386.26925,-68.331017 -442.84625,-44.890017 -489.67725,1.940983 C -536.50921,48.771982 -559.89921,105.34998 -559.89921,171.62298 C -559.89921,237.84698 -536.50821,294.42398 -489.67725,341.25498 C -442.84625,388.08698 -386.26825,411.52698 -319.99525,411.57698 C -253.77225,411.52698 -197.19525,388.08598 -150.36425,341.25498 C -103.53325,294.42398 -80.09125,237.84698 -80.09125,171.62298 L -80.09125,171.62298 z M -319.99525,-8.355017 C -270.36625,-8.355017 -227.93225,9.187983 -192.79625,44.323982 C -157.66025,79.459982 -140.06725,121.89298 -140.06725,171.57298 C -140.06725,221.25298 -157.66025,263.68598 -192.79625,298.82198 C -227.93225,333.95798 -270.36525,351.55098 -319.99525,351.55098 C -369.67525,351.55098 -412.10825,333.95798 -447.24425,298.82198 C -482.38025,263.68598 -499.97325,221.25298 -499.92325,171.57298 C -499.97325,121.89298 -482.38025,79.459982 -447.24425,44.323982 C -412.10925,9.187983 -369.67525,-8.355017 -319.99525,-8.355017 L -319.99525,-8.355017 z"
     id="path2555"
     style="fill:#222b2d;fill-opacity:1" /><path
     id="path2506"
     d="M -319.98625,-68.331017 C -332.41255,-68.331017 -344.49195,-67.510126 -356.23625,-65.862267 C -356.57955,-65.802143 -356.92475,-65.767817 -357.26745,-65.706017 C -455.23195,-48.040545 -529.64247,37.971512 -529.64247,141.32523 C -529.64247,257.44531 -435.71755,351.70023 -319.98625,351.70023 C -204.25495,351.70023 -110.32995,257.44531 -110.32995,141.32523 C -110.32995,38.016642 -184.67885,-47.957346 -282.57995,-65.674767 C -282.68505,-65.690055 -282.78725,-65.722112 -282.89245,-65.737267 C -294.90545,-67.468233 -307.26015,-68.331017 -319.98625,-68.331017 z M -319.98625,-8.362267 C -270.35725,-8.362269 -227.93475,9.189233 -192.79875,44.325232 C -157.66275,79.461232 -140.07995,121.89523 -140.07995,171.57523 C -140.07995,221.25522 -157.66275,263.68923 -192.79875,298.82523 C -227.93475,333.96122 -270.35625,351.54398 -319.98625,351.54398 C -369.66625,351.54399 -412.10025,333.96123 -447.23625,298.82523 C -482.37225,263.68922 -499.97375,221.25523 -499.92375,171.57523 C -499.97375,121.89522 -482.37225,79.461232 -447.23625,44.325232 C -412.10125,9.189234 -369.66625,-8.362267 -319.98625,-8.362267 z"
     style="fill:url(#linearGradient2683);fill-opacity:1;stroke:url(#linearGradient2685);stroke-width:0.5;stroke-miterlimit:4;stroke-dasharray:none;stroke-dashoffset:0;stroke-opacity:1" /></g></svg>