<?xml version="1.0" encoding="UTF-8" standalone="no"?>
<!-- Generator: Adobe Illustrator 12.0.0, SVG Export Plug-In . SVG Version: 6.00 Build 51448)  -->
<svg
   xmlns:dc="http://purl.org/dc/elements/1.1/"
   xmlns:cc="http://creativecommons.org/ns#"
   xmlns:rdf="http://www.w3.org/1999/02/22-rdf-syntax-ns#"
   xmlns:svg="http://www.w3.org/2000/svg"
   xmlns="http://www.w3.org/2000/svg"
   xmlns:xlink="http://www.w3.org/1999/xlink"
   xmlns:sodipodi="http://sodipodi.sourceforge.net/DTD/sodipodi-0.dtd"
   xmlns:inkscape="http://www.inkscape.org/namespaces/inkscape"
   version="1.1"
   id="Layer_1"
   width="585.473"
   height="656.388"
   viewBox="0 0 585.473 656.388"
   overflow="visible"
   enable-background="new 0 0 585.473 656.388"
   xml:space="preserve"
   sodipodi:version="0.32"
   inkscape:version="0.46"
   sodipodi:docname="koffice.svg"
   inkscape:output_extension="org.inkscape.output.svg.inkscape"><metadata
   id="metadata30"><rdf:RDF><cc:Work
       rdf:about=""><dc:format>image/svg+xml</dc:format><dc:type
         rdf:resource="http://purl.org/dc/dcmitype/StillImage" /></cc:Work></rdf:RDF></metadata><defs
   id="defs28"><linearGradient
   id="linearGradient3367"><stop
     id="stop3369"
     offset="0"
     style="stop-color:#0058bd;stop-opacity:1" /><stop
     style="stop-color:#0058bd;stop-opacity:1"
     offset="0.5"
     id="stop3371" /><stop
     style="stop-color:#1767c3;stop-opacity:1"
     offset="0.50999999"
     id="stop3373" /><stop
     id="stop3375"
     offset="1"
     style="stop-color:#6a9ad7;stop-opacity:1" /></linearGradient><linearGradient
   id="linearGradient3353"><stop
     style="stop-color:#20292b;stop-opacity:1"
     offset="0"
     id="stop3355" /><stop
     id="stop3363"
     offset="0.5"
     style="stop-color:#20292b;stop-opacity:1" /><stop
     id="stop3361"
     offset="0.50999999"
     style="stop-color:#31393b;stop-opacity:1" /><stop
     style="stop-color:#787d7f;stop-opacity:1"
     offset="1"
     id="stop3357" /></linearGradient><linearGradient
   id="linearGradient3314"><stop
     style="stop-color:#0e61c1;stop-opacity:1"
     offset="0"
     id="stop3316" /><stop
     style="stop-color:#6095d6;stop-opacity:1"
     offset="1"
     id="stop3318" /></linearGradient><linearGradient
   id="linearGradient3292"><stop
     style="stop-color:#8f9495;stop-opacity:1"
     offset="0"
     id="stop3294" /><stop
     style="stop-color:#222b2d;stop-opacity:1"
     offset="1"
     id="stop3296" /></linearGradient><inkscape:perspective
   sodipodi:type="inkscape:persp3d"
   inkscape:vp_x="0 : 328.194 : 1"
   inkscape:vp_y="0 : 1000 : 0"
   inkscape:vp_z="585.47302 : 328.194 : 1"
   inkscape:persp3d-origin="292.73651 : 218.796 : 1"
   id="perspective32" /><inkscape:perspective
   id="perspective2469"
   inkscape:persp3d-origin="372.04724 : 350.78739 : 1"
   inkscape:vp_z="744.09448 : 526.18109 : 1"
   inkscape:vp_y="0 : 1000 : 0"
   inkscape:vp_x="0 : 526.18109 : 1"
   sodipodi:type="inkscape:persp3d" />
	
	
	
	
	
	
	
	
	
	
	
<linearGradient
   inkscape:collect="always"
   xlink:href="#linearGradient3292"
   id="linearGradient3312"
   x1="294.96109"
   y1="-0.0057355352"
   x2="294.96109"
   y2="421.22168"
   gradientUnits="userSpaceOnUse" /><linearGradient
   inkscape:collect="always"
   xlink:href="#linearGradient3314"
   id="linearGradient3320"
   x1="317.72427"
   y1="353.60373"
   x2="317.72427"
   y2="125.0482"
   gradientUnits="userSpaceOnUse" /><linearGradient
   inkscape:collect="always"
   xlink:href="#linearGradient3292"
   id="linearGradient3322"
   gradientUnits="userSpaceOnUse"
   x1="292.75"
   y1="-2.8303274e-14"
   x2="292.75"
   y2="420.03125"
   gradientTransform="translate(-1.1012705e-5,7.1270215e-8)" /><linearGradient
   inkscape:collect="always"
   xlink:href="#linearGradient3292"
   id="linearGradient3332"
   x1="292.75"
   y1="7.1270186e-08"
   x2="292.75"
   y2="420.03125"
   gradientUnits="userSpaceOnUse" /><linearGradient
   inkscape:collect="always"
   xlink:href="#linearGradient3353"
   id="linearGradient3359"
   x1="232.97664"
   y1="656.388"
   x2="232.97664"
   y2="534.97424"
   gradientUnits="userSpaceOnUse" /><linearGradient
   inkscape:collect="always"
   xlink:href="#linearGradient3367"
   id="linearGradient3365"
   x1="68.389832"
   y1="653.48999"
   x2="68.389832"
   y2="535.18597"
   gradientUnits="userSpaceOnUse" /></defs><sodipodi:namedview
   inkscape:window-height="827"
   inkscape:window-width="1440"
   inkscape:pageshadow="2"
   inkscape:pageopacity="0.0"
   guidetolerance="10.0"
   gridtolerance="10.0"
   objecttolerance="10.0"
   borderopacity="1.0"
   bordercolor="#666666"
   pagecolor="#ffffff"
   id="base"
   showgrid="false"
   inkscape:object-nodes="true"
   inkscape:zoom="4"
   inkscape:cx="357.18436"
   inkscape:cy="595.11489"
   inkscape:window-x="0"
   inkscape:window-y="0"
   inkscape:current-layer="Layer_1" />
<path
   style="fill:#222b2d;fill-opacity:1"
   id="path5"
   d="M 532.645,239.954 C 532.645,173.681 509.204,117.103 462.373,70.272 C 415.542,23.441 358.964,0 292.741,0 C 226.467,0 169.89,23.441 123.059,70.272 C 76.227,117.103 52.837,173.681 52.837,239.954 C 52.837,306.178 76.228,362.755 123.059,409.586 C 169.89,456.418 226.468,479.858 292.741,479.908 C 358.964,479.858 415.541,456.417 462.372,409.586 C 509.203,362.755 532.645,306.178 532.645,239.954 L 532.645,239.954 z M 292.741,59.976 C 342.37,59.976 384.804,77.519 419.94,112.655 C 455.076,147.791 472.669,190.224 472.669,239.904 C 472.669,289.584 455.076,332.017 419.94,367.153 C 384.804,402.289 342.371,419.882 292.741,419.882 C 243.061,419.882 200.628,402.289 165.492,367.153 C 130.356,332.017 112.763,289.584 112.813,239.904 C 112.763,190.224 130.356,147.791 165.492,112.655 C 200.627,77.519 243.061,59.976 292.741,59.976 L 292.741,59.976 z" /><path
   style="fill:url(#linearGradient3320);fill-opacity:1.0"
   id="path7"
   d="M 355.115,130.098 L 266.651,218.562 C 266.651,218.562 266.651,218.562 266.601,218.612 C 264.652,220.561 263.002,222.61 261.703,224.86 C 261.253,225.56 260.903,226.259 260.603,227.009 C 258.704,230.907 257.754,235.206 257.754,239.854 C 257.754,240.404 257.754,241.004 257.804,241.554 C 257.854,243.103 258.054,244.602 258.354,246.052 C 258.954,249.101 260.003,251.9 261.502,254.549 C 261.952,255.399 262.502,256.298 263.151,257.148 L 351.265,345.913 L 351.315,345.913 C 351.315,345.913 351.315,345.913 351.365,345.963 C 353.314,347.912 355.364,349.562 357.613,350.911 C 358.312,351.31 359.012,351.66 359.762,352.01 C 363.66,353.86 367.958,354.81 372.607,354.86 C 380.853,354.81 387.901,351.861 393.749,346.013 C 399.597,340.165 402.545,333.068 402.596,324.822 C 402.545,316.525 399.597,309.428 393.749,303.58 C 393.699,303.53 393.699,303.53 393.699,303.53 L 330.124,239.905 L 397.547,172.532 C 400.896,167.284 402.545,161.486 402.596,155.039 C 402.545,146.742 399.647,139.645 393.799,133.797 C 387.951,127.949 380.854,125.001 372.608,125.051 C 366.161,125.05 360.313,126.75 355.115,130.098 L 355.115,130.098 z" /><path
   style="fill:url(#linearGradient3312)"
   id="path9"
   d="M 187.783,149.74 L 187.783,149.69 L 187.783,324.77 C 187.783,324.82 187.783,324.82 187.783,324.87 C 187.783,327.619 188.083,330.267 188.733,332.766 C 188.933,333.516 189.183,334.316 189.483,335.066 C 190.932,339.114 193.281,342.812 196.58,346.161 C 202.428,352.009 209.475,354.908 217.771,354.908 C 226.018,354.908 233.115,352.009 238.963,346.161 C 244.811,340.264 247.759,333.167 247.759,324.87 C 247.759,324.82 247.759,324.82 247.759,324.77 L 247.759,149.69 C 246.459,143.642 243.51,138.294 238.963,133.746 C 233.115,127.898 226.018,124.95 217.771,124.95 C 209.475,124.95 202.427,127.899 196.58,133.746 C 191.981,138.295 189.032,143.643 187.783,149.74 L 187.783,149.74 z" /><path
   style="fill:url(#linearGradient3365)"
   id="path11"
   d="M 95.07,535.286 C 93.671,535.286 92.321,535.435 91.022,535.735 C 89.272,536.185 87.623,536.885 86.074,537.884 L 40.542,583.416 L 40.592,583.416 L 40.542,583.416 C 39.493,584.415 38.643,585.515 37.993,586.664 C 37.793,587.015 37.593,587.364 37.443,587.764 C 36.493,589.763 35.993,591.962 35.993,594.362 C 35.993,594.612 35.993,594.912 35.993,595.212 C 36.043,596.012 36.143,596.812 36.293,597.561 C 36.593,599.111 37.143,600.56 37.942,601.91 C 38.192,602.36 38.442,602.809 38.742,603.26 L 38.792,603.26 L 84.124,648.942 L 84.124,648.892 L 84.124,648.942 C 85.124,649.942 86.223,650.792 87.373,651.491 C 87.723,651.691 88.073,651.891 88.473,652.041 C 90.473,652.991 92.672,653.49 95.071,653.49 C 99.319,653.49 102.918,651.991 105.967,648.992 C 108.966,645.943 110.465,642.345 110.515,638.096 C 110.465,633.848 108.966,630.2 105.967,627.151 L 105.917,627.101 L 73.23,594.364 L 107.916,559.728 C 109.615,557.029 110.465,554.03 110.515,550.731 C 110.465,546.483 108.966,542.835 105.967,539.835 C 103.918,537.786 101.619,536.387 98.97,535.736 C 97.719,535.436 96.419,535.286 95.07,535.286 L 95.07,535.286 z" /><g
   id="g3334"
   style="fill-opacity:1;stroke:none;fill:url(#linearGradient3359)"><path
     d="M 26.347,539.784 C 24.298,537.735 21.999,536.386 19.45,535.735 C 18.151,535.385 16.802,535.236 15.402,535.236 C 14.003,535.236 12.653,535.385 11.404,535.735 C 8.805,536.385 6.506,537.735 4.507,539.784 C 2.158,542.133 0.659,544.832 0.009,547.98 L 0.009,638.094 C -0.041,639.493 0.159,640.843 0.509,642.143 C 0.609,642.542 0.709,642.943 0.859,643.342 C 1.609,645.441 2.808,647.34 4.507,649.039 C 7.506,652.038 11.154,653.538 15.403,653.538 C 19.652,653.538 23.3,652.038 26.349,649.039 C 29.348,645.99 30.847,642.342 30.847,638.094 L 30.847,547.98 C 30.196,544.832 28.696,542.133 26.347,539.784 L 26.347,539.784 z"
     id="path13"
     style="fill:url(#linearGradient3359);fill-opacity:1;stroke:none" /><path
     d="M 581.075,541.833 C 578.825,539.685 575.577,538.534 571.429,538.484 L 531.245,538.484 C 527.696,538.484 524.697,539.633 522.148,541.882 C 519.599,544.132 518.25,547.38 518.149,551.628 L 518.149,640.643 C 518.25,644.892 519.599,648.14 522.148,650.389 C 524.697,652.638 527.696,653.787 531.245,653.787 L 572.378,653.787 C 576.526,653.737 579.775,652.638 582.024,650.489 C 584.323,648.34 585.472,645.341 585.472,641.593 C 585.472,637.794 584.323,634.845 582.024,632.746 C 579.775,630.646 576.526,629.547 572.378,629.497 L 544.39,629.497 L 544.39,607.906 L 569.13,607.906 C 573.278,607.855 576.526,606.806 578.776,604.707 C 581.126,602.558 582.275,599.56 582.275,595.761 C 582.275,592.013 581.126,589.064 578.776,586.914 C 576.527,584.766 573.279,583.716 569.13,583.666 L 544.39,583.666 L 544.39,562.774 L 571.429,562.774 C 575.577,562.723 578.825,561.674 581.075,559.525 C 583.324,557.425 584.473,554.427 584.523,550.579 C 584.474,546.932 583.324,543.982 581.075,541.833 L 581.075,541.833 z"
     id="path15"
     style="fill:url(#linearGradient3359);fill-opacity:1;stroke:none" /><path
     d="M 499.707,539.834 C 496.259,538.484 492.51,537.485 488.462,536.835 C 484.413,536.186 480.365,535.886 476.366,535.886 C 464.721,535.986 454.625,538.585 446.079,543.733 C 437.582,548.831 430.984,555.879 426.286,564.924 C 421.639,573.921 419.239,584.317 419.189,596.161 C 419.189,604.508 420.438,612.255 422.887,619.452 C 425.436,626.749 429.085,633.146 433.883,638.694 C 438.731,644.142 444.679,648.49 451.676,651.639 C 458.723,654.787 466.77,656.337 475.816,656.387 C 479.515,656.387 483.414,656.036 487.562,655.387 C 491.709,654.688 495.659,653.588 499.357,652.038 C 503.055,650.589 506.104,648.59 508.454,646.041 C 510.803,643.592 512.053,640.543 512.102,636.944 C 512.152,635.745 511.902,634.195 511.402,632.296 C 510.852,630.397 509.753,628.697 508.053,627.198 C 506.404,625.698 503.855,624.899 500.456,624.749 C 498.307,624.899 496.258,625.349 494.408,626.198 C 492.509,627.048 490.06,627.897 487.111,628.798 C 484.162,629.648 480.013,630.097 474.716,630.148 C 468.668,630.097 463.62,628.499 459.571,625.4 C 455.523,622.3 452.474,618.203 450.425,613.054 C 448.376,607.956 447.326,602.309 447.326,596.16 C 447.276,590.113 448.276,584.415 450.275,579.167 C 452.324,573.819 455.472,569.521 459.821,566.272 C 464.219,562.923 469.917,561.224 476.965,561.125 C 480.363,561.175 483.412,561.624 486.061,562.524 C 488.71,563.423 491.209,564.323 493.458,565.222 C 495.657,566.072 497.756,566.522 499.755,566.672 C 503.254,566.522 506.003,565.222 508.002,562.774 C 510.051,560.325 511.101,557.425 511.15,554.177 C 511.1,550.728 510.001,547.879 507.902,545.531 C 505.854,543.183 503.106,541.283 499.707,539.834 L 499.707,539.834 z"
     id="path17"
     style="fill:url(#linearGradient3359);fill-opacity:1;stroke:none" /><path
     d="M 409.493,551.479 C 409.443,546.88 408.194,543.382 405.745,541.033 C 403.395,538.684 400.247,537.535 396.349,537.535 C 392.451,537.535 389.302,538.684 386.953,541.033 C 384.504,543.383 383.305,546.881 383.255,551.479 L 383.255,640.843 C 383.305,645.391 384.504,648.89 386.953,651.239 C 389.303,653.589 392.451,654.738 396.349,654.738 C 400.247,654.738 403.396,653.589 405.745,651.239 C 408.194,648.89 409.443,645.391 409.493,640.843 L 409.493,551.479 L 409.493,551.479 z"
     id="path19"
     style="fill:url(#linearGradient3359);fill-opacity:1;stroke:none" /><path
     d="M 374.258,541.833 C 372.009,539.685 368.76,538.534 364.612,538.484 L 324.428,538.484 C 320.879,538.484 317.88,539.633 315.331,541.882 C 312.782,544.132 311.433,547.38 311.333,551.628 L 311.333,640.843 C 311.383,645.391 312.582,648.89 315.031,651.239 C 317.38,653.589 320.529,654.738 324.427,654.738 C 328.325,654.738 331.474,653.589 333.823,651.239 C 336.272,648.89 337.522,645.391 337.572,640.843 L 337.572,607.607 L 361.213,607.607 C 365.361,607.556 368.609,606.507 370.859,604.358 C 373.109,602.209 374.258,599.21 374.308,595.412 C 374.258,591.663 373.109,588.715 370.859,586.565 C 368.61,584.465 365.362,583.367 361.213,583.316 L 337.572,583.316 L 337.572,562.775 L 364.611,562.775 C 368.759,562.724 372.008,561.675 374.257,559.526 C 376.506,557.426 377.655,554.428 377.705,550.58 C 377.656,546.932 376.507,543.982 374.258,541.833 L 374.258,541.833 z"
     id="path21"
     style="fill:url(#linearGradient3359);fill-opacity:1;stroke:none" /><path
     d="M 302.336,541.833 C 300.087,539.685 296.839,538.534 292.69,538.484 L 252.506,538.484 C 248.957,538.484 245.959,539.633 243.409,541.882 C 240.86,544.132 239.511,547.38 239.411,551.628 L 239.411,640.843 C 239.461,645.391 240.661,648.89 243.109,651.239 C 245.458,653.589 248.607,654.738 252.505,654.738 C 256.403,654.738 259.552,653.589 261.901,651.239 C 264.35,648.89 265.6,645.391 265.65,640.843 L 265.65,607.607 L 289.291,607.607 C 293.439,607.556 296.687,606.507 298.937,604.358 C 301.187,602.209 302.335,599.21 302.386,595.412 C 302.335,591.663 301.186,588.715 298.937,586.565 C 296.688,584.465 293.439,583.367 289.291,583.316 L 265.65,583.316 L 265.65,562.775 L 292.689,562.775 C 296.837,562.724 300.085,561.675 302.335,559.526 C 304.584,557.426 305.734,554.428 305.784,550.58 C 305.735,546.932 304.585,543.982 302.336,541.833 L 302.336,541.833 z"
     id="path23"
     style="fill:url(#linearGradient3359);fill-opacity:1;stroke:none" /><path
     d="M 222.519,564.274 C 217.871,555.278 211.274,548.331 202.827,543.382 C 194.38,538.433 184.434,535.935 172.989,535.885 C 161.493,535.935 151.548,538.434 143.101,543.382 C 134.654,548.33 128.057,555.278 123.409,564.274 C 118.761,573.22 116.362,583.866 116.312,596.161 C 116.362,608.406 118.761,619.053 123.409,627.999 C 128.057,637.045 134.655,643.992 143.101,648.891 C 151.548,653.839 161.494,656.338 172.989,656.388 C 184.434,656.338 194.38,653.839 202.827,648.891 C 211.274,643.993 217.871,637.045 222.519,627.999 C 227.167,619.053 229.566,608.406 229.616,596.161 C 229.566,583.866 227.167,573.221 222.519,564.274 L 222.519,564.274 z M 189.382,565.374 C 193.53,568.822 196.579,573.221 198.528,578.669 C 200.527,584.116 201.527,589.914 201.477,596.161 C 201.527,602.359 200.527,608.157 198.528,613.604 C 196.579,619.052 193.53,623.45 189.382,626.899 C 185.134,630.248 179.686,631.997 172.989,632.147 C 166.241,631.997 160.794,630.248 156.545,626.899 C 152.397,623.45 149.348,619.052 147.399,613.604 C 145.45,608.157 144.45,602.359 144.45,596.161 C 144.45,589.914 145.45,584.116 147.399,578.669 C 149.348,573.221 152.397,568.822 156.545,565.374 C 160.794,562.025 166.241,560.276 172.989,560.176 C 179.686,560.276 185.134,562.025 189.382,565.374 L 189.382,565.374 z"
     id="path25"
     style="fill:url(#linearGradient3359);fill-opacity:1;stroke:none" /></g>
<path
   style="opacity:1;fill:url(#linearGradient3322);fill-opacity:1;stroke:url(#linearGradient3332);stroke-width:0.5;stroke-miterlimit:4;stroke-dasharray:none;stroke-dashoffset:0;stroke-opacity:1"
   d="M 292.74999,1.2702147e-09 C 280.32362,1.2702147e-09 268.24422,0.82089093 256.49999,2.46875 C 256.1567,2.5288744 255.81145,2.5632003 255.46874,2.625 C 157.50425,20.290472 83.093739,106.30253 83.093739,209.65625 C 83.093739,325.77633 177.01869,420.03125 292.74999,420.03125 C 408.4813,420.03125 502.40623,325.77633 502.40624,209.65625 C 502.40624,106.34766 428.05739,20.373671 330.15624,2.65625 C 330.05112,2.6409624 329.94892,2.608905 329.84374,2.59375 C 317.83073,0.86278353 305.4761,1.2702147e-09 292.74999,1.2702147e-09 z M 292.74999,59.96875 C 342.379,59.968748 384.80149,77.52025 419.93749,112.65625 C 455.0735,147.79225 472.65624,190.22625 472.65624,239.90625 C 472.65625,289.58624 455.07349,332.02025 419.93749,367.15625 C 384.8015,402.29224 342.37999,419.875 292.74999,419.875 C 243.07,419.87501 200.63599,402.29225 165.49999,367.15625 C 130.364,332.02024 112.76249,289.58625 112.81249,239.90625 C 112.76249,190.22624 130.36399,147.79225 165.49999,112.65625 C 200.635,77.520251 243.06999,59.96875 292.74999,59.96875 z"
   id="path2506" /></svg>