<?xml version="1.0" encoding="utf-8"?>
<!-- Generator: Adobe Illustrator 12.0.0, SVG Export Plug-In . SVG Version: 6.00 Build 51448)  -->
<!DOCTYPE svg PUBLIC "-//W3C//DTD SVG 1.1//EN" "http://www.w3.org/Graphics/SVG/1.1/DTD/svg11.dtd" [
	<!ENTITY ns_svg "http://www.w3.org/2000/svg">
	<!ENTITY ns_xlink "http://www.w3.org/1999/xlink">
]>
<svg  version="1.1" id="Layer_1" xmlns="&ns_svg;" xmlns:xlink="&ns_xlink;" width="571.08" height="656.388"
	 viewBox="0 0 571.08 656.388" overflow="visible" enable-background="new 0 0 571.08 656.388" xml:space="preserve">
<g>
	<path fill="#3E4547" d="M525.448,239.954c0-66.273-23.441-122.851-70.272-169.682S351.768,0,285.543,0
		C219.27,0,162.692,23.441,115.861,70.272C69.03,117.103,45.639,173.681,45.639,239.954c0,66.224,23.391,122.801,70.222,169.632
		c46.831,46.832,103.409,70.272,169.682,70.322c66.224-0.05,122.801-23.491,169.632-70.322S525.448,306.178,525.448,239.954
		L525.448,239.954z M465.472,239.904c0,49.68-17.593,92.113-52.729,127.249s-77.569,52.729-127.2,52.729
		c-49.68,0-92.113-17.593-127.249-52.729c-35.136-35.136-52.729-77.569-52.679-127.249c-0.05-49.68,17.543-92.113,52.679-127.249
		c35.136-35.136,77.569-52.679,127.249-52.679c49.63,0,92.064,17.543,127.2,52.679C447.879,147.791,465.472,190.224,465.472,239.904
		L465.472,239.904z"/>
	<path fill="#E70F00" d="M400.947,147.991c-1.449-4.098-3.798-7.797-7.097-11.095c-0.399-0.45-0.8-0.85-1.199-1.2
		c-1.15-1.049-2.35-1.949-3.599-2.799c-2.549-1.699-5.298-2.949-8.197-3.749c-0.999-0.3-1.999-0.55-2.999-0.7l-0.05,0.05
		l-125.05-0.5v0.05c-0.05,0-0.05,0-0.05,0c-2.799-0.05-5.448,0.3-7.947,0.95c-0.8,0.2-1.549,0.45-2.299,0.7
		c-4.098,1.449-7.797,3.798-11.095,7.047c-5.848,5.848-8.747,12.945-8.697,21.241c-0.05,8.247,2.899,15.344,8.747,21.191
		s12.895,8.797,21.242,8.797c0.05,0,0.05,0,0.1,0l89.964,0.05l-0.05,95.312c1.3,6.047,4.248,11.345,8.797,15.943
		c5.848,5.848,12.944,8.747,21.241,8.747c8.247,0,15.344-2.899,21.191-8.747c4.548-4.548,7.447-9.846,8.746-15.894l0.051-0.05
		v-125.1h-0.051c-0.05-0.05-0.05-0.05,0-0.1c0-2.749-0.3-5.398-0.949-7.896C401.447,149.49,401.197,148.741,400.947,147.991
		L400.947,147.991z"/>
	<path fill="#3E4547" d="M227.667,192.673c-1.35-6.047-4.248-11.345-8.796-15.894c-5.898-5.848-12.995-8.796-21.242-8.796
		c-8.296,0-15.344,2.949-21.191,8.796c-4.548,4.548-7.497,9.846-8.747,15.894l-0.05,0.05v125.1h0.05c0,0,0,0,0,0.05
		c-0.05,2.749,0.25,5.397,0.9,7.896c0.25,0.75,0.5,1.55,0.799,2.299c1.399,4.048,3.749,7.747,7.047,11.095
		c0.4,0.4,0.8,0.8,1.2,1.149c1.149,1.05,2.349,1.949,3.598,2.8c2.549,1.699,5.298,2.948,8.247,3.748
		c0.949,0.3,1.949,0.55,2.949,0.699l0.05-0.05l125.101,0.5h-0.05c0.05-0.05,0.05-0.05,0.1,0c2.749,0,5.398-0.3,7.947-0.949
		c0.749-0.25,1.549-0.5,2.299-0.75c4.048-1.449,7.747-3.799,11.096-7.047c5.798-5.848,8.696-12.945,8.696-21.242
		c0-8.247-2.898-15.344-8.746-21.191s-12.945-8.797-21.242-8.797c-0.05,0-0.1,0-0.1,0h-89.964L227.667,192.673L227.667,192.673z"/>
	<path fill="#E70F00" d="M107.915,559.727c1.699-2.699,2.549-5.698,2.599-8.997c-0.05-4.248-1.549-7.896-4.548-10.896
		c-2.999-3.049-6.647-4.548-10.896-4.548c-3.349,0-6.347,0.85-8.996,2.599l-45.532,45.532h0.05h-0.05
		c-1.05,0.999-1.899,2.099-2.549,3.248c-0.2,0.351-0.4,0.7-0.55,1.1c-0.949,1.999-1.449,4.198-1.449,6.598c0,0.25,0,0.55,0,0.85
		c0.05,0.8,0.15,1.6,0.3,2.349c0.3,1.55,0.85,2.999,1.649,4.349c0.25,0.45,0.5,0.899,0.8,1.35h0.05l45.332,45.682v-0.05v0.05
		c1,1,2.099,1.85,3.249,2.549c0.35,0.2,0.7,0.4,1.1,0.55c1.999,0.95,4.198,1.449,6.597,1.449c4.249,0,7.847-1.499,10.896-4.498
		c2.999-3.049,4.498-6.647,4.548-10.896c-0.05-4.248-1.549-7.896-4.548-10.945l-0.05-0.05l-32.687-32.737L107.915,559.727
		L107.915,559.727z"/>
	<path fill="#3E4547" d="M15.401,535.236c-4.248,0-7.897,1.499-10.896,4.548c-2.349,2.349-3.849,5.048-4.499,8.196v90.114
		c-0.05,1.399,0.15,2.749,0.5,4.049c0.1,0.399,0.2,0.8,0.35,1.199c0.75,2.099,1.949,3.998,3.648,5.697
		c2.999,2.999,6.647,4.499,10.896,4.499c4.249,0,7.897-1.5,10.946-4.499c2.999-3.049,4.498-6.697,4.498-10.945V547.98
		c-0.65-3.148-2.149-5.848-4.498-8.196C23.298,536.735,19.65,535.236,15.401,535.236L15.401,535.236z"/>
	<path fill="#3E4547" d="M563.982,564.274c-4.648-8.996-11.245-15.943-19.692-20.892c-8.446-4.948-18.393-7.447-29.838-7.497
		c-11.495,0.05-21.441,2.549-29.888,7.497c-8.447,4.948-15.044,11.896-19.692,20.892c-4.648,8.946-7.047,19.592-7.097,31.887
		c0.05,12.245,2.448,22.892,7.097,31.838c4.648,9.046,11.245,15.993,19.692,20.892c8.446,4.948,18.393,7.447,29.888,7.497
		c11.445-0.05,21.392-2.549,29.838-7.497c8.447-4.898,15.044-11.846,19.692-20.892c4.648-8.946,7.047-19.593,7.098-31.838
		C571.029,583.866,568.631,573.221,563.982,564.274L563.982,564.274z M530.846,565.374c4.148,3.448,7.197,7.847,9.146,13.295
		c1.999,5.447,2.998,11.245,2.948,17.492c0.05,6.198-0.949,11.996-2.948,17.443c-1.949,5.448-4.998,9.846-9.146,13.295
		c-4.248,3.349-9.696,5.098-16.394,5.248c-6.747-0.15-12.195-1.899-16.443-5.248c-4.148-3.449-7.197-7.847-9.146-13.295
		c-1.949-5.447-2.948-11.245-2.948-17.443c0-6.247,0.999-12.045,2.948-17.492c1.949-5.448,4.998-9.847,9.146-13.295
		c4.248-3.349,9.696-5.098,16.443-5.198C521.149,560.276,526.598,562.025,530.846,565.374L530.846,565.374z"/>
	<path fill="#3E4547" d="M458.225,550.58c0-3.749-1.149-6.697-3.448-8.847c-2.35-2.1-5.698-3.198-10.146-3.249h-55.628
		c-4.447,0.051-7.797,1.149-10.146,3.249c-2.349,2.149-3.499,5.098-3.499,8.847c0,3.748,1.15,6.747,3.499,8.896
		c2.349,2.148,5.698,3.248,10.146,3.299h14.694v78.068c0.05,4.548,1.25,8.047,3.699,10.396c2.349,2.35,5.497,3.499,9.396,3.499
		c3.949,0,7.098-1.149,9.446-3.499c2.449-2.349,3.648-5.848,3.698-10.396v-78.068h14.694c4.448-0.051,7.797-1.15,10.146-3.299
		C457.075,557.327,458.225,554.328,458.225,550.58L458.225,550.58z"/>
	<path fill="#3E4547" d="M338.772,539.234c-2.699-2.149-6.247-3.299-10.695-3.349c-4.299,0.05-7.797,1.199-10.446,3.349
		c-2.648,2.149-4.848,5.048-6.547,8.597c-1.75,3.599-3.349,7.547-4.799,11.845l-25.34,68.173c-1.1,2.999-1.949,5.498-2.499,7.447
		c-0.1,0.35-0.2,0.649-0.25,0.949c-0.55-1.349-1.399-2.549-2.499-3.498c-2.249-2.1-5.498-3.199-9.646-3.249h-28.139v-78.019
		c-0.05-4.599-1.3-8.097-3.749-10.446c-2.349-2.349-5.498-3.498-9.396-3.498s-7.047,1.149-9.396,3.498
		c-2.449,2.35-3.648,5.848-3.699,10.446v89.164c0.1,4.249,1.45,7.497,3.999,9.746s5.548,3.398,9.096,3.398h41.284
		c4.148-0.05,7.397-1.149,9.646-3.298c0.85-0.75,1.549-1.649,2.099-2.649c0.55,1.55,1.5,2.849,2.849,3.948
		c2.249,1.899,5.297,2.899,9.097,2.949c4.148-0.1,7.197-1.3,9.146-3.648c1.949-2.35,3.498-5.398,4.598-9.146l3.249-10.396h43.033
		l3.248,10.396c1.1,3.748,2.6,6.797,4.549,9.146c1.949,2.349,5.048,3.549,9.196,3.648c3.798-0.05,6.847-1.05,9.096-2.949
		c2.299-1.899,3.499-4.498,3.549-7.747c0-1.249-0.1-2.549-0.25-3.848c-0.2-1.35-0.55-2.999-1.1-4.898
		c-0.55-1.949-1.399-4.448-2.549-7.447l-25.29-68.173c-1.449-4.298-3.049-8.246-4.798-11.845
		C343.671,544.282,341.472,541.384,338.772,539.234L338.772,539.234z M328.576,565.074h0.301l13.145,42.232h-27.539L328.576,565.074
		L328.576,565.074z"/>
	<path fill="#3E4547" d="M183.284,542.833c-5.948-2.899-12.395-4.349-19.292-4.349h-32.188c-3.548,0-6.547,1.149-9.096,3.398
		c-2.549,2.25-3.898,5.498-3.999,9.746v89.215c0.05,4.548,1.25,8.047,3.699,10.396c2.349,2.35,5.498,3.499,9.396,3.499
		s7.047-1.149,9.396-3.499c2.449-2.349,3.699-5.848,3.749-10.396v-24.141h19.892c8.347-0.05,15.394-1.799,21.142-5.147
		c5.748-3.299,10.096-7.897,13.044-13.745c2.999-5.848,4.499-12.545,4.499-20.092c-0.1-8.696-2-15.943-5.748-21.741
		C194.08,550.13,189.232,545.731,183.284,542.833L183.284,542.833z M171.589,565.874c3.099,2.648,4.698,6.597,4.748,11.845
		c0,2.749-0.649,5.248-1.999,7.598c-1.35,2.349-3.299,4.298-5.848,5.747c-2.549,1.5-5.748,2.249-9.496,2.299H144.95v-31.537h14.044
		C164.292,561.825,168.49,563.175,171.589,565.874L171.589,565.874z"/>
</g>
</svg>
