<?xml version="1.0" encoding="UTF-8" standalone="no"?>
<!-- Generator: Adobe Illustrator 12.0.0, SVG Export Plug-In . SVG Version: 6.00 Build 51448)  -->
<svg
   xmlns:dc="http://purl.org/dc/elements/1.1/"
   xmlns:cc="http://creativecommons.org/ns#"
   xmlns:rdf="http://www.w3.org/1999/02/22-rdf-syntax-ns#"
   xmlns:svg="http://www.w3.org/2000/svg"
   xmlns="http://www.w3.org/2000/svg"
   xmlns:xlink="http://www.w3.org/1999/xlink"
   xmlns:sodipodi="http://sodipodi.sourceforge.net/DTD/sodipodi-0.dtd"
   xmlns:inkscape="http://www.inkscape.org/namespaces/inkscape"
   version="1.1"
   id="Layer_1"
   width="571.08"
   height="656.388"
   viewBox="0 0 571.08 656.388"
   overflow="visible"
   enable-background="new 0 0 571.08 656.388"
   xml:space="preserve"
   sodipodi:version="0.32"
   inkscape:version="0.46"
   sodipodi:docname="kplato.svg"
   inkscape:output_extension="org.inkscape.output.svg.inkscape"><metadata
   id="metadata26"><rdf:RDF><cc:Work
       rdf:about=""><dc:format>image/svg+xml</dc:format><dc:type
         rdf:resource="http://purl.org/dc/dcmitype/StillImage" /></cc:Work></rdf:RDF></metadata><defs
   id="defs24"><inkscape:perspective
   sodipodi:type="inkscape:persp3d"
   inkscape:vp_x="0 : 328.194 : 1"
   inkscape:vp_y="0 : 1000 : 0"
   inkscape:vp_z="571.08002 : 328.194 : 1"
   inkscape:persp3d-origin="285.54001 : 218.796 : 1"
   id="perspective28" /><linearGradient
   gradientUnits="userSpaceOnUse"
   y2="419.44904"
   x2="237.37856"
   y1="-0.18070547"
   x1="237.37856"
   id="linearGradient2438"
   xlink:href="#linearGradient3292"
   inkscape:collect="always" /><inkscape:perspective
   sodipodi:type="inkscape:persp3d"
   inkscape:vp_x="0 : 526.18109 : 1"
   inkscape:vp_y="0 : 1000 : 0"
   inkscape:vp_z="744.09448 : 526.18109 : 1"
   inkscape:persp3d-origin="372.04724 : 350.78739 : 1"
   id="perspective2705" /><linearGradient
   gradientUnits="userSpaceOnUse"
   y2="535.23602"
   x2="197.11394"
   y1="654.73938"
   x1="197.11394"
   id="linearGradient2611"
   xlink:href="#linearGradient3353"
   inkscape:collect="always" />
	
	
	
	
	
	
	
	
	
<linearGradient
   gradientTransform="translate(-99.179799,-0.4262079)"
   y2="534.97424"
   x2="232.97664"
   y1="656.388"
   x1="232.97664"
   gradientUnits="userSpaceOnUse"
   id="linearGradient2585"
   xlink:href="#linearGradient3353"
   inkscape:collect="always" /><linearGradient
   id="linearGradient3367"><stop
     id="stop3369"
     offset="0"
     style="stop-color:#f60000;stop-opacity:1;" /><stop
     style="stop-color:#f60000;stop-opacity:1;"
     offset="0.5"
     id="stop3371" /><stop
     style="stop-color:#f61111;stop-opacity:1;"
     offset="0.50999999"
     id="stop3373" /><stop
     id="stop3375"
     offset="1"
     style="stop-color:#fa6a6a;stop-opacity:1;" /></linearGradient><linearGradient
   id="linearGradient3353"><stop
     style="stop-color:#20292b;stop-opacity:1"
     offset="0"
     id="stop3355" /><stop
     id="stop3363"
     offset="0.5"
     style="stop-color:#20292b;stop-opacity:1" /><stop
     id="stop3361"
     offset="0.50999999"
     style="stop-color:#31393b;stop-opacity:1" /><stop
     style="stop-color:#787d7f;stop-opacity:1"
     offset="1"
     id="stop3357" /></linearGradient><linearGradient
   id="linearGradient3314"><stop
     style="stop-color:#f61c1c;stop-opacity:1;"
     offset="0"
     id="stop3316" /><stop
     style="stop-color:#fc5b5b;stop-opacity:1;"
     offset="1"
     id="stop3318" /></linearGradient><linearGradient
   id="linearGradient3292"><stop
     style="stop-color:#8f9495;stop-opacity:1"
     offset="0"
     id="stop3294" /><stop
     style="stop-color:#222b2d;stop-opacity:1"
     offset="1"
     id="stop3296" /></linearGradient><inkscape:perspective
   sodipodi:type="inkscape:persp3d"
   inkscape:vp_x="0 : 328.194 : 1"
   inkscape:vp_y="0 : 1000 : 0"
   inkscape:vp_z="585.47302 : 328.194 : 1"
   inkscape:persp3d-origin="292.73651 : 218.796 : 1"
   id="perspective32" /><inkscape:perspective
   id="perspective2469"
   inkscape:persp3d-origin="372.04724 : 350.78739 : 1"
   inkscape:vp_z="744.09448 : 526.18109 : 1"
   inkscape:vp_y="0 : 1000 : 0"
   inkscape:vp_x="0 : 526.18109 : 1"
   sodipodi:type="inkscape:persp3d" />
	
	
	
	
	
	
	
	
	
	
	
<linearGradient
   inkscape:collect="always"
   xlink:href="#linearGradient3292"
   id="linearGradient3312"
   x1="294.96109"
   y1="-0.0057355352"
   x2="294.96109"
   y2="421.22168"
   gradientUnits="userSpaceOnUse" /><linearGradient
   inkscape:collect="always"
   xlink:href="#linearGradient3314"
   id="linearGradient3320"
   x1="317.72427"
   y1="353.60373"
   x2="317.72427"
   y2="125.0482"
   gradientUnits="userSpaceOnUse" /><linearGradient
   inkscape:collect="always"
   xlink:href="#linearGradient3353"
   id="linearGradient3359"
   x1="232.97664"
   y1="656.388"
   x2="232.97664"
   y2="534.97424"
   gradientUnits="userSpaceOnUse" /><linearGradient
   inkscape:collect="always"
   xlink:href="#linearGradient3367"
   id="linearGradient3365"
   x1="68.389832"
   y1="653.48999"
   x2="68.389832"
   y2="535.18597"
   gradientUnits="userSpaceOnUse"
   gradientTransform="translate(-7.895,34.834)" /><linearGradient
   inkscape:collect="always"
   xlink:href="#linearGradient3353"
   id="linearGradient2414"
   gradientUnits="userSpaceOnUse"
   x1="232.97664"
   y1="656.388"
   x2="232.97664"
   y2="534.97424" /><linearGradient
   inkscape:collect="always"
   xlink:href="#linearGradient3353"
   id="linearGradient2416"
   gradientUnits="userSpaceOnUse"
   x1="232.97664"
   y1="656.388"
   x2="232.97664"
   y2="534.97424" /><linearGradient
   inkscape:collect="always"
   xlink:href="#linearGradient3353"
   id="linearGradient2418"
   gradientUnits="userSpaceOnUse"
   x1="232.97664"
   y1="656.388"
   x2="232.97664"
   y2="534.97424" /><linearGradient
   inkscape:collect="always"
   xlink:href="#linearGradient3353"
   id="linearGradient2420"
   gradientUnits="userSpaceOnUse"
   x1="232.97664"
   y1="656.388"
   x2="232.97664"
   y2="534.97424" /><linearGradient
   inkscape:collect="always"
   xlink:href="#linearGradient3353"
   id="linearGradient2422"
   gradientUnits="userSpaceOnUse"
   x1="232.97664"
   y1="656.388"
   x2="232.97664"
   y2="534.97424" /><linearGradient
   inkscape:collect="always"
   xlink:href="#linearGradient3353"
   id="linearGradient2424"
   gradientUnits="userSpaceOnUse"
   x1="232.97664"
   y1="656.388"
   x2="232.97664"
   y2="534.97424" /><linearGradient
   inkscape:collect="always"
   xlink:href="#linearGradient3353"
   id="linearGradient2426"
   gradientUnits="userSpaceOnUse"
   x1="232.97664"
   y1="656.388"
   x2="232.97664"
   y2="534.97424" /><linearGradient
   inkscape:collect="always"
   xlink:href="#linearGradient3353"
   id="linearGradient2428"
   gradientUnits="userSpaceOnUse"
   x1="232.97664"
   y1="656.388"
   x2="232.97664"
   y2="534.97424" /><linearGradient
   inkscape:collect="always"
   xlink:href="#linearGradient3353"
   id="linearGradient2431"
   gradientUnits="userSpaceOnUse"
   x1="232.97664"
   y1="656.388"
   x2="232.97664"
   y2="534.97424" /><linearGradient
   inkscape:collect="always"
   xlink:href="#linearGradient3353"
   id="linearGradient2434"
   gradientUnits="userSpaceOnUse"
   x1="232.97664"
   y1="656.388"
   x2="232.97664"
   y2="534.97424" /><linearGradient
   inkscape:collect="always"
   xlink:href="#linearGradient3353"
   id="linearGradient2437"
   gradientUnits="userSpaceOnUse"
   x1="232.97664"
   y1="656.388"
   x2="232.97664"
   y2="534.97424" /><linearGradient
   inkscape:collect="always"
   xlink:href="#linearGradient3353"
   id="linearGradient2440"
   gradientUnits="userSpaceOnUse"
   x1="232.97664"
   y1="656.388"
   x2="232.97664"
   y2="534.97424" /><linearGradient
   inkscape:collect="always"
   xlink:href="#linearGradient3353"
   id="linearGradient2443"
   gradientUnits="userSpaceOnUse"
   x1="232.97664"
   y1="656.388"
   x2="232.97664"
   y2="534.97424" /><linearGradient
   inkscape:collect="always"
   xlink:href="#linearGradient3353"
   id="linearGradient2446"
   gradientUnits="userSpaceOnUse"
   x1="232.97664"
   y1="656.388"
   x2="232.97664"
   y2="534.97424" /><inkscape:perspective
   id="perspective2663"
   inkscape:persp3d-origin="239.9045 : 218.24701 : 1"
   inkscape:vp_z="479.80899 : 327.37051 : 1"
   inkscape:vp_y="0 : 1000 : 0"
   inkscape:vp_x="0 : 327.37051 : 1"
   sodipodi:type="inkscape:persp3d" />
	
	
	
	
	
	
	
	
	
<linearGradient
   inkscape:collect="always"
   xlink:href="#linearGradient3353"
   id="linearGradient2777"
   x1="206.85307"
   y1="656.388"
   x2="206.85307"
   y2="535.20978"
   gradientUnits="userSpaceOnUse" /><linearGradient
   inkscape:collect="always"
   xlink:href="#linearGradient3292"
   id="linearGradient2779"
   gradientUnits="userSpaceOnUse"
   gradientTransform="translate(-571.79218,21.475341)"
   x1="292.75"
   y1="-2.8303274e-14"
   x2="292.75"
   y2="420.03125" /><linearGradient
   inkscape:collect="always"
   xlink:href="#linearGradient3292"
   id="linearGradient2781"
   gradientUnits="userSpaceOnUse"
   gradientTransform="translate(-571.79217,21.475341)"
   x1="292.75"
   y1="7.1270186e-08"
   x2="292.75"
   y2="420.03125" /><linearGradient
   inkscape:collect="always"
   xlink:href="#linearGradient3292"
   id="linearGradient2783"
   x1="285.26694"
   y1="1.3667146"
   x2="285.26694"
   y2="418.62616"
   gradientUnits="userSpaceOnUse" /><inkscape:perspective
   id="perspective2876"
   inkscape:persp3d-origin="372.04724 : 350.78739 : 1"
   inkscape:vp_z="744.09448 : 526.18109 : 1"
   inkscape:vp_y="0 : 1000 : 0"
   inkscape:vp_x="0 : 526.18109 : 1"
   sodipodi:type="inkscape:persp3d" /><linearGradient
   inkscape:collect="always"
   xlink:href="#linearGradient3367"
   id="linearGradient2882"
   x1="67.195541"
   y1="653.49103"
   x2="67.195541"
   y2="535.1308"
   gradientUnits="userSpaceOnUse" /><linearGradient
   inkscape:collect="always"
   xlink:href="#linearGradient3314"
   id="linearGradient2884"
   x1="295.47095"
   y1="308.026"
   x2="295.47095"
   y2="127.99783"
   gradientUnits="userSpaceOnUse" /></defs><sodipodi:namedview
   inkscape:window-height="828"
   inkscape:window-width="1440"
   inkscape:pageshadow="2"
   inkscape:pageopacity="0.0"
   guidetolerance="10.0"
   gridtolerance="10.0"
   objecttolerance="10.0"
   borderopacity="1.0"
   bordercolor="#666666"
   pagecolor="#ffffff"
   id="base"
   showgrid="false"
   inkscape:zoom="0.86534184"
   inkscape:cx="147.44429"
   inkscape:cy="328.194"
   inkscape:window-x="0"
   inkscape:window-y="0"
   inkscape:current-layer="Layer_1" />
<path
   style="fill:url(#linearGradient2884)"
   id="path7"
   d="M 400.947,147.991 C 399.498,143.893 397.149,140.194 393.85,136.896 C 393.451,136.446 393.05,136.046 392.651,135.696 C 391.501,134.647 390.301,133.747 389.052,132.897 C 386.503,131.198 383.754,129.948 380.855,129.148 C 379.856,128.848 378.856,128.598 377.856,128.448 L 377.806,128.498 L 252.756,127.998 L 252.756,128.048 C 252.706,128.048 252.706,128.048 252.706,128.048 C 249.907,127.998 247.258,128.348 244.759,128.998 C 243.959,129.198 243.21,129.448 242.46,129.698 C 238.362,131.147 234.663,133.496 231.365,136.745 C 225.517,142.593 222.618,149.69 222.668,157.986 C 222.618,166.233 225.567,173.33 231.415,179.177 C 237.263,185.024 244.31,187.974 252.657,187.974 C 252.707,187.974 252.707,187.974 252.757,187.974 L 342.721,188.024 L 342.671,283.336 C 343.971,289.383 346.919,294.681 351.468,299.279 C 357.316,305.127 364.412,308.026 372.709,308.026 C 380.956,308.026 388.053,305.127 393.9,299.279 C 398.448,294.731 401.347,289.433 402.646,283.385 L 402.697,283.335 L 402.697,158.235 L 402.646,158.235 C 402.596,158.185 402.596,158.185 402.646,158.135 C 402.646,155.386 402.346,152.737 401.697,150.239 C 401.447,149.49 401.197,148.741 400.947,147.991 L 400.947,147.991 z" /><path
   style="fill:url(#linearGradient2783)"
   id="path9"
   d="M 227.667,192.673 C 226.317,186.626 223.419,181.328 218.871,176.779 C 212.973,170.931 205.876,167.983 197.629,167.983 C 189.333,167.983 182.285,170.932 176.438,176.779 C 171.89,181.327 168.941,186.625 167.691,192.673 L 167.641,192.723 L 167.641,317.823 L 167.691,317.823 C 167.691,317.823 167.691,317.823 167.691,317.873 C 167.641,320.622 167.941,323.27 168.591,325.769 C 168.841,326.519 169.091,327.319 169.39,328.068 C 170.789,332.116 173.139,335.815 176.437,339.163 C 176.837,339.563 177.237,339.963 177.637,340.312 C 178.786,341.362 179.986,342.261 181.235,343.112 C 183.784,344.811 186.533,346.06 189.482,346.86 C 190.431,347.16 191.431,347.41 192.431,347.559 L 192.481,347.509 L 317.582,348.009 L 317.532,348.009 C 317.582,347.959 317.582,347.959 317.632,348.009 C 320.381,348.009 323.03,347.709 325.579,347.06 C 326.328,346.81 327.128,346.56 327.878,346.31 C 331.926,344.861 335.625,342.511 338.974,339.263 C 344.772,333.415 347.67,326.318 347.67,318.021 C 347.67,309.774 344.772,302.677 338.924,296.83 C 333.076,290.983 325.979,288.033 317.682,288.033 C 317.632,288.033 317.582,288.033 317.582,288.033 L 227.618,288.033 L 227.667,192.673 L 227.667,192.673 z" /><path
   style="fill:url(#linearGradient2882)"
   id="path11"
   d="M 107.915,559.727 C 109.614,557.028 110.464,554.029 110.514,550.73 C 110.464,546.482 108.965,542.834 105.966,539.834 C 102.967,536.785 99.319,535.286 95.07,535.286 C 91.721,535.286 88.723,536.136 86.074,537.885 L 40.542,583.417 L 40.592,583.417 L 40.542,583.417 C 39.492,584.416 38.643,585.516 37.993,586.665 C 37.793,587.016 37.593,587.365 37.443,587.765 C 36.494,589.764 35.994,591.963 35.994,594.363 C 35.994,594.613 35.994,594.913 35.994,595.213 C 36.044,596.013 36.144,596.813 36.294,597.562 C 36.594,599.112 37.144,600.561 37.943,601.911 C 38.193,602.361 38.443,602.81 38.743,603.261 L 38.793,603.261 L 84.125,648.943 L 84.125,648.893 L 84.125,648.943 C 85.125,649.943 86.224,650.793 87.374,651.492 C 87.724,651.692 88.074,651.892 88.474,652.042 C 90.473,652.992 92.672,653.491 95.071,653.491 C 99.32,653.491 102.918,651.992 105.967,648.993 C 108.966,645.944 110.465,642.346 110.515,638.097 C 110.465,633.849 108.966,630.201 105.967,627.152 L 105.917,627.102 L 73.23,594.365 L 107.915,559.727 L 107.915,559.727 z" /><g
   id="g2770"
   style="fill:url(#linearGradient2777)"><path
     d="M 15.401,535.236 C 11.153,535.236 7.504,536.735 4.505,539.784 C 2.156,542.133 0.656,544.832 0.006,547.98 L 0.006,638.094 C -0.044,639.493 0.156,640.843 0.506,642.143 C 0.606,642.542 0.706,642.943 0.856,643.342 C 1.606,645.441 2.805,647.34 4.504,649.039 C 7.503,652.038 11.151,653.538 15.4,653.538 C 19.649,653.538 23.297,652.038 26.346,649.039 C 29.345,645.99 30.844,642.342 30.844,638.094 L 30.844,547.98 C 30.194,544.832 28.695,542.132 26.346,539.784 C 23.298,536.735 19.65,535.236 15.401,535.236 L 15.401,535.236 z"
     id="path13"
     style="fill:url(#linearGradient2777)" /><path
     d="M 563.982,564.274 C 559.334,555.278 552.737,548.331 544.29,543.382 C 535.844,538.434 525.897,535.935 514.452,535.885 C 502.957,535.935 493.011,538.434 484.564,543.382 C 476.117,548.33 469.52,555.278 464.872,564.274 C 460.224,573.22 457.825,583.866 457.775,596.161 C 457.825,608.406 460.223,619.053 464.872,627.999 C 469.52,637.045 476.117,643.992 484.564,648.891 C 493.01,653.839 502.957,656.338 514.452,656.388 C 525.897,656.338 535.844,653.839 544.29,648.891 C 552.737,643.993 559.334,637.045 563.982,627.999 C 568.63,619.053 571.029,608.406 571.08,596.161 C 571.029,583.866 568.631,573.221 563.982,564.274 L 563.982,564.274 z M 530.846,565.374 C 534.994,568.822 538.043,573.221 539.992,578.669 C 541.991,584.116 542.99,589.914 542.94,596.161 C 542.99,602.359 541.991,608.157 539.992,613.604 C 538.043,619.052 534.994,623.45 530.846,626.899 C 526.598,630.248 521.15,631.997 514.452,632.147 C 507.705,631.997 502.257,630.248 498.009,626.899 C 493.861,623.45 490.812,619.052 488.863,613.604 C 486.914,608.157 485.915,602.359 485.915,596.161 C 485.915,589.914 486.914,584.116 488.863,578.669 C 490.812,573.221 493.861,568.822 498.009,565.374 C 502.257,562.025 507.705,560.276 514.452,560.176 C 521.149,560.276 526.598,562.025 530.846,565.374 L 530.846,565.374 z"
     id="path15"
     style="fill:url(#linearGradient2777)" /><path
     d="M 458.225,550.58 C 458.225,546.831 457.076,543.883 454.777,541.733 C 452.427,539.633 449.079,538.535 444.631,538.484 L 389.003,538.484 C 384.556,538.535 381.206,539.633 378.857,541.733 C 376.508,543.882 375.358,546.831 375.358,550.58 C 375.358,554.328 376.508,557.327 378.857,559.476 C 381.206,561.624 384.555,562.724 389.003,562.775 L 403.697,562.775 L 403.697,640.843 C 403.747,645.391 404.947,648.89 407.396,651.239 C 409.745,653.589 412.893,654.738 416.792,654.738 C 420.741,654.738 423.89,653.589 426.238,651.239 C 428.687,648.89 429.886,645.391 429.936,640.843 L 429.936,562.775 L 444.63,562.775 C 449.078,562.724 452.427,561.625 454.776,559.476 C 457.075,557.327 458.225,554.328 458.225,550.58 L 458.225,550.58 z"
     id="path17"
     style="fill:url(#linearGradient2777)" /><path
     d="M 338.772,539.234 C 336.073,537.085 332.525,535.935 328.077,535.885 C 323.778,535.935 320.28,537.084 317.631,539.234 C 314.983,541.383 312.783,544.282 311.084,547.831 C 309.334,551.43 307.735,555.378 306.285,559.676 L 280.945,627.849 C 279.845,630.848 278.996,633.347 278.446,635.296 C 278.346,635.646 278.246,635.945 278.196,636.245 C 277.646,634.896 276.797,633.696 275.697,632.747 C 273.448,630.647 270.199,629.548 266.051,629.498 L 237.912,629.498 L 237.912,551.479 C 237.862,546.88 236.612,543.382 234.163,541.033 C 231.814,538.684 228.665,537.535 224.767,537.535 C 220.869,537.535 217.72,538.684 215.371,541.033 C 212.922,543.383 211.723,546.881 211.672,551.479 L 211.672,640.643 C 211.772,644.892 213.122,648.14 215.671,650.389 C 218.22,652.638 221.219,653.787 224.767,653.787 L 266.051,653.787 C 270.199,653.737 273.448,652.638 275.697,650.489 C 276.547,649.739 277.246,648.84 277.796,647.84 C 278.346,649.39 279.296,650.689 280.645,651.788 C 282.894,653.687 285.942,654.687 289.742,654.737 C 293.89,654.637 296.939,653.437 298.888,651.089 C 300.837,648.739 302.386,645.691 303.486,641.943 L 306.735,631.547 L 349.768,631.547 L 353.016,641.943 C 354.116,645.691 355.616,648.74 357.565,651.089 C 359.514,653.438 362.613,654.638 366.761,654.737 C 370.559,654.687 373.608,653.687 375.857,651.788 C 378.156,649.889 379.356,647.29 379.406,644.041 C 379.406,642.792 379.306,641.492 379.156,640.193 C 378.956,638.843 378.606,637.194 378.056,635.295 C 377.506,633.346 376.657,630.847 375.507,627.848 L 350.217,559.675 C 348.768,555.377 347.168,551.429 345.419,547.83 C 343.671,544.282 341.472,541.384 338.772,539.234 L 338.772,539.234 z M 328.576,565.074 L 328.877,565.074 L 342.022,607.306 L 314.483,607.306 L 328.576,565.074 L 328.576,565.074 z"
     id="path19"
     style="fill:url(#linearGradient2777)" /><path
     d="M 183.284,542.833 C 177.336,539.934 170.889,538.484 163.992,538.484 L 131.804,538.484 C 128.256,538.484 125.257,539.633 122.708,541.882 C 120.159,544.132 118.81,547.38 118.709,551.628 L 118.709,640.843 C 118.759,645.391 119.959,648.89 122.408,651.239 C 124.757,653.589 127.906,654.738 131.804,654.738 C 135.702,654.738 138.851,653.589 141.2,651.239 C 143.649,648.89 144.899,645.391 144.949,640.843 L 144.949,616.702 L 164.841,616.702 C 173.188,616.652 180.235,614.903 185.983,611.555 C 191.731,608.256 196.079,603.658 199.027,597.81 C 202.026,591.962 203.526,585.265 203.526,577.718 C 203.426,569.022 201.526,561.775 197.778,555.977 C 194.08,550.13 189.232,545.731 183.284,542.833 L 183.284,542.833 z M 171.589,565.874 C 174.688,568.522 176.287,572.471 176.337,577.719 C 176.337,580.468 175.688,582.967 174.338,585.317 C 172.988,587.666 171.039,589.615 168.49,591.064 C 165.941,592.564 162.742,593.313 158.994,593.363 L 144.95,593.363 L 144.95,561.826 L 158.994,561.826 C 164.292,561.825 168.49,563.175 171.589,565.874 L 171.589,565.874 z"
     id="path21"
     style="fill:url(#linearGradient2777)" /></g>
<g
   id="g2588"
   transform="translate(564.59517,-21.47534)"><path
     d="M -39.14717,261.42934 C -39.14717,195.15634 -62.58817,138.57834 -109.41917,91.747341 C -156.25017,44.916341 -212.82817,21.475341 -279.05117,21.475341 C -345.32517,21.475341 -401.90217,44.916341 -448.73317,91.747341 C -495.56517,138.57834 -518.95517,195.15634 -518.95517,261.42934 C -518.95517,327.65334 -495.56417,384.23034 -448.73317,431.06134 C -401.90217,477.89334 -345.32417,501.33334 -279.05117,501.38334 C -212.82817,501.33334 -156.25117,477.89234 -109.42017,431.06134 C -62.58917,384.23034 -39.14717,327.65334 -39.14717,261.42934 L -39.14717,261.42934 z M -279.05117,81.451341 C -229.42217,81.451341 -186.98817,98.994341 -151.85217,134.13034 C -116.71617,169.26634 -99.12317,211.69934 -99.12317,261.37934 C -99.12317,311.05934 -116.71617,353.49234 -151.85217,388.62834 C -186.98817,423.76434 -229.42117,441.35734 -279.05117,441.35734 C -328.73117,441.35734 -371.16417,423.76434 -406.30017,388.62834 C -441.43617,353.49234 -459.02917,311.05934 -458.97917,261.37934 C -459.02917,211.69934 -441.43617,169.26634 -406.30017,134.13034 C -371.16517,98.994341 -328.73117,81.451341 -279.05117,81.451341 L -279.05117,81.451341 z"
     id="path2574"
     style="fill:#222b2d;fill-opacity:1" /><path
     id="path2506"
     d="M -279.04218,21.475341 C -291.46855,21.475341 -303.54795,22.296232 -315.29218,23.944091 C -315.63547,24.004215 -315.98072,24.038541 -316.32343,24.100341 C -414.28792,41.765813 -488.69843,127.77787 -488.69843,231.13159 C -488.69843,347.25167 -394.77348,441.50659 -279.04218,441.50659 C -163.31087,441.50659 -69.38594,347.25167 -69.38593,231.13159 C -69.38593,127.823 -143.73478,41.849012 -241.63593,24.131591 C -241.74105,24.116303 -241.84325,24.084246 -241.94843,24.069091 C -253.96144,22.338125 -266.31607,21.475341 -279.04218,21.475341 z M -279.04218,81.444091 C -229.41317,81.444089 -186.99068,98.995591 -151.85468,134.13159 C -116.71867,169.26759 -99.13593,211.70159 -99.13593,261.38159 C -99.13592,311.06158 -116.71868,353.49559 -151.85468,388.63159 C -186.99067,423.76758 -229.41218,441.35034 -279.04218,441.35034 C -328.72217,441.35035 -371.15618,423.76759 -406.29218,388.63159 C -441.42817,353.49558 -459.02968,311.06159 -458.97968,261.38159 C -459.02968,211.70158 -441.42818,169.26759 -406.29218,134.13159 C -371.15717,98.995592 -328.72218,81.444091 -279.04218,81.444091 z"
     style="fill:url(#linearGradient2779);fill-opacity:1;stroke:url(#linearGradient2781);stroke-width:0.5;stroke-miterlimit:4;stroke-dasharray:none;stroke-dashoffset:0;stroke-opacity:1" /></g></svg>