<?xml version="1.0" encoding="UTF-8" standalone="no"?>
<!-- Generator: Adobe Illustrator 12.0.0, SVG Export Plug-In . SVG Version: 6.00 Build 51448)  -->
<svg
   xmlns:dc="http://purl.org/dc/elements/1.1/"
   xmlns:cc="http://creativecommons.org/ns#"
   xmlns:rdf="http://www.w3.org/1999/02/22-rdf-syntax-ns#"
   xmlns:svg="http://www.w3.org/2000/svg"
   xmlns="http://www.w3.org/2000/svg"
   xmlns:xlink="http://www.w3.org/1999/xlink"
   xmlns:sodipodi="http://sodipodi.sourceforge.net/DTD/sodipodi-0.dtd"
   xmlns:inkscape="http://www.inkscape.org/namespaces/inkscape"
   version="1.1"
   id="Layer_1"
   width="888.306"
   height="656.388"
   viewBox="0 0 888.306 656.388"
   overflow="visible"
   enable-background="new 0 0 888.306 656.388"
   xml:space="preserve"
   sodipodi:version="0.32"
   inkscape:version="0.46"
   sodipodi:docname="kpresenter.svg"
   inkscape:output_extension="org.inkscape.output.svg.inkscape"><metadata
   id="metadata36"><rdf:RDF><cc:Work
       rdf:about=""><dc:format>image/svg+xml</dc:format><dc:type
         rdf:resource="http://purl.org/dc/dcmitype/StillImage" /></cc:Work></rdf:RDF></metadata><defs
   id="defs34"><inkscape:perspective
   sodipodi:type="inkscape:persp3d"
   inkscape:vp_x="0 : 328.194 : 1"
   inkscape:vp_y="0 : 1000 : 0"
   inkscape:vp_z="888.30603 : 328.194 : 1"
   inkscape:persp3d-origin="444.15302 : 218.796 : 1"
   id="perspective38" /><linearGradient
   gradientUnits="userSpaceOnUse"
   y2="125.099"
   x2="206.33565"
   y1="355.55756"
   x1="206.33565"
   id="linearGradient2721"
   xlink:href="#linearGradient3314"
   inkscape:collect="always" /><inkscape:perspective
   sodipodi:type="inkscape:persp3d"
   inkscape:vp_x="0 : 526.18109 : 1"
   inkscape:vp_y="0 : 1000 : 0"
   inkscape:vp_z="744.09448 : 526.18109 : 1"
   inkscape:persp3d-origin="372.04724 : 350.78739 : 1"
   id="perspective2705" /><linearGradient
   gradientUnits="userSpaceOnUse"
   y2="535.21124"
   x2="133.54099"
   y1="653.49103"
   x1="133.54099"
   id="linearGradient2613"
   xlink:href="#linearGradient3367"
   inkscape:collect="always" /><linearGradient
   gradientUnits="userSpaceOnUse"
   y2="535.23602"
   x2="197.11394"
   y1="654.73938"
   x1="197.11394"
   id="linearGradient2611"
   xlink:href="#linearGradient3353"
   inkscape:collect="always" /><linearGradient
   y2="420.03125"
   x2="292.75"
   y1="7.1270186e-08"
   x1="292.75"
   gradientTransform="translate(-571.79217,21.475341)"
   gradientUnits="userSpaceOnUse"
   id="linearGradient2603"
   xlink:href="#linearGradient3292"
   inkscape:collect="always" /><linearGradient
   y2="420.03125"
   x2="292.75"
   y1="-2.8303274e-14"
   x1="292.75"
   gradientTransform="translate(-571.79218,21.475341)"
   gradientUnits="userSpaceOnUse"
   id="linearGradient2601"
   xlink:href="#linearGradient3292"
   inkscape:collect="always" />
	
	
	
	
	
	
	
	
	
<linearGradient
   gradientTransform="translate(-99.179799,-0.4262079)"
   y2="534.97424"
   x2="232.97664"
   y1="656.388"
   x1="232.97664"
   gradientUnits="userSpaceOnUse"
   id="linearGradient2585"
   xlink:href="#linearGradient3353"
   inkscape:collect="always" /><linearGradient
   id="linearGradient3367"><stop
     id="stop3369"
     offset="0"
     style="stop-color:#fe7100;stop-opacity:1;" /><stop
     style="stop-color:#fe7100;stop-opacity:1;"
     offset="0.5"
     id="stop3371" /><stop
     style="stop-color:#fe801b;stop-opacity:1;"
     offset="0.50999999"
     id="stop3373" /><stop
     id="stop3375"
     offset="1"
     style="stop-color:#feaa66;stop-opacity:1;" /></linearGradient><linearGradient
   id="linearGradient3353"><stop
     style="stop-color:#20292b;stop-opacity:1"
     offset="0"
     id="stop3355" /><stop
     id="stop3363"
     offset="0.5"
     style="stop-color:#20292b;stop-opacity:1" /><stop
     id="stop3361"
     offset="0.50999999"
     style="stop-color:#31393b;stop-opacity:1" /><stop
     style="stop-color:#787d7f;stop-opacity:1"
     offset="1"
     id="stop3357" /></linearGradient><linearGradient
   id="linearGradient3314"><stop
     style="stop-color:#fe790f;stop-opacity:1;"
     offset="0"
     id="stop3316" /><stop
     style="stop-color:#fea25b;stop-opacity:1;"
     offset="1"
     id="stop3318" /></linearGradient><linearGradient
   id="linearGradient3292"><stop
     style="stop-color:#8f9495;stop-opacity:1"
     offset="0"
     id="stop3294" /><stop
     style="stop-color:#222b2d;stop-opacity:1"
     offset="1"
     id="stop3296" /></linearGradient><inkscape:perspective
   sodipodi:type="inkscape:persp3d"
   inkscape:vp_x="0 : 328.194 : 1"
   inkscape:vp_y="0 : 1000 : 0"
   inkscape:vp_z="585.47302 : 328.194 : 1"
   inkscape:persp3d-origin="292.73651 : 218.796 : 1"
   id="perspective32" /><inkscape:perspective
   id="perspective2469"
   inkscape:persp3d-origin="372.04724 : 350.78739 : 1"
   inkscape:vp_z="744.09448 : 526.18109 : 1"
   inkscape:vp_y="0 : 1000 : 0"
   inkscape:vp_x="0 : 526.18109 : 1"
   sodipodi:type="inkscape:persp3d" />
	
	
	
	
	
	
	
	
	
	
	
<linearGradient
   inkscape:collect="always"
   xlink:href="#linearGradient3292"
   id="linearGradient3312"
   x1="294.96109"
   y1="-0.0057355352"
   x2="294.96109"
   y2="421.22168"
   gradientUnits="userSpaceOnUse" /><linearGradient
   inkscape:collect="always"
   xlink:href="#linearGradient3314"
   id="linearGradient3320"
   x1="317.72427"
   y1="353.60373"
   x2="317.72427"
   y2="125.0482"
   gradientUnits="userSpaceOnUse" /><linearGradient
   inkscape:collect="always"
   xlink:href="#linearGradient3353"
   id="linearGradient3359"
   x1="232.97664"
   y1="656.388"
   x2="232.97664"
   y2="534.97424"
   gradientUnits="userSpaceOnUse" /><linearGradient
   inkscape:collect="always"
   xlink:href="#linearGradient3367"
   id="linearGradient3365"
   x1="68.389832"
   y1="653.48999"
   x2="68.389832"
   y2="535.18597"
   gradientUnits="userSpaceOnUse"
   gradientTransform="translate(-7.895,34.834)" /><linearGradient
   inkscape:collect="always"
   xlink:href="#linearGradient3353"
   id="linearGradient2414"
   gradientUnits="userSpaceOnUse"
   x1="232.97664"
   y1="656.388"
   x2="232.97664"
   y2="534.97424" /><linearGradient
   inkscape:collect="always"
   xlink:href="#linearGradient3353"
   id="linearGradient2416"
   gradientUnits="userSpaceOnUse"
   x1="232.97664"
   y1="656.388"
   x2="232.97664"
   y2="534.97424" /><linearGradient
   inkscape:collect="always"
   xlink:href="#linearGradient3353"
   id="linearGradient2418"
   gradientUnits="userSpaceOnUse"
   x1="232.97664"
   y1="656.388"
   x2="232.97664"
   y2="534.97424" /><linearGradient
   inkscape:collect="always"
   xlink:href="#linearGradient3353"
   id="linearGradient2420"
   gradientUnits="userSpaceOnUse"
   x1="232.97664"
   y1="656.388"
   x2="232.97664"
   y2="534.97424" /><linearGradient
   inkscape:collect="always"
   xlink:href="#linearGradient3353"
   id="linearGradient2422"
   gradientUnits="userSpaceOnUse"
   x1="232.97664"
   y1="656.388"
   x2="232.97664"
   y2="534.97424" /><linearGradient
   inkscape:collect="always"
   xlink:href="#linearGradient3353"
   id="linearGradient2424"
   gradientUnits="userSpaceOnUse"
   x1="232.97664"
   y1="656.388"
   x2="232.97664"
   y2="534.97424" /><linearGradient
   inkscape:collect="always"
   xlink:href="#linearGradient3353"
   id="linearGradient2426"
   gradientUnits="userSpaceOnUse"
   x1="232.97664"
   y1="656.388"
   x2="232.97664"
   y2="534.97424" /><linearGradient
   inkscape:collect="always"
   xlink:href="#linearGradient3353"
   id="linearGradient2428"
   gradientUnits="userSpaceOnUse"
   x1="232.97664"
   y1="656.388"
   x2="232.97664"
   y2="534.97424" /><linearGradient
   inkscape:collect="always"
   xlink:href="#linearGradient3353"
   id="linearGradient2431"
   gradientUnits="userSpaceOnUse"
   x1="232.97664"
   y1="656.388"
   x2="232.97664"
   y2="534.97424" /><linearGradient
   inkscape:collect="always"
   xlink:href="#linearGradient3353"
   id="linearGradient2434"
   gradientUnits="userSpaceOnUse"
   x1="232.97664"
   y1="656.388"
   x2="232.97664"
   y2="534.97424" /><linearGradient
   inkscape:collect="always"
   xlink:href="#linearGradient3353"
   id="linearGradient2437"
   gradientUnits="userSpaceOnUse"
   x1="232.97664"
   y1="656.388"
   x2="232.97664"
   y2="534.97424" /><linearGradient
   inkscape:collect="always"
   xlink:href="#linearGradient3353"
   id="linearGradient2440"
   gradientUnits="userSpaceOnUse"
   x1="232.97664"
   y1="656.388"
   x2="232.97664"
   y2="534.97424" /><linearGradient
   inkscape:collect="always"
   xlink:href="#linearGradient3353"
   id="linearGradient2443"
   gradientUnits="userSpaceOnUse"
   x1="232.97664"
   y1="656.388"
   x2="232.97664"
   y2="534.97424" /><linearGradient
   inkscape:collect="always"
   xlink:href="#linearGradient3353"
   id="linearGradient2446"
   gradientUnits="userSpaceOnUse"
   x1="232.97664"
   y1="656.388"
   x2="232.97664"
   y2="534.97424" /><inkscape:perspective
   id="perspective28"
   inkscape:persp3d-origin="239.9045 : 218.24701 : 1"
   inkscape:vp_z="479.80899 : 327.37051 : 1"
   inkscape:vp_y="0 : 1000 : 0"
   inkscape:vp_x="0 : 327.37051 : 1"
   sodipodi:type="inkscape:persp3d" /><linearGradient
   inkscape:collect="always"
   xlink:href="#linearGradient3353"
   id="linearGradient2683"
   gradientUnits="userSpaceOnUse"
   x1="197.11394"
   y1="654.73938"
   x2="197.11394"
   y2="535.23602" /><linearGradient
   inkscape:collect="always"
   xlink:href="#linearGradient3353"
   id="linearGradient2685"
   gradientUnits="userSpaceOnUse"
   x1="197.11394"
   y1="654.73938"
   x2="197.11394"
   y2="535.23602" /><linearGradient
   inkscape:collect="always"
   xlink:href="#linearGradient3353"
   id="linearGradient2687"
   gradientUnits="userSpaceOnUse"
   x1="197.11394"
   y1="654.73938"
   x2="197.11394"
   y2="535.23602" /><linearGradient
   inkscape:collect="always"
   xlink:href="#linearGradient3353"
   id="linearGradient2689"
   gradientUnits="userSpaceOnUse"
   x1="197.11394"
   y1="654.73938"
   x2="197.11394"
   y2="535.23602" /><linearGradient
   inkscape:collect="always"
   xlink:href="#linearGradient3367"
   id="linearGradient2700"
   gradientUnits="userSpaceOnUse"
   x1="133.54099"
   y1="653.49103"
   x2="133.54099"
   y2="535.21124"
   gradientTransform="translate(-81.409,-4.0148778e-6)" /><linearGradient
   inkscape:collect="always"
   xlink:href="#linearGradient3314"
   id="linearGradient2704"
   gradientUnits="userSpaceOnUse"
   x1="206.33565"
   y1="355.55756"
   x2="206.33565"
   y2="125.099"
   gradientTransform="translate(-478.74978,-63.478154)" />
	
	
	
	
	
	
	
	
	
	
	
	
	
	
<linearGradient
   inkscape:collect="always"
   xlink:href="#linearGradient3292"
   id="linearGradient2722"
   gradientUnits="userSpaceOnUse"
   gradientTransform="translate(-571.79218,21.475341)"
   x1="292.75"
   y1="-2.8303274e-14"
   x2="292.75"
   y2="420.03125" /><linearGradient
   inkscape:collect="always"
   xlink:href="#linearGradient3292"
   id="linearGradient2724"
   gradientUnits="userSpaceOnUse"
   gradientTransform="translate(-571.79217,21.475341)"
   x1="292.75"
   y1="7.1270186e-08"
   x2="292.75"
   y2="420.03125" /><linearGradient
   inkscape:collect="always"
   xlink:href="#linearGradient3353"
   id="linearGradient2738"
   x1="297.7373"
   y1="656.38599"
   x2="297.7373"
   y2="535.22491"
   gradientUnits="userSpaceOnUse" /><linearGradient
   inkscape:collect="always"
   xlink:href="#linearGradient3314"
   id="linearGradient2740"
   x1="489.71515"
   y1="354.909"
   x2="489.71515"
   y2="123.88555"
   gradientUnits="userSpaceOnUse" /><linearGradient
   inkscape:collect="always"
   xlink:href="#linearGradient3292"
   id="linearGradient2742"
   x1="452.95251"
   y1="1.0788012"
   x2="452.95251"
   y2="416.75375"
   gradientUnits="userSpaceOnUse" /></defs><sodipodi:namedview
   inkscape:window-height="828"
   inkscape:window-width="1440"
   inkscape:pageshadow="2"
   inkscape:pageopacity="0.0"
   guidetolerance="10.0"
   gridtolerance="10.0"
   objecttolerance="10.0"
   borderopacity="1.0"
   bordercolor="#666666"
   pagecolor="#ffffff"
   id="base"
   showgrid="false"
   inkscape:zoom="0.61127582"
   inkscape:cx="248.49203"
   inkscape:cy="328.194"
   inkscape:window-x="0"
   inkscape:window-y="0"
   inkscape:current-layer="Layer_1" />
<path
   style="fill:url(#linearGradient2740)"
   id="path7"
   d="M 573.428,233.856 C 572.828,230.807 571.779,228.008 570.23,225.41 C 569.78,224.51 569.23,223.66 568.63,222.811 L 568.58,222.811 L 480.465,133.997 L 480.465,134.047 C 480.415,133.997 480.415,133.997 480.415,133.997 C 478.466,131.997 476.367,130.349 474.168,129.049 C 473.418,128.599 472.719,128.25 472.019,127.949 C 468.071,126.05 463.823,125.1 459.174,125.1 C 450.877,125.1 443.83,128.049 437.983,133.946 C 432.135,139.794 429.186,146.841 429.186,155.088 C 429.186,163.385 432.135,170.482 437.983,176.33 C 438.033,176.38 438.033,176.38 438.083,176.43 L 501.658,240.055 L 434.235,307.428 L 434.185,307.428 C 430.836,312.626 429.187,318.473 429.187,324.921 C 429.187,333.168 432.136,340.265 437.984,346.112 C 443.832,351.959 450.879,354.909 459.175,354.909 C 465.622,354.859 471.42,353.21 476.618,349.861 L 476.668,349.861 L 565.132,261.396 L 565.082,261.346 C 565.082,261.346 565.082,261.346 565.132,261.296 C 567.081,259.347 568.731,257.298 570.08,255.048 C 570.48,254.348 570.83,253.649 571.18,252.899 C 573.03,249.001 573.979,244.702 574.029,240.054 C 573.979,239.504 573.979,238.954 573.979,238.405 C 573.878,236.855 573.678,235.306 573.428,233.856 L 573.428,233.856 z" /><path
   style="fill:url(#linearGradient2742)"
   id="path9"
   d="M 389.152,124.95 C 380.855,124.95 373.808,127.899 367.961,133.746 C 363.363,138.294 360.414,143.642 359.164,149.74 L 359.164,149.69 L 359.164,324.77 C 359.164,324.82 359.164,324.82 359.164,324.87 C 359.164,327.619 359.464,330.267 360.114,332.766 C 360.314,333.516 360.564,334.316 360.864,335.066 C 362.313,339.114 364.662,342.812 367.961,346.161 C 373.809,352.009 380.856,354.908 389.152,354.908 C 397.399,354.908 404.496,352.009 410.343,346.161 C 416.191,340.264 419.139,333.167 419.139,324.87 C 419.139,324.82 419.139,324.82 419.139,324.77 L 419.139,149.69 C 417.84,143.642 414.891,138.294 410.343,133.746 C 404.496,127.899 397.398,124.95 389.152,124.95 L 389.152,124.95 z" /><g
   id="g2726"
   style="fill:url(#linearGradient2738)"><path
     d="M 15.401,535.236 C 11.153,535.236 7.505,536.735 4.505,539.784 C 2.156,542.133 0.656,544.832 0.007,547.98 L 0.007,638.094 C -0.043,639.493 0.156,640.843 0.507,642.143 C 0.607,642.542 0.706,642.943 0.857,643.342 C 1.607,645.441 2.806,647.34 4.505,649.039 C 7.504,652.038 11.152,653.538 15.401,653.538 C 19.65,653.538 23.298,652.038 26.346,649.039 C 29.345,645.99 30.845,642.342 30.845,638.094 L 30.845,547.98 C 30.195,544.832 28.696,542.132 26.346,539.784 C 23.299,536.735 19.649,535.236 15.401,535.236 L 15.401,535.236 z"
     id="path13"
     style="fill:url(#linearGradient2738)" /><path
     d="M 882.055,555.428 C 878.907,550.08 874.458,545.982 868.71,543.033 C 862.962,540.084 856.115,538.534 848.268,538.484 L 816.73,538.484 C 813.181,538.484 810.183,539.633 807.634,541.882 C 805.084,544.132 803.736,547.38 803.635,551.628 L 803.635,640.843 C 803.685,645.391 804.885,648.89 807.333,651.239 C 809.683,653.589 812.831,654.738 816.729,654.738 C 820.627,654.738 823.776,653.589 826.125,651.239 C 828.574,648.89 829.823,645.391 829.873,640.843 L 829.873,607.607 L 830.174,607.607 L 862.461,648.241 C 863.91,650.29 865.51,651.889 867.259,652.989 C 869.058,654.138 871.607,654.738 874.856,654.738 C 878.205,654.637 880.854,653.888 882.853,652.439 C 884.802,650.989 886.202,649.29 887.051,647.39 C 887.95,645.492 888.35,643.892 888.3,642.542 C 888.3,640.443 887.801,638.493 886.851,636.694 C 886.001,634.945 884.652,633.145 882.853,631.247 L 860.012,606.656 C 868.359,605.007 874.856,601.358 879.604,595.661 C 884.352,590.013 886.751,582.916 886.851,574.319 C 886.803,567.073 885.203,560.775 882.055,555.428 L 882.055,555.428 z M 856.665,566.124 C 859.214,568.272 860.514,571.321 860.613,575.27 C 860.613,578.969 859.464,582.018 857.164,584.466 C 854.815,586.816 851.517,588.065 847.168,588.165 L 829.875,588.165 L 829.875,562.775 L 847.168,562.775 C 851.017,562.825 854.216,563.975 856.665,566.124 L 856.665,566.124 z"
     id="path15"
     style="fill:url(#linearGradient2738)" /><path
     d="M 791.591,541.833 C 789.342,539.685 786.093,538.534 781.945,538.484 L 741.761,538.484 C 738.212,538.484 735.213,539.633 732.664,541.882 C 730.115,544.132 728.766,547.38 728.666,551.628 L 728.666,640.643 C 728.766,644.892 730.115,648.14 732.664,650.389 C 735.213,652.638 738.212,653.787 741.761,653.787 L 782.895,653.787 C 787.043,653.737 790.291,652.638 792.541,650.489 C 794.841,648.34 795.99,645.341 795.99,641.593 C 795.99,637.794 794.841,634.845 792.541,632.746 C 790.292,630.646 787.044,629.547 782.895,629.497 L 754.906,629.497 L 754.906,607.906 L 779.646,607.906 C 783.794,607.855 787.043,606.806 789.292,604.707 C 791.641,602.558 792.79,599.56 792.79,595.761 C 792.79,592.013 791.641,589.064 789.292,586.914 C 787.043,584.766 783.794,583.716 779.646,583.666 L 754.906,583.666 L 754.906,562.774 L 781.945,562.774 C 786.093,562.723 789.342,561.674 791.591,559.525 C 793.84,557.425 794.989,554.427 795.039,550.579 C 794.989,546.932 793.84,543.982 791.591,541.833 L 791.591,541.833 z"
     id="path17"
     style="fill:url(#linearGradient2738)" /><path
     d="M 722.719,541.733 C 720.369,539.633 717.021,538.534 712.573,538.484 L 656.945,538.484 C 652.497,538.534 649.148,539.633 646.799,541.733 C 644.449,543.882 643.3,546.831 643.3,550.58 C 643.3,554.328 644.449,557.327 646.799,559.476 C 649.148,561.624 652.496,562.724 656.945,562.775 L 671.639,562.775 L 671.639,640.843 C 671.689,645.391 672.889,648.89 675.337,651.239 C 677.687,653.589 680.835,654.738 684.733,654.738 C 688.681,654.738 691.831,653.589 694.179,651.239 C 696.628,648.89 697.827,645.391 697.877,640.843 L 697.877,562.775 L 712.571,562.775 C 717.019,562.724 720.368,561.625 722.717,559.476 C 725.016,557.327 726.165,554.328 726.165,550.58 C 726.167,546.831 725.018,543.883 722.719,541.733 L 722.719,541.733 z"
     id="path19"
     style="fill:url(#linearGradient2738)" /><path
     d="M 618.36,541.033 C 615.911,543.383 614.661,546.881 614.611,551.479 L 614.611,606.208 L 614.311,606.208 L 570.729,551.63 C 567.879,547.981 565.581,545.132 563.731,543.083 C 561.882,541.033 560.133,539.584 558.484,538.734 C 556.835,537.884 554.885,537.485 552.636,537.535 C 548.738,537.535 545.588,538.684 543.24,541.033 C 540.791,543.383 539.592,546.881 539.542,551.479 L 539.542,640.843 C 539.592,645.391 540.791,648.89 543.24,651.239 C 545.589,653.589 548.738,654.738 552.636,654.738 C 556.534,654.738 559.683,653.589 562.032,651.239 C 564.481,648.89 565.731,645.391 565.781,640.843 L 565.781,586.114 L 566.081,586.114 L 609.663,640.642 C 612.463,644.29 614.762,647.14 616.61,649.189 C 618.46,651.238 620.209,652.688 621.908,653.538 C 623.557,654.388 625.507,654.787 627.756,654.737 C 631.654,654.737 634.804,653.588 637.152,651.238 C 639.601,648.889 640.851,645.39 640.901,640.842 L 640.901,551.478 C 640.851,546.879 639.601,543.381 637.152,541.032 C 634.803,538.683 631.654,537.534 627.756,537.534 C 623.858,537.534 620.709,538.685 618.36,541.033 L 618.36,541.033 z"
     id="path21"
     style="fill:url(#linearGradient2738)" /><path
     d="M 530.945,550.58 C 530.894,546.932 529.745,543.982 527.496,541.833 C 525.247,539.685 521.999,538.535 517.85,538.484 L 477.665,538.484 C 474.117,538.484 471.118,539.633 468.569,541.883 C 466.02,544.132 464.671,547.38 464.57,551.629 L 464.57,640.643 C 464.671,644.892 466.02,648.14 468.569,650.389 C 471.118,652.638 474.117,653.787 477.665,653.787 L 518.8,653.787 C 522.948,653.737 526.197,652.638 528.446,650.489 C 530.745,648.34 531.894,645.341 531.894,641.593 C 531.894,637.794 530.745,634.845 528.446,632.746 C 526.197,630.646 522.948,629.547 518.8,629.497 L 490.812,629.497 L 490.812,607.906 L 515.551,607.906 C 519.699,607.856 522.948,606.806 525.197,604.707 C 527.547,602.558 528.696,599.56 528.696,595.761 C 528.696,592.013 527.547,589.064 525.197,586.914 C 522.948,584.766 519.699,583.716 515.551,583.666 L 490.812,583.666 L 490.812,562.774 L 517.851,562.774 C 521.999,562.723 525.247,561.674 527.497,559.525 C 529.745,557.427 530.895,554.429 530.945,550.58 L 530.945,550.58 z"
     id="path23"
     style="fill:url(#linearGradient2738)" /><path
     d="M 439.731,540.784 C 434.133,537.635 426.037,535.985 415.441,535.886 C 408.094,535.886 401.247,537.186 394.999,539.834 C 388.751,542.533 383.704,546.632 379.855,552.129 C 376.106,557.527 374.157,564.424 374.007,572.821 C 374.157,579.668 375.556,585.116 378.205,589.164 C 380.854,593.213 384.253,596.311 388.501,598.511 C 392.649,600.76 397.048,602.559 401.696,603.908 C 406.694,605.458 411.092,606.857 414.841,608.106 C 418.59,609.356 421.488,610.855 423.538,612.504 C 425.587,614.203 426.637,616.452 426.686,619.302 C 426.736,622.2 425.686,624.699 423.538,626.849 C 421.389,628.948 417.74,630.047 412.692,630.148 C 408.244,630.097 404.296,629.498 400.847,628.398 C 397.348,627.349 394.25,626.299 391.6,625.25 C 388.901,624.2 386.502,623.601 384.403,623.501 C 381.754,623.551 379.505,624.25 377.655,625.55 C 375.806,626.9 374.456,628.599 373.557,630.698 C 372.607,632.747 372.107,634.996 372.057,637.445 C 372.157,640.693 373.456,643.543 376.005,645.891 C 378.454,648.241 381.703,650.24 385.651,651.788 C 389.599,653.338 393.797,654.437 398.196,655.187 C 402.644,655.986 406.842,656.386 410.791,656.386 C 419.038,656.386 426.435,655.036 433.082,652.287 C 439.68,649.538 444.928,645.34 448.826,639.642 C 452.724,633.944 454.723,626.647 454.823,617.8 C 454.723,610.553 453.374,604.755 450.725,600.358 C 448.076,595.96 444.677,592.51 440.429,589.962 C 436.231,587.413 431.682,585.414 426.835,583.965 C 420.837,582.016 416.039,580.466 412.391,579.317 C 408.743,578.067 406.094,576.818 404.544,575.569 C 402.895,574.369 402.145,572.67 402.195,570.52 C 402.245,567.622 403.344,565.323 405.493,563.624 C 407.642,561.975 410.541,561.175 414.19,561.125 C 417.838,561.175 420.787,561.524 423.136,562.225 C 425.385,562.974 427.534,563.674 429.533,564.373 C 431.482,565.023 433.831,565.423 436.58,565.473 C 440.128,565.423 442.877,564.224 444.927,561.975 C 447.075,559.776 448.125,556.876 448.175,553.228 C 448.128,548.081 445.329,543.933 439.731,540.784 L 439.731,540.784 z"
     id="path25"
     style="fill:url(#linearGradient2738)" /><path
     d="M 369.01,550.58 C 368.96,546.932 367.811,543.982 365.561,541.833 C 363.312,539.685 360.063,538.535 355.915,538.484 L 315.731,538.484 C 312.183,538.484 309.184,539.633 306.635,541.883 C 304.086,544.132 302.737,547.38 302.636,551.629 L 302.636,640.643 C 302.736,644.892 304.086,648.14 306.635,650.389 C 309.184,652.638 312.183,653.787 315.731,653.787 L 356.865,653.787 C 361.013,653.737 364.262,652.638 366.511,650.489 C 368.81,648.34 369.96,645.341 369.96,641.593 C 369.96,637.794 368.811,634.845 366.511,632.746 C 364.262,630.646 361.013,629.547 356.865,629.497 L 328.876,629.497 L 328.876,607.906 L 353.616,607.906 C 357.764,607.856 361.013,606.806 363.262,604.707 C 365.611,602.558 366.761,599.56 366.761,595.761 C 366.761,592.013 365.612,589.064 363.262,586.914 C 361.013,584.766 357.764,583.716 353.616,583.666 L 328.876,583.666 L 328.876,562.774 L 355.915,562.774 C 360.063,562.723 363.312,561.674 365.561,559.525 C 367.811,557.427 368.96,554.429 369.01,550.58 L 369.01,550.58 z"
     id="path27"
     style="fill:url(#linearGradient2738)" /><path
     d="M 292.89,574.32 C 292.84,567.073 291.241,560.775 288.092,555.427 C 284.943,550.079 280.495,545.981 274.747,543.032 C 268.999,540.083 262.152,538.533 254.305,538.483 L 222.768,538.483 C 219.219,538.483 216.221,539.632 213.671,541.881 C 211.122,544.131 209.773,547.379 209.673,551.627 L 209.673,640.842 C 209.723,645.39 210.923,648.889 213.371,651.238 C 215.72,653.588 218.869,654.737 222.767,654.737 C 226.665,654.737 229.814,653.588 232.163,651.238 C 234.612,648.889 235.862,645.39 235.912,640.842 L 235.912,607.606 L 236.212,607.606 L 268.499,648.24 C 269.949,650.289 271.548,651.888 273.297,652.988 C 275.096,654.137 277.645,654.737 280.894,654.737 C 284.243,654.636 286.892,653.887 288.891,652.438 C 290.84,650.988 292.24,649.289 293.089,647.389 C 293.988,645.491 294.388,643.891 294.339,642.541 C 294.339,640.442 293.839,638.492 292.889,636.693 C 292.039,634.944 290.69,633.144 288.891,631.246 L 266.05,606.655 C 274.397,605.006 280.894,601.357 285.642,595.66 C 290.392,590.014 292.791,582.917 292.89,574.32 L 292.89,574.32 z M 262.702,566.124 C 265.251,568.272 266.551,571.321 266.651,575.27 C 266.651,578.969 265.502,582.018 263.202,584.466 C 260.853,586.816 257.555,588.065 253.206,588.165 L 235.913,588.165 L 235.913,562.775 L 253.206,562.775 C 257.055,562.825 260.253,563.975 262.702,566.124 L 262.702,566.124 z"
     id="path29"
     style="fill:url(#linearGradient2738)" /><path
     d="M 181.285,542.833 C 175.337,539.934 168.89,538.484 161.993,538.484 L 129.806,538.484 C 126.257,538.484 123.259,539.633 120.709,541.882 C 118.16,544.132 116.811,547.38 116.711,551.628 L 116.711,640.843 C 116.761,645.391 117.961,648.89 120.409,651.239 C 122.758,653.589 125.907,654.738 129.805,654.738 C 133.703,654.738 136.852,653.589 139.201,651.239 C 141.65,648.89 142.9,645.391 142.95,640.843 L 142.95,616.702 L 162.842,616.702 C 171.189,616.652 178.236,614.903 183.984,611.555 C 189.732,608.256 194.08,603.658 197.029,597.81 C 200.028,591.962 201.527,585.265 201.527,577.718 C 201.427,569.022 199.528,561.775 195.779,555.977 C 192.081,550.13 187.232,545.731 181.285,542.833 L 181.285,542.833 z M 169.59,565.874 C 172.689,568.522 174.288,572.471 174.338,577.719 C 174.338,580.468 173.688,582.967 172.338,585.317 C 170.989,587.666 169.04,589.615 166.49,591.064 C 163.941,592.564 160.742,593.313 156.994,593.363 L 142.95,593.363 L 142.95,561.826 L 156.994,561.826 C 162.292,561.825 166.491,563.175 169.59,565.874 L 169.59,565.874 z"
     id="path31"
     style="fill:url(#linearGradient2738)" /></g>
<path
   style="fill:url(#linearGradient2700)"
   id="path2669"
   d="M 107.915,559.727 C 109.615,557.028 110.464,554.029 110.514,550.73 C 110.464,546.482 108.965,542.834 105.966,539.834 C 102.967,536.785 99.319,535.286 95.07,535.286 C 91.721,535.286 88.723,536.136 86.074,537.885 L 40.542,583.417 L 40.592,583.417 L 40.542,583.417 C 39.493,584.416 38.643,585.516 37.993,586.665 C 37.793,587.016 37.593,587.365 37.443,587.765 C 36.493,589.764 35.994,591.963 35.994,594.363 C 35.994,594.613 35.994,594.913 35.994,595.213 C 36.044,596.013 36.144,596.813 36.294,597.562 C 36.594,599.112 37.144,600.561 37.943,601.911 C 38.193,602.361 38.443,602.81 38.743,603.261 L 38.793,603.261 L 84.125,648.943 L 84.125,648.893 L 84.125,648.943 C 85.125,649.943 86.224,650.793 87.374,651.492 C 87.724,651.692 88.074,651.892 88.474,652.042 C 90.473,652.992 92.672,653.491 95.071,653.491 C 99.32,653.491 102.918,651.992 105.967,648.993 C 108.966,645.944 110.466,642.346 110.515,638.097 C 110.465,633.849 108.966,630.201 105.967,627.152 L 105.917,627.102 L 73.23,594.365 L 107.915,559.727 L 107.915,559.727 z" /><g
   id="g2588"
   transform="translate(723.18117,-21.47534)"><path
     d="M -39.14717,261.42934 C -39.14717,195.15634 -62.58817,138.57834 -109.41917,91.747341 C -156.25017,44.916341 -212.82817,21.475341 -279.05117,21.475341 C -345.32517,21.475341 -401.90217,44.916341 -448.73317,91.747341 C -495.56517,138.57834 -518.95517,195.15634 -518.95517,261.42934 C -518.95517,327.65334 -495.56417,384.23034 -448.73317,431.06134 C -401.90217,477.89334 -345.32417,501.33334 -279.05117,501.38334 C -212.82817,501.33334 -156.25117,477.89234 -109.42017,431.06134 C -62.58917,384.23034 -39.14717,327.65334 -39.14717,261.42934 L -39.14717,261.42934 z M -279.05117,81.451341 C -229.42217,81.451341 -186.98817,98.994341 -151.85217,134.13034 C -116.71617,169.26634 -99.12317,211.69934 -99.12317,261.37934 C -99.12317,311.05934 -116.71617,353.49234 -151.85217,388.62834 C -186.98817,423.76434 -229.42117,441.35734 -279.05117,441.35734 C -328.73117,441.35734 -371.16417,423.76434 -406.30017,388.62834 C -441.43617,353.49234 -459.02917,311.05934 -458.97917,261.37934 C -459.02917,211.69934 -441.43617,169.26634 -406.30017,134.13034 C -371.16517,98.994341 -328.73117,81.451341 -279.05117,81.451341 L -279.05117,81.451341 z"
     id="path2574"
     style="fill:#222b2d;fill-opacity:1" /><path
     id="path2506"
     d="M -279.04218,21.475341 C -291.46855,21.475341 -303.54795,22.296232 -315.29218,23.944091 C -315.63547,24.004215 -315.98072,24.038541 -316.32343,24.100341 C -414.28792,41.765813 -488.69843,127.77787 -488.69843,231.13159 C -488.69843,347.25167 -394.77348,441.50659 -279.04218,441.50659 C -163.31087,441.50659 -69.38594,347.25167 -69.38593,231.13159 C -69.38593,127.823 -143.73478,41.849012 -241.63593,24.131591 C -241.74105,24.116303 -241.84325,24.084246 -241.94843,24.069091 C -253.96144,22.338125 -266.31607,21.475341 -279.04218,21.475341 z M -279.04218,81.444091 C -229.41317,81.444089 -186.99068,98.995591 -151.85468,134.13159 C -116.71867,169.26759 -99.13593,211.70159 -99.13593,261.38159 C -99.13592,311.06158 -116.71868,353.49559 -151.85468,388.63159 C -186.99067,423.76758 -229.41218,441.35034 -279.04218,441.35034 C -328.72217,441.35035 -371.15618,423.76759 -406.29218,388.63159 C -441.42817,353.49558 -459.02968,311.06159 -458.97968,261.38159 C -459.02968,211.70158 -441.42818,169.26759 -406.29218,134.13159 C -371.15717,98.995592 -328.72218,81.444091 -279.04218,81.444091 z"
     style="fill:url(#linearGradient2722);fill-opacity:1;stroke:url(#linearGradient2724);stroke-width:0.5;stroke-miterlimit:4;stroke-dasharray:none;stroke-dashoffset:0;stroke-opacity:1" /></g></svg>