<?xml version="1.0" encoding="utf-8"?>
<!-- Generator: Adobe Illustrator 12.0.0, SVG Export Plug-In . SVG Version: 6.00 Build 51448)  -->
<!DOCTYPE svg PUBLIC "-//W3C//DTD SVG 1.1//EN" "http://www.w3.org/Graphics/SVG/1.1/DTD/svg11.dtd" [
	<!ENTITY ns_svg "http://www.w3.org/2000/svg">
	<!ENTITY ns_xlink "http://www.w3.org/1999/xlink">
]>
<svg  version="1.1" id="Layer_1" xmlns="&ns_svg;" xmlns:xlink="&ns_xlink;" width="888.306" height="656.388"
	 viewBox="0 0 888.306 656.388" overflow="visible" enable-background="new 0 0 888.306 656.388" xml:space="preserve">
<g>
	<path fill="#3E4547" d="M684.034,239.954c0-66.273-23.441-122.851-70.272-169.682S510.354,0,444.13,0
		c-66.273,0-122.851,23.441-169.682,70.272c-46.832,46.831-70.222,103.409-70.222,169.682c0,66.224,23.391,122.801,70.222,169.632
		c46.831,46.832,103.409,70.272,169.682,70.322c66.224-0.05,122.801-23.491,169.632-70.322S684.034,306.178,684.034,239.954
		L684.034,239.954z M624.058,239.904c0,49.68-17.593,92.113-52.729,127.249s-77.569,52.729-127.199,52.729
		c-49.68,0-92.113-17.593-127.249-52.729c-35.136-35.136-52.729-77.569-52.679-127.249c-0.05-49.68,17.543-92.113,52.679-127.249
		c35.136-35.136,77.569-52.679,127.249-52.679c49.63,0,92.063,17.543,127.199,52.679
		C606.465,147.791,624.058,190.224,624.058,239.904L624.058,239.904z"/>
	<path fill="#F07F00" d="M573.428,233.856c-0.6-3.049-1.649-5.848-3.198-8.446c-0.45-0.9-1-1.75-1.6-2.599h-0.05l-88.115-88.814
		v0.05c-0.05-0.05-0.05-0.05-0.05-0.05c-1.949-2-4.048-3.648-6.247-4.948c-0.75-0.45-1.449-0.799-2.149-1.1
		c-3.948-1.899-8.196-2.849-12.845-2.849c-8.297,0-15.344,2.949-21.191,8.846c-5.848,5.848-8.797,12.895-8.797,21.142
		c0,8.297,2.949,15.394,8.797,21.242c0.05,0.05,0.05,0.05,0.1,0.1l63.575,63.625l-67.423,67.373h-0.05
		c-3.349,5.198-4.998,11.045-4.998,17.493c0,8.247,2.949,15.344,8.797,21.191s12.895,8.797,21.191,8.797
		c6.447-0.05,12.245-1.699,17.443-5.048h0.05l88.464-88.465l-0.05-0.05c0,0,0,0,0.05-0.05c1.949-1.949,3.599-3.998,4.948-6.248
		c0.4-0.7,0.75-1.399,1.1-2.149c1.85-3.898,2.799-8.197,2.849-12.845c-0.05-0.55-0.05-1.1-0.05-1.649
		C573.878,236.855,573.678,235.306,573.428,233.856L573.428,233.856z"/>
	<path fill="#3E4547" d="M389.152,124.95c-8.297,0-15.344,2.949-21.191,8.796c-4.598,4.548-7.547,9.896-8.797,15.994v-0.05v175.08
		c0,0.05,0,0.05,0,0.1c0,2.749,0.3,5.397,0.95,7.896c0.2,0.75,0.45,1.55,0.75,2.3c1.449,4.048,3.798,7.746,7.097,11.095
		c5.848,5.848,12.895,8.747,21.191,8.747c8.247,0,15.344-2.899,21.191-8.747c5.848-5.897,8.796-12.994,8.796-21.291
		c0-0.05,0-0.05,0-0.1V149.69c-1.299-6.048-4.248-11.396-8.796-15.944C404.496,127.899,397.398,124.95,389.152,124.95
		L389.152,124.95z"/>
	<path fill="#F07F00" d="M107.915,559.727c1.699-2.699,2.549-5.698,2.599-8.997c-0.05-4.248-1.55-7.896-4.549-10.896
		c-2.998-3.049-6.646-4.548-10.896-4.548c-3.349,0-6.347,0.85-8.996,2.599l-45.532,45.532h0.051h-0.051
		c-1.049,0.999-1.898,2.099-2.549,3.248c-0.199,0.351-0.399,0.7-0.55,1.1c-0.949,1.999-1.449,4.198-1.449,6.598
		c0,0.25,0,0.55,0,0.85c0.05,0.8,0.15,1.6,0.3,2.349c0.3,1.55,0.85,2.999,1.649,4.349c0.25,0.45,0.5,0.899,0.8,1.35h0.05
		l45.332,45.682v-0.05v0.05c1,1,2.1,1.85,3.249,2.549c0.35,0.2,0.699,0.4,1.1,0.55c1.999,0.95,4.198,1.449,6.597,1.449
		c4.249,0,7.848-1.499,10.896-4.498c2.999-3.049,4.499-6.647,4.549-10.896c-0.05-4.248-1.55-7.896-4.549-10.945l-0.05-0.05
		l-32.687-32.737L107.915,559.727L107.915,559.727z"/>
	<path fill="#3E4547" d="M15.401,535.236c-4.248,0-7.896,1.499-10.896,4.548c-2.349,2.349-3.849,5.048-4.498,8.196v90.114
		c-0.05,1.399,0.149,2.749,0.5,4.049c0.1,0.399,0.199,0.8,0.35,1.199c0.75,2.099,1.949,3.998,3.648,5.697
		c2.999,2.999,6.647,4.499,10.896,4.499s7.897-1.5,10.945-4.499c2.999-3.049,4.499-6.697,4.499-10.945V547.98
		c-0.65-3.148-2.149-5.848-4.499-8.196C23.299,536.735,19.649,535.236,15.401,535.236L15.401,535.236z"/>
	<path fill="#3E4547" d="M882.055,555.428c-3.148-5.348-7.597-9.446-13.345-12.395c-5.748-2.949-12.595-4.499-20.442-4.549H816.73
		c-3.549,0-6.547,1.149-9.096,3.398c-2.55,2.25-3.898,5.498-3.999,9.746v89.215c0.05,4.548,1.25,8.047,3.698,10.396
		c2.35,2.35,5.498,3.499,9.396,3.499s7.047-1.149,9.396-3.499c2.449-2.349,3.698-5.848,3.748-10.396v-33.236h0.301l32.287,40.634
		c1.449,2.049,3.049,3.648,4.798,4.748c1.799,1.149,4.348,1.749,7.597,1.749c3.349-0.101,5.998-0.85,7.997-2.299
		c1.949-1.45,3.349-3.149,4.198-5.049c0.899-1.898,1.299-3.498,1.249-4.848c0-2.099-0.499-4.049-1.449-5.848
		c-0.85-1.749-2.199-3.549-3.998-5.447l-22.841-24.591c8.347-1.649,14.844-5.298,19.592-10.995
		c4.748-5.648,7.147-12.745,7.247-21.342C886.803,567.073,885.203,560.775,882.055,555.428L882.055,555.428z M856.665,566.124
		c2.549,2.148,3.849,5.197,3.948,9.146c0,3.699-1.149,6.748-3.449,9.196c-2.349,2.35-5.647,3.599-9.996,3.699h-17.293v-25.39h17.293
		C851.017,562.825,854.216,563.975,856.665,566.124L856.665,566.124z"/>
	<path fill="#3E4547" d="M791.591,541.833c-2.249-2.148-5.498-3.299-9.646-3.349h-40.184c-3.549,0-6.548,1.149-9.097,3.398
		c-2.549,2.25-3.898,5.498-3.998,9.746v89.015c0.1,4.249,1.449,7.497,3.998,9.746s5.548,3.398,9.097,3.398h41.134
		c4.148-0.05,7.396-1.149,9.646-3.298c2.3-2.149,3.449-5.148,3.449-8.896c0-3.799-1.149-6.748-3.449-8.847
		c-2.249-2.1-5.497-3.199-9.646-3.249h-27.989v-21.591h24.74c4.148-0.051,7.397-1.1,9.646-3.199
		c2.349-2.149,3.498-5.147,3.498-8.946c0-3.748-1.149-6.697-3.498-8.847c-2.249-2.148-5.498-3.198-9.646-3.248h-24.74v-20.892
		h27.039c4.148-0.051,7.397-1.1,9.646-3.249c2.249-2.1,3.398-5.098,3.448-8.946C794.989,546.932,793.84,543.982,791.591,541.833
		L791.591,541.833z"/>
	<path fill="#3E4547" d="M722.719,541.733c-2.35-2.1-5.698-3.199-10.146-3.249h-55.628c-4.448,0.05-7.797,1.149-10.146,3.249
		c-2.35,2.149-3.499,5.098-3.499,8.847c0,3.748,1.149,6.747,3.499,8.896c2.349,2.148,5.697,3.248,10.146,3.299h14.694v78.068
		c0.05,4.548,1.25,8.047,3.698,10.396c2.35,2.35,5.498,3.499,9.396,3.499c3.948,0,7.098-1.149,9.446-3.499
		c2.449-2.349,3.648-5.848,3.698-10.396v-78.068h14.694c4.448-0.051,7.797-1.15,10.146-3.299c2.299-2.149,3.448-5.148,3.448-8.896
		C726.167,546.831,725.018,543.883,722.719,541.733L722.719,541.733z"/>
	<path fill="#3E4547" d="M618.36,541.033c-2.449,2.35-3.699,5.848-3.749,10.446v54.729h-0.3l-43.582-54.578
		c-2.85-3.649-5.148-6.498-6.998-8.547c-1.849-2.05-3.598-3.499-5.247-4.349s-3.599-1.249-5.848-1.199
		c-3.898,0-7.048,1.149-9.396,3.498c-2.449,2.35-3.648,5.848-3.698,10.446v89.364c0.05,4.548,1.249,8.047,3.698,10.396
		c2.349,2.35,5.498,3.499,9.396,3.499s7.047-1.149,9.396-3.499c2.449-2.349,3.699-5.848,3.749-10.396v-54.729h0.3l43.582,54.528
		c2.8,3.648,5.099,6.498,6.947,8.547c1.85,2.049,3.599,3.499,5.298,4.349c1.649,0.85,3.599,1.249,5.848,1.199
		c3.898,0,7.048-1.149,9.396-3.499c2.449-2.349,3.699-5.848,3.749-10.396v-89.364c-0.05-4.599-1.3-8.097-3.749-10.446
		c-2.349-2.349-5.498-3.498-9.396-3.498S620.709,538.685,618.36,541.033L618.36,541.033z"/>
	<path fill="#3E4547" d="M530.945,550.58c-0.051-3.648-1.2-6.598-3.449-8.747c-2.249-2.148-5.497-3.298-9.646-3.349h-40.185
		c-3.548,0-6.547,1.149-9.096,3.399c-2.549,2.249-3.898,5.497-3.999,9.746v89.014c0.101,4.249,1.45,7.497,3.999,9.746
		s5.548,3.398,9.096,3.398H518.8c4.148-0.05,7.397-1.149,9.646-3.298c2.299-2.149,3.448-5.148,3.448-8.896
		c0-3.799-1.149-6.748-3.448-8.847c-2.249-2.1-5.498-3.199-9.646-3.249h-27.988v-21.591h24.739c4.148-0.05,7.397-1.1,9.646-3.199
		c2.35-2.149,3.499-5.147,3.499-8.946c0-3.748-1.149-6.697-3.499-8.847c-2.249-2.148-5.498-3.198-9.646-3.248h-24.739v-20.892
		h27.039c4.148-0.051,7.396-1.1,9.646-3.249C529.745,557.427,530.895,554.429,530.945,550.58L530.945,550.58z"/>
	<path fill="#3E4547" d="M439.731,540.784c-5.598-3.149-13.694-4.799-24.29-4.898c-7.347,0-14.194,1.3-20.442,3.948
		c-6.248,2.699-11.295,6.798-15.144,12.295c-3.749,5.398-5.698,12.295-5.848,20.692c0.15,6.847,1.549,12.295,4.198,16.343
		c2.649,4.049,6.048,7.147,10.296,9.347c4.148,2.249,8.547,4.048,13.195,5.397c4.998,1.55,9.396,2.949,13.145,4.198
		c3.749,1.25,6.647,2.749,8.697,4.398c2.049,1.699,3.099,3.948,3.148,6.798c0.05,2.898-1,5.397-3.148,7.547
		c-2.149,2.099-5.798,3.198-10.846,3.299c-4.448-0.051-8.396-0.65-11.845-1.75c-3.499-1.049-6.597-2.099-9.247-3.148
		c-2.699-1.05-5.098-1.649-7.197-1.749c-2.649,0.05-4.898,0.749-6.748,2.049c-1.849,1.35-3.199,3.049-4.098,5.148
		c-0.95,2.049-1.45,4.298-1.5,6.747c0.1,3.248,1.399,6.098,3.948,8.446c2.449,2.35,5.698,4.349,9.646,5.897
		c3.948,1.55,8.146,2.649,12.545,3.399c4.448,0.799,8.646,1.199,12.595,1.199c8.247,0,15.644-1.35,22.291-4.099
		c6.598-2.749,11.846-6.947,15.744-12.645c3.898-5.698,5.897-12.995,5.997-21.842c-0.1-7.247-1.449-13.045-4.098-17.442
		c-2.649-4.398-6.048-7.848-10.296-10.396c-4.198-2.549-8.747-4.548-13.594-5.997c-5.998-1.949-10.796-3.499-14.444-4.648
		c-3.648-1.25-6.297-2.499-7.847-3.748c-1.649-1.2-2.399-2.899-2.349-5.049c0.05-2.898,1.149-5.197,3.298-6.896
		c2.149-1.649,5.048-2.449,8.697-2.499c3.648,0.05,6.597,0.399,8.946,1.1c2.249,0.749,4.398,1.449,6.397,2.148
		c1.949,0.65,4.298,1.05,7.047,1.1c3.548-0.05,6.297-1.249,8.347-3.498c2.148-2.199,3.198-5.099,3.248-8.747
		C448.128,548.081,445.329,543.933,439.731,540.784L439.731,540.784z"/>
	<path fill="#3E4547" d="M369.01,550.58c-0.05-3.648-1.199-6.598-3.449-8.747c-2.249-2.148-5.498-3.298-9.646-3.349h-40.184
		c-3.548,0-6.547,1.149-9.096,3.399c-2.549,2.249-3.898,5.497-3.999,9.746v89.014c0.1,4.249,1.45,7.497,3.999,9.746
		s5.548,3.398,9.096,3.398h41.134c4.148-0.05,7.397-1.149,9.646-3.298c2.299-2.149,3.449-5.148,3.449-8.896
		c0-3.799-1.149-6.748-3.449-8.847c-2.249-2.1-5.498-3.199-9.646-3.249h-27.989v-21.591h24.74c4.148-0.05,7.397-1.1,9.646-3.199
		c2.349-2.149,3.499-5.147,3.499-8.946c0-3.748-1.149-6.697-3.499-8.847c-2.249-2.148-5.498-3.198-9.646-3.248h-24.74v-20.892
		h27.039c4.148-0.051,7.397-1.1,9.646-3.249C367.811,557.427,368.96,554.429,369.01,550.58L369.01,550.58z"/>
	<path fill="#3E4547" d="M292.89,574.32c-0.05-7.247-1.649-13.545-4.798-18.893s-7.597-9.446-13.345-12.395
		c-5.748-2.949-12.595-4.499-20.442-4.549h-31.537c-3.549,0-6.547,1.149-9.097,3.398c-2.549,2.25-3.898,5.498-3.998,9.746v89.215
		c0.05,4.548,1.25,8.047,3.698,10.396c2.349,2.35,5.498,3.499,9.396,3.499s7.047-1.149,9.396-3.499
		c2.449-2.349,3.699-5.848,3.749-10.396v-33.236h0.3l32.287,40.634c1.45,2.049,3.049,3.648,4.798,4.748
		c1.799,1.149,4.348,1.749,7.597,1.749c3.349-0.101,5.998-0.85,7.997-2.299c1.949-1.45,3.349-3.149,4.198-5.049
		c0.899-1.898,1.299-3.498,1.25-4.848c0-2.099-0.5-4.049-1.45-5.848c-0.85-1.749-2.199-3.549-3.998-5.447l-22.841-24.591
		c8.347-1.649,14.844-5.298,19.592-10.995C290.392,590.014,292.791,582.917,292.89,574.32L292.89,574.32z M262.702,566.124
		c2.549,2.148,3.849,5.197,3.949,9.146c0,3.699-1.149,6.748-3.449,9.196c-2.349,2.35-5.647,3.599-9.996,3.699h-17.293v-25.39h17.293
		C257.055,562.825,260.253,563.975,262.702,566.124L262.702,566.124z"/>
	<path fill="#3E4547" d="M181.285,542.833c-5.948-2.899-12.395-4.349-19.292-4.349h-32.187c-3.549,0-6.547,1.149-9.097,3.398
		c-2.549,2.25-3.898,5.498-3.998,9.746v89.215c0.05,4.548,1.25,8.047,3.698,10.396c2.349,2.35,5.498,3.499,9.396,3.499
		s7.047-1.149,9.396-3.499c2.449-2.349,3.699-5.848,3.749-10.396v-24.141h19.892c8.347-0.05,15.394-1.799,21.142-5.147
		c5.748-3.299,10.096-7.897,13.045-13.745c2.999-5.848,4.498-12.545,4.498-20.092c-0.1-8.696-1.999-15.943-5.748-21.741
		C192.081,550.13,187.232,545.731,181.285,542.833L181.285,542.833z M169.59,565.874c3.099,2.648,4.698,6.597,4.748,11.845
		c0,2.749-0.65,5.248-2,7.598c-1.349,2.349-3.298,4.298-5.848,5.747c-2.549,1.5-5.748,2.249-9.496,2.299H142.95v-31.537h14.044
		C162.292,561.825,166.491,563.175,169.59,565.874L169.59,565.874z"/>
</g>
</svg>
