<?xml version="1.0" encoding="UTF-8" standalone="no"?>
<!-- Generator: Adobe Illustrator 12.0.0, SVG Export Plug-In . SVG Version: 6.00 Build 51448)  -->
<svg
   xmlns:dc="http://purl.org/dc/elements/1.1/"
   xmlns:cc="http://creativecommons.org/ns#"
   xmlns:rdf="http://www.w3.org/1999/02/22-rdf-syntax-ns#"
   xmlns:svg="http://www.w3.org/2000/svg"
   xmlns="http://www.w3.org/2000/svg"
   xmlns:xlink="http://www.w3.org/1999/xlink"
   xmlns:sodipodi="http://sodipodi.sourceforge.net/DTD/sodipodi-0.dtd"
   xmlns:inkscape="http://www.inkscape.org/namespaces/inkscape"
   version="1.1"
   id="Layer_1"
   width="479.809"
   height="654.738"
   viewBox="0 0 479.809 654.738"
   overflow="visible"
   enable-background="new 0 0 479.809 654.738"
   xml:space="preserve"
   sodipodi:version="0.32"
   inkscape:version="0.46"
   sodipodi:docname="krita.svg"
   inkscape:output_extension="org.inkscape.output.svg.inkscape"><metadata
   id="metadata26"><rdf:RDF><cc:Work
       rdf:about=""><dc:format>image/svg+xml</dc:format><dc:type
         rdf:resource="http://purl.org/dc/dcmitype/StillImage" /></cc:Work></rdf:RDF></metadata><defs
   id="defs24"><linearGradient
   inkscape:collect="always"
   id="linearGradient3797"><stop
     style="stop-color:#474f51;stop-opacity:1"
     offset="0"
     id="stop3799" /><stop
     style="stop-color:#6d7375;stop-opacity:1"
     offset="1"
     id="stop3801" /></linearGradient><linearGradient
   inkscape:collect="always"
   id="linearGradient3789"><stop
     style="stop-color:#ff12d2;stop-opacity:1"
     offset="0"
     id="stop3791" /><stop
     style="stop-color:#ff4edd;stop-opacity:1"
     offset="1"
     id="stop3793" /></linearGradient><inkscape:perspective
   sodipodi:type="inkscape:persp3d"
   inkscape:vp_x="0 : 327.36899 : 1"
   inkscape:vp_y="0 : 1000 : 0"
   inkscape:vp_z="479.80899 : 327.36899 : 1"
   inkscape:persp3d-origin="239.9045 : 218.24599 : 1"
   id="perspective28" /><inkscape:perspective
   sodipodi:type="inkscape:persp3d"
   inkscape:vp_x="0 : 526.18109 : 1"
   inkscape:vp_y="0 : 1000 : 0"
   inkscape:vp_z="744.09448 : 526.18109 : 1"
   inkscape:persp3d-origin="372.04724 : 350.78739 : 1"
   id="perspective3805" /><linearGradient
   gradientUnits="userSpaceOnUse"
   y2="656.414"
   x2="531.8385"
   y1="535.20917"
   x1="531.8385"
   id="linearGradient3742"
   xlink:href="#linearGradient3547"
   inkscape:collect="always" /><linearGradient
   gradientTransform="translate(-378.36905,0)"
   y2="535.28601"
   x2="86.482048"
   y1="653.7666"
   x1="86.482048"
   gradientUnits="userSpaceOnUse"
   id="linearGradient2950"
   xlink:href="#linearGradient3613"
   inkscape:collect="always" /><linearGradient
   y2="657.29523"
   x2="277.88239"
   y1="535.23602"
   x1="277.88239"
   gradientUnits="userSpaceOnUse"
   id="linearGradient2911"
   xlink:href="#linearGradient3547"
   inkscape:collect="always" />
	
	
	
	
	
	
	
	
	
<linearGradient
   y2="657.29523"
   x2="277.88239"
   y1="535.23602"
   x1="277.88239"
   gradientUnits="userSpaceOnUse"
   id="linearGradient2878"
   xlink:href="#linearGradient3547"
   inkscape:collect="always" /><linearGradient
   id="linearGradient3547"><stop
     style="stop-color:#777d7e;stop-opacity:1"
     offset="0"
     id="stop3549" /><stop
     id="stop3551"
     offset="0.49315068"
     style="stop-color:#323a3c;stop-opacity:1" /><stop
     style="stop-color:#222b2d;stop-opacity:1"
     offset="0.50999999"
     id="stop3553" /><stop
     style="stop-color:#222b2d;stop-opacity:1"
     offset="1"
     id="stop3555" /></linearGradient><inkscape:perspective
   sodipodi:type="inkscape:persp3d"
   inkscape:vp_x="0 : 328.194 : 1"
   inkscape:vp_y="0 : 1000 : 0"
   inkscape:vp_z="585.47302 : 328.194 : 1"
   inkscape:persp3d-origin="292.73651 : 218.796 : 1"
   id="perspective32" /><inkscape:perspective
   sodipodi:type="inkscape:persp3d"
   inkscape:vp_x="0 : 526.18109 : 1"
   inkscape:vp_y="0 : 1000 : 0"
   inkscape:vp_z="744.09448 : 526.18109 : 1"
   inkscape:persp3d-origin="372.04724 : 350.78739 : 1"
   id="perspective3781" /><linearGradient
   gradientUnits="userSpaceOnUse"
   y2="656.67908"
   x2="608.49701"
   y1="533.84344"
   x1="608.49701"
   id="linearGradient3571"
   xlink:href="#linearGradient3565"
   inkscape:collect="always" /><linearGradient
   gradientTransform="matrix(1.0651466,0,0,1.0651466,578.5521,109.09212)"
   gradientUnits="userSpaceOnUse"
   y2="-139.44724"
   x2="-268.33029"
   y1="293.09766"
   x1="-268.33029"
   id="linearGradient3488"
   xlink:href="#linearGradient3482"
   inkscape:collect="always" /><linearGradient
   y2="-160"
   x2="292.741"
   y1="319.90799"
   x1="292.741"
   gradientTransform="translate(0,100)"
   gradientUnits="userSpaceOnUse"
   id="linearGradient3467"
   xlink:href="#linearGradient3207"
   inkscape:collect="always" /><linearGradient
   gradientTransform="translate(0,100)"
   y2="-160"
   x2="292.741"
   y1="319.90799"
   x1="292.741"
   gradientUnits="userSpaceOnUse"
   id="linearGradient3459"
   xlink:href="#linearGradient3207"
   inkscape:collect="always" /><inkscape:perspective
   sodipodi:type="inkscape:persp3d"
   inkscape:vp_x="0 : 526.18109 : 1"
   inkscape:vp_y="0 : 1000 : 0"
   inkscape:vp_z="744.09448 : 526.18109 : 1"
   inkscape:persp3d-origin="372.04724 : 350.78739 : 1"
   id="perspective3448" /><linearGradient
   gradientUnits="userSpaceOnUse"
   y2="-160"
   x2="292.741"
   y1="319.90799"
   x1="292.741"
   id="linearGradient3213"
   xlink:href="#linearGradient3207"
   inkscape:collect="always" />
	
	
	
	
	
	
	
	
	
	
	
<inkscape:perspective
   id="perspective2616"
   inkscape:persp3d-origin="292.73651 : 218.796 : 1"
   inkscape:vp_z="585.47302 : 328.194 : 1"
   inkscape:vp_y="0 : 1000 : 0"
   inkscape:vp_x="0 : 328.194 : 1"
   sodipodi:type="inkscape:persp3d" /><linearGradient
   id="linearGradient3191"><stop
     id="stop3193"
     offset="0"
     style="stop-color:#3e4547;stop-opacity:1;" /><stop
     id="stop3195"
     offset="1"
     style="stop-color:#3e4547;stop-opacity:0;" /></linearGradient><linearGradient
   id="linearGradient3207"
   inkscape:collect="always"><stop
     id="stop3209"
     offset="0"
     style="stop-color:#283133;stop-opacity:1" /><stop
     id="stop3211"
     offset="1"
     style="stop-color:#8f9495;stop-opacity:1" /></linearGradient><linearGradient
   id="linearGradient3482"
   inkscape:collect="always"><stop
     id="stop3484"
     offset="0"
     style="stop-color:#222b2d;stop-opacity:1" /><stop
     id="stop3486"
     offset="1"
     style="stop-color:#8f9495;stop-opacity:1" /></linearGradient><linearGradient
   id="linearGradient3493"
   inkscape:collect="always"><stop
     id="stop3495"
     offset="0"
     style="stop-color:#707677;stop-opacity:1" /><stop
     id="stop3497"
     offset="1"
     style="stop-color:#2e3739;stop-opacity:1" /></linearGradient><linearGradient
   id="linearGradient3505"
   inkscape:collect="always"><stop
     id="stop3507"
     offset="0"
     style="stop-color:#0e61c1;stop-opacity:1" /><stop
     id="stop3509"
     offset="1"
     style="stop-color:#80b0e1;stop-opacity:1" /></linearGradient><linearGradient
   id="linearGradient3565"><stop
     id="stop3567"
     offset="0"
     style="stop-color:#777d7e;stop-opacity:1" /><stop
     style="stop-color:#323a3c;stop-opacity:1"
     offset="0.49315068"
     id="stop3583" /><stop
     id="stop3585"
     offset="0.50999999"
     style="stop-color:#222b2d;stop-opacity:1" /><stop
     id="stop3569"
     offset="1"
     style="stop-color:#222b2d;stop-opacity:0;" /></linearGradient><linearGradient
   id="linearGradient3613"><stop
     style="stop-color:#0058bd;stop-opacity:1"
     offset="0"
     id="stop3615" /><stop
     id="stop3617"
     offset="0.49315068"
     style="stop-color:#0058bd;stop-opacity:1" /><stop
     style="stop-color:#1868c3;stop-opacity:1"
     offset="0.50999999"
     id="stop3619" /><stop
     style="stop-color:#6a9ad7;stop-opacity:1"
     offset="1"
     id="stop3621" /></linearGradient>
	
	
	
	
	
	
	
	
	
	
	
<linearGradient
   inkscape:collect="always"
   xlink:href="#linearGradient3482"
   id="linearGradient2696"
   gradientUnits="userSpaceOnUse"
   gradientTransform="matrix(1.0651466,0,0,1.0651466,-33.92727,87.963755)"
   x1="-268.33652"
   y1="292.97763"
   x2="-268.33652"
   y2="-102.41982" /><linearGradient
   inkscape:collect="always"
   xlink:href="#linearGradient3613"
   id="linearGradient2712"
   gradientUnits="userSpaceOnUse"
   x1="73.253998"
   y1="653.48999"
   x2="73.253998"
   y2="535.28601"
   gradientTransform="translate(-612.47936,-21.128365)" /><linearGradient
   inkscape:collect="always"
   xlink:href="#linearGradient3493"
   id="linearGradient2715"
   gradientUnits="userSpaceOnUse"
   x1="217.771"
   y1="124.95"
   x2="217.771"
   y2="354.90799"
   gradientTransform="translate(-612.47936,-21.128365)" /><linearGradient
   inkscape:collect="always"
   xlink:href="#linearGradient3505"
   id="linearGradient2718"
   gradientUnits="userSpaceOnUse"
   x1="324.15704"
   y1="356.80353"
   x2="324.15704"
   y2="125.45686"
   gradientTransform="translate(-612.47936,-21.128365)" /><linearGradient
   inkscape:collect="always"
   xlink:href="#linearGradient3547"
   id="linearGradient3522"
   x1="277.88239"
   y1="535.23602"
   x2="277.88239"
   y2="657.29523"
   gradientUnits="userSpaceOnUse" /><linearGradient
   inkscape:collect="always"
   xlink:href="#linearGradient3565"
   id="linearGradient3524"
   gradientUnits="userSpaceOnUse"
   x1="608.49701"
   y1="533.84344"
   x2="608.49701"
   y2="656.67908" /><linearGradient
   inkscape:collect="always"
   xlink:href="#linearGradient3565"
   id="linearGradient3527"
   gradientUnits="userSpaceOnUse"
   x1="608.49701"
   y1="533.84344"
   x2="608.49701"
   y2="656.67908"
   gradientTransform="translate(-612.47936,-21.128365)" /><linearGradient
   inkscape:collect="always"
   xlink:href="#linearGradient3565"
   id="linearGradient3530"
   gradientUnits="userSpaceOnUse"
   x1="608.49701"
   y1="533.84344"
   x2="608.49701"
   y2="656.67908"
   gradientTransform="translate(-612.47936,-21.128365)" /><linearGradient
   inkscape:collect="always"
   xlink:href="#linearGradient3565"
   id="linearGradient3533"
   gradientUnits="userSpaceOnUse"
   x1="608.49701"
   y1="533.84344"
   x2="608.49701"
   y2="656.67908"
   gradientTransform="translate(-612.47936,-21.128365)" /><linearGradient
   inkscape:collect="always"
   xlink:href="#linearGradient3565"
   id="linearGradient3536"
   gradientUnits="userSpaceOnUse"
   x1="396.37399"
   y1="537.53497"
   x2="396.37399"
   y2="654.73798"
   gradientTransform="translate(-612.47936,-21.128365)" /><linearGradient
   inkscape:collect="always"
   xlink:href="#linearGradient3565"
   id="linearGradient3539"
   gradientUnits="userSpaceOnUse"
   x1="608.49701"
   y1="533.84344"
   x2="608.49701"
   y2="656.67908"
   gradientTransform="translate(-612.47936,-21.128365)" /><linearGradient
   inkscape:collect="always"
   xlink:href="#linearGradient3565"
   id="linearGradient3542"
   gradientUnits="userSpaceOnUse"
   x1="608.49701"
   y1="533.84344"
   x2="608.49701"
   y2="656.67908"
   gradientTransform="translate(-612.47936,-21.128365)" /><linearGradient
   inkscape:collect="always"
   xlink:href="#linearGradient3565"
   id="linearGradient3545"
   gradientUnits="userSpaceOnUse"
   x1="608.49701"
   y1="533.84344"
   x2="608.49701"
   y2="656.67908"
   gradientTransform="translate(-612.47936,-21.128365)" /><inkscape:perspective
   id="perspective2754"
   inkscape:persp3d-origin="239.9045 : 218.796 : 1"
   inkscape:vp_z="479.80899 : 328.194 : 1"
   inkscape:vp_y="0 : 1000 : 0"
   inkscape:vp_x="0 : 328.194 : 1"
   sodipodi:type="inkscape:persp3d" /><linearGradient
   id="linearGradient3835"><stop
     id="stop3837"
     offset="0"
     style="stop-color:#ff6ae2;stop-opacity:1" /><stop
     style="stop-color:#ff16d4;stop-opacity:1"
     offset="0.49315068"
     id="stop3839" /><stop
     id="stop3841"
     offset="0.50999999"
     style="stop-color:#ff02d0;stop-opacity:1" /><stop
     id="stop3843"
     offset="1"
     style="stop-color:#ff00d0;stop-opacity:1" /></linearGradient><linearGradient
   inkscape:collect="always"
   xlink:href="#linearGradient3547"
   id="linearGradient2891"
   gradientUnits="userSpaceOnUse"
   x1="531.8385"
   y1="535.20917"
   x2="531.8385"
   y2="656.414" />
	
	
	
	
	
	
	
	
	
<linearGradient
   inkscape:collect="always"
   xlink:href="#linearGradient3482"
   id="linearGradient2906"
   gradientUnits="userSpaceOnUse"
   gradientTransform="matrix(1.006734,0,0,1.006734,-265.6274,-5.0530741)"
   x1="502.15091"
   y1="419.75024"
   x2="502.15091"
   y2="1.4085541" /><linearGradient
   inkscape:collect="always"
   xlink:href="#linearGradient3835"
   id="linearGradient2917"
   gradientUnits="userSpaceOnUse"
   gradientTransform="translate(-305.30816,-3.6350313)"
   x1="384.48117"
   y1="535.2818"
   x2="384.48117"
   y2="653.49103" /><linearGradient
   inkscape:collect="always"
   xlink:href="#linearGradient3547"
   id="linearGradient2935"
   gradientUnits="userSpaceOnUse"
   x1="531.8385"
   y1="535.20917"
   x2="531.8385"
   y2="656.414" /><linearGradient
   inkscape:collect="always"
   xlink:href="#linearGradient3547"
   id="linearGradient3720"
   x1="321.40845"
   y1="531.60095"
   x2="321.40845"
   y2="651.17731"
   gradientUnits="userSpaceOnUse" /><inkscape:perspective
   id="perspective3783"
   inkscape:persp3d-origin="372.04724 : 350.78739 : 1"
   inkscape:vp_z="744.09448 : 526.18109 : 1"
   inkscape:vp_y="0 : 1000 : 0"
   inkscape:vp_x="0 : 526.18109 : 1"
   sodipodi:type="inkscape:persp3d" /><linearGradient
   inkscape:collect="always"
   xlink:href="#linearGradient3789"
   id="linearGradient3795"
   x1="203.02965"
   y1="339.47061"
   x2="203.02965"
   y2="159.34998"
   gradientUnits="userSpaceOnUse" /><linearGradient
   inkscape:collect="always"
   xlink:href="#linearGradient3797"
   id="linearGradient3803"
   x1="268.25903"
   y1="259.60898"
   x2="268.25903"
   y2="128.48698"
   gradientUnits="userSpaceOnUse" /></defs><sodipodi:namedview
   inkscape:window-height="827"
   inkscape:window-width="1440"
   inkscape:pageshadow="2"
   inkscape:pageopacity="0.0"
   guidetolerance="10.0"
   gridtolerance="10.0"
   objecttolerance="10.0"
   borderopacity="1.0"
   bordercolor="#666666"
   pagecolor="#ffffff"
   id="base"
   showgrid="false"
   inkscape:zoom="0.7117351"
   inkscape:cx="-15.106111"
   inkscape:cy="327.36899"
   inkscape:window-x="0"
   inkscape:window-y="0"
   inkscape:current-layer="Layer_1" />
<path
   style="fill:url(#linearGradient3803);fill-opacity:1"
   id="path7"
   d="M 339.064,176.39297 C 342.413,171.14497 344.112,165.34697 344.112,158.89997 C 344.112,150.60297 341.214,143.50597 335.366,137.65797 C 329.518,131.80997 322.421,128.86197 314.175,128.91097 C 307.677,128.91097 301.829,130.61097 296.632,134.00897 L 222.311,208.27997 L 222.361,208.27997 C 222.311,208.32997 222.311,208.32997 222.311,208.37997 C 220.362,210.32897 218.713,212.37897 217.363,214.62797 C 216.963,215.27797 216.613,215.97797 216.263,216.72697 C 214.414,220.62497 213.464,224.92397 213.464,229.62197 C 213.414,237.86897 216.363,244.96597 222.211,250.81297 C 228.059,256.65997 235.156,259.55997 243.453,259.60897 C 251.699,259.55897 258.797,256.60997 264.694,250.76297 C 264.694,250.71297 264.694,250.71297 264.744,250.71297 L 279.488,235.96897 C 279.938,235.51897 280.438,235.01897 280.887,234.56897 C 285.135,230.32097 289.384,226.07197 293.632,221.82397 C 296.431,218.97497 299.23,216.17597 302.078,213.37697 L 339.064,176.39297 L 339.064,176.39297 z" /><path
   style="fill:url(#linearGradient3795);fill-opacity:1"
   id="path9"
   d="M 185.226,168.14597 C 179.329,162.29797 172.231,159.34997 163.984,159.34997 C 155.688,159.34997 148.64,162.29897 142.793,168.14597 C 138.245,172.69397 135.296,177.99197 134.046,184.03997 L 133.996,184.08997 L 133.996,309.18997 L 134.046,309.18997 C 134.046,309.18997 134.046,309.18997 134.046,309.23997 C 133.996,311.98897 134.296,314.63797 134.946,317.13697 C 135.196,317.88697 135.446,318.68597 135.746,319.43597 C 137.145,323.48397 139.494,327.18297 142.793,330.53097 C 143.193,330.93097 143.593,331.33097 143.993,331.68097 C 145.142,332.72997 146.342,333.62997 147.592,334.47997 C 150.141,336.17897 152.89,337.42797 155.839,338.22797 C 156.789,338.52797 157.788,338.77797 158.788,338.92797 L 158.838,338.87697 L 283.938,339.37697 L 283.888,339.37697 C 283.938,339.32697 283.938,339.32697 283.988,339.37697 C 286.737,339.37697 289.386,339.07697 291.935,338.42797 C 292.684,338.17797 293.484,337.92797 294.234,337.67797 C 298.283,336.22897 301.981,333.87897 305.33,330.63097 C 311.128,324.78297 314.026,317.68597 314.026,309.38897 C 314.026,301.14197 311.128,294.04497 305.28,288.19797 C 299.432,282.35097 292.335,279.40197 284.038,279.40197 C 283.988,279.40197 283.938,279.40197 283.938,279.40197 L 193.974,279.40197 L 194.024,184.03997 C 192.673,177.99197 189.774,172.69497 185.226,168.14597 L 185.226,168.14597 z" /><g
   id="g2937"
   style="fill-opacity:1;fill:url(#linearGradient3720)"><path
     d="M 44.583,531.60097 C 40.334,531.60097 36.686,533.09997 33.687,536.14897 C 31.338,538.49797 29.839,541.19697 29.189,544.34497 L 29.189,634.45897 C 29.139,635.85797 29.339,637.20797 29.689,638.50797 C 29.789,638.90697 29.889,639.30797 30.039,639.70697 C 30.789,641.80597 31.988,643.70497 33.687,645.40397 C 36.686,648.40297 40.334,649.90297 44.583,649.90297 C 48.831,649.90297 52.479,648.40297 55.528,645.40397 C 58.527,642.35497 60.027,638.70697 60.027,634.45897 L 60.027,544.34497 C 59.377,541.19697 57.878,538.49697 55.528,536.14897 C 52.479,533.09997 48.831,531.60097 44.583,531.60097 L 44.583,531.60097 z"
     id="path13"
     style="fill:url(#linearGradient3720);fill-opacity:1.0" /><path
     d="M 410.036,535.59897 C 407.337,533.44997 403.788,532.29997 399.341,532.24997 C 395.042,532.29997 391.544,533.44897 388.895,535.59897 C 386.246,537.74897 384.047,540.64697 382.347,544.19597 C 380.598,547.79497 378.999,551.74297 377.549,556.04097 L 352.209,624.21397 C 351.109,627.21297 350.26,629.71197 349.71,631.66097 C 349.16,633.55997 348.811,635.20997 348.61,636.55897 C 348.461,637.85797 348.36,639.15797 348.36,640.40697 C 348.411,643.65597 349.56,646.25497 351.909,648.15397 C 354.158,650.05297 357.207,651.05297 361.006,651.10297 C 365.154,651.00197 368.203,649.80297 370.152,647.45497 C 372.101,645.10497 373.65,642.05697 374.75,638.30897 L 377.999,627.91297 L 421.031,627.91297 L 424.28,638.30897 C 425.38,642.05697 426.879,645.10597 428.828,647.45497 C 430.777,649.80397 433.877,651.00297 438.024,651.10297 C 441.823,651.05297 444.872,650.05297 447.121,648.15397 C 449.42,646.25497 450.62,643.65597 450.67,640.40697 C 450.67,639.15797 450.569,637.85797 450.42,636.55897 C 450.22,635.20897 449.87,633.55997 449.32,631.66097 C 448.77,629.71197 447.921,627.21297 446.771,624.21397 L 421.481,556.04097 C 420.032,551.74297 418.432,547.79497 416.683,544.19597 C 414.935,540.64697 412.735,537.74897 410.036,535.59897 L 410.036,535.59897 z M 399.84,561.43897 L 400.14,561.43897 L 413.286,603.67097 L 385.747,603.67097 L 399.84,561.43897 L 399.84,561.43897 z"
     id="path15"
     style="fill:url(#linearGradient3720);fill-opacity:1.0" /><path
     d="M 348.91,538.09797 C 346.561,535.99797 343.213,534.89897 338.764,534.84897 L 283.136,534.84897 C 278.688,534.89897 275.339,535.99797 272.99,538.09797 C 270.64,540.24697 269.491,543.19597 269.491,546.94497 C 269.491,550.69297 270.64,553.69197 272.99,555.84097 C 275.339,557.98897 278.687,559.08897 283.136,559.13997 L 297.83,559.13997 L 297.83,637.20797 C 297.88,641.75597 299.079,645.25497 301.528,647.60397 C 303.878,649.95397 307.026,651.10297 310.924,651.10297 C 314.872,651.10297 318.021,649.95397 320.37,647.60397 C 322.819,645.25497 324.018,641.75597 324.068,637.20797 L 324.068,559.13997 L 338.762,559.13997 C 343.21,559.08897 346.559,557.98997 348.908,555.84097 C 351.208,553.69197 352.357,550.69297 352.357,546.94497 C 352.359,543.19597 351.21,540.24797 348.91,538.09797 L 348.91,538.09797 z"
     id="path17"
     style="fill:url(#linearGradient3720);fill-opacity:1.0" /><path
     d="M 244.553,537.39797 C 242.104,539.74797 240.904,543.24597 240.854,547.84397 L 240.854,637.20797 C 240.904,641.75597 242.104,645.25497 244.553,647.60397 C 246.902,649.95397 250.05,651.10297 253.949,651.10297 C 257.848,651.10297 260.997,649.95397 263.345,647.60397 C 265.794,645.25497 267.043,641.75597 267.094,637.20797 L 267.094,547.84397 C 267.043,543.24497 265.794,539.74697 263.345,537.39797 C 260.996,535.04897 257.847,533.89997 253.949,533.89997 C 250.051,533.89997 246.901,535.04997 244.553,537.39797 L 244.553,537.39797 z"
     id="path19"
     style="fill:url(#linearGradient3720);fill-opacity:1.0" /><path
     d="M 212.965,539.39797 C 207.217,536.44897 200.37,534.89897 192.523,534.84897 L 160.986,534.84897 C 157.437,534.84897 154.439,535.99797 151.89,538.24697 C 149.341,540.49697 147.992,543.74497 147.891,547.99297 L 147.891,637.20797 C 147.941,641.75597 149.141,645.25497 151.589,647.60397 C 153.938,649.95397 157.087,651.10297 160.985,651.10297 C 164.883,651.10297 168.032,649.95397 170.381,647.60397 C 172.83,645.25497 174.08,641.75597 174.13,637.20797 L 174.13,603.97197 L 174.43,603.97197 L 206.717,644.60597 C 208.167,646.65497 209.766,648.25397 211.515,649.35397 C 213.314,650.50297 215.863,651.10297 219.112,651.10297 C 222.461,651.00197 225.11,650.25297 227.109,648.80397 C 229.058,647.35397 230.458,645.65497 231.307,643.75497 C 232.206,641.85697 232.606,640.25697 232.557,638.90697 C 232.557,636.80797 232.057,634.85797 231.108,633.05897 C 230.258,631.30997 228.909,629.50997 227.109,627.61197 L 204.268,603.02097 C 212.615,601.37197 219.112,597.72297 223.86,592.02597 C 228.609,586.37797 231.007,579.28097 231.108,570.68397 C 231.058,563.43697 229.459,557.13897 226.31,551.79097 C 223.161,546.44497 218.713,542.34597 212.965,539.39797 L 212.965,539.39797 z M 200.92,562.48897 C 203.469,564.63697 204.768,567.68597 204.868,571.63497 C 204.868,575.33397 203.719,578.38297 201.419,580.83097 C 199.07,583.18097 195.772,584.42997 191.423,584.52997 L 174.13,584.52997 L 174.13,559.13997 L 191.423,559.13997 C 195.272,559.18997 198.471,560.33997 200.92,562.48897 L 200.92,562.48897 z"
     id="path21"
     style="fill:url(#linearGradient3720);fill-opacity:1.0" /></g>
<path
   style="fill:url(#linearGradient2917);fill-opacity:1"
   id="path2828"
   d="M 137.096,556.09197 C 138.795,553.39297 139.645,550.39397 139.695,547.09497 C 139.645,542.84697 138.146,539.19897 135.147,536.19897 C 132.148,533.14997 128.5,531.65097 124.251,531.65097 C 120.902,531.65097 117.903,532.50097 115.254,534.24997 L 69.721999,579.78197 L 69.771999,579.78197 L 69.721999,579.78197 C 68.673,580.78097 67.823,581.88097 67.173,583.02997 C 66.973,583.38097 66.773,583.72997 66.623,584.12997 C 65.673,586.12897 65.173,588.32797 65.173,590.72797 C 65.173,590.97797 65.173,591.27797 65.173,591.57797 C 65.223,592.37797 65.323,593.17797 65.473,593.92697 C 65.773,595.47697 66.323,596.92597 67.122,598.27597 C 67.372,598.72597 67.622,599.17497 67.922,599.62597 L 67.972,599.62597 L 113.304,645.30797 L 113.304,645.25797 L 113.304,645.30797 C 114.304,646.30797 115.403,647.15797 116.553,647.85697 C 116.903,648.05697 117.253,648.25697 117.652,648.40697 C 119.652,649.35697 121.851,649.85597 124.25,649.85597 C 128.498,649.85597 132.097,648.35697 135.146,645.35797 C 138.145,642.30897 139.644,638.71097 139.694,634.46197 C 139.644,630.21397 138.145,626.56597 135.146,623.51697 L 135.096,623.46697 L 102.409,590.72997 L 137.096,556.09197 L 137.096,556.09197 z" /><path
   style="fill:#222b2d;fill-opacity:1"
   id="path2664"
   d="M 479.809,236.31897 C 479.809,170.04597 456.368,113.46797 409.537,66.636969 C 362.706,19.805969 306.128,-3.6350309 239.905,-3.6350309 C 173.631,-3.6350309 117.054,19.805969 70.223,66.636969 C 23.391,113.46797 0.00099966,170.04597 0.00099966,236.31897 C 0.00099966,302.54297 23.392,359.11997 70.223,405.95097 C 117.054,452.78297 173.632,476.22297 239.905,476.27297 C 306.128,476.22297 362.705,452.78197 409.536,405.95097 C 456.367,359.11997 479.809,302.54297 479.809,236.31897 L 479.809,236.31897 z M 239.905,56.340969 C 289.534,56.340969 331.968,73.883969 367.104,109.01997 C 402.24,144.15597 419.833,186.58897 419.833,236.26897 C 419.833,285.94897 402.24,328.38197 367.104,363.51797 C 331.968,398.65397 289.535,416.24697 239.905,416.24697 C 190.225,416.24697 147.792,398.65397 112.656,363.51797 C 77.52,328.38197 59.927,285.94897 59.977,236.26897 C 59.927,186.58897 77.52,144.15597 112.656,109.01997 C 147.791,73.883969 190.225,56.340969 239.905,56.340969 L 239.905,56.340969 z" /><g
   id="g2756"
   inkscape:label="New"
   transform="translate(-371.31536,-24.763396)" /><path
   style="fill:url(#linearGradient2906);fill-opacity:1;stroke:none;stroke-width:1.00677967;stroke-miterlimit:4;stroke-dasharray:none;stroke-dashoffset:0;stroke-opacity:1"
   d="M 239.91399,-3.6350309 C 238.09394,-3.6350309 236.28191,-3.6078877 234.47649,-3.5725309 C 120.744,-0.6878925 29.32024,92.535131 29.32024,206.95872 C 29.32024,323.19855 123.67414,417.52122 239.91399,417.52122 C 356.15382,417.52122 450.47648,323.19855 450.47649,206.95872 C 450.47649,92.535132 359.08397,-0.6878925 245.35149,-3.5725309 C 243.54621,-3.6183188 241.73024,-3.6350309 239.91399,-3.6350309 z M 239.91399,56.333719 C 289.543,56.333717 331.96549,73.885219 367.10149,109.02122 C 402.2375,144.15722 419.82024,186.59122 419.82024,236.27122 C 419.82025,285.95121 402.23749,328.38522 367.10149,363.52122 C 331.9655,398.65721 289.54399,416.23997 239.91399,416.23997 C 190.234,416.23998 147.79999,398.65722 112.66399,363.52122 C 77.528,328.38521 59.92649,285.95122 59.97649,236.27122 C 59.92649,186.59121 77.52799,144.15722 112.66399,109.02122 C 147.799,73.88522 190.23399,56.333719 239.91399,56.333719 z"
   id="path2685" /><g
   transform="translate(-991.31537,-24.763396)"
   inkscape:label="New"
   id="g2854" /></svg>