<?xml version="1.0" encoding="UTF-8" standalone="no"?>
<!-- Generator: Adobe Illustrator 12.0.0, SVG Export Plug-In . SVG Version: 6.00 Build 51448)  -->
<svg
   xmlns:dc="http://purl.org/dc/elements/1.1/"
   xmlns:cc="http://creativecommons.org/ns#"
   xmlns:rdf="http://www.w3.org/1999/02/22-rdf-syntax-ns#"
   xmlns:svg="http://www.w3.org/2000/svg"
   xmlns="http://www.w3.org/2000/svg"
   xmlns:xlink="http://www.w3.org/1999/xlink"
   xmlns:sodipodi="http://sodipodi.sourceforge.net/DTD/sodipodi-0.dtd"
   xmlns:inkscape="http://www.inkscape.org/namespaces/inkscape"
   version="1.1"
   id="Layer_1"
   width="670.84"
   height="656.388"
   viewBox="0 0 670.84 656.388"
   overflow="visible"
   enable-background="new 0 0 670.84 656.388"
   xml:space="preserve"
   sodipodi:version="0.32"
   inkscape:version="0.46"
   sodipodi:docname="kspread.svg"
   inkscape:output_extension="org.inkscape.output.svg.inkscape"><metadata
   id="metadata30"><rdf:RDF><cc:Work
       rdf:about=""><dc:format>image/svg+xml</dc:format><dc:type
         rdf:resource="http://purl.org/dc/dcmitype/StillImage" /></cc:Work></rdf:RDF></metadata><defs
   id="defs28"><inkscape:perspective
   sodipodi:type="inkscape:persp3d"
   inkscape:vp_x="0 : 328.194 : 1"
   inkscape:vp_y="0 : 1000 : 0"
   inkscape:vp_z="670.84003 : 328.194 : 1"
   inkscape:persp3d-origin="335.42001 : 218.796 : 1"
   id="perspective32" /><linearGradient
   gradientUnits="userSpaceOnUse"
   y2="419.44904"
   x2="237.37856"
   y1="-0.18070547"
   x1="237.37856"
   id="linearGradient2438"
   xlink:href="#linearGradient3292"
   inkscape:collect="always" /><inkscape:perspective
   sodipodi:type="inkscape:persp3d"
   inkscape:vp_x="0 : 526.18109 : 1"
   inkscape:vp_y="0 : 1000 : 0"
   inkscape:vp_z="744.09448 : 526.18109 : 1"
   inkscape:persp3d-origin="372.04724 : 350.78739 : 1"
   id="perspective2705" /><linearGradient
   gradientUnits="userSpaceOnUse"
   y2="535.23602"
   x2="197.11394"
   y1="654.73938"
   x1="197.11394"
   id="linearGradient2611"
   xlink:href="#linearGradient3353"
   inkscape:collect="always" />
	
	
	
	
	
	
	
	
	
<linearGradient
   gradientTransform="translate(-99.179799,-0.4262079)"
   y2="534.97424"
   x2="232.97664"
   y1="656.388"
   x1="232.97664"
   gradientUnits="userSpaceOnUse"
   id="linearGradient2585"
   xlink:href="#linearGradient3353"
   inkscape:collect="always" /><linearGradient
   id="linearGradient3367"><stop
     id="stop3369"
     offset="0"
     style="stop-color:#fe7100;stop-opacity:1;" /><stop
     style="stop-color:#fe7100;stop-opacity:1;"
     offset="0.5"
     id="stop3371" /><stop
     style="stop-color:#fe801b;stop-opacity:1;"
     offset="0.50999999"
     id="stop3373" /><stop
     id="stop3375"
     offset="1"
     style="stop-color:#feaa66;stop-opacity:1;" /></linearGradient><linearGradient
   id="linearGradient3353"><stop
     style="stop-color:#20292b;stop-opacity:1"
     offset="0"
     id="stop3355" /><stop
     id="stop3363"
     offset="0.5"
     style="stop-color:#20292b;stop-opacity:1" /><stop
     id="stop3361"
     offset="0.50999999"
     style="stop-color:#31393b;stop-opacity:1" /><stop
     style="stop-color:#787d7f;stop-opacity:1"
     offset="1"
     id="stop3357" /></linearGradient><linearGradient
   id="linearGradient3314"><stop
     style="stop-color:#ff801c;stop-opacity:1;"
     offset="0"
     id="stop3316" /><stop
     style="stop-color:#ffa861;stop-opacity:1;"
     offset="1"
     id="stop3318" /></linearGradient><linearGradient
   id="linearGradient3292"><stop
     style="stop-color:#8f9495;stop-opacity:1"
     offset="0"
     id="stop3294" /><stop
     style="stop-color:#222b2d;stop-opacity:1"
     offset="1"
     id="stop3296" /></linearGradient><inkscape:perspective
   sodipodi:type="inkscape:persp3d"
   inkscape:vp_x="0 : 328.194 : 1"
   inkscape:vp_y="0 : 1000 : 0"
   inkscape:vp_z="585.47302 : 328.194 : 1"
   inkscape:persp3d-origin="292.73651 : 218.796 : 1"
   id="perspective2635" /><inkscape:perspective
   id="perspective2469"
   inkscape:persp3d-origin="372.04724 : 350.78739 : 1"
   inkscape:vp_z="744.09448 : 526.18109 : 1"
   inkscape:vp_y="0 : 1000 : 0"
   inkscape:vp_x="0 : 526.18109 : 1"
   sodipodi:type="inkscape:persp3d" />
	
	
	
	
	
	
	
	
	
	
	
<linearGradient
   inkscape:collect="always"
   xlink:href="#linearGradient3292"
   id="linearGradient3312"
   x1="294.96109"
   y1="-0.0057355352"
   x2="294.96109"
   y2="421.22168"
   gradientUnits="userSpaceOnUse" /><linearGradient
   inkscape:collect="always"
   xlink:href="#linearGradient3314"
   id="linearGradient3320"
   x1="317.72427"
   y1="353.60373"
   x2="317.72427"
   y2="125.0482"
   gradientUnits="userSpaceOnUse" /><linearGradient
   inkscape:collect="always"
   xlink:href="#linearGradient3353"
   id="linearGradient3359"
   x1="232.97664"
   y1="656.388"
   x2="232.97664"
   y2="534.97424"
   gradientUnits="userSpaceOnUse" /><linearGradient
   inkscape:collect="always"
   xlink:href="#linearGradient3367"
   id="linearGradient3365"
   x1="68.389832"
   y1="653.48999"
   x2="68.389832"
   y2="535.18597"
   gradientUnits="userSpaceOnUse"
   gradientTransform="translate(-7.895,34.834)" /><linearGradient
   inkscape:collect="always"
   xlink:href="#linearGradient3353"
   id="linearGradient2414"
   gradientUnits="userSpaceOnUse"
   x1="232.97664"
   y1="656.388"
   x2="232.97664"
   y2="534.97424" /><linearGradient
   inkscape:collect="always"
   xlink:href="#linearGradient3353"
   id="linearGradient2416"
   gradientUnits="userSpaceOnUse"
   x1="232.97664"
   y1="656.388"
   x2="232.97664"
   y2="534.97424" /><linearGradient
   inkscape:collect="always"
   xlink:href="#linearGradient3353"
   id="linearGradient2418"
   gradientUnits="userSpaceOnUse"
   x1="232.97664"
   y1="656.388"
   x2="232.97664"
   y2="534.97424" /><linearGradient
   inkscape:collect="always"
   xlink:href="#linearGradient3353"
   id="linearGradient2420"
   gradientUnits="userSpaceOnUse"
   x1="232.97664"
   y1="656.388"
   x2="232.97664"
   y2="534.97424" /><linearGradient
   inkscape:collect="always"
   xlink:href="#linearGradient3353"
   id="linearGradient2422"
   gradientUnits="userSpaceOnUse"
   x1="232.97664"
   y1="656.388"
   x2="232.97664"
   y2="534.97424" /><linearGradient
   inkscape:collect="always"
   xlink:href="#linearGradient3353"
   id="linearGradient2424"
   gradientUnits="userSpaceOnUse"
   x1="232.97664"
   y1="656.388"
   x2="232.97664"
   y2="534.97424" /><linearGradient
   inkscape:collect="always"
   xlink:href="#linearGradient3353"
   id="linearGradient2426"
   gradientUnits="userSpaceOnUse"
   x1="232.97664"
   y1="656.388"
   x2="232.97664"
   y2="534.97424" /><linearGradient
   inkscape:collect="always"
   xlink:href="#linearGradient3353"
   id="linearGradient2428"
   gradientUnits="userSpaceOnUse"
   x1="232.97664"
   y1="656.388"
   x2="232.97664"
   y2="534.97424" /><linearGradient
   inkscape:collect="always"
   xlink:href="#linearGradient3353"
   id="linearGradient2431"
   gradientUnits="userSpaceOnUse"
   x1="232.97664"
   y1="656.388"
   x2="232.97664"
   y2="534.97424" /><linearGradient
   inkscape:collect="always"
   xlink:href="#linearGradient3353"
   id="linearGradient2434"
   gradientUnits="userSpaceOnUse"
   x1="232.97664"
   y1="656.388"
   x2="232.97664"
   y2="534.97424" /><linearGradient
   inkscape:collect="always"
   xlink:href="#linearGradient3353"
   id="linearGradient2437"
   gradientUnits="userSpaceOnUse"
   x1="232.97664"
   y1="656.388"
   x2="232.97664"
   y2="534.97424" /><linearGradient
   inkscape:collect="always"
   xlink:href="#linearGradient3353"
   id="linearGradient2440"
   gradientUnits="userSpaceOnUse"
   x1="232.97664"
   y1="656.388"
   x2="232.97664"
   y2="534.97424" /><linearGradient
   inkscape:collect="always"
   xlink:href="#linearGradient3353"
   id="linearGradient2443"
   gradientUnits="userSpaceOnUse"
   x1="232.97664"
   y1="656.388"
   x2="232.97664"
   y2="534.97424" /><linearGradient
   inkscape:collect="always"
   xlink:href="#linearGradient3353"
   id="linearGradient2446"
   gradientUnits="userSpaceOnUse"
   x1="232.97664"
   y1="656.388"
   x2="232.97664"
   y2="534.97424" /><inkscape:perspective
   id="perspective28"
   inkscape:persp3d-origin="239.9045 : 218.24701 : 1"
   inkscape:vp_z="479.80899 : 327.37051 : 1"
   inkscape:vp_y="0 : 1000 : 0"
   inkscape:vp_x="0 : 327.37051 : 1"
   sodipodi:type="inkscape:persp3d" /><linearGradient
   inkscape:collect="always"
   xlink:href="#linearGradient3367"
   id="linearGradient2705"
   gradientUnits="userSpaceOnUse"
   x1="133.54099"
   y1="653.49103"
   x2="133.54099"
   y2="535.21124"
   gradientTransform="translate(-81.411,-4.0148778e-6)" />
	
	
	
	
	
	
	
	
	
	
	
<linearGradient
   inkscape:collect="always"
   xlink:href="#linearGradient3292"
   id="linearGradient2724"
   gradientUnits="userSpaceOnUse"
   gradientTransform="translate(-571.79218,21.475341)"
   x1="292.75"
   y1="-2.8303274e-14"
   x2="292.75"
   y2="420.03125" /><linearGradient
   inkscape:collect="always"
   xlink:href="#linearGradient3292"
   id="linearGradient2726"
   gradientUnits="userSpaceOnUse"
   gradientTransform="translate(-571.79217,21.475341)"
   x1="292.75"
   y1="7.1270186e-08"
   x2="292.75"
   y2="420.03125" /><linearGradient
   inkscape:collect="always"
   xlink:href="#linearGradient3353"
   id="linearGradient2737"
   x1="202.61035"
   y1="656.38702"
   x2="202.61035"
   y2="535.22974"
   gradientUnits="userSpaceOnUse" /><linearGradient
   inkscape:collect="always"
   xlink:href="#linearGradient3292"
   id="linearGradient2739"
   x1="335.92499"
   y1="0.26662707"
   x2="335.92499"
   y2="416.61084"
   gradientUnits="userSpaceOnUse" /><linearGradient
   inkscape:collect="always"
   xlink:href="#linearGradient3314"
   id="linearGradient2741"
   x1="245.23274"
   y1="308.327"
   x2="245.23274"
   y2="106.27287"
   gradientUnits="userSpaceOnUse" /><inkscape:perspective
   id="perspective2833"
   inkscape:persp3d-origin="372.04724 : 350.78739 : 1"
   inkscape:vp_z="744.09448 : 526.18109 : 1"
   inkscape:vp_y="0 : 1000 : 0"
   inkscape:vp_x="0 : 526.18109 : 1"
   sodipodi:type="inkscape:persp3d" /></defs><sodipodi:namedview
   inkscape:window-height="828"
   inkscape:window-width="1440"
   inkscape:pageshadow="2"
   inkscape:pageopacity="0.0"
   guidetolerance="10.0"
   gridtolerance="10.0"
   objecttolerance="10.0"
   borderopacity="1.0"
   bordercolor="#666666"
   pagecolor="#ffffff"
   id="base"
   showgrid="false"
   inkscape:zoom="0.80943292"
   inkscape:cx="187.78579"
   inkscape:cy="328.194"
   inkscape:window-x="0"
   inkscape:window-y="0"
   inkscape:current-layer="Layer_1" />
<path
   style="fill:url(#linearGradient2739)"
   id="path7"
   d="M 462.873,263.645 C 462.373,262.746 461.823,261.896 461.224,261.046 L 414.243,213.715 L 414.293,213.665 L 387.204,186.376 L 387.204,186.426 C 387.154,186.426 387.154,186.426 387.154,186.376 C 385.205,184.427 383.105,182.777 380.906,181.478 C 380.207,181.028 379.507,180.678 378.758,180.329 C 374.86,178.479 370.561,177.53 365.912,177.48 C 357.666,177.48 350.568,180.429 344.721,186.327 C 338.873,192.175 335.925,199.222 335.925,207.518 C 335.925,215.765 338.874,222.862 344.721,228.709 C 344.771,228.759 344.771,228.759 344.822,228.809 L 357.816,241.804 L 357.816,241.854 L 394.252,278.289 L 340.974,331.518 L 340.924,331.518 C 337.575,336.716 335.925,342.564 335.925,349.011 C 335.925,357.308 338.874,364.405 344.721,370.252 C 350.568,376.099 357.617,378.998 365.912,378.998 C 372.36,378.998 378.208,377.35 383.405,374 L 457.725,299.63 L 457.675,299.63 C 457.675,299.58 457.675,299.58 457.725,299.58 C 459.674,297.631 461.324,295.532 462.673,293.332 C 463.072,292.582 463.423,291.883 463.773,291.183 C 465.623,287.235 466.572,282.986 466.622,278.338 C 466.622,277.788 466.622,277.238 466.572,276.689 C 466.472,275.089 466.272,273.54 466.022,272.091 C 465.422,269.092 464.372,266.293 462.873,263.645 L 462.873,263.645 z" /><path
   style="fill:url(#linearGradient2741)"
   id="path9"
   d="M 325.277,136.795 C 325.277,128.498 322.328,121.451 316.481,115.604 C 310.634,109.757 303.536,106.808 295.29,106.808 C 288.842,106.808 282.995,108.507 277.847,111.856 L 203.477,186.176 L 203.527,186.226 C 203.477,186.226 203.477,186.226 203.477,186.276 C 201.528,188.225 199.878,190.275 198.529,192.524 C 198.13,193.224 197.779,193.923 197.429,194.673 C 195.58,198.571 194.63,202.87 194.58,207.518 C 194.58,208.068 194.58,208.618 194.63,209.167 C 194.73,210.716 194.93,212.266 195.23,213.715 C 195.78,216.714 196.829,219.512 198.329,222.161 C 198.829,223.061 199.378,223.911 199.978,224.76 L 246.959,272.141 L 246.909,272.191 L 273.998,299.43 L 273.998,299.38 C 273.998,299.38 273.998,299.38 274.048,299.43 C 275.997,301.379 278.096,303.029 280.296,304.378 C 280.996,304.778 281.695,305.128 282.445,305.478 C 286.343,307.327 290.642,308.277 295.29,308.327 C 303.537,308.327 310.634,305.378 316.481,299.531 C 322.328,293.684 325.277,286.586 325.277,278.34 C 325.277,270.043 322.328,262.946 316.481,257.098 C 316.431,257.048 316.431,257.048 316.431,257.048 L 303.387,244.003 L 266.951,207.518 L 320.23,154.289 L 320.28,154.289 C 323.628,149.09 325.277,143.243 325.277,136.795 L 325.277,136.795 z" /><g
   id="g2728"
   style="fill:url(#linearGradient2737)"><path
     d="M 15.401,535.236 C 11.152,535.236 7.504,536.735 4.505,539.784 C 2.156,542.133 0.656,544.832 0.007,547.98 L 0.007,638.094 C -0.043,639.493 0.156,640.843 0.507,642.143 C 0.607,642.542 0.706,642.943 0.857,643.342 C 1.607,645.441 2.806,647.34 4.505,649.039 C 7.504,652.038 11.152,653.538 15.401,653.538 C 19.649,653.538 23.298,652.038 26.347,649.039 C 29.346,645.99 30.845,642.342 30.845,638.094 L 30.845,547.98 C 30.195,544.832 28.696,542.132 26.347,539.784 C 23.298,536.735 19.649,535.236 15.401,535.236 L 15.401,535.236 z"
     id="path13"
     style="fill:url(#linearGradient2737)" /><path
     d="M 667.291,573.921 C 664.941,567.173 661.443,561.176 656.845,555.828 C 652.247,550.479 646.65,546.281 640.002,543.232 C 633.305,540.133 625.657,538.535 617.061,538.484 L 585.674,538.484 C 582.125,538.484 579.126,539.633 576.577,541.883 C 574.028,544.132 572.679,547.38 572.579,551.629 L 572.579,640.643 C 572.679,644.892 574.028,648.14 576.577,650.389 C 579.126,652.638 582.125,653.787 585.674,653.787 L 617.061,653.787 C 624.308,653.787 631.106,652.538 637.553,649.989 C 644,647.44 649.699,643.641 654.646,638.693 C 659.644,633.745 663.542,627.648 666.392,620.401 C 669.29,613.153 670.789,604.807 670.84,595.361 C 670.84,587.865 669.64,580.718 667.291,573.921 L 667.291,573.921 z M 629.806,566.873 C 634.054,569.572 637.303,573.371 639.452,578.269 C 641.601,583.118 642.701,588.815 642.701,595.363 C 642.701,602.11 641.601,608.008 639.452,613.155 C 637.303,618.254 634.004,622.252 629.556,625.1 C 625.108,627.999 619.51,629.449 612.713,629.498 L 598.818,629.498 L 598.818,562.775 L 613.812,562.775 C 620.21,562.825 625.558,564.225 629.806,566.873 L 629.806,566.873 z"
     id="path15"
     style="fill:url(#linearGradient2737)" /><path
     d="M 537.193,559.676 C 535.743,555.378 534.144,551.43 532.394,547.831 C 530.645,544.282 528.446,541.384 525.747,539.234 C 523.049,537.085 519.5,535.935 515.052,535.885 C 510.754,535.935 507.255,537.084 504.607,539.234 C 501.958,541.383 499.758,544.282 498.059,547.831 C 496.31,551.43 494.71,555.378 493.261,559.676 L 467.921,627.849 C 466.821,630.848 465.972,633.347 465.422,635.296 C 464.872,637.195 464.523,638.845 464.322,640.194 C 464.172,641.493 464.072,642.793 464.072,644.042 C 464.122,647.291 465.271,649.89 467.621,651.789 C 469.87,653.688 472.919,654.688 476.717,654.738 C 480.865,654.638 483.914,653.438 485.863,651.09 C 487.812,648.74 489.362,645.692 490.462,641.944 L 493.71,631.548 L 536.743,631.548 L 539.992,641.944 C 541.092,645.692 542.591,648.741 544.54,651.09 C 546.489,653.439 549.588,654.639 553.736,654.738 C 557.535,654.688 560.584,653.688 562.833,651.789 C 565.132,649.891 566.331,647.291 566.381,644.042 C 566.381,642.793 566.281,641.493 566.132,640.194 C 565.932,638.844 565.582,637.195 565.032,635.296 C 564.482,633.347 563.633,630.848 562.482,627.849 L 537.193,559.676 L 537.193,559.676 z M 515.552,565.074 L 515.852,565.074 L 528.997,607.306 L 501.458,607.306 L 515.552,565.074 L 515.552,565.074 z"
     id="path17"
     style="fill:url(#linearGradient2737)" /><path
     d="M 458.524,541.833 C 456.275,539.685 453.026,538.534 448.878,538.484 L 408.694,538.484 C 405.145,538.484 402.147,539.633 399.597,541.882 C 397.048,544.132 395.699,547.38 395.599,551.628 L 395.599,640.643 C 395.699,644.892 397.048,648.14 399.597,650.389 C 402.147,652.638 405.145,653.787 408.694,653.787 L 449.828,653.787 C 453.976,653.737 457.224,652.638 459.474,650.489 C 461.774,648.34 462.923,645.341 462.923,641.593 C 462.923,637.794 461.774,634.845 459.474,632.746 C 457.225,630.646 453.977,629.547 449.828,629.497 L 421.839,629.497 L 421.839,607.906 L 446.579,607.906 C 450.727,607.855 453.976,606.806 456.225,604.707 C 458.574,602.558 459.723,599.56 459.723,595.761 C 459.723,592.013 458.574,589.064 456.225,586.914 C 453.976,584.766 450.727,583.716 446.579,583.666 L 421.839,583.666 L 421.839,562.774 L 448.878,562.774 C 453.026,562.723 456.275,561.674 458.524,559.525 C 460.773,557.425 461.922,554.427 461.972,550.579 C 461.923,546.932 460.773,543.982 458.524,541.833 L 458.524,541.833 z"
     id="path19"
     style="fill:url(#linearGradient2737)" /><path
     d="M 381.056,555.428 C 377.908,550.08 373.458,545.982 367.711,543.033 C 361.963,540.084 355.116,538.534 347.269,538.484 L 315.731,538.484 C 312.183,538.484 309.184,539.633 306.635,541.882 C 304.086,544.132 302.737,547.38 302.636,551.628 L 302.636,640.843 C 302.686,645.391 303.886,648.89 306.335,651.239 C 308.684,653.589 311.833,654.738 315.731,654.738 C 319.629,654.738 322.778,653.589 325.127,651.239 C 327.576,648.89 328.825,645.391 328.876,640.843 L 328.876,607.607 L 329.176,607.607 L 361.463,648.241 C 362.913,650.29 364.512,651.889 366.262,652.989 C 368.061,654.138 370.61,654.738 373.859,654.738 C 377.208,654.637 379.857,653.888 381.856,652.439 C 383.805,650.989 385.205,649.29 386.054,647.39 C 386.953,645.492 387.353,643.892 387.303,642.542 C 387.303,640.443 386.803,638.493 385.854,636.694 C 385.004,634.945 383.655,633.145 381.856,631.247 L 359.015,606.656 C 367.362,605.007 373.859,601.358 378.607,595.661 C 383.355,590.013 385.754,582.916 385.854,574.319 C 385.804,567.073 384.204,560.775 381.056,555.428 L 381.056,555.428 z M 355.666,566.124 C 358.215,568.272 359.514,571.321 359.614,575.27 C 359.614,578.969 358.465,582.018 356.165,584.466 C 353.816,586.816 350.518,588.065 346.169,588.165 L 328.876,588.165 L 328.876,562.775 L 346.169,562.775 C 350.018,562.825 353.217,563.975 355.666,566.124 L 355.666,566.124 z"
     id="path21"
     style="fill:url(#linearGradient2737)" /><path
     d="M 294.49,577.719 C 294.39,569.023 292.49,561.776 288.742,555.978 C 285.044,550.13 280.196,545.732 274.248,542.833 C 268.301,539.934 261.853,538.484 254.956,538.484 L 222.768,538.484 C 219.22,538.484 216.221,539.633 213.672,541.882 C 211.123,544.132 209.774,547.38 209.673,551.628 L 209.673,640.843 C 209.723,645.391 210.923,648.89 213.372,651.239 C 215.721,653.589 218.87,654.738 222.768,654.738 C 226.667,654.738 229.815,653.589 232.164,651.239 C 234.613,648.89 235.863,645.391 235.913,640.843 L 235.913,616.702 L 255.805,616.702 C 264.152,616.652 271.199,614.903 276.947,611.555 C 282.695,608.256 287.043,603.658 289.991,597.81 C 292.99,591.963 294.49,585.266 294.49,577.719 L 294.49,577.719 z M 262.552,565.874 C 265.651,568.522 267.25,572.471 267.3,577.719 C 267.3,580.468 266.651,582.967 265.301,585.317 C 263.951,587.666 262.002,589.615 259.453,591.064 C 256.904,592.564 253.705,593.313 249.957,593.363 L 235.913,593.363 L 235.913,561.826 L 249.957,561.826 C 255.255,561.825 259.454,563.175 262.552,565.874 L 262.552,565.874 z"
     id="path23"
     style="fill:url(#linearGradient2737)" /><path
     d="M 193.28,553.229 C 193.23,548.082 190.431,543.933 184.833,540.785 C 179.235,537.636 171.139,535.986 160.543,535.887 C 153.196,535.887 146.349,537.187 140.101,539.835 C 133.853,542.534 128.806,546.633 124.957,552.13 C 121.208,557.528 119.259,564.425 119.109,572.822 C 119.259,579.669 120.658,585.117 123.307,589.165 C 125.956,593.214 129.354,596.312 133.603,598.512 C 137.751,600.761 142.149,602.56 146.798,603.909 C 151.796,605.459 156.194,606.858 159.943,608.107 C 163.692,609.357 166.59,610.856 168.64,612.505 C 170.689,614.204 171.739,616.453 171.788,619.303 C 171.838,622.201 170.788,624.7 168.64,626.85 C 166.491,628.949 162.842,630.048 157.794,630.149 C 153.346,630.098 149.397,629.499 145.949,628.399 C 142.45,627.35 139.351,626.3 136.702,625.251 C 134.003,624.201 131.604,623.602 129.505,623.502 C 126.856,623.552 124.607,624.251 122.757,625.551 C 120.908,626.901 119.558,628.6 118.659,630.699 C 117.709,632.748 117.209,634.997 117.159,637.446 C 117.259,640.694 118.558,643.544 121.107,645.892 C 123.556,648.242 126.805,650.241 130.753,651.789 C 134.701,653.339 138.899,654.438 143.298,655.188 C 147.746,655.987 151.944,656.387 155.893,656.387 C 164.14,656.387 171.537,655.037 178.184,652.288 C 184.782,649.539 190.029,645.341 193.928,639.643 C 197.826,633.945 199.826,626.648 199.926,617.801 C 199.826,610.554 198.477,604.756 195.828,600.359 C 193.179,595.961 189.781,592.511 185.532,589.963 C 181.334,587.414 176.785,585.415 171.937,583.966 C 165.939,582.017 161.142,580.467 157.493,579.318 C 153.844,578.068 151.195,576.819 149.646,575.57 C 147.997,574.37 147.247,572.671 147.297,570.521 C 147.347,567.623 148.447,565.324 150.596,563.625 C 152.745,561.976 155.644,561.176 159.293,561.126 C 162.941,561.176 165.89,561.525 168.239,562.226 C 170.488,562.975 172.637,563.675 174.636,564.374 C 176.585,565.024 178.934,565.424 181.683,565.474 C 185.232,565.424 187.981,564.225 190.03,561.976 C 192.181,559.776 193.23,556.877 193.28,553.229 L 193.28,553.229 z"
     id="path25"
     style="fill:url(#linearGradient2737)" /></g>
<path
   style="fill:url(#linearGradient2705)"
   id="path2670"
   d="M 107.913,559.727 C 109.613,557.028 110.462,554.029 110.512,550.73 C 110.462,546.482 108.963,542.834 105.964,539.834 C 102.965,536.785 99.317,535.286 95.068,535.286 C 91.719,535.286 88.721,536.136 86.072,537.885 L 40.54,583.417 L 40.59,583.417 L 40.54,583.417 C 39.491,584.416 38.641,585.516 37.991,586.665 C 37.791,587.016 37.591,587.365 37.441,587.765 C 36.491,589.764 35.992,591.963 35.992,594.363 C 35.992,594.613 35.992,594.913 35.992,595.213 C 36.042,596.013 36.142,596.813 36.292,597.562 C 36.592,599.112 37.142,600.561 37.941,601.911 C 38.191,602.361 38.441,602.81 38.741,603.261 L 38.791,603.261 L 84.123,648.943 L 84.123,648.893 L 84.123,648.943 C 85.123,649.943 86.222,650.793 87.372,651.492 C 87.722,651.692 88.072,651.892 88.472,652.042 C 90.471,652.992 92.67,653.491 95.069,653.491 C 99.318,653.491 102.916,651.992 105.965,648.993 C 108.964,645.944 110.464,642.346 110.513,638.097 C 110.463,633.849 108.964,630.201 105.965,627.152 L 105.915,627.102 L 73.228,594.365 L 107.913,559.727 L 107.913,559.727 z" /><g
   id="g2588"
   transform="translate(614.47517,-21.47534)"><path
     d="M -39.14717,261.42934 C -39.14717,195.15634 -62.58817,138.57834 -109.41917,91.747341 C -156.25017,44.916341 -212.82817,21.475341 -279.05117,21.475341 C -345.32517,21.475341 -401.90217,44.916341 -448.73317,91.747341 C -495.56517,138.57834 -518.95517,195.15634 -518.95517,261.42934 C -518.95517,327.65334 -495.56417,384.23034 -448.73317,431.06134 C -401.90217,477.89334 -345.32417,501.33334 -279.05117,501.38334 C -212.82817,501.33334 -156.25117,477.89234 -109.42017,431.06134 C -62.58917,384.23034 -39.14717,327.65334 -39.14717,261.42934 L -39.14717,261.42934 z M -279.05117,81.451341 C -229.42217,81.451341 -186.98817,98.994341 -151.85217,134.13034 C -116.71617,169.26634 -99.12317,211.69934 -99.12317,261.37934 C -99.12317,311.05934 -116.71617,353.49234 -151.85217,388.62834 C -186.98817,423.76434 -229.42117,441.35734 -279.05117,441.35734 C -328.73117,441.35734 -371.16417,423.76434 -406.30017,388.62834 C -441.43617,353.49234 -459.02917,311.05934 -458.97917,261.37934 C -459.02917,211.69934 -441.43617,169.26634 -406.30017,134.13034 C -371.16517,98.994341 -328.73117,81.451341 -279.05117,81.451341 L -279.05117,81.451341 z"
     id="path2574"
     style="fill:#222b2d;fill-opacity:1" /><path
     id="path2506"
     d="M -279.04218,21.475341 C -291.46855,21.475341 -303.54795,22.296232 -315.29218,23.944091 C -315.63547,24.004215 -315.98072,24.038541 -316.32343,24.100341 C -414.28792,41.765813 -488.69843,127.77787 -488.69843,231.13159 C -488.69843,347.25167 -394.77348,441.50659 -279.04218,441.50659 C -163.31087,441.50659 -69.38594,347.25167 -69.38593,231.13159 C -69.38593,127.823 -143.73478,41.849012 -241.63593,24.131591 C -241.74105,24.116303 -241.84325,24.084246 -241.94843,24.069091 C -253.96144,22.338125 -266.31607,21.475341 -279.04218,21.475341 z M -279.04218,81.444091 C -229.41317,81.444089 -186.99068,98.995591 -151.85468,134.13159 C -116.71867,169.26759 -99.13593,211.70159 -99.13593,261.38159 C -99.13592,311.06158 -116.71868,353.49559 -151.85468,388.63159 C -186.99067,423.76758 -229.41218,441.35034 -279.04218,441.35034 C -328.72217,441.35035 -371.15618,423.76759 -406.29218,388.63159 C -441.42817,353.49558 -459.02968,311.06159 -458.97968,261.38159 C -459.02968,211.70158 -441.42818,169.26759 -406.29218,134.13159 C -371.15717,98.995592 -328.72218,81.444091 -279.04218,81.444091 z"
     style="fill:url(#linearGradient2724);fill-opacity:1;stroke:url(#linearGradient2726);stroke-width:0.5;stroke-miterlimit:4;stroke-dasharray:none;stroke-dashoffset:0;stroke-opacity:1" /></g></svg>