<?xml version="1.0" encoding="utf-8"?>
<!-- Generator: Adobe Illustrator 12.0.0, SVG Export Plug-In . SVG Version: 6.00 Build 51448)  -->
<!DOCTYPE svg PUBLIC "-//W3C//DTD SVG 1.1//EN" "http://www.w3.org/Graphics/SVG/1.1/DTD/svg11.dtd" [
	<!ENTITY ns_svg "http://www.w3.org/2000/svg">
	<!ENTITY ns_xlink "http://www.w3.org/1999/xlink">
]>
<svg  version="1.1" id="Layer_1" xmlns="&ns_svg;" xmlns:xlink="&ns_xlink;" width="670.84" height="656.388"
	 viewBox="0 0 670.84 656.388" overflow="visible" enable-background="new 0 0 670.84 656.388" xml:space="preserve">
<g>
	<path fill="#3E4547" d="M575.328,239.954c0-66.273-23.441-122.851-70.272-169.682S401.647,0,335.423,0
		C269.15,0,212.572,23.441,165.741,70.272c-46.832,46.831-70.222,103.409-70.222,169.682c0,66.224,23.391,122.801,70.222,169.632
		c46.831,46.832,103.409,70.272,169.682,70.322c66.224-0.05,122.801-23.491,169.632-70.322S575.328,306.178,575.328,239.954
		L575.328,239.954z M515.352,239.904c0,49.68-17.593,92.113-52.729,127.249s-77.569,52.729-127.2,52.729
		c-49.68,0-92.113-17.593-127.249-52.729c-35.136-35.136-52.729-77.569-52.679-127.249c-0.05-49.68,17.543-92.113,52.679-127.249
		c35.136-35.136,77.569-52.679,127.249-52.679c49.63,0,92.064,17.543,127.2,52.679C497.759,147.791,515.352,190.224,515.352,239.904
		L515.352,239.904z"/>
	<path fill="#3E4547" d="M462.873,263.645c-0.5-0.899-1.05-1.749-1.649-2.599l-46.981-47.331l0.05-0.05l-27.089-27.289v0.05
		c-0.05,0-0.05,0-0.05-0.05c-1.949-1.949-4.049-3.599-6.248-4.898c-0.699-0.45-1.399-0.8-2.148-1.149
		c-3.898-1.85-8.197-2.799-12.846-2.849c-8.246,0-15.344,2.949-21.191,8.847c-5.848,5.848-8.796,12.895-8.796,21.191
		c0,8.247,2.949,15.344,8.796,21.191c0.05,0.05,0.05,0.05,0.101,0.1l12.994,12.995v0.05l36.436,36.435l-53.278,53.229h-0.05
		c-3.349,5.198-4.999,11.046-4.999,17.493c0,8.297,2.949,15.394,8.796,21.241s12.896,8.746,21.191,8.746
		c6.448,0,12.296-1.648,17.493-4.998l74.32-74.37h-0.05c0-0.05,0-0.05,0.05-0.05c1.949-1.949,3.599-4.048,4.948-6.248
		c0.399-0.75,0.75-1.449,1.1-2.149c1.85-3.948,2.799-8.197,2.849-12.845c0-0.55,0-1.1-0.05-1.649c-0.1-1.6-0.3-3.149-0.55-4.598
		C465.422,269.092,464.372,266.293,462.873,263.645L462.873,263.645z"/>
	<path fill="#F07F00" d="M325.277,136.795c0-8.297-2.949-15.344-8.796-21.191s-12.945-8.796-21.191-8.796
		c-6.448,0-12.295,1.699-17.443,5.048l-74.37,74.32l0.05,0.05c-0.05,0-0.05,0-0.05,0.05c-1.949,1.949-3.599,3.999-4.948,6.248
		c-0.399,0.7-0.75,1.399-1.1,2.149c-1.849,3.898-2.799,8.197-2.849,12.845c0,0.55,0,1.1,0.05,1.649c0.1,1.549,0.3,3.099,0.6,4.548
		c0.55,2.999,1.599,5.797,3.099,8.446c0.5,0.9,1.049,1.75,1.649,2.599l46.981,47.381l-0.05,0.05l27.089,27.239v-0.05
		c0,0,0,0,0.05,0.05c1.949,1.949,4.048,3.599,6.248,4.948c0.7,0.4,1.399,0.75,2.149,1.1c3.898,1.849,8.197,2.799,12.845,2.849
		c8.247,0,15.344-2.949,21.191-8.796s8.796-12.945,8.796-21.191c0-8.297-2.949-15.394-8.796-21.242c-0.05-0.05-0.05-0.05-0.05-0.05
		l-13.044-13.045l-36.436-36.485l53.279-53.229h0.05C323.628,149.09,325.277,143.243,325.277,136.795L325.277,136.795z"/>
	<path fill="#F07F00" d="M107.914,559.727c1.7-2.699,2.549-5.698,2.599-8.997c-0.05-4.248-1.549-7.896-4.548-10.896
		c-2.999-3.049-6.647-4.548-10.896-4.548c-3.349,0-6.347,0.85-8.996,2.599l-45.532,45.532h0.05h-0.05
		c-1.05,0.999-1.899,2.099-2.549,3.248c-0.2,0.351-0.4,0.7-0.55,1.1c-0.95,1.999-1.449,4.198-1.449,6.598c0,0.25,0,0.55,0,0.85
		c0.05,0.8,0.15,1.6,0.3,2.349c0.3,1.55,0.85,2.999,1.649,4.349c0.25,0.45,0.5,0.899,0.799,1.35h0.05l45.332,45.682v-0.05v0.05
		c1,1,2.1,1.85,3.249,2.549c0.35,0.2,0.7,0.4,1.1,0.55c1.999,0.95,4.198,1.449,6.597,1.449c4.249,0,7.847-1.499,10.896-4.498
		c2.999-3.049,4.499-6.647,4.548-10.896c-0.05-4.248-1.549-7.896-4.548-10.945l-0.05-0.05l-32.687-32.737L107.914,559.727
		L107.914,559.727z"/>
	<path fill="#3E4547" d="M15.401,535.236c-4.249,0-7.897,1.499-10.896,4.548c-2.349,2.349-3.849,5.048-4.498,8.196v90.114
		c-0.05,1.399,0.149,2.749,0.5,4.049c0.1,0.399,0.199,0.8,0.35,1.199c0.75,2.099,1.949,3.998,3.648,5.697
		c2.999,2.999,6.647,4.499,10.896,4.499c4.248,0,7.897-1.5,10.946-4.499c2.999-3.049,4.498-6.697,4.498-10.945V547.98
		c-0.65-3.148-2.149-5.848-4.498-8.196C23.298,536.735,19.649,535.236,15.401,535.236L15.401,535.236z"/>
	<path fill="#3E4547" d="M667.291,573.921c-2.35-6.748-5.848-12.745-10.446-18.093c-4.598-5.349-10.195-9.547-16.843-12.596
		c-6.697-3.099-14.345-4.697-22.941-4.748h-31.387c-3.549,0-6.548,1.149-9.097,3.399c-2.549,2.249-3.898,5.497-3.998,9.746v89.014
		c0.1,4.249,1.449,7.497,3.998,9.746s5.548,3.398,9.097,3.398h31.387c7.247,0,14.045-1.249,20.492-3.798s12.146-6.348,17.093-11.296
		c4.998-4.948,8.896-11.045,11.746-18.292c2.898-7.248,4.397-15.594,4.448-25.04C670.84,587.865,669.64,580.718,667.291,573.921
		L667.291,573.921z M629.806,566.873c4.248,2.699,7.497,6.498,9.646,11.396c2.149,4.849,3.249,10.546,3.249,17.094
		c0,6.747-1.1,12.645-3.249,17.792c-2.149,5.099-5.448,9.097-9.896,11.945c-4.448,2.899-10.046,4.349-16.843,4.398h-13.895v-66.723
		h14.994C620.21,562.825,625.558,564.225,629.806,566.873L629.806,566.873z"/>
	<path fill="#3E4547" d="M537.193,559.676c-1.45-4.298-3.049-8.246-4.799-11.845c-1.749-3.549-3.948-6.447-6.647-8.597
		c-2.698-2.149-6.247-3.299-10.695-3.349c-4.298,0.05-7.797,1.199-10.445,3.349c-2.649,2.149-4.849,5.048-6.548,8.597
		c-1.749,3.599-3.349,7.547-4.798,11.845l-25.34,68.173c-1.1,2.999-1.949,5.498-2.499,7.447c-0.55,1.899-0.899,3.549-1.1,4.898
		c-0.15,1.299-0.25,2.599-0.25,3.848c0.05,3.249,1.199,5.848,3.549,7.747c2.249,1.899,5.298,2.899,9.096,2.949
		c4.148-0.1,7.197-1.3,9.146-3.648c1.949-2.35,3.499-5.398,4.599-9.146l3.248-10.396h43.033l3.249,10.396
		c1.1,3.748,2.599,6.797,4.548,9.146c1.949,2.349,5.048,3.549,9.196,3.648c3.799-0.05,6.848-1.05,9.097-2.949
		c2.299-1.898,3.498-4.498,3.548-7.747c0-1.249-0.1-2.549-0.249-3.848c-0.2-1.35-0.55-2.999-1.1-4.898
		c-0.55-1.949-1.399-4.448-2.55-7.447L537.193,559.676L537.193,559.676z M515.552,565.074h0.3l13.145,42.232h-27.539
		L515.552,565.074L515.552,565.074z"/>
	<path fill="#3E4547" d="M458.524,541.833c-2.249-2.148-5.498-3.299-9.646-3.349h-40.184c-3.549,0-6.547,1.149-9.097,3.398
		c-2.549,2.25-3.898,5.498-3.998,9.746v89.015c0.1,4.249,1.449,7.497,3.998,9.746c2.55,2.249,5.548,3.398,9.097,3.398h41.134
		c4.148-0.05,7.396-1.149,9.646-3.298c2.3-2.149,3.449-5.148,3.449-8.896c0-3.799-1.149-6.748-3.449-8.847
		c-2.249-2.1-5.497-3.199-9.646-3.249h-27.989v-21.591h24.74c4.148-0.051,7.397-1.1,9.646-3.199
		c2.349-2.149,3.498-5.147,3.498-8.946c0-3.748-1.149-6.697-3.498-8.847c-2.249-2.148-5.498-3.198-9.646-3.248h-24.74v-20.892
		h27.039c4.148-0.051,7.397-1.1,9.646-3.249c2.249-2.1,3.398-5.098,3.448-8.946C461.923,546.932,460.773,543.982,458.524,541.833
		L458.524,541.833z"/>
	<path fill="#3E4547" d="M381.056,555.428c-3.148-5.348-7.598-9.446-13.345-12.395c-5.748-2.949-12.595-4.499-20.442-4.549h-31.538
		c-3.548,0-6.547,1.149-9.096,3.398c-2.549,2.25-3.898,5.498-3.999,9.746v89.215c0.05,4.548,1.25,8.047,3.699,10.396
		c2.349,2.35,5.498,3.499,9.396,3.499s7.047-1.149,9.396-3.499c2.449-2.349,3.698-5.848,3.749-10.396v-33.236h0.3l32.287,40.634
		c1.45,2.049,3.049,3.648,4.799,4.748c1.799,1.149,4.348,1.749,7.597,1.749c3.349-0.101,5.998-0.85,7.997-2.299
		c1.949-1.45,3.349-3.149,4.198-5.049c0.899-1.898,1.299-3.498,1.249-4.848c0-2.099-0.5-4.049-1.449-5.848
		c-0.85-1.749-2.199-3.549-3.998-5.447l-22.841-24.591c8.347-1.649,14.844-5.298,19.592-10.995
		c4.748-5.648,7.147-12.745,7.247-21.342C385.804,567.073,384.204,560.775,381.056,555.428L381.056,555.428z M355.666,566.124
		c2.549,2.148,3.848,5.197,3.948,9.146c0,3.699-1.149,6.748-3.449,9.196c-2.349,2.35-5.647,3.599-9.996,3.699h-17.293v-25.39h17.293
		C350.018,562.825,353.217,563.975,355.666,566.124L355.666,566.124z"/>
	<path fill="#3E4547" d="M294.49,577.719c-0.1-8.696-2-15.943-5.748-21.741c-3.698-5.848-8.546-10.246-14.494-13.145
		c-5.947-2.899-12.395-4.349-19.292-4.349h-32.188c-3.548,0-6.547,1.149-9.096,3.398c-2.549,2.25-3.898,5.498-3.999,9.746v89.215
		c0.05,4.548,1.25,8.047,3.699,10.396c2.349,2.35,5.498,3.499,9.396,3.499c3.899,0,7.047-1.149,9.396-3.499
		c2.449-2.349,3.699-5.848,3.749-10.396v-24.141h19.892c8.347-0.05,15.394-1.799,21.142-5.147
		c5.748-3.299,10.096-7.897,13.044-13.745C292.99,591.963,294.49,585.266,294.49,577.719L294.49,577.719z M262.552,565.874
		c3.099,2.648,4.698,6.597,4.748,11.845c0,2.749-0.649,5.248-1.999,7.598c-1.35,2.349-3.299,4.298-5.848,5.747
		c-2.549,1.5-5.748,2.249-9.496,2.299h-14.044v-31.537h14.044C255.255,561.825,259.454,563.175,262.552,565.874L262.552,565.874z"/>
	<path fill="#3E4547" d="M193.28,553.229c-0.05-5.147-2.849-9.296-8.447-12.444c-5.598-3.149-13.694-4.799-24.29-4.898
		c-7.347,0-14.194,1.3-20.442,3.948c-6.248,2.699-11.295,6.798-15.144,12.295c-3.749,5.398-5.698,12.295-5.848,20.692
		c0.15,6.847,1.549,12.295,4.198,16.343c2.649,4.049,6.047,7.147,10.296,9.347c4.148,2.249,8.546,4.048,13.195,5.397
		c4.998,1.55,9.396,2.949,13.145,4.198c3.749,1.25,6.647,2.749,8.697,4.398c2.049,1.699,3.099,3.948,3.148,6.798
		c0.05,2.898-1,5.397-3.148,7.547c-2.149,2.099-5.798,3.198-10.846,3.299c-4.448-0.051-8.397-0.65-11.845-1.75
		c-3.499-1.049-6.598-2.099-9.247-3.148c-2.699-1.05-5.098-1.649-7.197-1.749c-2.649,0.05-4.898,0.749-6.748,2.049
		c-1.849,1.35-3.199,3.049-4.098,5.148c-0.95,2.049-1.45,4.298-1.5,6.747c0.1,3.248,1.399,6.098,3.948,8.446
		c2.449,2.35,5.698,4.349,9.646,5.897c3.948,1.55,8.146,2.649,12.545,3.399c4.448,0.799,8.646,1.199,12.595,1.199
		c8.247,0,15.644-1.35,22.291-4.099c6.598-2.749,11.845-6.947,15.744-12.645c3.898-5.698,5.898-12.995,5.998-21.842
		c-0.1-7.247-1.449-13.045-4.098-17.442c-2.649-4.398-6.047-7.848-10.296-10.396c-4.198-2.549-8.747-4.548-13.595-5.997
		c-5.998-1.949-10.795-3.499-14.444-4.648c-3.649-1.25-6.298-2.499-7.847-3.748c-1.649-1.2-2.399-2.899-2.349-5.049
		c0.05-2.898,1.15-5.197,3.299-6.896c2.149-1.649,5.048-2.449,8.697-2.499c3.648,0.05,6.597,0.399,8.946,1.1
		c2.249,0.749,4.398,1.449,6.397,2.148c1.949,0.65,4.298,1.05,7.047,1.1c3.549-0.05,6.298-1.249,8.347-3.498
		C192.181,559.776,193.23,556.877,193.28,553.229L193.28,553.229z"/>
</g>
</svg>
