<?xml version="1.0" encoding="UTF-8" standalone="no"?>
<!-- Generator: Adobe Illustrator 12.0.0, SVG Export Plug-In . SVG Version: 6.00 Build 51448)  -->
<svg
   xmlns:dc="http://purl.org/dc/elements/1.1/"
   xmlns:cc="http://creativecommons.org/ns#"
   xmlns:rdf="http://www.w3.org/1999/02/22-rdf-syntax-ns#"
   xmlns:svg="http://www.w3.org/2000/svg"
   xmlns="http://www.w3.org/2000/svg"
   xmlns:xlink="http://www.w3.org/1999/xlink"
   xmlns:sodipodi="http://sodipodi.sourceforge.net/DTD/sodipodi-0.dtd"
   xmlns:inkscape="http://www.inkscape.org/namespaces/inkscape"
   version="1.1"
   id="Layer_1"
   width="531.199"
   height="656.388"
   viewBox="0 0 531.199 656.388"
   overflow="visible"
   enable-background="new 0 0 531.199 656.388"
   xml:space="preserve"
   sodipodi:version="0.32"
   inkscape:version="0.46"
   sodipodi:docname="kugar.svg"
   inkscape:output_extension="org.inkscape.output.svg.inkscape"><metadata
   id="metadata28"><rdf:RDF><cc:Work
       rdf:about=""><dc:format>image/svg+xml</dc:format><dc:type
         rdf:resource="http://purl.org/dc/dcmitype/StillImage" /></cc:Work></rdf:RDF></metadata><defs
   id="defs26"><inkscape:perspective
   sodipodi:type="inkscape:persp3d"
   inkscape:vp_x="0 : 328.194 : 1"
   inkscape:vp_y="0 : 1000 : 0"
   inkscape:vp_z="531.19897 : 328.194 : 1"
   inkscape:persp3d-origin="265.59949 : 218.796 : 1"
   id="perspective30" /><inkscape:perspective
   sodipodi:type="inkscape:persp3d"
   inkscape:vp_x="0 : 526.18109 : 1"
   inkscape:vp_y="0 : 1000 : 0"
   inkscape:vp_z="744.09448 : 526.18109 : 1"
   inkscape:persp3d-origin="372.04724 : 350.78739 : 1"
   id="perspective2809" /><linearGradient
   gradientUnits="userSpaceOnUse"
   y2="535.23602"
   x2="326.69196"
   y1="656.38806"
   x1="326.69196"
   id="linearGradient2716"
   xlink:href="#linearGradient3353"
   inkscape:collect="always" />
	
	
	
	
	
	
	
	
	
	
<linearGradient
   gradientTransform="translate(-449.08664,8.5763482)"
   y2="125.0482"
   x2="317.72427"
   y1="353.60373"
   x1="317.72427"
   gradientUnits="userSpaceOnUse"
   id="linearGradient2655"
   xlink:href="#linearGradient3314"
   inkscape:collect="always" /><linearGradient
   gradientTransform="translate(-609.66225,-11.143464)"
   y2="421.22168"
   x2="294.96109"
   y1="-0.0057355352"
   x1="294.96109"
   gradientUnits="userSpaceOnUse"
   id="linearGradient2652"
   xlink:href="#linearGradient3292"
   inkscape:collect="always" /><linearGradient
   gradientTransform="translate(-609.66225,-11.143464)"
   y2="535.18597"
   x2="68.389832"
   y1="653.48999"
   x1="68.389832"
   gradientUnits="userSpaceOnUse"
   id="linearGradient2649"
   xlink:href="#linearGradient3367"
   inkscape:collect="always" /><linearGradient
   y2="534.97424"
   x2="232.97664"
   y1="656.388"
   x1="232.97664"
   gradientUnits="userSpaceOnUse"
   id="linearGradient2633"
   xlink:href="#linearGradient3353"
   inkscape:collect="always" /><linearGradient
   y2="534.97424"
   x2="232.97664"
   y1="656.388"
   x1="232.97664"
   gradientUnits="userSpaceOnUse"
   id="linearGradient2631"
   xlink:href="#linearGradient3353"
   inkscape:collect="always" /><linearGradient
   y2="534.97424"
   x2="232.97664"
   y1="656.388"
   x1="232.97664"
   gradientUnits="userSpaceOnUse"
   id="linearGradient2629"
   xlink:href="#linearGradient3353"
   inkscape:collect="always" /><linearGradient
   y2="534.97424"
   x2="232.97664"
   y1="656.388"
   x1="232.97664"
   gradientUnits="userSpaceOnUse"
   id="linearGradient2627"
   xlink:href="#linearGradient3353"
   inkscape:collect="always" /><linearGradient
   y2="534.97424"
   x2="232.97664"
   y1="656.388"
   x1="232.97664"
   gradientUnits="userSpaceOnUse"
   id="linearGradient2625"
   xlink:href="#linearGradient3353"
   inkscape:collect="always" /><linearGradient
   y2="534.97424"
   x2="232.97664"
   y1="656.388"
   x1="232.97664"
   gradientUnits="userSpaceOnUse"
   id="linearGradient2623"
   xlink:href="#linearGradient3353"
   inkscape:collect="always" /><linearGradient
   y2="534.97424"
   x2="232.97664"
   y1="656.388"
   x1="232.97664"
   gradientUnits="userSpaceOnUse"
   id="linearGradient2621"
   xlink:href="#linearGradient3353"
   inkscape:collect="always" /><linearGradient
   id="linearGradient3367"><stop
     id="stop3369"
     offset="0"
     style="stop-color:#93c000;stop-opacity:1" /><stop
     style="stop-color:#93c000;stop-opacity:1"
     offset="0.5"
     id="stop3371" /><stop
     style="stop-color:#9dc617;stop-opacity:1"
     offset="0.50999999"
     id="stop3373" /><stop
     id="stop3375"
     offset="1"
     style="stop-color:#bed868;stop-opacity:1" /></linearGradient><linearGradient
   id="linearGradient3353"><stop
     style="stop-color:#20292b;stop-opacity:1"
     offset="0"
     id="stop3355" /><stop
     id="stop3363"
     offset="0.5"
     style="stop-color:#20292b;stop-opacity:1" /><stop
     id="stop3361"
     offset="0.50999999"
     style="stop-color:#31393b;stop-opacity:1" /><stop
     style="stop-color:#787d7f;stop-opacity:1"
     offset="1"
     id="stop3357" /></linearGradient><linearGradient
   id="linearGradient3314"><stop
     style="stop-color:#98c30f;stop-opacity:1"
     offset="0"
     id="stop3316" /><stop
     style="stop-color:#b2d24a;stop-opacity:1"
     offset="1"
     id="stop3318" /></linearGradient><linearGradient
   id="linearGradient3292"><stop
     style="stop-color:#8f9495;stop-opacity:1"
     offset="0"
     id="stop3294" /><stop
     style="stop-color:#222b2d;stop-opacity:1"
     offset="1"
     id="stop3296" /></linearGradient><inkscape:perspective
   sodipodi:type="inkscape:persp3d"
   inkscape:vp_x="0 : 328.194 : 1"
   inkscape:vp_y="0 : 1000 : 0"
   inkscape:vp_z="585.47302 : 328.194 : 1"
   inkscape:persp3d-origin="292.73651 : 218.796 : 1"
   id="perspective32" /><inkscape:perspective
   id="perspective2469"
   inkscape:persp3d-origin="372.04724 : 350.78739 : 1"
   inkscape:vp_z="744.09448 : 526.18109 : 1"
   inkscape:vp_y="0 : 1000 : 0"
   inkscape:vp_x="0 : 526.18109 : 1"
   sodipodi:type="inkscape:persp3d" />
	
	
	
	
	
	
	
	
	
	
	
<linearGradient
   inkscape:collect="always"
   xlink:href="#linearGradient3353"
   id="linearGradient3359"
   x1="232.97664"
   y1="656.388"
   x2="232.97664"
   y2="534.97424"
   gradientUnits="userSpaceOnUse" /><inkscape:perspective
   id="perspective2826"
   inkscape:persp3d-origin="297.15948 : 218.796 : 1"
   inkscape:vp_z="594.31897 : 328.194 : 1"
   inkscape:vp_y="0 : 1000 : 0"
   inkscape:vp_x="0 : 328.194 : 1"
   sodipodi:type="inkscape:persp3d" /><linearGradient
   inkscape:collect="always"
   xlink:href="#linearGradient3367"
   id="linearGradient2913"
   gradientUnits="userSpaceOnUse"
   x1="73.253502"
   y1="653.49103"
   x2="73.253502"
   y2="535.28601"
   gradientTransform="translate(0,-2.0440258e-6)" /><linearGradient
   inkscape:collect="always"
   xlink:href="#linearGradient3314"
   id="linearGradient2916"
   gradientUnits="userSpaceOnUse"
   x1="275.69672"
   y1="352.81232"
   x2="275.69672"
   y2="172.78099"
   gradientTransform="translate(-584.90577,-70.367372)" />
	
	
	
	
	
	
	
	
	
	
<linearGradient
   inkscape:collect="always"
   xlink:href="#linearGradient3353"
   id="linearGradient2938"
   x1="224.18826"
   y1="656.38898"
   x2="224.18826"
   y2="535.22626"
   gradientUnits="userSpaceOnUse" /><linearGradient
   inkscape:collect="always"
   xlink:href="#linearGradient3292"
   id="linearGradient2944"
   gradientUnits="userSpaceOnUse"
   gradientTransform="translate(-580.50778,-70.367376)"
   x1="292.75"
   y1="-2.8303274e-14"
   x2="292.75"
   y2="420.03125" /><linearGradient
   inkscape:collect="always"
   xlink:href="#linearGradient3292"
   id="linearGradient2946"
   gradientUnits="userSpaceOnUse"
   gradientTransform="translate(-580.50777,-70.367376)"
   x1="292.75"
   y1="7.1270186e-08"
   x2="292.75"
   y2="420.03125" /><linearGradient
   inkscape:collect="always"
   xlink:href="#linearGradient3292"
   id="linearGradient2952"
   x1="264.35199"
   y1="1.6319139"
   x2="264.35199"
   y2="421.11932"
   gradientUnits="userSpaceOnUse" /><linearGradient
   inkscape:collect="always"
   xlink:href="#linearGradient3314"
   id="linearGradient3174"
   x1="264.72601"
   y1="246.34834"
   x2="264.72601"
   y2="100.46"
   gradientUnits="userSpaceOnUse" /></defs><sodipodi:namedview
   inkscape:window-height="828"
   inkscape:window-width="1440"
   inkscape:pageshadow="2"
   inkscape:pageopacity="0.0"
   guidetolerance="10.0"
   gridtolerance="10.0"
   objecttolerance="10.0"
   borderopacity="1.0"
   bordercolor="#666666"
   pagecolor="#ffffff"
   id="base"
   showgrid="false"
   inkscape:zoom="0.86534184"
   inkscape:cx="127.50377"
   inkscape:cy="333.00713"
   inkscape:window-x="0"
   inkscape:window-y="0"
   inkscape:current-layer="Layer_1" />
<path
   style="fill:url(#linearGradient3174);fill-opacity:1"
   id="path7"
   d="M 374.607,197.871 L 374.607,197.821 L 286.143,109.357 L 286.092,109.357 C 286.092,109.357 286.092,109.357 286.042,109.307 C 284.093,107.358 282.044,105.709 279.795,104.409 C 279.095,104.009 278.396,103.659 277.646,103.309 C 273.748,101.46 269.45,100.51 264.801,100.46 C 264.251,100.46 263.701,100.46 263.152,100.51 C 261.603,100.56 260.053,100.76 258.604,101.06 C 255.555,101.66 252.756,102.709 250.157,104.209 C 249.257,104.659 248.407,105.209 247.558,105.858 L 247.558,105.908 L 158.744,194.023 L 158.794,194.023 C 158.744,194.023 158.744,194.023 158.744,194.073 C 156.745,196.022 155.096,198.072 153.796,200.321 C 153.346,201.021 152.996,201.72 152.696,202.47 C 150.797,206.368 149.847,210.667 149.797,215.315 C 149.847,223.562 152.796,230.609 158.693,236.457 C 164.541,242.305 171.588,245.253 179.835,245.303 C 188.131,245.253 195.229,242.304 201.076,236.457 C 201.126,236.407 201.126,236.407 201.176,236.407 L 264.801,172.833 L 332.174,240.256 C 337.372,243.605 343.22,245.254 349.667,245.304 C 357.914,245.254 365.011,242.355 370.858,236.508 C 376.705,230.661 379.655,223.563 379.655,215.317 C 379.605,208.867 377.956,203.019 374.607,197.871 L 374.607,197.871 z" /><g
   id="g2948"
   style="fill:url(#linearGradient2952)"><path
     d="M 373.108,296.132 L 361.113,284.136 L 334.124,257.147 C 333.574,256.797 333.024,256.497 332.475,256.147 C 327.727,253.448 322.429,252.099 316.631,252.099 C 308.334,252.099 301.287,255.048 295.44,260.895 C 289.593,266.742 286.643,273.79 286.643,282.087 C 286.643,288.534 288.343,294.382 291.742,299.58 L 330.726,338.564 C 330.726,338.564 330.726,338.564 330.776,338.614 C 332.725,340.563 334.774,342.163 337.023,343.512 C 337.723,343.911 338.422,344.262 339.172,344.612 C 343.07,346.462 347.369,347.411 352.017,347.461 C 360.264,347.461 367.361,344.513 373.208,338.665 C 379.055,332.817 382.005,325.72 382.005,317.473 C 381.955,309.176 379.006,302.079 373.158,296.231 C 373.108,296.182 373.108,296.182 373.108,296.132 L 373.108,296.132 z"
     id="path9"
     style="fill:url(#linearGradient2952)" /><path
     d="M 178.736,273.041 L 178.736,272.991 L 151.747,299.98 C 151.397,300.53 151.097,301.08 150.747,301.629 C 148.048,306.377 146.699,311.675 146.699,317.473 C 146.699,325.769 149.648,332.867 155.495,338.715 C 161.342,344.563 168.39,347.461 176.686,347.461 C 183.133,347.461 188.981,345.762 194.179,342.363 L 194.179,342.413 L 233.163,303.429 C 233.163,303.379 233.163,303.379 233.213,303.379 C 235.162,301.43 236.762,299.331 238.111,297.081 C 238.511,296.381 238.861,295.682 239.211,294.982 C 241.061,291.034 242.01,286.735 242.06,282.087 C 242.06,273.84 239.111,266.743 233.264,260.895 C 227.417,255.047 220.319,252.099 212.072,252.099 C 203.776,252.149 196.678,255.098 190.831,260.946 C 190.781,260.996 190.781,260.996 190.731,260.996 L 178.736,273.041 L 178.736,273.041 z"
     id="path11"
     style="fill:url(#linearGradient2952)" /></g><g
   id="g2931"
   style="fill:url(#linearGradient2938)"><path
     d="M 15.401,535.236 C 11.153,535.236 7.505,536.735 4.505,539.784 C 2.156,542.133 0.656,544.832 0.007,547.98 L 0.007,638.094 C -0.043,639.493 0.157,640.843 0.507,642.143 C 0.607,642.542 0.707,642.943 0.857,643.342 C 1.607,645.441 2.806,647.34 4.505,649.039 C 7.504,652.038 11.152,653.538 15.401,653.538 C 19.65,653.538 23.298,652.038 26.347,649.039 C 29.346,645.99 30.845,642.342 30.845,638.094 L 30.845,547.98 C 30.196,544.832 28.696,542.132 26.347,539.784 C 23.298,536.735 19.65,535.236 15.401,535.236 L 15.401,535.236 z"
     id="path15"
     style="fill:url(#linearGradient2938)" /><path
     d="M 511.603,543.033 C 505.856,540.084 499.008,538.534 491.162,538.484 L 459.625,538.484 C 456.076,538.484 453.077,539.633 450.528,541.882 C 447.979,544.132 446.63,547.38 446.53,551.628 L 446.53,640.843 C 446.58,645.391 447.779,648.89 450.228,651.239 C 452.578,653.589 455.726,654.738 459.624,654.738 C 463.522,654.738 466.671,653.589 469.02,651.239 C 471.468,648.89 472.718,645.391 472.768,640.843 L 472.768,607.607 L 473.068,607.607 L 505.355,648.241 C 506.804,650.29 508.404,651.889 510.153,652.989 C 511.953,654.138 514.502,654.738 517.751,654.738 C 521.1,654.637 523.748,653.888 525.747,652.439 C 527.696,650.989 529.096,649.29 529.945,647.39 C 530.845,645.492 531.245,643.892 531.195,642.542 C 531.195,640.443 530.695,638.493 529.746,636.694 C 528.896,634.945 527.547,633.145 525.747,631.247 L 502.906,606.656 C 511.253,605.007 517.751,601.358 522.499,595.661 C 527.247,590.013 529.645,582.916 529.746,574.319 C 529.696,567.072 528.097,560.774 524.948,555.426 C 521.799,550.08 517.351,545.981 511.603,543.033 L 511.603,543.033 z M 499.558,566.124 C 502.107,568.272 503.407,571.321 503.506,575.27 C 503.506,578.969 502.357,582.018 500.058,584.466 C 497.709,586.816 494.411,588.065 490.062,588.165 L 472.769,588.165 L 472.769,562.775 L 490.062,562.775 C 493.91,562.825 497.108,563.975 499.558,566.124 L 499.558,566.124 z"
     id="path17"
     style="fill:url(#linearGradient2938)" /><path
     d="M 411.144,559.676 C 409.694,555.378 408.095,551.43 406.345,547.831 C 404.596,544.282 402.397,541.384 399.699,539.234 C 397,537.085 393.451,535.935 389.003,535.885 C 384.705,535.935 381.206,537.084 378.558,539.234 C 375.909,541.383 373.709,544.282 372.01,547.831 C 370.261,551.43 368.661,555.378 367.212,559.676 L 341.872,627.849 C 340.772,630.848 339.923,633.347 339.373,635.296 C 338.823,637.195 338.474,638.845 338.273,640.194 C 338.123,641.493 338.023,642.793 338.023,644.042 C 338.073,647.291 339.222,649.89 341.572,651.789 C 343.821,653.688 346.87,654.688 350.668,654.738 C 354.816,654.638 357.865,653.438 359.814,651.09 C 361.763,648.74 363.313,645.692 364.413,641.944 L 367.661,631.548 L 410.694,631.548 L 413.943,641.944 C 415.043,645.692 416.542,648.741 418.491,651.09 C 420.44,653.439 423.539,654.639 427.687,654.738 C 431.486,654.688 434.535,653.688 436.784,651.789 C 439.083,649.891 440.282,647.291 440.332,644.042 C 440.332,642.793 440.232,641.493 440.083,640.194 C 439.883,638.844 439.533,637.195 438.983,635.296 C 438.433,633.347 437.584,630.848 436.433,627.849 L 411.144,559.676 L 411.144,559.676 z M 389.502,565.074 L 389.802,565.074 L 402.947,607.306 L 375.408,607.306 L 389.502,565.074 L 389.502,565.074 z"
     id="path19"
     style="fill:url(#linearGradient2938)" /><path
     d="M 333.774,601.51 C 333.774,596.062 332.574,592.064 330.225,589.414 C 327.876,586.766 324.427,585.466 319.879,585.466 L 291.54,585.466 C 287.392,585.516 284.143,586.615 281.844,588.715 C 279.595,590.814 278.446,593.763 278.446,597.561 C 278.446,601.31 279.595,604.259 281.844,606.408 C 284.143,608.557 287.392,609.707 291.54,609.757 L 306.584,609.757 C 305.834,616.555 303.335,621.952 298.987,625.95 C 294.638,629.949 288.941,631.998 281.994,632.148 C 275.196,631.998 269.648,630.199 265.301,626.75 C 261.052,623.302 257.854,618.854 255.804,613.405 C 253.805,607.958 252.805,602.21 252.805,596.162 C 252.805,589.415 254.004,583.317 256.453,577.87 C 258.802,572.522 262.201,568.224 266.649,564.974 C 271.097,561.826 276.344,560.226 282.442,560.176 C 286.84,560.226 290.539,560.826 293.538,562.075 C 296.537,563.224 299.136,564.624 301.385,566.174 C 303.584,567.774 305.684,569.122 307.683,570.272 C 309.682,571.522 311.831,572.122 314.18,572.171 C 317.879,572.121 320.778,571.122 322.877,569.122 C 324.926,567.123 325.976,564.475 326.025,561.126 C 325.925,557.077 324.626,553.479 322.077,550.38 C 319.528,547.232 316.079,544.632 311.781,542.484 C 307.532,540.335 302.734,538.685 297.486,537.536 C 292.239,536.436 286.84,535.887 281.293,535.887 C 270.348,535.987 260.651,538.586 252.205,543.734 C 243.708,548.882 237.011,555.979 232.113,564.975 C 227.265,574.022 224.766,584.417 224.666,596.163 C 224.716,607.308 226.965,617.404 231.313,626.45 C 235.662,635.497 242.059,642.744 250.505,648.092 C 258.952,653.44 269.198,656.238 281.293,656.389 C 292.039,656.288 301.335,653.84 309.182,649.041 C 316.979,644.243 323.027,637.746 327.326,629.499 C 331.575,621.252 333.725,611.905 333.774,601.51 L 333.774,601.51 z"
     id="path21"
     style="fill:url(#linearGradient2938)" /><path
     d="M 212.023,541.033 C 209.674,538.684 206.525,537.535 202.627,537.535 C 198.729,537.535 195.58,538.684 193.231,541.033 C 190.782,543.383 189.583,546.881 189.532,551.479 L 189.532,607.556 C 189.482,612.655 188.383,616.952 186.283,620.501 C 184.134,624.05 181.235,626.698 177.637,628.498 C 174.088,630.297 170.09,631.196 165.692,631.196 C 161.394,631.196 157.445,630.297 153.847,628.498 C 150.298,626.698 147.499,624.05 145.4,620.501 C 143.301,616.952 142.201,612.654 142.151,607.556 L 142.151,551.479 C 142.101,546.88 140.852,543.382 138.452,541.033 C 136.053,538.684 132.904,537.535 129.006,537.535 C 125.108,537.535 121.959,538.684 119.61,541.033 C 117.161,543.383 115.962,546.881 115.911,551.479 L 115.911,607.556 C 116.011,617.702 118.161,626.449 122.359,633.696 C 126.607,640.943 132.405,646.541 139.852,650.49 C 147.349,654.388 155.946,656.338 165.692,656.387 C 175.538,656.337 184.185,654.388 191.631,650.49 C 199.128,646.541 205.026,640.943 209.274,633.696 C 213.523,626.449 215.671,617.703 215.772,607.556 L 215.772,551.479 C 215.721,546.881 214.472,543.383 212.023,541.033 L 212.023,541.033 z"
     id="path23"
     style="fill:url(#linearGradient2938)" /></g>
<path
   id="path2870"
   d="M 107.914,559.727 C 109.614,557.028 110.463,554.029 110.513,550.73 C 110.463,546.482 108.964,542.834 105.965,539.834 C 102.966,536.785 99.318,535.286 95.069,535.286 C 91.72,535.286 88.722,536.136 86.073,537.885 L 40.541,583.417 L 40.591,583.417 L 40.541,583.417 C 39.492,584.416 38.642,585.516 37.992,586.665 C 37.792,587.016 37.592,587.365 37.442,587.765 C 36.492,589.764 35.993,591.963 35.993,594.363 C 35.993,594.613 35.993,594.913 35.993,595.213 C 36.043,596.013 36.143,596.813 36.293,597.562 C 36.593,599.112 37.143,600.561 37.942,601.911 C 38.192,602.361 38.442,602.81 38.742,603.261 L 38.792,603.261 L 84.124,648.943 L 84.124,648.893 L 84.124,648.943 C 85.124,649.943 86.223,650.793 87.373,651.492 C 87.723,651.692 88.073,651.892 88.473,652.042 C 90.472,652.992 92.671,653.491 95.07,653.491 C 99.319,653.491 102.917,651.992 105.966,648.993 C 108.965,645.944 110.465,642.346 110.514,638.097 C 110.464,633.849 108.965,630.201 105.966,627.152 L 105.916,627.102 L 73.229,594.365 L 107.914,559.727 L 107.914,559.727 z"
   style="fill:url(#linearGradient2913)" /><g
   id="g2940"
   transform="translate(553.36877,70.36737)"><path
     d="M -47.86277,169.58663 C -47.86277,103.31363 -71.30377,46.735628 -118.13477,-0.095376 C -164.96577,-46.926376 -221.54377,-70.367376 -287.76677,-70.367376 C -354.04077,-70.367376 -410.61777,-46.926376 -457.44877,-0.095376 C -504.28077,46.735628 -527.67077,103.31363 -527.67077,169.58663 C -527.67077,235.81063 -504.27977,292.38763 -457.44877,339.21863 C -410.61777,386.05063 -354.03977,409.49063 -287.76677,409.54063 C -221.54377,409.49063 -164.96677,386.04963 -118.13577,339.21863 C -71.30477,292.38763 -47.86277,235.81063 -47.86277,169.58663 L -47.86277,169.58663 z M -287.76677,-10.391376 C -238.13777,-10.391376 -195.70377,7.151624 -160.56777,42.287628 C -125.43177,77.423628 -107.83877,119.85663 -107.83877,169.53663 C -107.83877,219.21663 -125.43177,261.64963 -160.56777,296.78563 C -195.70377,331.92163 -238.13677,349.51463 -287.76677,349.51463 C -337.44677,349.51463 -379.87977,331.92163 -415.01577,296.78563 C -450.15177,261.64963 -467.74477,219.21663 -467.69477,169.53663 C -467.74477,119.85663 -450.15177,77.423628 -415.01577,42.287628 C -379.88077,7.151624 -337.44677,-10.391376 -287.76677,-10.391376 L -287.76677,-10.391376 z"
     id="path2598"
     style="fill:#222b2d;fill-opacity:1" /><path
     id="path2506"
     d="M -287.75778,-70.367376 C -300.18415,-70.367376 -312.26355,-69.546485 -324.00778,-67.898626 C -324.35107,-67.838502 -324.69632,-67.804176 -325.03903,-67.742376 C -423.00352,-50.076904 -497.41403,35.935158 -497.41403,139.28888 C -497.41403,255.40896 -403.48908,349.66388 -287.75778,349.66388 C -172.02647,349.66388 -78.10154,255.40896 -78.10153,139.28888 C -78.10153,35.980288 -152.45038,-49.993705 -250.35153,-67.711126 C -250.45665,-67.726414 -250.55885,-67.758471 -250.66403,-67.773626 C -262.67704,-69.504592 -275.03167,-70.367376 -287.75778,-70.367376 z M -287.75778,-10.398626 C -238.12877,-10.398628 -195.70628,7.152874 -160.57028,42.288878 C -125.43427,77.424878 -107.85153,119.85888 -107.85153,169.53888 C -107.85152,219.21887 -125.43428,261.65288 -160.57028,296.78888 C -195.70627,331.92487 -238.12778,349.50763 -287.75778,349.50763 C -337.43777,349.50764 -379.87178,331.92488 -415.00778,296.78888 C -450.14377,261.65287 -467.74528,219.21888 -467.69528,169.53888 C -467.74528,119.85887 -450.14378,77.424878 -415.00778,42.288878 C -379.87277,7.152875 -337.43778,-10.398626 -287.75778,-10.398626 z"
     style="fill:url(#linearGradient2944);fill-opacity:1;stroke:url(#linearGradient2946);stroke-width:0.5;stroke-miterlimit:4;stroke-dasharray:none;stroke-dashoffset:0;stroke-opacity:1" /></g></svg>