<?xml version="1.0" encoding="utf-8"?>
<!-- Generator: Adobe Illustrator 12.0.0, SVG Export Plug-In . SVG Version: 6.00 Build 51448)  -->
<!DOCTYPE svg PUBLIC "-//W3C//DTD SVG 1.1//EN" "http://www.w3.org/Graphics/SVG/1.1/DTD/svg11.dtd" [
	<!ENTITY ns_svg "http://www.w3.org/2000/svg">
	<!ENTITY ns_xlink "http://www.w3.org/1999/xlink">
]>
<svg  version="1.1" id="Layer_1" xmlns="&ns_svg;" xmlns:xlink="&ns_xlink;" width="531.199" height="656.388"
	 viewBox="0 0 531.199 656.388" overflow="visible" enable-background="new 0 0 531.199 656.388" xml:space="preserve">
<g>
	<path fill="#3E4547" d="M505.506,239.954c0-66.273-23.441-122.851-70.272-169.682S331.825,0,265.602,0
		C199.328,0,142.75,23.441,95.919,70.272c-46.832,46.831-70.222,103.409-70.222,169.682c0,66.224,23.391,122.801,70.222,169.632
		c46.831,46.832,103.409,70.272,169.682,70.322c66.224-0.05,122.801-23.491,169.632-70.322S505.506,306.178,505.506,239.954
		L505.506,239.954z M445.529,239.904c0,49.68-17.593,92.113-52.729,127.249s-77.569,52.729-127.199,52.729
		c-49.68,0-92.113-17.593-127.249-52.729c-35.136-35.136-52.729-77.569-52.679-127.249c-0.05-49.68,17.543-92.113,52.679-127.249
		c35.136-35.136,77.569-52.679,127.249-52.679c49.63,0,92.063,17.543,127.199,52.679
		C427.937,147.791,445.529,190.224,445.529,239.904L445.529,239.904z"/>
	<path fill="#9ABE00" d="M374.607,197.871v-0.05l-88.464-88.464h-0.051c0,0,0,0-0.05-0.05c-1.949-1.949-3.998-3.598-6.247-4.898
		c-0.7-0.4-1.399-0.75-2.149-1.1c-3.898-1.849-8.196-2.799-12.845-2.849c-0.55,0-1.1,0-1.649,0.05
		c-1.549,0.05-3.099,0.25-4.548,0.55c-3.049,0.6-5.848,1.649-8.447,3.149c-0.9,0.45-1.75,1-2.599,1.649v0.05l-88.814,88.115h0.05
		c-0.05,0-0.05,0-0.05,0.05c-1.999,1.949-3.648,3.999-4.948,6.248c-0.45,0.7-0.8,1.399-1.1,2.149
		c-1.899,3.898-2.849,8.197-2.899,12.845c0.05,8.247,2.999,15.294,8.896,21.142c5.848,5.848,12.895,8.796,21.142,8.846
		c8.296-0.05,15.394-2.999,21.241-8.846c0.05-0.05,0.05-0.05,0.1-0.05l63.625-63.574l67.373,67.423
		c5.198,3.349,11.046,4.998,17.493,5.048c8.247-0.05,15.344-2.949,21.191-8.796s8.797-12.945,8.797-21.191
		C379.605,208.867,377.956,203.019,374.607,197.871L374.607,197.871z"/>
	<path fill="#3E4547" d="M373.108,296.132l-11.995-11.996l-26.989-26.989c-0.55-0.35-1.1-0.65-1.649-1
		c-4.748-2.699-10.046-4.048-15.844-4.048c-8.297,0-15.344,2.949-21.191,8.796s-8.797,12.895-8.797,21.192
		c0,6.447,1.7,12.295,5.099,17.493l38.984,38.984c0,0,0,0,0.05,0.05c1.949,1.949,3.998,3.549,6.247,4.898
		c0.7,0.399,1.399,0.75,2.149,1.1c3.898,1.85,8.197,2.799,12.845,2.849c8.247,0,15.344-2.948,21.191-8.796
		s8.797-12.945,8.797-21.192c-0.05-8.297-2.999-15.394-8.847-21.242C373.108,296.182,373.108,296.182,373.108,296.132
		L373.108,296.132z"/>
	<path fill="#3E4547" d="M178.736,273.041v-0.05l-26.989,26.989c-0.35,0.55-0.65,1.1-1,1.649
		c-2.699,4.748-4.048,10.046-4.048,15.844c0,8.296,2.949,15.394,8.796,21.242s12.895,8.746,21.191,8.746
		c6.447,0,12.295-1.699,17.493-5.098v0.05l38.984-38.984c0-0.05,0-0.05,0.05-0.05c1.949-1.949,3.549-4.048,4.898-6.298
		c0.4-0.7,0.75-1.399,1.1-2.099c1.85-3.948,2.799-8.247,2.849-12.895c0-8.247-2.949-15.344-8.796-21.192s-12.945-8.796-21.192-8.796
		c-8.296,0.05-15.394,2.999-21.241,8.847c-0.05,0.05-0.05,0.05-0.1,0.05L178.736,273.041L178.736,273.041z"/>
	<path fill="#9ABE00" d="M107.915,559.727c1.699-2.699,2.549-5.698,2.599-8.997c-0.05-4.248-1.55-7.896-4.548-10.896
		c-2.999-3.049-6.647-4.548-10.896-4.548c-3.349,0-6.348,0.85-8.997,2.599l-45.532,45.532h0.05h-0.05
		c-1.05,0.999-1.899,2.099-2.549,3.248c-0.2,0.351-0.4,0.7-0.55,1.1c-0.95,1.999-1.45,4.198-1.45,6.598c0,0.25,0,0.55,0,0.85
		c0.05,0.8,0.15,1.6,0.3,2.349c0.3,1.55,0.85,2.999,1.649,4.349c0.25,0.45,0.5,0.899,0.8,1.35h0.05l45.332,45.682v-0.05v0.05
		c1,1,2.099,1.85,3.249,2.549c0.35,0.2,0.7,0.4,1.1,0.55c2,0.95,4.199,1.449,6.598,1.449c4.248,0,7.847-1.499,10.896-4.498
		c2.999-3.049,4.498-6.647,4.548-10.896c-0.05-4.248-1.55-7.896-4.548-10.945l-0.05-0.05l-32.687-32.737L107.915,559.727
		L107.915,559.727z"/>
	<path fill="#3E4547" d="M15.401,535.236c-4.248,0-7.896,1.499-10.896,4.548c-2.349,2.349-3.849,5.048-4.498,8.196v90.114
		c-0.05,1.399,0.15,2.749,0.5,4.049c0.1,0.399,0.2,0.8,0.35,1.199c0.75,2.099,1.949,3.998,3.648,5.697
		c2.999,2.999,6.647,4.499,10.896,4.499c4.249,0,7.897-1.5,10.946-4.499c2.999-3.049,4.498-6.697,4.498-10.945V547.98
		c-0.649-3.148-2.149-5.848-4.498-8.196C23.298,536.735,19.65,535.236,15.401,535.236L15.401,535.236z"/>
	<path fill="#3E4547" d="M511.603,543.033c-5.747-2.949-12.595-4.499-20.441-4.549h-31.537c-3.549,0-6.548,1.149-9.097,3.398
		c-2.549,2.25-3.898,5.498-3.998,9.746v89.215c0.05,4.548,1.249,8.047,3.698,10.396c2.35,2.35,5.498,3.499,9.396,3.499
		s7.047-1.149,9.396-3.499c2.448-2.349,3.698-5.848,3.748-10.396v-33.236h0.3l32.287,40.634c1.449,2.049,3.049,3.648,4.798,4.748
		c1.8,1.149,4.349,1.749,7.598,1.749c3.349-0.101,5.997-0.85,7.996-2.299c1.949-1.45,3.349-3.149,4.198-5.049
		c0.9-1.898,1.3-3.498,1.25-4.848c0-2.099-0.5-4.049-1.449-5.848c-0.85-1.749-2.199-3.549-3.999-5.447l-22.841-24.591
		c8.347-1.649,14.845-5.298,19.593-10.995c4.748-5.648,7.146-12.745,7.247-21.342c-0.05-7.247-1.649-13.545-4.798-18.893
		C521.799,550.08,517.351,545.981,511.603,543.033L511.603,543.033z M499.558,566.124c2.549,2.148,3.849,5.197,3.948,9.146
		c0,3.699-1.149,6.748-3.448,9.196c-2.349,2.35-5.647,3.599-9.996,3.699h-17.293v-25.39h17.293
		C493.91,562.825,497.108,563.975,499.558,566.124L499.558,566.124z"/>
	<path fill="#3E4547" d="M411.144,559.676c-1.45-4.298-3.049-8.246-4.799-11.845c-1.749-3.549-3.948-6.447-6.646-8.597
		c-2.699-2.149-6.248-3.299-10.696-3.349c-4.298,0.05-7.797,1.199-10.445,3.349c-2.649,2.149-4.849,5.048-6.548,8.597
		c-1.749,3.599-3.349,7.547-4.798,11.845l-25.34,68.173c-1.1,2.999-1.949,5.498-2.499,7.447c-0.55,1.899-0.899,3.549-1.1,4.898
		c-0.15,1.299-0.25,2.599-0.25,3.848c0.05,3.249,1.199,5.848,3.549,7.747c2.249,1.899,5.298,2.899,9.096,2.949
		c4.148-0.1,7.197-1.3,9.146-3.648c1.949-2.35,3.499-5.398,4.599-9.146l3.248-10.396h43.033l3.249,10.396
		c1.1,3.748,2.599,6.797,4.548,9.146c1.949,2.349,5.048,3.549,9.196,3.648c3.799-0.05,6.848-1.05,9.097-2.949
		c2.299-1.898,3.498-4.498,3.548-7.747c0-1.249-0.1-2.549-0.249-3.848c-0.2-1.35-0.55-2.999-1.1-4.898
		c-0.55-1.949-1.399-4.448-2.55-7.447L411.144,559.676L411.144,559.676z M389.502,565.074h0.3l13.145,42.232h-27.539
		L389.502,565.074L389.502,565.074z"/>
	<path fill="#3E4547" d="M333.774,601.51c0-5.448-1.2-9.446-3.549-12.096c-2.349-2.648-5.798-3.948-10.346-3.948h-28.339
		c-4.148,0.05-7.397,1.149-9.696,3.249c-2.249,2.099-3.398,5.048-3.398,8.846c0,3.749,1.149,6.698,3.398,8.847
		c2.299,2.149,5.548,3.299,9.696,3.349h15.044c-0.75,6.798-3.249,12.195-7.597,16.193c-4.349,3.999-10.046,6.048-16.993,6.198
		c-6.798-0.15-12.346-1.949-16.693-5.398c-4.249-3.448-7.447-7.896-9.497-13.345c-1.999-5.447-2.999-11.195-2.999-17.243
		c0-6.747,1.199-12.845,3.648-18.292c2.349-5.348,5.748-9.646,10.196-12.896c4.448-3.148,9.695-4.748,15.793-4.798
		c4.398,0.05,8.097,0.65,11.096,1.899c2.999,1.149,5.598,2.549,7.847,4.099c2.199,1.6,4.299,2.948,6.298,4.098
		c1.999,1.25,4.148,1.85,6.497,1.899c3.699-0.05,6.598-1.049,8.697-3.049c2.049-1.999,3.099-4.647,3.148-7.996
		c-0.1-4.049-1.399-7.647-3.948-10.746c-2.549-3.148-5.998-5.748-10.296-7.896c-4.249-2.149-9.047-3.799-14.295-4.948
		c-5.247-1.1-10.646-1.649-16.193-1.649c-10.945,0.1-20.642,2.699-29.088,7.847c-8.497,5.148-15.194,12.245-20.092,21.241
		c-4.848,9.047-7.347,19.442-7.447,31.188c0.05,11.145,2.299,21.241,6.647,30.287c4.349,9.047,10.746,16.294,19.192,21.642
		c8.447,5.348,18.693,8.146,30.788,8.297c10.746-0.101,20.042-2.549,27.889-7.348c7.797-4.798,13.845-11.295,18.144-19.542
		C331.575,621.252,333.725,611.905,333.774,601.51L333.774,601.51z"/>
	<path fill="#3E4547" d="M212.023,541.033c-2.349-2.349-5.498-3.498-9.396-3.498s-7.047,1.149-9.396,3.498
		c-2.449,2.35-3.648,5.848-3.699,10.446v56.077c-0.05,5.099-1.149,9.396-3.249,12.945c-2.149,3.549-5.048,6.197-8.646,7.997
		c-3.549,1.799-7.547,2.698-11.945,2.698c-4.298,0-8.247-0.899-11.845-2.698c-3.549-1.8-6.348-4.448-8.447-7.997
		s-3.199-7.847-3.249-12.945v-56.077c-0.05-4.599-1.299-8.097-3.699-10.446c-2.399-2.349-5.548-3.498-9.446-3.498
		s-7.047,1.149-9.396,3.498c-2.449,2.35-3.648,5.848-3.699,10.446v56.077c0.1,10.146,2.25,18.893,6.448,26.14
		c4.248,7.247,10.046,12.845,17.493,16.794c7.497,3.898,16.094,5.848,25.84,5.897c9.846-0.05,18.493-1.999,25.939-5.897
		c7.497-3.949,13.395-9.547,17.643-16.794c4.249-7.247,6.397-15.993,6.498-26.14v-56.077
		C215.721,546.881,214.472,543.383,212.023,541.033L212.023,541.033z"/>
</g>
</svg>
