<?xml version="1.0" encoding="UTF-8" standalone="no"?>
<!-- Generator: Adobe Illustrator 12.0.0, SVG Export Plug-In . SVG Version: 6.00 Build 51448)  -->
<svg
   xmlns:dc="http://purl.org/dc/elements/1.1/"
   xmlns:cc="http://web.resource.org/cc/"
   xmlns:rdf="http://www.w3.org/1999/02/22-rdf-syntax-ns#"
   xmlns:svg="http://www.w3.org/2000/svg"
   xmlns="http://www.w3.org/2000/svg"
   xmlns:xlink="http://www.w3.org/1999/xlink"
   xmlns:sodipodi="http://sodipodi.sourceforge.net/DTD/sodipodi-0.dtd"
   xmlns:inkscape="http://www.inkscape.org/namespaces/inkscape"
   version="1.1"
   id="Layer_1"
   width="583.124"
   height="655.438"
   viewBox="0 0 583.124 655.438"
   overflow="visible"
   enable-background="new 0 0 583.124 655.438"
   xml:space="preserve"
   sodipodi:version="0.32"
   inkscape:version="0.45.1"
   sodipodi:docname="KOffice-logo-kword-grad.svg"
   sodipodi:docbase="/home/roop/Desktop/logos/kofficelogo"
   inkscape:output_extension="org.inkscape.output.svg.inkscape"><metadata
   id="metadata7630"><rdf:RDF><cc:Work
       rdf:about=""><dc:format>image/svg+xml</dc:format><dc:type
         rdf:resource="http://purl.org/dc/dcmitype/StillImage" /></cc:Work></rdf:RDF></metadata><defs
   id="defs7628"><linearGradient
   id="linearGradient11136"><stop
     id="stop11138"
     offset="0"
     style="stop-color:#d0d0d0;stop-opacity:1;" /><stop
     id="stop11140"
     offset="1"
     style="stop-color:#222b2d;stop-opacity:0.41121495;" /></linearGradient><linearGradient
   id="linearGradient11001"><stop
     id="stop11003"
     offset="0"
     style="stop-color:#6a6a6a;stop-opacity:1;" /><stop
     id="stop11005"
     offset="1"
     style="stop-color:#222b2d;stop-opacity:0.41121495;" /></linearGradient><linearGradient
   id="linearGradient10952"><stop
     style="stop-color:#ff801a;stop-opacity:1;"
     offset="0"
     id="stop10954" /><stop
     style="stop-color:#ff801a;stop-opacity:0;"
     offset="1"
     id="stop10956" /></linearGradient><linearGradient
   id="linearGradient5157"><stop
     style="stop-color:#787878;stop-opacity:1;"
     offset="0"
     id="stop5159" /><stop
     style="stop-color:#222b2d;stop-opacity:0.41121495;"
     offset="1"
     id="stop5161" /></linearGradient>
	
	
	
	
	
	
	
	
	
<linearGradient
   inkscape:collect="always"
   xlink:href="#linearGradient11136"
   id="linearGradient9864"
   gradientUnits="userSpaceOnUse"
   x1="330.63501"
   y1="-143.03523"
   x2="332.3461"
   y2="353.26242" /><clipPath
   clipPathUnits="userSpaceOnUse"
   id="clipPath9975"><g
     id="g9977"
     transform="matrix(1.0966509,0,0,1.0474422,-19.670302,-90.720258)"><path
       style="fill:#20292b;fill-opacity:1"
       id="path9979"
       d="M 415.841,190.024 C 409.344,190.024 403.496,191.723 398.298,195.122 L 323.978,269.392 L 324.029,269.392 C 323.978,269.442 323.978,269.442 323.978,269.492 C 322.029,271.441 320.38,273.491 319.031,275.74 C 318.631,276.39 318.281,277.09 317.931,277.839 C 316.081,281.737 315.132,286.036 315.132,290.734 C 315.081,298.981 318.03,306.078 323.878,311.925 C 329.726,317.772 336.823,320.672 345.119,320.721 C 353.366,320.671 360.463,317.722 366.361,311.874 C 366.361,311.824 366.361,311.824 366.411,311.824 L 381.155,297.08 C 381.604,296.63 382.104,296.13 382.554,295.681 C 386.802,291.433 391.05,287.184 395.299,282.936 C 398.098,280.087 400.897,277.288 403.745,274.489 L 440.73,237.504 C 444.079,232.256 445.778,226.459 445.778,220.011 C 445.778,211.714 442.879,204.617 437.031,198.769 C 431.183,192.921 424.088,189.974 415.841,190.024 L 415.841,190.024 z " /><path
       style="fill:#20292b;fill-opacity:1"
       id="path9981"
       d="M 531.445,239.954 C 531.445,173.681 508.004,117.103 461.173,70.272 C 414.342,23.44 357.765,0 291.541,0 C 225.268,0 168.69,23.441 121.859,70.272 C 75.027,117.103 51.637,173.681 51.637,239.954 C 51.637,306.178 75.028,362.755 121.859,409.587 C 168.69,456.417 225.268,479.858 291.541,479.907 C 357.765,479.858 414.342,456.417 461.173,409.587 C 508.004,362.755 531.445,306.178 531.445,239.954 L 531.445,239.954 z M 471.469,239.904 C 471.469,289.584 453.876,332.017 418.74,367.154 C 383.604,402.289 341.171,419.883 291.541,419.883 C 241.861,419.883 199.428,402.289 164.292,367.154 C 129.156,332.017 111.563,289.585 111.613,239.904 C 111.563,190.224 129.156,147.791 164.292,112.655 C 199.428,77.519 241.861,59.976 291.541,59.976 C 341.171,59.976 383.604,77.519 418.74,112.655 C 453.876,147.791 471.469,190.224 471.469,239.904 L 471.469,239.904 z " /></g></clipPath><linearGradient
   inkscape:collect="always"
   xlink:href="#linearGradient10952"
   id="linearGradient10958"
   x1="795.54388"
   y1="297.92636"
   x2="792.32306"
   y2="124.00178"
   gradientUnits="userSpaceOnUse" /><linearGradient
   inkscape:collect="always"
   xlink:href="#linearGradient10952"
   id="linearGradient10960"
   x1="795.54388"
   y1="297.92636"
   x2="792.32306"
   y2="124.00178"
   gradientUnits="userSpaceOnUse" /><linearGradient
   inkscape:collect="always"
   xlink:href="#linearGradient11001"
   id="linearGradient10964"
   x1="42.202805"
   y1="580.03076"
   x2="42.105125"
   y2="602.99207"
   gradientUnits="userSpaceOnUse"
   gradientTransform="translate(-9.6624765,3.2208247)" /><clipPath
   clipPathUnits="userSpaceOnUse"
   id="clipPath10985"><g
     id="g10987"><path
       style="fill:#20292b;fill-opacity:1"
       id="path10989"
       d="M 15.401,534.286 C 11.153,534.286 7.504,535.786 4.505,538.835 C 2.156,541.183 0.656,543.882 0.006,547.03 L 0.006,637.145 C -0.044,638.543 0.156,639.893 0.506,641.194 C 0.606,641.592 0.706,641.993 0.856,642.393 C 1.606,644.491 2.805,646.391 4.504,648.09 C 7.503,651.088 11.151,652.588 15.4,652.588 C 19.649,652.588 23.297,651.088 26.346,648.09 C 29.345,645.041 30.844,641.393 30.844,637.145 L 30.844,547.03 C 30.194,543.882 28.695,541.182 26.346,538.835 C 23.298,535.786 19.649,534.286 15.401,534.286 L 15.401,534.286 z " /><path
       style="fill:#20292b;fill-opacity:1"
       id="path10991"
       d="M 579.575,572.972 C 577.226,566.224 573.727,560.226 569.13,554.878 C 564.531,549.53 558.934,545.331 552.286,542.282 C 545.589,539.184 537.942,537.585 529.346,537.534 L 497.958,537.534 C 494.41,537.534 491.411,538.684 488.862,540.934 C 486.313,543.182 484.964,546.43 484.863,550.68 L 484.863,639.694 C 484.964,643.942 486.313,647.19 488.862,649.44 C 491.411,651.688 494.41,652.838 497.958,652.838 L 529.346,652.838 C 536.593,652.838 543.39,651.588 549.838,649.039 C 556.285,646.49 561.983,642.691 566.931,637.744 C 571.929,632.795 575.827,626.699 578.676,619.451 C 581.575,612.203 583.074,603.857 583.124,594.412 C 583.124,586.915 581.925,579.769 579.575,572.972 L 579.575,572.972 z M 542.091,565.923 C 546.339,568.622 549.588,572.421 551.737,577.319 C 553.885,582.167 554.985,587.864 554.985,594.413 C 554.985,601.159 553.885,607.058 551.737,612.204 C 549.588,617.304 546.289,621.302 541.841,624.149 C 537.393,627.049 531.795,628.499 524.997,628.547 L 511.102,628.547 L 511.102,561.824 L 526.096,561.824 C 532.494,561.876 537.843,563.274 542.091,565.923 L 542.091,565.923 z " /><path
       style="fill:#20292b;fill-opacity:1"
       id="path10993"
       d="M 470.319,554.478 C 467.171,549.13 462.722,545.033 456.974,542.083 C 451.226,539.133 444.379,537.585 436.533,537.534 L 404.995,537.534 C 401.447,537.534 398.448,538.684 395.899,540.932 C 393.35,543.182 392.001,546.43 391.9,550.678 L 391.9,639.893 C 391.95,644.442 393.15,647.94 395.599,650.289 C 397.948,652.639 401.096,653.787 404.995,653.787 C 408.894,653.787 412.043,652.639 414.391,650.289 C 416.84,647.939 418.089,644.441 418.14,639.893 L 418.14,606.657 L 418.44,606.657 L 450.727,647.292 C 452.176,649.341 453.776,650.94 455.525,652.04 C 457.324,653.188 459.874,653.788 463.122,653.788 C 466.471,653.688 469.12,652.938 471.119,651.489 C 473.068,650.04 474.468,648.341 475.317,646.44 C 476.216,644.542 476.617,642.942 476.566,641.592 C 476.566,639.494 476.067,637.543 475.117,635.744 C 474.267,633.996 472.918,632.195 471.119,630.297 L 448.278,605.707 C 456.625,604.057 463.122,600.408 467.87,594.711 C 472.618,589.063 475.017,581.967 475.117,573.369 C 475.067,566.124 473.468,559.825 470.319,554.478 L 470.319,554.478 z M 435.434,561.825 C 439.283,561.876 442.481,563.024 444.93,565.175 C 447.479,567.323 448.779,570.372 448.878,574.32 C 448.878,578.019 447.729,581.068 445.43,583.517 C 443.08,585.867 439.782,587.115 435.434,587.216 L 418.141,587.216 L 418.141,561.825 L 435.434,561.825 L 435.434,561.825 z " /><path
       style="fill:#20292b;fill-opacity:1"
       id="path10995"
       d="M 355.315,542.433 C 346.869,537.486 336.922,534.986 325.477,534.937 C 313.981,534.986 304.036,537.486 295.588,542.433 C 287.142,547.382 280.545,554.329 275.896,563.326 C 271.248,572.271 268.849,582.918 268.799,595.213 C 268.849,607.457 271.248,618.104 275.896,627.051 C 280.544,636.096 287.142,643.043 295.588,647.942 C 304.035,652.891 313.981,655.389 325.477,655.44 C 336.922,655.389 346.869,652.891 355.315,647.942 C 363.761,643.044 370.359,636.096 375.007,627.051 C 379.654,618.104 382.054,607.457 382.104,595.213 C 382.054,582.918 379.655,572.272 375.007,563.326 C 370.359,554.329 363.762,547.382 355.315,542.433 L 355.315,542.433 z M 341.871,564.425 C 346.019,567.872 349.067,572.271 351.017,577.72 C 353.017,583.167 354.016,588.964 353.966,595.212 C 354.016,601.409 353.017,607.208 351.017,612.655 C 349.068,618.102 346.02,622.501 341.871,625.95 C 337.622,629.298 332.175,631.048 325.477,631.198 C 318.73,631.048 313.282,629.298 309.034,625.95 C 304.886,622.501 301.837,618.102 299.888,612.655 C 297.939,607.208 296.939,601.409 296.939,595.212 C 296.939,588.964 297.939,583.167 299.888,577.72 C 301.837,572.271 304.886,567.872 309.034,564.425 C 313.282,561.075 318.73,559.327 325.477,559.226 C 332.175,559.327 337.622,561.075 341.871,564.425 L 341.871,564.425 z " /><path
       style="fill:#20292b;fill-opacity:1"
       id="path10997"
       d="M 252.957,536.585 C 248.708,536.735 245.56,537.835 243.46,539.983 C 241.411,542.133 240.012,544.881 239.362,548.231 L 225.917,610.356 L 225.567,610.356 L 206.625,550.03 C 205.025,545.081 203.026,541.583 200.677,539.534 C 198.328,537.534 195.379,536.536 191.881,536.585 C 188.432,536.536 185.484,537.534 183.134,539.534 C 180.735,541.583 178.736,545.081 177.186,550.03 L 158.194,610.356 L 157.894,610.356 L 144.449,548.231 C 143.799,544.881 142.4,542.133 140.351,539.983 C 138.252,537.835 135.103,536.735 130.854,536.585 C 126.856,536.735 123.657,537.985 121.308,540.384 C 118.959,542.833 117.759,545.831 117.709,549.431 C 117.759,551.679 118.109,554.029 118.758,556.478 C 119.308,558.927 119.858,561.076 120.358,562.874 L 137.801,634.196 C 138.751,638.395 139.9,641.942 141.15,644.842 C 142.4,647.789 144.249,650.039 146.598,651.488 C 148.897,653.037 152.096,653.787 156.244,653.787 C 161.242,653.787 165.24,652.537 168.189,650.09 C 171.188,647.641 173.437,644.092 174.886,639.393 L 191.729,586.664 L 192.029,586.664 L 208.872,639.393 C 210.372,644.092 212.621,647.641 215.619,650.09 C 218.568,652.537 222.516,653.787 227.564,653.787 C 231.663,653.787 234.861,653.037 237.21,651.488 C 239.559,650.039 241.409,647.789 242.658,644.842 C 243.908,641.942 245.007,638.395 245.956,634.196 L 263.449,562.874 C 263.899,561.075 264.449,558.927 265.048,556.478 C 265.698,554.029 265.998,551.679 266.048,549.431 C 265.998,545.831 264.848,542.833 262.499,540.384 C 260.153,537.985 256.955,536.735 252.957,536.585 L 252.957,536.585 z " /></g></clipPath><linearGradient
   inkscape:collect="always"
   xlink:href="#linearGradient11001"
   id="linearGradient11027"
   x1="32.435699"
   y1="587.23126"
   x2="32.533386"
   y2="604.99469"
   gradientUnits="userSpaceOnUse" /><clipPath
   clipPathUnits="userSpaceOnUse"
   id="clipPath11043"><g
     id="g11045"><path
       style="fill:#ff811b;fill-opacity:1"
       id="path11047"
       d="M 107.915,558.776 C 109.614,556.077 110.464,553.079 110.514,549.78 C 110.464,545.532 108.965,541.884 105.966,538.884 C 102.967,535.835 99.319,534.337 95.07,534.337 C 91.721,534.337 88.723,535.187 86.074,536.935 L 40.542,582.468 L 40.592,582.468 L 40.542,582.468 C 39.492,583.466 38.643,584.566 37.993,585.716 C 37.793,586.066 37.594,586.415 37.443,586.816 C 36.494,588.814 35.994,591.013 35.994,593.414 C 35.994,593.664 35.994,593.963 35.994,594.264 C 36.044,595.063 36.144,595.864 36.294,596.612 C 36.594,598.163 37.144,599.612 37.943,600.962 C 38.193,601.411 38.443,601.86 38.743,602.312 L 38.793,602.312 L 84.125,647.994 L 84.125,647.943 L 84.125,647.994 C 85.125,648.994 86.224,649.844 87.374,650.543 C 87.724,650.742 88.074,650.943 88.474,651.092 C 90.473,652.043 92.672,652.541 95.071,652.541 C 99.32,652.541 102.918,651.043 105.967,648.043 C 108.966,644.994 110.465,641.397 110.515,637.148 C 110.465,632.9 108.966,629.252 105.967,626.203 L 105.917,626.152 L 73.23,593.416 L 107.915,558.776 L 107.915,558.776 z " /><path
       style="fill:#20292b;fill-opacity:1"
       id="path11049"
       d="M 15.401,534.286 C 11.153,534.286 7.504,535.786 4.505,538.835 C 2.156,541.183 0.656,543.882 0.006,547.03 L 0.006,637.145 C -0.044,638.543 0.156,639.893 0.506,641.194 C 0.606,641.592 0.706,641.993 0.856,642.393 C 1.606,644.491 2.805,646.391 4.504,648.09 C 7.503,651.088 11.151,652.588 15.4,652.588 C 19.649,652.588 23.297,651.088 26.346,648.09 C 29.345,645.041 30.844,641.393 30.844,637.145 L 30.844,547.03 C 30.194,543.882 28.695,541.182 26.346,538.835 C 23.298,535.786 19.649,534.286 15.401,534.286 L 15.401,534.286 z " /><path
       style="fill:#20292b;fill-opacity:1"
       id="path11051"
       d="M 579.575,572.972 C 577.226,566.224 573.727,560.226 569.13,554.878 C 564.531,549.53 558.934,545.331 552.286,542.282 C 545.589,539.184 537.942,537.585 529.346,537.534 L 497.958,537.534 C 494.41,537.534 491.411,538.684 488.862,540.934 C 486.313,543.182 484.964,546.43 484.863,550.68 L 484.863,639.694 C 484.964,643.942 486.313,647.19 488.862,649.44 C 491.411,651.688 494.41,652.838 497.958,652.838 L 529.346,652.838 C 536.593,652.838 543.39,651.588 549.838,649.039 C 556.285,646.49 561.983,642.691 566.931,637.744 C 571.929,632.795 575.827,626.699 578.676,619.451 C 581.575,612.203 583.074,603.857 583.124,594.412 C 583.124,586.915 581.925,579.769 579.575,572.972 L 579.575,572.972 z M 542.091,565.923 C 546.339,568.622 549.588,572.421 551.737,577.319 C 553.885,582.167 554.985,587.864 554.985,594.413 C 554.985,601.159 553.885,607.058 551.737,612.204 C 549.588,617.304 546.289,621.302 541.841,624.149 C 537.393,627.049 531.795,628.499 524.997,628.547 L 511.102,628.547 L 511.102,561.824 L 526.096,561.824 C 532.494,561.876 537.843,563.274 542.091,565.923 L 542.091,565.923 z " /><path
       style="fill:#20292b;fill-opacity:1"
       id="path11053"
       d="M 470.319,554.478 C 467.171,549.13 462.722,545.033 456.974,542.083 C 451.226,539.133 444.379,537.585 436.533,537.534 L 404.995,537.534 C 401.447,537.534 398.448,538.684 395.899,540.932 C 393.35,543.182 392.001,546.43 391.9,550.678 L 391.9,639.893 C 391.95,644.442 393.15,647.94 395.599,650.289 C 397.948,652.639 401.096,653.787 404.995,653.787 C 408.894,653.787 412.043,652.639 414.391,650.289 C 416.84,647.939 418.089,644.441 418.14,639.893 L 418.14,606.657 L 418.44,606.657 L 450.727,647.292 C 452.176,649.341 453.776,650.94 455.525,652.04 C 457.324,653.188 459.874,653.788 463.122,653.788 C 466.471,653.688 469.12,652.938 471.119,651.489 C 473.068,650.04 474.468,648.341 475.317,646.44 C 476.216,644.542 476.617,642.942 476.566,641.592 C 476.566,639.494 476.067,637.543 475.117,635.744 C 474.267,633.996 472.918,632.195 471.119,630.297 L 448.278,605.707 C 456.625,604.057 463.122,600.408 467.87,594.711 C 472.618,589.063 475.017,581.967 475.117,573.369 C 475.067,566.124 473.468,559.825 470.319,554.478 L 470.319,554.478 z M 435.434,561.825 C 439.283,561.876 442.481,563.024 444.93,565.175 C 447.479,567.323 448.779,570.372 448.878,574.32 C 448.878,578.019 447.729,581.068 445.43,583.517 C 443.08,585.867 439.782,587.115 435.434,587.216 L 418.141,587.216 L 418.141,561.825 L 435.434,561.825 L 435.434,561.825 z " /><path
       style="fill:#20292b;fill-opacity:1"
       id="path11055"
       d="M 355.315,542.433 C 346.869,537.486 336.922,534.986 325.477,534.937 C 313.981,534.986 304.036,537.486 295.588,542.433 C 287.142,547.382 280.545,554.329 275.896,563.326 C 271.248,572.271 268.849,582.918 268.799,595.213 C 268.849,607.457 271.248,618.104 275.896,627.051 C 280.544,636.096 287.142,643.043 295.588,647.942 C 304.035,652.891 313.981,655.389 325.477,655.44 C 336.922,655.389 346.869,652.891 355.315,647.942 C 363.761,643.044 370.359,636.096 375.007,627.051 C 379.654,618.104 382.054,607.457 382.104,595.213 C 382.054,582.918 379.655,572.272 375.007,563.326 C 370.359,554.329 363.762,547.382 355.315,542.433 L 355.315,542.433 z M 341.871,564.425 C 346.019,567.872 349.067,572.271 351.017,577.72 C 353.017,583.167 354.016,588.964 353.966,595.212 C 354.016,601.409 353.017,607.208 351.017,612.655 C 349.068,618.102 346.02,622.501 341.871,625.95 C 337.622,629.298 332.175,631.048 325.477,631.198 C 318.73,631.048 313.282,629.298 309.034,625.95 C 304.886,622.501 301.837,618.102 299.888,612.655 C 297.939,607.208 296.939,601.409 296.939,595.212 C 296.939,588.964 297.939,583.167 299.888,577.72 C 301.837,572.271 304.886,567.872 309.034,564.425 C 313.282,561.075 318.73,559.327 325.477,559.226 C 332.175,559.327 337.622,561.075 341.871,564.425 L 341.871,564.425 z " /><path
       style="fill:#20292b;fill-opacity:1"
       id="path11057"
       d="M 252.957,536.585 C 248.708,536.735 245.56,537.835 243.46,539.983 C 241.411,542.133 240.012,544.881 239.362,548.231 L 225.917,610.356 L 225.567,610.356 L 206.625,550.03 C 205.025,545.081 203.026,541.583 200.677,539.534 C 198.328,537.534 195.379,536.536 191.881,536.585 C 188.432,536.536 185.484,537.534 183.134,539.534 C 180.735,541.583 178.736,545.081 177.186,550.03 L 158.194,610.356 L 157.894,610.356 L 144.449,548.231 C 143.799,544.881 142.4,542.133 140.351,539.983 C 138.252,537.835 135.103,536.735 130.854,536.585 C 126.856,536.735 123.657,537.985 121.308,540.384 C 118.959,542.833 117.759,545.831 117.709,549.431 C 117.759,551.679 118.109,554.029 118.758,556.478 C 119.308,558.927 119.858,561.076 120.358,562.874 L 137.801,634.196 C 138.751,638.395 139.9,641.942 141.15,644.842 C 142.4,647.789 144.249,650.039 146.598,651.488 C 148.897,653.037 152.096,653.787 156.244,653.787 C 161.242,653.787 165.24,652.537 168.189,650.09 C 171.188,647.641 173.437,644.092 174.886,639.393 L 191.729,586.664 L 192.029,586.664 L 208.872,639.393 C 210.372,644.092 212.621,647.641 215.619,650.09 C 218.568,652.537 222.516,653.787 227.564,653.787 C 231.663,653.787 234.861,653.037 237.21,651.488 C 239.559,650.039 241.409,647.789 242.658,644.842 C 243.908,641.942 245.007,638.395 245.956,634.196 L 263.449,562.874 C 263.899,561.075 264.449,558.927 265.048,556.478 C 265.698,554.029 265.998,551.679 266.048,549.431 C 265.998,545.831 264.848,542.833 262.499,540.384 C 260.153,537.985 256.955,536.735 252.957,536.585 L 252.957,536.585 z " /></g></clipPath><linearGradient
   inkscape:collect="always"
   xlink:href="#linearGradient5157"
   id="linearGradient11102"
   x1="31.884529"
   y1="567.69128"
   x2="31.884529"
   y2="631.28387"
   gradientUnits="userSpaceOnUse" /><clipPath
   clipPathUnits="userSpaceOnUse"
   id="clipPath11122"><g
     id="g11124"><path
       style="fill:#20292b;fill-opacity:1"
       id="path11126"
       d="M 15.401,534.286 C 11.153,534.286 7.504,535.786 4.505,538.835 C 2.156,541.183 0.656,543.882 0.006,547.03 L 0.006,637.145 C -0.044,638.543 0.156,639.893 0.506,641.194 C 0.606,641.592 0.706,641.993 0.856,642.393 C 1.606,644.491 2.805,646.391 4.504,648.09 C 7.503,651.088 11.151,652.588 15.4,652.588 C 19.649,652.588 23.297,651.088 26.346,648.09 C 29.345,645.041 30.844,641.393 30.844,637.145 L 30.844,547.03 C 30.194,543.882 28.695,541.182 26.346,538.835 C 23.298,535.786 19.649,534.286 15.401,534.286 L 15.401,534.286 z " /><path
       style="fill:#20292b;fill-opacity:1"
       id="path11128"
       d="M 579.575,572.972 C 577.226,566.224 573.727,560.226 569.13,554.878 C 564.531,549.53 558.934,545.331 552.286,542.282 C 545.589,539.184 537.942,537.585 529.346,537.534 L 497.958,537.534 C 494.41,537.534 491.411,538.684 488.862,540.934 C 486.313,543.182 484.964,546.43 484.863,550.68 L 484.863,639.694 C 484.964,643.942 486.313,647.19 488.862,649.44 C 491.411,651.688 494.41,652.838 497.958,652.838 L 529.346,652.838 C 536.593,652.838 543.39,651.588 549.838,649.039 C 556.285,646.49 561.983,642.691 566.931,637.744 C 571.929,632.795 575.827,626.699 578.676,619.451 C 581.575,612.203 583.074,603.857 583.124,594.412 C 583.124,586.915 581.925,579.769 579.575,572.972 L 579.575,572.972 z M 542.091,565.923 C 546.339,568.622 549.588,572.421 551.737,577.319 C 553.885,582.167 554.985,587.864 554.985,594.413 C 554.985,601.159 553.885,607.058 551.737,612.204 C 549.588,617.304 546.289,621.302 541.841,624.149 C 537.393,627.049 531.795,628.499 524.997,628.547 L 511.102,628.547 L 511.102,561.824 L 526.096,561.824 C 532.494,561.876 537.843,563.274 542.091,565.923 L 542.091,565.923 z " /><path
       style="fill:#20292b;fill-opacity:1"
       id="path11130"
       d="M 470.319,554.478 C 467.171,549.13 462.722,545.033 456.974,542.083 C 451.226,539.133 444.379,537.585 436.533,537.534 L 404.995,537.534 C 401.447,537.534 398.448,538.684 395.899,540.932 C 393.35,543.182 392.001,546.43 391.9,550.678 L 391.9,639.893 C 391.95,644.442 393.15,647.94 395.599,650.289 C 397.948,652.639 401.096,653.787 404.995,653.787 C 408.894,653.787 412.043,652.639 414.391,650.289 C 416.84,647.939 418.089,644.441 418.14,639.893 L 418.14,606.657 L 418.44,606.657 L 450.727,647.292 C 452.176,649.341 453.776,650.94 455.525,652.04 C 457.324,653.188 459.874,653.788 463.122,653.788 C 466.471,653.688 469.12,652.938 471.119,651.489 C 473.068,650.04 474.468,648.341 475.317,646.44 C 476.216,644.542 476.617,642.942 476.566,641.592 C 476.566,639.494 476.067,637.543 475.117,635.744 C 474.267,633.996 472.918,632.195 471.119,630.297 L 448.278,605.707 C 456.625,604.057 463.122,600.408 467.87,594.711 C 472.618,589.063 475.017,581.967 475.117,573.369 C 475.067,566.124 473.468,559.825 470.319,554.478 L 470.319,554.478 z M 435.434,561.825 C 439.283,561.876 442.481,563.024 444.93,565.175 C 447.479,567.323 448.779,570.372 448.878,574.32 C 448.878,578.019 447.729,581.068 445.43,583.517 C 443.08,585.867 439.782,587.115 435.434,587.216 L 418.141,587.216 L 418.141,561.825 L 435.434,561.825 L 435.434,561.825 z " /><path
       style="fill:#20292b;fill-opacity:1"
       id="path11132"
       d="M 355.315,542.433 C 346.869,537.486 336.922,534.986 325.477,534.937 C 313.981,534.986 304.036,537.486 295.588,542.433 C 287.142,547.382 280.545,554.329 275.896,563.326 C 271.248,572.271 268.849,582.918 268.799,595.213 C 268.849,607.457 271.248,618.104 275.896,627.051 C 280.544,636.096 287.142,643.043 295.588,647.942 C 304.035,652.891 313.981,655.389 325.477,655.44 C 336.922,655.389 346.869,652.891 355.315,647.942 C 363.761,643.044 370.359,636.096 375.007,627.051 C 379.654,618.104 382.054,607.457 382.104,595.213 C 382.054,582.918 379.655,572.272 375.007,563.326 C 370.359,554.329 363.762,547.382 355.315,542.433 L 355.315,542.433 z M 341.871,564.425 C 346.019,567.872 349.067,572.271 351.017,577.72 C 353.017,583.167 354.016,588.964 353.966,595.212 C 354.016,601.409 353.017,607.208 351.017,612.655 C 349.068,618.102 346.02,622.501 341.871,625.95 C 337.622,629.298 332.175,631.048 325.477,631.198 C 318.73,631.048 313.282,629.298 309.034,625.95 C 304.886,622.501 301.837,618.102 299.888,612.655 C 297.939,607.208 296.939,601.409 296.939,595.212 C 296.939,588.964 297.939,583.167 299.888,577.72 C 301.837,572.271 304.886,567.872 309.034,564.425 C 313.282,561.075 318.73,559.327 325.477,559.226 C 332.175,559.327 337.622,561.075 341.871,564.425 L 341.871,564.425 z " /><path
       style="fill:#20292b;fill-opacity:1"
       id="path11134"
       d="M 252.957,536.585 C 248.708,536.735 245.56,537.835 243.46,539.983 C 241.411,542.133 240.012,544.881 239.362,548.231 L 225.917,610.356 L 225.567,610.356 L 206.625,550.03 C 205.025,545.081 203.026,541.583 200.677,539.534 C 198.328,537.534 195.379,536.536 191.881,536.585 C 188.432,536.536 185.484,537.534 183.134,539.534 C 180.735,541.583 178.736,545.081 177.186,550.03 L 158.194,610.356 L 157.894,610.356 L 144.449,548.231 C 143.799,544.881 142.4,542.133 140.351,539.983 C 138.252,537.835 135.103,536.735 130.854,536.585 C 126.856,536.735 123.657,537.985 121.308,540.384 C 118.959,542.833 117.759,545.831 117.709,549.431 C 117.759,551.679 118.109,554.029 118.758,556.478 C 119.308,558.927 119.858,561.076 120.358,562.874 L 137.801,634.196 C 138.751,638.395 139.9,641.942 141.15,644.842 C 142.4,647.789 144.249,650.039 146.598,651.488 C 148.897,653.037 152.096,653.787 156.244,653.787 C 161.242,653.787 165.24,652.537 168.189,650.09 C 171.188,647.641 173.437,644.092 174.886,639.393 L 191.729,586.664 L 192.029,586.664 L 208.872,639.393 C 210.372,644.092 212.621,647.641 215.619,650.09 C 218.568,652.537 222.516,653.787 227.564,653.787 C 231.663,653.787 234.861,653.037 237.21,651.488 C 239.559,650.039 241.409,647.789 242.658,644.842 C 243.908,641.942 245.007,638.395 245.956,634.196 L 263.449,562.874 C 263.899,561.075 264.449,558.927 265.048,556.478 C 265.698,554.029 265.998,551.679 266.048,549.431 C 265.998,545.831 264.848,542.833 262.499,540.384 C 260.153,537.985 256.955,536.735 252.957,536.585 L 252.957,536.585 z " /></g></clipPath></defs><sodipodi:namedview
   inkscape:window-height="627"
   inkscape:window-width="808"
   inkscape:pageshadow="2"
   inkscape:pageopacity="0.0"
   guidetolerance="10.0"
   gridtolerance="10.0"
   objecttolerance="10.0"
   borderopacity="1.0"
   bordercolor="#666666"
   pagecolor="#ffffff"
   id="base"
   inkscape:zoom="0.31047941"
   inkscape:cx="148.00767"
   inkscape:cy="93.349755"
   inkscape:window-x="418"
   inkscape:window-y="29"
   inkscape:current-layer="Layer_1" />
<path
   d="M 185.783,195.022 L 185.783,194.972 C 180.535,191.623 174.738,189.974 168.29,189.974 C 159.994,189.974 152.896,192.923 147.049,198.77 C 141.202,204.617 138.253,211.665 138.302,219.961 C 138.252,226.409 139.951,232.206 143.3,237.404 L 217.67,311.775 L 217.67,311.725 C 217.67,311.725 217.67,311.725 217.72,311.775 C 219.669,313.724 221.718,315.374 223.967,316.723 C 224.667,317.123 225.366,317.473 226.116,317.823 C 230.014,319.673 234.313,320.622 238.961,320.672 C 239.511,320.622 240.11,320.622 240.66,320.622 C 242.209,320.522 243.709,320.322 245.208,320.072 C 248.207,319.472 251.006,318.423 253.655,316.873 C 254.505,316.423 255.404,315.873 256.254,315.274 L 256.254,315.224 L 303.585,268.292 L 303.635,268.342 L 330.924,241.253 L 330.874,241.253 C 330.874,241.203 330.874,241.203 330.924,241.203 C 332.873,239.254 334.523,237.155 335.872,234.955 C 336.272,234.205 336.622,233.505 336.972,232.806 C 338.822,228.858 339.771,224.61 339.821,219.961 C 339.771,211.665 336.823,204.617 330.975,198.77 C 325.127,192.923 318.03,189.974 309.783,189.974 C 301.487,189.974 294.439,192.923 288.592,198.77 C 288.542,198.82 288.542,198.82 288.492,198.87 L 275.497,211.865 L 275.447,211.865 L 239.011,248.301 L 185.783,195.022 L 185.783,195.022 z "
   id="path11194"
   style="fill:#ffffff;fill-opacity:1.0" /><path
   style="fill:#ffffff;fill-opacity:1.0"
   id="path11196"
   d="M 185.783,195.022 L 185.783,194.972 C 180.535,191.623 174.738,189.974 168.29,189.974 C 159.994,189.974 152.896,192.923 147.049,198.77 C 141.202,204.617 138.253,211.665 138.302,219.961 C 138.252,226.409 139.951,232.206 143.3,237.404 L 217.67,311.775 L 217.67,311.725 C 217.67,311.725 217.67,311.725 217.72,311.775 C 219.669,313.724 221.718,315.374 223.967,316.723 C 224.667,317.123 225.366,317.473 226.116,317.823 C 230.014,319.673 234.313,320.622 238.961,320.672 C 239.511,320.622 240.11,320.622 240.66,320.622 C 242.209,320.522 243.709,320.322 245.208,320.072 C 248.207,319.472 251.006,318.423 253.655,316.873 C 254.505,316.423 255.404,315.873 256.254,315.274 L 256.254,315.224 L 303.585,268.292 L 303.635,268.342 L 330.924,241.253 L 330.874,241.253 C 330.874,241.203 330.874,241.203 330.924,241.203 C 332.873,239.254 334.523,237.155 335.872,234.955 C 336.272,234.205 336.622,233.505 336.972,232.806 C 338.822,228.858 339.771,224.61 339.821,219.961 C 339.771,211.665 336.823,204.617 330.975,198.77 C 325.127,192.923 318.03,189.974 309.783,189.974 C 301.487,189.974 294.439,192.923 288.592,198.77 C 288.542,198.82 288.542,198.82 288.492,198.87 L 275.497,211.865 L 275.447,211.865 L 239.011,248.301 L 185.783,195.022 L 185.783,195.022 z " /><image
   y="-2.9398808"
   x="-658.26117"
   id="image7639"
   height="669.36981"
   width="595.05743"
   sodipodi:absref="/home/roop/Desktop/logos/kofficelogo/kword.png"
   xlink:href="kword.png" /><path
   style="fill:#ff811b;fill-opacity:1"
   id="path7615"
   d="M 107.915,558.776 C 109.614,556.077 110.464,553.079 110.514,549.78 C 110.464,545.532 108.965,541.884 105.966,538.884 C 102.967,535.835 99.319,534.337 95.07,534.337 C 91.721,534.337 88.723,535.187 86.074,536.935 L 40.542,582.468 L 40.592,582.468 L 40.542,582.468 C 39.492,583.466 38.643,584.566 37.993,585.716 C 37.793,586.066 37.594,586.415 37.443,586.816 C 36.494,588.814 35.994,591.013 35.994,593.414 C 35.994,593.664 35.994,593.963 35.994,594.264 C 36.044,595.063 36.144,595.864 36.294,596.612 C 36.594,598.163 37.144,599.612 37.943,600.962 C 38.193,601.411 38.443,601.86 38.743,602.312 L 38.793,602.312 L 84.125,647.994 L 84.125,647.943 L 84.125,647.994 C 85.125,648.994 86.224,649.844 87.374,650.543 C 87.724,650.742 88.074,650.943 88.474,651.092 C 90.473,652.043 92.672,652.541 95.071,652.541 C 99.32,652.541 102.918,651.043 105.967,648.043 C 108.966,644.994 110.465,641.397 110.515,637.148 C 110.465,632.9 108.966,629.252 105.967,626.203 L 105.917,626.152 L 73.23,593.416 L 107.915,558.776 L 107.915,558.776 z " /><g
   id="g11065"><path
     d="M 15.401,534.286 C 11.153,534.286 7.504,535.786 4.505,538.835 C 2.156,541.183 0.656,543.882 0.006,547.03 L 0.006,637.145 C -0.044,638.543 0.156,639.893 0.506,641.194 C 0.606,641.592 0.706,641.993 0.856,642.393 C 1.606,644.491 2.805,646.391 4.504,648.09 C 7.503,651.088 11.151,652.588 15.4,652.588 C 19.649,652.588 23.297,651.088 26.346,648.09 C 29.345,645.041 30.844,641.393 30.844,637.145 L 30.844,547.03 C 30.194,543.882 28.695,541.182 26.346,538.835 C 23.298,535.786 19.649,534.286 15.401,534.286 L 15.401,534.286 z "
     id="path7617"
     style="fill:#20292b;fill-opacity:1" /><path
     d="M 579.575,572.972 C 577.226,566.224 573.727,560.226 569.13,554.878 C 564.531,549.53 558.934,545.331 552.286,542.282 C 545.589,539.184 537.942,537.585 529.346,537.534 L 497.958,537.534 C 494.41,537.534 491.411,538.684 488.862,540.934 C 486.313,543.182 484.964,546.43 484.863,550.68 L 484.863,639.694 C 484.964,643.942 486.313,647.19 488.862,649.44 C 491.411,651.688 494.41,652.838 497.958,652.838 L 529.346,652.838 C 536.593,652.838 543.39,651.588 549.838,649.039 C 556.285,646.49 561.983,642.691 566.931,637.744 C 571.929,632.795 575.827,626.699 578.676,619.451 C 581.575,612.203 583.074,603.857 583.124,594.412 C 583.124,586.915 581.925,579.769 579.575,572.972 L 579.575,572.972 z M 542.091,565.923 C 546.339,568.622 549.588,572.421 551.737,577.319 C 553.885,582.167 554.985,587.864 554.985,594.413 C 554.985,601.159 553.885,607.058 551.737,612.204 C 549.588,617.304 546.289,621.302 541.841,624.149 C 537.393,627.049 531.795,628.499 524.997,628.547 L 511.102,628.547 L 511.102,561.824 L 526.096,561.824 C 532.494,561.876 537.843,563.274 542.091,565.923 L 542.091,565.923 z "
     id="path7619"
     style="fill:#20292b;fill-opacity:1" /><path
     d="M 470.319,554.478 C 467.171,549.13 462.722,545.033 456.974,542.083 C 451.226,539.133 444.379,537.585 436.533,537.534 L 404.995,537.534 C 401.447,537.534 398.448,538.684 395.899,540.932 C 393.35,543.182 392.001,546.43 391.9,550.678 L 391.9,639.893 C 391.95,644.442 393.15,647.94 395.599,650.289 C 397.948,652.639 401.096,653.787 404.995,653.787 C 408.894,653.787 412.043,652.639 414.391,650.289 C 416.84,647.939 418.089,644.441 418.14,639.893 L 418.14,606.657 L 418.44,606.657 L 450.727,647.292 C 452.176,649.341 453.776,650.94 455.525,652.04 C 457.324,653.188 459.874,653.788 463.122,653.788 C 466.471,653.688 469.12,652.938 471.119,651.489 C 473.068,650.04 474.468,648.341 475.317,646.44 C 476.216,644.542 476.617,642.942 476.566,641.592 C 476.566,639.494 476.067,637.543 475.117,635.744 C 474.267,633.996 472.918,632.195 471.119,630.297 L 448.278,605.707 C 456.625,604.057 463.122,600.408 467.87,594.711 C 472.618,589.063 475.017,581.967 475.117,573.369 C 475.067,566.124 473.468,559.825 470.319,554.478 L 470.319,554.478 z M 435.434,561.825 C 439.283,561.876 442.481,563.024 444.93,565.175 C 447.479,567.323 448.779,570.372 448.878,574.32 C 448.878,578.019 447.729,581.068 445.43,583.517 C 443.08,585.867 439.782,587.115 435.434,587.216 L 418.141,587.216 L 418.141,561.825 L 435.434,561.825 L 435.434,561.825 z "
     id="path7621"
     style="fill:#20292b;fill-opacity:1" /><path
     d="M 355.315,542.433 C 346.869,537.486 336.922,534.986 325.477,534.937 C 313.981,534.986 304.036,537.486 295.588,542.433 C 287.142,547.382 280.545,554.329 275.896,563.326 C 271.248,572.271 268.849,582.918 268.799,595.213 C 268.849,607.457 271.248,618.104 275.896,627.051 C 280.544,636.096 287.142,643.043 295.588,647.942 C 304.035,652.891 313.981,655.389 325.477,655.44 C 336.922,655.389 346.869,652.891 355.315,647.942 C 363.761,643.044 370.359,636.096 375.007,627.051 C 379.654,618.104 382.054,607.457 382.104,595.213 C 382.054,582.918 379.655,572.272 375.007,563.326 C 370.359,554.329 363.762,547.382 355.315,542.433 L 355.315,542.433 z M 341.871,564.425 C 346.019,567.872 349.067,572.271 351.017,577.72 C 353.017,583.167 354.016,588.964 353.966,595.212 C 354.016,601.409 353.017,607.208 351.017,612.655 C 349.068,618.102 346.02,622.501 341.871,625.95 C 337.622,629.298 332.175,631.048 325.477,631.198 C 318.73,631.048 313.282,629.298 309.034,625.95 C 304.886,622.501 301.837,618.102 299.888,612.655 C 297.939,607.208 296.939,601.409 296.939,595.212 C 296.939,588.964 297.939,583.167 299.888,577.72 C 301.837,572.271 304.886,567.872 309.034,564.425 C 313.282,561.075 318.73,559.327 325.477,559.226 C 332.175,559.327 337.622,561.075 341.871,564.425 L 341.871,564.425 z "
     id="path7623"
     style="fill:#20292b;fill-opacity:1" /><path
     d="M 252.957,536.585 C 248.708,536.735 245.56,537.835 243.46,539.983 C 241.411,542.133 240.012,544.881 239.362,548.231 L 225.917,610.356 L 225.567,610.356 L 206.625,550.03 C 205.025,545.081 203.026,541.583 200.677,539.534 C 198.328,537.534 195.379,536.536 191.881,536.585 C 188.432,536.536 185.484,537.534 183.134,539.534 C 180.735,541.583 178.736,545.081 177.186,550.03 L 158.194,610.356 L 157.894,610.356 L 144.449,548.231 C 143.799,544.881 142.4,542.133 140.351,539.983 C 138.252,537.835 135.103,536.735 130.854,536.585 C 126.856,536.735 123.657,537.985 121.308,540.384 C 118.959,542.833 117.759,545.831 117.709,549.431 C 117.759,551.679 118.109,554.029 118.758,556.478 C 119.308,558.927 119.858,561.076 120.358,562.874 L 137.801,634.196 C 138.751,638.395 139.9,641.942 141.15,644.842 C 142.4,647.789 144.249,650.039 146.598,651.488 C 148.897,653.037 152.096,653.787 156.244,653.787 C 161.242,653.787 165.24,652.537 168.189,650.09 C 171.188,647.641 173.437,644.092 174.886,639.393 L 191.729,586.664 L 192.029,586.664 L 208.872,639.393 C 210.372,644.092 212.621,647.641 215.619,650.09 C 218.568,652.537 222.516,653.787 227.564,653.787 C 231.663,653.787 234.861,653.037 237.21,651.488 C 239.559,650.039 241.409,647.789 242.658,644.842 C 243.908,641.942 245.007,638.395 245.956,634.196 L 263.449,562.874 C 263.899,561.075 264.449,558.927 265.048,556.478 C 265.698,554.029 265.998,551.679 266.048,549.431 C 265.998,545.831 264.848,542.833 262.499,540.384 C 260.153,537.985 256.955,536.735 252.957,536.585 L 252.957,536.585 z "
     id="path7625"
     style="fill:#20292b;fill-opacity:1" /></g>
<path
   style="fill:url(#linearGradient10960);fill-opacity:1.0"
   id="path7611"
   d="M 185.783,195.022 L 185.783,194.972 C 180.535,191.623 174.738,189.974 168.29,189.974 C 159.994,189.974 152.896,192.923 147.049,198.77 C 141.202,204.617 138.253,211.665 138.302,219.961 C 138.252,226.409 139.951,232.206 143.3,237.404 L 217.67,311.775 L 217.67,311.725 C 217.67,311.725 217.67,311.725 217.72,311.775 C 219.669,313.724 221.718,315.374 223.967,316.723 C 224.667,317.123 225.366,317.473 226.116,317.823 C 230.014,319.673 234.313,320.622 238.961,320.672 C 239.511,320.622 240.11,320.622 240.66,320.622 C 242.209,320.522 243.709,320.322 245.208,320.072 C 248.207,319.472 251.006,318.423 253.655,316.873 C 254.505,316.423 255.404,315.873 256.254,315.274 L 256.254,315.224 L 303.585,268.292 L 303.635,268.342 L 330.924,241.253 L 330.874,241.253 C 330.874,241.203 330.874,241.203 330.924,241.203 C 332.873,239.254 334.523,237.155 335.872,234.955 C 336.272,234.205 336.622,233.505 336.972,232.806 C 338.822,228.858 339.771,224.61 339.821,219.961 C 339.771,211.665 336.823,204.617 330.975,198.77 C 325.127,192.923 318.03,189.974 309.783,189.974 C 301.487,189.974 294.439,192.923 288.592,198.77 C 288.542,198.82 288.542,198.82 288.492,198.87 L 275.497,211.865 L 275.447,211.865 L 239.011,248.301 L 185.783,195.022 L 185.783,195.022 z " /><g
   id="g9959"><path
     d="M 415.841,190.024 C 409.344,190.024 403.496,191.723 398.298,195.122 L 323.978,269.392 L 324.029,269.392 C 323.978,269.442 323.978,269.442 323.978,269.492 C 322.029,271.441 320.38,273.491 319.031,275.74 C 318.631,276.39 318.281,277.09 317.931,277.839 C 316.081,281.737 315.132,286.036 315.132,290.734 C 315.081,298.981 318.03,306.078 323.878,311.925 C 329.726,317.772 336.823,320.672 345.119,320.721 C 353.366,320.671 360.463,317.722 366.361,311.874 C 366.361,311.824 366.361,311.824 366.411,311.824 L 381.155,297.08 C 381.604,296.63 382.104,296.13 382.554,295.681 C 386.802,291.433 391.05,287.184 395.299,282.936 C 398.098,280.087 400.897,277.288 403.745,274.489 L 440.73,237.504 C 444.079,232.256 445.778,226.459 445.778,220.011 C 445.778,211.714 442.879,204.617 437.031,198.769 C 431.183,192.921 424.088,189.974 415.841,190.024 L 415.841,190.024 z "
     id="path7613"
     style="fill:#20292b;fill-opacity:1" /><path
     d="M 531.445,239.954 C 531.445,173.681 508.004,117.103 461.173,70.272 C 414.342,23.44 357.765,0 291.541,0 C 225.268,0 168.69,23.441 121.859,70.272 C 75.027,117.103 51.637,173.681 51.637,239.954 C 51.637,306.178 75.028,362.755 121.859,409.587 C 168.69,456.417 225.268,479.858 291.541,479.907 C 357.765,479.858 414.342,456.417 461.173,409.587 C 508.004,362.755 531.445,306.178 531.445,239.954 L 531.445,239.954 z M 471.469,239.904 C 471.469,289.584 453.876,332.017 418.74,367.154 C 383.604,402.289 341.171,419.883 291.541,419.883 C 241.861,419.883 199.428,402.289 164.292,367.154 C 129.156,332.017 111.563,289.585 111.613,239.904 C 111.563,190.224 129.156,147.791 164.292,112.655 C 199.428,77.519 241.861,59.976 291.541,59.976 C 341.171,59.976 383.604,77.519 418.74,112.655 C 453.876,147.791 471.469,190.224 471.469,239.904 L 471.469,239.904 z "
     id="path7609"
     style="fill:#20292b;fill-opacity:1" /></g><path
   d="M 185.783,195.022 L 185.783,194.972 C 180.535,191.623 174.738,189.974 168.29,189.974 C 159.994,189.974 152.896,192.923 147.049,198.77 C 141.202,204.617 138.253,211.665 138.302,219.961 C 138.252,226.409 139.951,232.206 143.3,237.404 L 217.67,311.775 L 217.67,311.725 C 217.67,311.725 217.67,311.725 217.72,311.775 C 219.669,313.724 221.718,315.374 223.967,316.723 C 224.667,317.123 225.366,317.473 226.116,317.823 C 230.014,319.673 234.313,320.622 238.961,320.672 C 239.511,320.622 240.11,320.622 240.66,320.622 C 242.209,320.522 243.709,320.322 245.208,320.072 C 248.207,319.472 251.006,318.423 253.655,316.873 C 254.505,316.423 255.404,315.873 256.254,315.274 L 256.254,315.224 L 303.585,268.292 L 303.635,268.342 L 330.924,241.253 L 330.874,241.253 C 330.874,241.203 330.874,241.203 330.924,241.203 C 332.873,239.254 334.523,237.155 335.872,234.955 C 336.272,234.205 336.622,233.505 336.972,232.806 C 338.822,228.858 339.771,224.61 339.821,219.961 C 339.771,211.665 336.823,204.617 330.975,198.77 C 325.127,192.923 318.03,189.974 309.783,189.974 C 301.487,189.974 294.439,192.923 288.592,198.77 C 288.542,198.82 288.542,198.82 288.492,198.87 L 275.497,211.865 L 275.447,211.865 L 239.011,248.301 L 185.783,195.022 L 185.783,195.022 z "
   id="path9914"
   style="fill:url(#linearGradient10958);fill-opacity:1.0" /><path
   sodipodi:type="arc"
   style="opacity:0.78095238;fill:url(#linearGradient9864);fill-opacity:1"
   id="path6170"
   sodipodi:cx="299.83545"
   sodipodi:cy="122.82514"
   sodipodi:rx="241.26321"
   sodipodi:ry="230.43729"
   d="M 541.09866 122.82514 A 241.26321 230.43729 0 1 1  58.572235,122.82514 A 241.26321 230.43729 0 1 1  541.09866 122.82514 z"
   transform="matrix(0.9118672,0,0,0.9547066,17.936703,86.611229)"
   clip-path="url(#clipPath9975)" /><rect
   style="opacity:0.78095242;fill:url(#linearGradient11102);fill-opacity:1.0;stroke:none;stroke-width:1.37;stroke-miterlimit:4;stroke-dasharray:none;stroke-opacity:1"
   id="rect11100"
   width="644.1651"
   height="167.48293"
   x="-35.429096"
   y="513.72168"
   ry="8.052063"
   clip-path="url(#clipPath11122)" /></svg>