<?xml version="1.0" encoding="utf-8"?>
<!-- Generator: Adobe Illustrator 12.0.0, SVG Export Plug-In . SVG Version: 6.00 Build 51448)  -->
<!DOCTYPE svg PUBLIC "-//W3C//DTD SVG 1.1//EN" "http://www.w3.org/Graphics/SVG/1.1/DTD/svg11.dtd" [
	<!ENTITY ns_svg "http://www.w3.org/2000/svg">
	<!ENTITY ns_xlink "http://www.w3.org/1999/xlink">
]>
<svg  version="1.1" id="Layer_1" xmlns="&ns_svg;" xmlns:xlink="&ns_xlink;" width="583.124" height="655.438"
	 viewBox="0 0 583.124 655.438" overflow="visible" enable-background="new 0 0 583.124 655.438" xml:space="preserve">
<g>
	<path fill="#3E4547" d="M531.445,239.954c0-66.273-23.441-122.851-70.272-169.682C414.342,23.44,357.765,0,291.541,0
		C225.268,0,168.69,23.441,121.859,70.272c-46.832,46.831-70.222,103.409-70.222,169.682c0,66.224,23.391,122.801,70.222,169.633
		c46.831,46.83,103.409,70.271,169.682,70.32c66.224-0.049,122.801-23.49,169.632-70.32
		C508.004,362.755,531.445,306.178,531.445,239.954L531.445,239.954z M471.469,239.904c0,49.68-17.593,92.113-52.729,127.25
		c-35.136,35.135-77.569,52.729-127.199,52.729c-49.68,0-92.113-17.594-127.249-52.729c-35.136-35.137-52.729-77.569-52.679-127.25
		c-0.05-49.68,17.543-92.113,52.679-127.249c35.136-35.136,77.569-52.679,127.249-52.679c49.63,0,92.063,17.543,127.199,52.679
		C453.876,147.791,471.469,190.224,471.469,239.904L471.469,239.904z"/>
	<path fill="#F07F00" d="M185.783,195.022v-0.05c-5.248-3.349-11.045-4.998-17.493-4.998c-8.296,0-15.394,2.949-21.241,8.796
		s-8.796,12.895-8.747,21.191c-0.05,6.448,1.649,12.245,4.998,17.443l74.37,74.371v-0.05c0,0,0,0,0.05,0.05
		c1.949,1.949,3.998,3.599,6.247,4.948c0.7,0.4,1.399,0.75,2.149,1.1c3.898,1.85,8.197,2.799,12.845,2.849
		c0.55-0.05,1.149-0.05,1.699-0.05c1.549-0.1,3.049-0.3,4.548-0.55c2.999-0.6,5.798-1.649,8.447-3.199
		c0.85-0.45,1.749-1,2.599-1.599v-0.05l47.331-46.932l0.05,0.05l27.289-27.089h-0.05c0-0.05,0-0.05,0.05-0.05
		c1.949-1.949,3.599-4.048,4.948-6.248c0.4-0.75,0.75-1.45,1.1-2.149c1.85-3.948,2.799-8.196,2.849-12.845
		c-0.05-8.296-2.998-15.344-8.846-21.191s-12.945-8.796-21.192-8.796c-8.296,0-15.344,2.949-21.191,8.796
		c-0.05,0.05-0.05,0.05-0.1,0.1l-12.995,12.995h-0.05l-36.436,36.436L185.783,195.022L185.783,195.022z"/>
	<path fill="#3E4547" d="M415.841,190.024c-6.497,0-12.345,1.699-17.543,5.098l-74.32,74.27h0.051c-0.051,0.05-0.051,0.05-0.051,0.1
		c-1.949,1.949-3.598,3.999-4.947,6.248c-0.4,0.65-0.75,1.35-1.1,2.099c-1.85,3.898-2.799,8.197-2.799,12.895
		c-0.051,8.247,2.898,15.344,8.746,21.191s12.945,8.747,21.241,8.796c8.247-0.05,15.344-2.999,21.242-8.847c0-0.05,0-0.05,0.05-0.05
		l14.744-14.744c0.449-0.45,0.949-0.95,1.399-1.399c4.248-4.248,8.496-8.497,12.745-12.745c2.799-2.849,5.598-5.648,8.446-8.447
		l36.985-36.985c3.349-5.248,5.048-11.045,5.048-17.493c0-8.297-2.899-15.394-8.747-21.242S424.088,189.974,415.841,190.024
		L415.841,190.024z"/>
	<path fill="#F07F00" d="M107.915,558.776c1.699-2.699,2.549-5.697,2.599-8.996c-0.05-4.248-1.549-7.896-4.548-10.896
		c-2.999-3.049-6.647-4.547-10.896-4.547c-3.349,0-6.347,0.85-8.996,2.598l-45.532,45.533h0.05h-0.05
		c-1.05,0.998-1.899,2.098-2.549,3.248c-0.2,0.35-0.399,0.699-0.55,1.1c-0.949,1.998-1.449,4.197-1.449,6.598c0,0.25,0,0.549,0,0.85
		c0.05,0.799,0.15,1.6,0.3,2.348c0.3,1.551,0.85,3,1.649,4.35c0.25,0.449,0.5,0.898,0.8,1.35h0.05l45.332,45.682v-0.051v0.051
		c1,1,2.099,1.85,3.249,2.549c0.35,0.199,0.7,0.4,1.1,0.549c1.999,0.951,4.198,1.449,6.597,1.449c4.249,0,7.847-1.498,10.896-4.498
		c2.999-3.049,4.498-6.646,4.548-10.895c-0.05-4.248-1.549-7.896-4.548-10.945l-0.05-0.051l-32.687-32.736L107.915,558.776
		L107.915,558.776z"/>
	<path fill="#3E4547" d="M15.401,534.286c-4.248,0-7.897,1.5-10.896,4.549c-2.349,2.348-3.849,5.047-4.499,8.195v90.115
		c-0.05,1.398,0.15,2.748,0.5,4.049c0.1,0.398,0.2,0.799,0.35,1.199c0.75,2.098,1.949,3.998,3.648,5.697
		c2.999,2.998,6.647,4.498,10.896,4.498c4.249,0,7.897-1.5,10.946-4.498c2.999-3.049,4.498-6.697,4.498-10.945V547.03
		c-0.65-3.148-2.149-5.848-4.498-8.195C23.298,535.786,19.649,534.286,15.401,534.286L15.401,534.286z"/>
	<path fill="#3E4547" d="M579.575,572.972c-2.349-6.748-5.848-12.746-10.445-18.094c-4.599-5.348-10.196-9.547-16.844-12.596
		c-6.697-3.098-14.344-4.697-22.94-4.748h-31.388c-3.548,0-6.547,1.15-9.096,3.4c-2.549,2.248-3.898,5.496-3.999,9.746v89.014
		c0.101,4.248,1.45,7.496,3.999,9.746c2.549,2.248,5.548,3.398,9.096,3.398h31.388c7.247,0,14.044-1.25,20.492-3.799
		c6.447-2.549,12.145-6.348,17.093-11.295c4.998-4.949,8.896-11.045,11.745-18.293c2.899-7.248,4.398-15.594,4.448-25.039
		C583.124,586.915,581.925,579.769,579.575,572.972L579.575,572.972z M542.091,565.923c4.248,2.699,7.497,6.498,9.646,11.396
		c2.148,4.848,3.248,10.545,3.248,17.094c0,6.746-1.1,12.645-3.248,17.791c-2.149,5.1-5.448,9.098-9.896,11.945
		c-4.448,2.9-10.046,4.35-16.844,4.398h-13.895v-66.723h14.994C532.494,561.876,537.843,563.274,542.091,565.923L542.091,565.923z"
		/>
	<path fill="#3E4547" d="M470.319,554.478c-3.148-5.348-7.597-9.445-13.345-12.395s-12.595-4.498-20.441-4.549h-31.538
		c-3.548,0-6.547,1.15-9.096,3.398c-2.549,2.25-3.898,5.498-3.999,9.746v89.215c0.05,4.549,1.25,8.047,3.699,10.396
		c2.349,2.35,5.497,3.498,9.396,3.498s7.048-1.148,9.396-3.498c2.449-2.35,3.698-5.848,3.749-10.396v-33.236h0.3l32.287,40.635
		c1.449,2.049,3.049,3.648,4.798,4.748c1.799,1.148,4.349,1.748,7.597,1.748c3.349-0.1,5.998-0.85,7.997-2.299
		c1.949-1.449,3.349-3.148,4.198-5.049c0.899-1.898,1.3-3.498,1.249-4.848c0-2.098-0.499-4.049-1.449-5.848
		c-0.85-1.748-2.199-3.549-3.998-5.447l-22.841-24.59c8.347-1.65,14.844-5.299,19.592-10.996c4.748-5.648,7.147-12.744,7.247-21.342
		C475.067,566.124,473.468,559.825,470.319,554.478L470.319,554.478z M435.434,561.825c3.849,0.051,7.047,1.199,9.496,3.35
		c2.549,2.148,3.849,5.197,3.948,9.145c0,3.699-1.149,6.748-3.448,9.197c-2.35,2.35-5.648,3.598-9.996,3.699h-17.293v-25.391
		H435.434L435.434,561.825z"/>
	<path fill="#3E4547" d="M355.315,542.433c-8.446-4.947-18.393-7.447-29.838-7.496c-11.496,0.049-21.441,2.549-29.889,7.496
		c-8.446,4.949-15.043,11.896-19.692,20.893c-4.648,8.945-7.047,19.592-7.097,31.887c0.05,12.244,2.449,22.891,7.097,31.838
		c4.648,9.045,11.246,15.992,19.692,20.891c8.447,4.949,18.393,7.447,29.889,7.498c11.445-0.051,21.392-2.549,29.838-7.498
		c8.446-4.898,15.044-11.846,19.692-20.891c4.647-8.947,7.047-19.594,7.097-31.838c-0.05-12.295-2.449-22.941-7.097-31.887
		C370.359,554.329,363.762,547.382,355.315,542.433L355.315,542.433z M341.871,564.425c4.148,3.447,7.196,7.846,9.146,13.295
		c2,5.447,2.999,11.244,2.949,17.492c0.05,6.197-0.949,11.996-2.949,17.443c-1.949,5.447-4.997,9.846-9.146,13.295
		c-4.249,3.348-9.696,5.098-16.394,5.248c-6.747-0.15-12.195-1.9-16.443-5.248c-4.148-3.449-7.197-7.848-9.146-13.295
		s-2.949-11.246-2.949-17.443c0-6.248,1-12.045,2.949-17.492c1.949-5.449,4.998-9.848,9.146-13.295
		c4.248-3.35,9.696-5.098,16.443-5.199C332.175,559.327,337.622,561.075,341.871,564.425L341.871,564.425z"/>
	<path fill="#3E4547" d="M252.957,536.585c-4.249,0.15-7.397,1.25-9.497,3.398c-2.049,2.15-3.448,4.898-4.098,8.248l-13.445,62.125
		h-0.35l-18.942-60.326c-1.6-4.949-3.599-8.447-5.948-10.496c-2.349-2-5.298-2.998-8.796-2.949
		c-3.449-0.049-6.397,0.949-8.747,2.949c-2.399,2.049-4.398,5.547-5.948,10.496l-18.992,60.326h-0.3l-13.445-62.125
		c-0.65-3.35-2.049-6.098-4.098-8.248c-2.099-2.148-5.248-3.248-9.497-3.398c-3.998,0.15-7.197,1.4-9.546,3.799
		c-2.349,2.449-3.549,5.447-3.599,9.047c0.05,2.248,0.4,4.598,1.049,7.047c0.55,2.449,1.1,4.598,1.6,6.396l17.443,71.322
		c0.95,4.199,2.099,7.746,3.349,10.646c1.25,2.947,3.099,5.197,5.448,6.646c2.299,1.549,5.498,2.299,9.646,2.299
		c4.998,0,8.996-1.25,11.945-3.697c2.999-2.449,5.248-5.998,6.697-10.697l16.843-52.729h0.3l16.843,52.729
		c1.5,4.699,3.749,8.248,6.747,10.697c2.949,2.447,6.897,3.697,11.945,3.697c4.099,0,7.297-0.75,9.646-2.299
		c2.349-1.449,4.199-3.699,5.448-6.646c1.25-2.9,2.349-6.447,3.298-10.646l17.493-71.322c0.45-1.799,1-3.947,1.599-6.396
		c0.65-2.449,0.95-4.799,1-7.047c-0.05-3.6-1.2-6.598-3.549-9.047C260.153,537.985,256.955,536.735,252.957,536.585L252.957,536.585
		z"/>
</g>
</svg>
