<?xml version="1.0" encoding="utf-8"?>
<!-- Generator: Adobe Illustrator 12.0.0, SVG Export Plug-In . SVG Version: 6.00 Build 51448)  -->
<!DOCTYPE svg PUBLIC "-//W3C//DTD SVG 1.1//EN" "http://www.w3.org/Graphics/SVG/1.1/DTD/svg11.dtd" [
	<!ENTITY ns_svg "http://www.w3.org/2000/svg">
	<!ENTITY ns_xlink "http://www.w3.org/1999/xlink">
]>
<svg  version="1.1" id="Layer_1" xmlns="&ns_svg;" xmlns:xlink="&ns_xlink;" width="594.319" height="656.388"
	 viewBox="0 0 594.319 656.388" overflow="visible" enable-background="new 0 0 594.319 656.388" xml:space="preserve">
<g>
	<path fill="#3E4547" d="M537.043,239.954c0-66.273-23.441-122.851-70.272-169.682S363.362,0,297.139,0
		c-66.273,0-122.851,23.441-169.682,70.272c-46.832,46.831-70.222,103.409-70.222,169.682c0,66.224,23.391,122.801,70.222,169.632
		c46.831,46.832,103.409,70.272,169.682,70.322c66.224-0.05,122.801-23.491,169.632-70.322S537.043,306.178,537.043,239.954
		L537.043,239.954z M477.066,239.904c0,49.68-17.593,92.113-52.729,127.249s-77.569,52.729-127.199,52.729
		c-49.68,0-92.113-17.593-127.249-52.729c-35.136-35.136-52.729-77.569-52.679-127.249c-0.05-49.68,17.543-92.113,52.679-127.249
		c35.136-35.136,77.569-52.679,127.249-52.679c49.63,0,92.063,17.543,127.199,52.679
		C459.474,147.791,477.066,190.224,477.066,239.904L477.066,239.904z"/>
	<path fill="#3E4547" d="M296.989,120.652c-4.598,4.548-7.547,9.896-8.796,15.994v105.058c0,0.05,0,0.05,0,0.1
		c0,2.749,0.3,5.398,0.949,7.897c0.2,0.75,0.45,1.549,0.75,2.299c1.449,4.048,3.798,7.747,7.097,11.095
		c5.847,5.848,12.895,8.747,21.191,8.747c8.247,0,15.345-2.899,21.192-8.747c5.848-5.897,8.796-12.995,8.796-21.292
		c0-0.05,0-0.05,0-0.05v-20.892c0-0.65,0-1.35,0-2c0-5.998,0-11.995,0-17.993c0-3.999,0-7.997,0-11.945v-52.329
		c-1.35-6.048-4.248-11.396-8.796-15.944c-5.848-5.848-12.945-8.796-21.192-8.796C309.884,111.855,302.836,114.804,296.989,120.652
		L296.989,120.652z"/>
	<path fill="#9ABE00" d="M255.355,181.578c-5.848-5.848-12.945-8.797-21.192-8.797c-8.296,0-15.344,2.949-21.191,8.797
		c-4.548,4.548-7.497,9.846-8.796,15.894v0.05v125.1v0.05c0,2.749,0.3,5.398,0.95,7.947c0.25,0.749,0.5,1.499,0.75,2.249
		c1.45,4.098,3.798,7.797,7.097,11.096c0.35,0.399,0.75,0.799,1.2,1.149c1.149,1.049,2.349,1.949,3.599,2.799
		c2.549,1.749,5.248,2.999,8.196,3.798c0.95,0.25,1.949,0.5,2.999,0.65h0.05l125.101,0.449h-0.051c0.051-0.05,0.051-0.05,0.101,0
		c2.749,0,5.397-0.3,7.896-0.949c0.75-0.25,1.55-0.5,2.299-0.75c4.099-1.399,7.797-3.748,11.096-6.997
		c5.848-5.897,8.747-12.995,8.696-21.241c0.051-8.297-2.849-15.394-8.696-21.242c-5.897-5.848-12.995-8.796-21.291-8.747
		c-0.05-0.05-0.05-0.05-0.05-0.05h-89.964v-95.312h0.05C262.852,191.474,259.903,186.125,255.355,181.578L255.355,181.578z"/>
	<path fill="#9ABE00" d="M107.914,559.727c1.7-2.699,2.549-5.698,2.599-8.997c-0.05-4.248-1.549-7.896-4.548-10.896
		c-2.999-3.049-6.647-4.548-10.896-4.548c-3.349,0-6.347,0.85-8.996,2.599l-45.532,45.532h0.05h-0.05
		c-1.049,0.999-1.899,2.099-2.549,3.248c-0.2,0.351-0.4,0.7-0.55,1.1c-0.95,1.999-1.449,4.198-1.449,6.598c0,0.25,0,0.55,0,0.85
		c0.05,0.8,0.15,1.6,0.3,2.349c0.3,1.55,0.85,2.999,1.649,4.349c0.25,0.45,0.5,0.899,0.8,1.35h0.05l45.332,45.682v-0.05v0.05
		c1,1,2.099,1.85,3.249,2.549c0.35,0.2,0.7,0.4,1.1,0.55c1.999,0.95,4.198,1.449,6.597,1.449c4.249,0,7.847-1.499,10.896-4.498
		c2.999-3.049,4.499-6.647,4.548-10.896c-0.05-4.248-1.549-7.896-4.548-10.945l-0.05-0.05l-32.687-32.737L107.914,559.727
		L107.914,559.727z"/>
	<path fill="#3E4547" d="M15.401,535.236c-4.249,0-7.897,1.499-10.896,4.548c-2.349,2.349-3.849,5.048-4.499,8.196v90.114
		c-0.05,1.399,0.15,2.749,0.5,4.049c0.1,0.399,0.2,0.8,0.35,1.199c0.75,2.099,1.949,3.998,3.649,5.697
		c2.999,2.999,6.647,4.499,10.896,4.499c4.248,0,7.896-1.5,10.945-4.499c2.999-3.049,4.499-6.697,4.499-10.945V547.98
		c-0.65-3.148-2.149-5.848-4.499-8.196C23.298,536.735,19.649,535.236,15.401,535.236L15.401,535.236z"/>
	<path fill="#3E4547" d="M590.871,541.733c-2.349-2.1-5.698-3.199-10.146-3.249h-55.628c-4.448,0.05-7.797,1.149-10.146,3.249
		c-2.349,2.149-3.498,5.098-3.498,8.847c0,3.748,1.149,6.747,3.498,8.896c2.35,2.148,5.698,3.248,10.146,3.299h14.693v78.068
		c0.051,4.548,1.25,8.047,3.699,10.396c2.349,2.35,5.497,3.499,9.396,3.499c3.949,0,7.098-1.149,9.446-3.499
		c2.449-2.349,3.649-5.848,3.699-10.396v-78.068h14.694c4.447-0.051,7.797-1.15,10.146-3.299c2.299-2.149,3.448-5.148,3.448-8.896
		C594.319,546.831,593.17,543.883,590.871,541.733L590.871,541.733z"/>
	<path fill="#3E4547" d="M507.154,555.428c-3.148-5.348-7.597-9.446-13.345-12.395c-5.747-2.949-12.595-4.499-20.441-4.549h-31.537
		c-3.549,0-6.548,1.149-9.097,3.398c-2.549,2.25-3.898,5.498-3.998,9.746v89.215c0.05,4.548,1.249,8.047,3.698,10.396
		c2.349,2.35,5.498,3.499,9.396,3.499s7.047-1.149,9.396-3.499c2.449-2.349,3.699-5.848,3.749-10.396v-33.236h0.3l32.287,40.634
		c1.449,2.049,3.049,3.648,4.798,4.748c1.8,1.149,4.349,1.749,7.597,1.749c3.349-0.101,5.998-0.85,7.997-2.299
		c1.949-1.45,3.349-3.149,4.198-5.049c0.899-1.898,1.3-3.498,1.25-4.848c0-2.099-0.5-4.049-1.45-5.848
		c-0.85-1.749-2.198-3.549-3.998-5.447l-22.841-24.591c8.347-1.649,14.844-5.298,19.592-10.995
		c4.749-5.648,7.147-12.745,7.247-21.342C511.902,567.073,510.304,560.775,507.154,555.428L507.154,555.428z M481.765,566.124
		c2.549,2.148,3.849,5.197,3.948,9.146c0,3.699-1.149,6.748-3.448,9.196c-2.35,2.35-5.648,3.599-9.996,3.699h-17.293v-25.39h17.293
		C476.117,562.825,479.315,563.975,481.765,566.124L481.765,566.124z"/>
	<path fill="#3E4547" d="M381.904,539.234c-2.698-2.149-6.247-3.299-10.695-3.349c-4.298,0.05-7.797,1.199-10.446,3.349
		c-2.648,2.149-4.848,5.048-6.547,8.597c-1.749,3.599-3.349,7.547-4.798,11.845l-25.34,68.173c-1.1,2.999-1.949,5.498-2.499,7.447
		c-0.55,1.899-0.9,3.549-1.1,4.898c-0.15,1.299-0.25,2.599-0.25,3.848c0.05,3.249,1.199,5.848,3.549,7.747
		c2.249,1.899,5.298,2.899,9.096,2.949c4.148-0.101,7.197-1.3,9.146-3.648c1.949-2.35,3.499-5.398,4.599-9.146l3.248-10.396H392.9
		l3.249,10.396c1.1,3.748,2.599,6.797,4.548,9.146c1.949,2.349,5.048,3.548,9.196,3.648c3.799-0.05,6.848-1.05,9.097-2.949
		c2.299-1.899,3.498-4.498,3.548-7.747c0-1.249-0.1-2.549-0.25-3.848c-0.199-1.35-0.55-2.999-1.1-4.898
		c-0.549-1.949-1.399-4.448-2.549-7.447l-25.289-68.173c-1.45-4.298-3.049-8.246-4.799-11.845
		C386.803,544.282,384.604,541.384,381.904,539.234L381.904,539.234z M371.709,565.074h0.3l13.145,42.232h-27.539L371.709,565.074
		L371.709,565.074z"/>
	<path fill="#3E4547" d="M287.792,551.38v30.987h-48.831V551.38c-0.05-4.549-1.3-7.997-3.749-10.347
		c-2.349-2.349-5.498-3.498-9.396-3.498s-7.047,1.149-9.396,3.498c-2.449,2.35-3.648,5.798-3.699,10.347v89.364
		c0.05,4.647,1.25,8.146,3.699,10.495c2.349,2.35,5.498,3.499,9.396,3.499s7.047-1.149,9.396-3.499
		c2.449-2.349,3.699-5.848,3.749-10.495v-34.087h48.831v34.087c0.05,4.647,1.299,8.146,3.749,10.495
		c2.349,2.35,5.498,3.499,9.396,3.499c3.898,0,7.047-1.149,9.396-3.499c2.449-2.349,3.699-5.848,3.749-10.495V551.38
		c-0.05-4.549-1.3-7.997-3.749-10.347c-2.349-2.349-5.497-3.498-9.396-3.498c-3.899,0-7.048,1.149-9.396,3.498
		C289.092,543.383,287.842,546.831,287.792,551.38L287.792,551.38z"/>
	<path fill="#3E4547" d="M205.725,554.179c-0.05-3.449-1.149-6.298-3.249-8.646c-2.049-2.35-4.798-4.249-8.197-5.698
		c-3.449-1.35-7.197-2.349-11.246-2.999c-4.048-0.649-8.097-0.949-12.095-0.949c-11.645,0.1-21.741,2.699-30.288,7.847
		c-8.497,5.098-15.094,12.146-19.792,21.191c-4.648,8.997-7.047,19.393-7.098,31.237c0,8.347,1.25,16.094,3.699,23.291
		c2.549,7.297,6.198,13.694,10.996,19.242c4.848,5.448,10.796,9.796,17.793,12.945c7.047,3.148,15.094,4.698,24.14,4.748
		c3.699,0,7.597-0.351,11.746-1c4.148-0.699,8.097-1.799,11.795-3.349c3.699-1.449,6.748-3.448,9.097-5.997
		c2.349-2.449,3.599-5.498,3.648-9.097c0.05-1.199-0.2-2.749-0.7-4.648c-0.55-1.899-1.649-3.599-3.349-5.098
		c-1.649-1.5-4.198-2.299-7.597-2.449c-2.149,0.15-4.198,0.6-6.047,1.449c-1.899,0.85-4.348,1.699-7.297,2.6
		c-2.949,0.85-7.097,1.299-12.395,1.35c-6.047-0.051-11.095-1.649-15.144-4.748c-4.048-3.1-7.097-7.197-9.146-12.346
		c-2.049-5.098-3.099-10.745-3.099-16.894c-0.05-6.047,0.949-11.745,2.949-16.993c2.049-5.348,5.198-9.646,9.546-12.895
		c4.398-3.349,10.096-5.048,17.144-5.147c3.398,0.05,6.447,0.499,9.096,1.399c2.649,0.899,5.148,1.799,7.397,2.698
		c2.199,0.85,4.298,1.3,6.297,1.45c3.499-0.15,6.248-1.45,8.247-3.898C204.625,560.326,205.675,557.427,205.725,554.179
		L205.725,554.179z"/>
</g>
</svg>
