<?xml version="1.0" encoding="utf-8"?>
<!-- Generator: Adobe Illustrator 12.0.0, SVG Export Plug-In . SVG Version: 6.00 Build 51448)  -->
<!DOCTYPE svg PUBLIC "-//W3C//DTD SVG 1.1//EN" "http://www.w3.org/Graphics/SVG/1.1/DTD/svg11.dtd" [
	<!ENTITY ns_svg "http://www.w3.org/2000/svg">
	<!ENTITY ns_xlink "http://www.w3.org/1999/xlink">
]>
<svg  version="1.1" id="Layer_1" xmlns="&ns_svg;" xmlns:xlink="&ns_xlink;" width="479.809" height="654.741"
	 viewBox="0 0 479.809 654.741" overflow="visible" enable-background="new 0 0 479.809 654.741" xml:space="preserve">
<g>
	<path fill="#3E4547" d="M479.809,239.954c0-66.273-23.441-122.851-70.272-169.682S306.128,0,239.904,0
		C173.631,0,117.053,23.441,70.222,70.272C23.391,117.103,0,173.681,0,239.954c0,66.224,23.391,122.801,70.222,169.632
		c46.831,46.832,103.409,70.272,169.682,70.322c66.224-0.05,122.801-23.491,169.632-70.322S479.809,306.178,479.809,239.954
		L479.809,239.954z M419.832,239.904c0,49.68-17.593,92.113-52.729,127.249s-77.569,52.729-127.199,52.729
		c-49.68,0-92.113-17.593-127.249-52.729c-35.136-35.136-52.729-77.569-52.679-127.249c-0.05-49.68,17.543-92.113,52.679-127.249
		c35.136-35.136,77.569-52.679,127.249-52.679c49.63,0,92.063,17.543,127.199,52.679
		C402.239,147.791,419.832,190.224,419.832,239.904L419.832,239.904z"/>
	<path fill="#3E4547" d="M346.812,133.896c-5.848-5.848-12.945-8.796-21.191-8.796c-6.498,0-12.346,1.699-17.493,5.098
		l-38.984,38.984c-0.05,0-0.05,0-0.05,0.05c-1.949,1.949-3.599,3.999-4.898,6.248c-0.449,0.7-0.8,1.399-1.149,2.149
		c-1.85,3.898-2.799,8.197-2.799,12.845c-0.05,8.247,2.898,15.344,8.746,21.191s12.945,8.796,21.242,8.796
		c8.246-0.05,15.344-2.999,21.241-8.847c0-0.05,0-0.05,0.05-0.05l12.045-11.995l26.939-26.989
		c3.349-5.198,5.048-11.045,5.099-17.493C355.558,146.792,352.659,139.744,346.812,133.896L346.812,133.896z"/>
	<path fill="#F07F00" d="M171.981,129.048c-0.75-0.45-1.45-0.799-2.149-1.1c-3.948-1.899-8.196-2.849-12.845-2.849
		c-8.296,0-15.344,2.949-21.191,8.846c-5.848,5.848-8.796,12.895-8.796,21.142c0,8.297,2.949,15.394,8.796,21.242
		c0.05,0.05,0.05,0.05,0.1,0.1l63.574,63.625l-67.423,67.373h-0.05c-3.349,5.198-4.998,11.045-4.998,17.493
		c0,8.247,2.949,15.344,8.796,21.191s12.895,8.797,21.191,8.797c6.447-0.05,12.245-1.699,17.443-5.048h0.05l88.465-88.465
		l-0.051-0.05c0,0,0,0,0.051-0.05c1.849-1.849,3.398-3.749,4.647-5.797c0.101-0.15,0.2-0.3,0.3-0.45c0.4-0.7,0.75-1.399,1.1-2.149
		c1.85-3.898,2.799-8.197,2.85-12.845c-0.051-0.55-0.051-1.1-0.051-1.649c-0.1-1.549-0.3-3.099-0.55-4.548
		c-0.449-2.049-1.049-4.048-1.898-5.947c-0.4-0.85-0.85-1.7-1.3-2.499c-0.45-0.9-1-1.75-1.6-2.599h-0.05l-88.115-88.814v0.05
		c-0.05-0.05-0.05-0.05-0.05-0.05C176.28,131.997,174.181,130.348,171.981,129.048L171.981,129.048z"/>
	<path fill="#3E4547" d="M335.216,293.133l-26.989-26.989c-0.55-0.35-1.1-0.65-1.649-1c-4.748-2.699-10.046-4.048-15.844-4.048
		c-8.296,0-15.344,2.949-21.191,8.796s-8.796,12.895-8.796,21.191c0,6.448,1.699,12.295,5.098,17.493l38.984,38.984
		c0,0,0,0,0.05,0.051c1.949,1.949,3.999,3.548,6.248,4.897c0.699,0.4,1.399,0.75,2.148,1.1c3.898,1.85,8.197,2.799,12.846,2.849
		c8.246,0,15.344-2.948,21.191-8.796s8.796-12.945,8.796-21.192c-0.05-8.296-2.999-15.394-8.847-21.241
		c-0.05-0.05-0.05-0.05-0.05-0.1L335.216,293.133L335.216,293.133z"/>
	<path fill="#F07F00" d="M189.324,559.727c1.7-2.699,2.549-5.698,2.599-8.997c-0.05-4.248-1.549-7.896-4.548-10.896
		c-2.999-3.049-6.647-4.548-10.896-4.548c-3.349,0-6.347,0.85-8.996,2.599l-45.532,45.532h0.05h-0.05
		c-1.049,0.999-1.899,2.099-2.549,3.248c-0.2,0.351-0.4,0.7-0.55,1.1c-0.95,1.999-1.449,4.198-1.449,6.598c0,0.25,0,0.55,0,0.85
		c0.05,0.8,0.15,1.6,0.3,2.349c0.3,1.55,0.85,2.999,1.649,4.349c0.25,0.45,0.5,0.899,0.8,1.35h0.05l45.332,45.682v-0.05v0.05
		c1,1,2.099,1.85,3.249,2.549c0.35,0.2,0.7,0.4,1.1,0.55c1.999,0.95,4.198,1.449,6.597,1.449c4.249,0,7.847-1.499,10.896-4.498
		c2.999-3.049,4.499-6.647,4.548-10.896c-0.05-4.248-1.549-7.896-4.548-10.945l-0.05-0.05l-32.687-32.737L189.324,559.727
		L189.324,559.727z"/>
	<path fill="#3E4547" d="M96.812,535.236c-4.249,0-7.897,1.499-10.896,4.548c-2.349,2.349-3.849,5.048-4.499,8.196v90.114
		c-0.05,1.399,0.15,2.749,0.5,4.049c0.1,0.399,0.2,0.8,0.35,1.199c0.75,2.099,1.949,3.998,3.649,5.697
		c2.999,2.999,6.647,4.499,10.896,4.499c4.248,0,7.897-1.5,10.945-4.499c2.999-3.049,4.499-6.697,4.499-10.945V547.98
		c-0.65-3.148-2.149-5.848-4.499-8.196C104.708,536.735,101.06,535.236,96.812,535.236L96.812,535.236z"/>
	<path fill="#3E4547" d="M375.899,541.033c-2.448,2.35-3.648,5.848-3.698,10.446v89.364c0.05,4.548,1.25,8.047,3.698,10.396
		c2.35,2.35,5.498,3.499,9.396,3.499s7.047-1.149,9.396-3.499c2.449-2.349,3.698-5.848,3.748-10.396v-89.364
		c-0.05-4.599-1.299-8.097-3.748-10.446c-2.35-2.349-5.498-3.498-9.396-3.498S378.249,538.685,375.899,541.033L375.899,541.033z"/>
	<path fill="#3E4547" d="M337.665,541.134c-2.249,2.249-4.498,5.098-6.647,8.446l-14.694,20.292l-14.794-20.292
		c-2.148-3.349-4.398-6.197-6.647-8.446c-2.199-2.249-5.048-3.449-8.546-3.599c-3.099,0.05-5.648,0.699-7.647,1.85
		c-2.049,1.199-3.599,2.748-4.598,4.598c-1,1.85-1.5,3.749-1.5,5.748c0,2.099,0.45,4.098,1.35,5.997
		c0.85,1.85,1.999,3.749,3.499,5.647l22.99,30.438l-27.988,37.535c-1.449,1.849-2.549,3.398-3.398,4.647
		c-0.8,1.25-1.399,2.499-1.75,3.749c-0.35,1.149-0.55,2.549-0.55,4.198c0.101,3.799,1.3,6.848,3.648,9.146
		c2.35,2.349,5.398,3.599,9.146,3.648c2.249,0.05,4.398-0.45,6.397-1.6c2.05-1.1,4.198-3.148,6.447-6.147l23.94-32.737
		l23.891,32.737c2.249,2.999,4.398,5.048,6.397,6.147c1.999,1.149,4.148,1.649,6.397,1.6c3.749-0.05,6.798-1.3,9.196-3.648
		c2.299-2.299,3.499-5.348,3.599-9.146c0-1.649-0.2-3.049-0.55-4.198c-0.35-1.25-0.949-2.499-1.749-3.749
		c-0.85-1.249-1.949-2.799-3.398-4.647l-27.989-37.535l23.041-30.438c1.449-1.898,2.599-3.798,3.448-5.647
		c0.9-1.899,1.35-3.898,1.35-5.997c0-1.999-0.5-3.898-1.499-5.748c-1-1.85-2.549-3.398-4.599-4.598
		c-1.999-1.15-4.548-1.8-7.646-1.85C342.763,537.685,339.914,538.885,337.665,541.134L337.665,541.134z"/>
	<path fill="#3E4547" d="M261.046,541.833c-2.249-2.148-5.498-3.299-9.646-3.349h-40.184c-3.549,0-6.547,1.149-9.097,3.398
		c-2.549,2.25-3.898,5.498-3.998,9.746v89.015c0.1,4.249,1.449,7.497,3.998,9.746c2.549,2.249,5.548,3.398,9.097,3.398h41.134
		c4.147-0.05,7.396-1.149,9.646-3.298c2.299-2.149,3.449-5.148,3.449-8.896c0-3.799-1.15-6.748-3.449-8.847
		c-2.249-2.1-5.498-3.199-9.646-3.249H224.36v-21.591h24.74c4.148-0.051,7.396-1.1,9.646-3.199c2.349-2.149,3.498-5.147,3.498-8.946
		c0-3.748-1.149-6.697-3.498-8.847c-2.25-2.148-5.498-3.198-9.646-3.248h-24.74v-20.892h27.039c4.148-0.051,7.397-1.1,9.646-3.249
		c2.249-2.1,3.398-5.098,3.448-8.946C264.444,546.932,263.295,543.982,261.046,541.833L261.046,541.833z"/>
</g>
</svg>
