<?xml version="1.0" encoding="utf-8"?>
<!-- Generator: Adobe Illustrator 12.0.0, SVG Export Plug-In . SVG Version: 6.00 Build 51448)  -->
<!DOCTYPE svg PUBLIC "-//W3C//DTD SVG 1.1//EN" "http://www.w3.org/Graphics/SVG/1.1/DTD/svg11.dtd" [
	<!ENTITY ns_svg "http://www.w3.org/2000/svg">
	<!ENTITY ns_xlink "http://www.w3.org/1999/xlink">
]>
<svg  version="1.1" id="Layer_1" xmlns="&ns_svg;" xmlns:xlink="&ns_xlink;" width="821.279" height="656.388"
	 viewBox="0 0 821.279 656.388" overflow="visible" enable-background="new 0 0 821.279 656.388" xml:space="preserve">
<g>
	<path fill="#3E4547" d="M650.548,239.954c0-66.273-23.441-122.851-70.272-169.682S476.867,0,410.643,0
		C344.37,0,287.792,23.441,240.961,70.272c-46.832,46.831-70.222,103.409-70.222,169.682c0,66.224,23.391,122.801,70.222,169.632
		c46.831,46.832,103.409,70.272,169.682,70.322c66.224-0.05,122.801-23.491,169.632-70.322S650.548,306.178,650.548,239.954
		L650.548,239.954z M590.571,239.904c0,49.68-17.593,92.113-52.729,127.249s-77.569,52.729-127.2,52.729
		c-49.68,0-92.113-17.593-127.249-52.729c-35.136-35.136-52.729-77.569-52.679-127.249c-0.05-49.68,17.543-92.113,52.679-127.249
		c35.136-35.136,77.569-52.679,127.249-52.679c49.63,0,92.064,17.543,127.2,52.679C572.979,147.791,590.571,190.224,590.571,239.904
		L590.571,239.904z"/>
	<path fill="#9ABE00" d="M495.76,195.672c1.849-3.898,2.799-8.197,2.849-12.845c-0.05-8.247-2.999-15.294-8.847-21.142
		c-5.848-5.898-12.944-8.847-21.191-8.847c-8.297,0-15.394,2.949-21.241,8.847h-0.051l-63.625,63.625l-67.373-67.423
		c-5.198-3.349-11.045-5.048-17.493-5.048c-8.296,0-15.344,2.949-21.191,8.796s-8.796,12.895-8.796,21.192
		c0,6.447,1.699,12.295,5.048,17.443v0.05l88.465,88.465h0.05c1.949,1.949,4.048,3.599,6.297,4.948c0.7,0.4,1.399,0.75,2.149,1.1
		c3.898,1.85,8.196,2.799,12.845,2.849c0.55-0.05,1.1-0.05,1.649-0.05c1.549-0.1,3.049-0.3,4.498-0.55
		c3.049-0.6,5.848-1.649,8.497-3.148c0.9-0.5,1.75-1.05,2.599-1.649v-0.05l88.815-88.115h-0.05c0-0.05,0-0.05,0.05-0.05
		c1.949-1.949,3.599-4.048,4.948-6.248C495.06,197.071,495.409,196.372,495.76,195.672L495.76,195.672z"/>
	<path fill="#3E4547" d="M522.199,217.813c-6.498-0.05-12.346,1.649-17.543,5.048l-88.415,88.465c-0.05,0.05-0.05,0.05-0.05,0.1
		c-1.949,1.949-3.599,3.999-4.899,6.248c-0.399,0.7-0.75,1.399-1.099,2.149c-1.899,3.848-2.849,8.146-2.849,12.795
		c0,8.246,2.949,15.344,8.797,21.191c5.848,5.848,12.895,8.797,21.191,8.797s15.394-2.949,21.241-8.797
		c0.05-0.05,0.05-0.05,0.05-0.05l14.744-14.794c0.45-0.45,0.95-0.95,1.449-1.399c4.249-4.249,8.447-8.447,12.695-12.695
		c2.299-2.299,4.599-4.598,6.897-6.897c9.945-9.946,15.193-15.194,15.743-15.693l36.985-36.985
		c3.349-5.248,4.998-11.045,5.048-17.493c-0.05-8.296-2.948-15.394-8.796-21.241S530.445,217.763,522.199,217.813L522.199,217.813z"
		/>
	<path fill="#9ABE00" d="M107.914,559.727c1.699-2.699,2.549-5.698,2.599-8.997c-0.05-4.248-1.549-7.896-4.548-10.896
		c-2.999-3.049-6.647-4.548-10.896-4.548c-3.349,0-6.348,0.85-8.997,2.599l-45.532,45.532h0.051h-0.051
		c-1.049,0.999-1.898,2.099-2.549,3.248c-0.2,0.351-0.399,0.7-0.55,1.1c-0.949,1.999-1.449,4.198-1.449,6.598c0,0.25,0,0.55,0,0.85
		c0.05,0.8,0.15,1.6,0.3,2.349c0.3,1.55,0.85,2.999,1.649,4.349c0.25,0.45,0.5,0.899,0.8,1.35h0.05l45.332,45.682v-0.05v0.05
		c1,1,2.099,1.85,3.249,2.549c0.35,0.2,0.699,0.4,1.099,0.55c2,0.95,4.199,1.449,6.598,1.449c4.248,0,7.847-1.499,10.896-4.498
		c2.999-3.049,4.498-6.647,4.548-10.896c-0.05-4.248-1.549-7.896-4.548-10.945l-0.05-0.05l-32.687-32.737L107.914,559.727
		L107.914,559.727z"/>
	<path fill="#3E4547" d="M15.401,535.236c-4.248,0-7.896,1.499-10.896,4.548c-2.35,2.349-3.849,5.048-4.498,8.196v90.114
		c-0.05,1.399,0.149,2.749,0.5,4.049c0.1,0.399,0.199,0.8,0.35,1.199c0.749,2.099,1.949,3.998,3.648,5.697
		c2.999,2.999,6.647,4.499,10.896,4.499s7.896-1.5,10.945-4.499c2.999-3.049,4.498-6.697,4.498-10.945V547.98
		c-0.649-3.148-2.148-5.848-4.498-8.196C23.298,536.735,19.649,535.236,15.401,535.236L15.401,535.236z"/>
	<path fill="#3E4547" d="M821.029,640.194c-0.2-1.35-0.55-2.999-1.1-4.898c-0.55-1.949-1.399-4.448-2.549-7.447l-25.29-68.173
		c-1.449-4.298-3.049-8.246-4.798-11.845c-1.75-3.549-3.948-6.447-6.647-8.597s-6.248-3.299-10.696-3.349
		c-4.298,0.05-7.797,1.199-10.445,3.349c-2.649,2.149-4.848,5.048-6.548,8.597c-1.749,3.599-3.349,7.547-4.798,11.845l-25.34,68.173
		c-1.1,2.999-1.949,5.498-2.499,7.447c-0.1,0.35-0.2,0.649-0.25,0.949c-0.55-1.349-1.399-2.549-2.499-3.498
		c-2.249-2.1-5.497-3.199-9.646-3.249h-28.139v-78.019c-0.051-4.599-1.3-8.097-3.749-10.446c-2.349-2.349-5.498-3.498-9.396-3.498
		s-7.047,1.149-9.396,3.498c-2.449,2.35-3.649,5.848-3.699,10.446v89.164c0.101,4.249,1.45,7.497,3.999,9.746
		s5.548,3.398,9.096,3.398h41.284c4.148-0.05,7.396-1.149,9.646-3.298c0.85-0.75,1.55-1.649,2.1-2.649
		c0.55,1.55,1.499,2.849,2.849,3.948c2.249,1.899,5.298,2.899,9.097,2.949c4.148-0.1,7.197-1.3,9.146-3.648
		c1.949-2.35,3.498-5.398,4.598-9.146l3.249-10.396h43.032l3.249,10.396c1.1,3.748,2.599,6.797,4.548,9.146
		c1.949,2.349,5.049,3.549,9.196,3.648c3.799-0.05,6.848-1.05,9.097-2.949c2.299-1.898,3.499-4.498,3.549-7.747
		C821.279,642.793,821.18,641.493,821.029,640.194L821.029,640.194z M770.449,565.074h0.3l13.146,42.232h-27.539L770.449,565.074
		L770.449,565.074z"/>
	<path fill="#3E4547" d="M619.16,541.033c-2.449,2.35-3.648,5.848-3.698,10.446v56.077c-0.051,5.099-1.15,9.396-3.249,12.945
		c-2.149,3.549-5.048,6.197-8.646,7.997c-3.549,1.799-7.547,2.698-11.945,2.698c-4.299,0-8.247-0.899-11.846-2.698
		c-3.548-1.8-6.347-4.448-8.446-7.997c-2.099-3.549-3.198-7.847-3.249-12.945v-56.077c-0.05-4.599-1.299-8.097-3.698-10.446
		c-2.399-2.349-5.548-3.498-9.446-3.498s-7.047,1.149-9.396,3.498c-2.448,2.35-3.648,5.848-3.698,10.446v56.077
		c0.101,10.146,2.249,18.893,6.447,26.14c4.249,7.247,10.046,12.845,17.493,16.794c7.497,3.898,16.094,5.848,25.84,5.897
		c9.846-0.05,18.492-1.999,25.939-5.897c7.497-3.949,13.395-9.547,17.643-16.794c4.249-7.247,6.397-15.993,6.498-26.14v-56.077
		c-0.05-4.599-1.3-8.097-3.749-10.446c-2.349-2.349-5.497-3.498-9.396-3.498S621.509,538.685,619.16,541.033L619.16,541.033z"/>
	<path fill="#3E4547" d="M501.507,537.535c-4.348-0.05-7.747,0.899-10.296,2.799c-2.549,1.85-4.698,4.848-6.447,8.996
		c-1.85,4.148-3.849,9.696-5.947,16.544l-12.795,39.684h-0.35l-12.795-39.684c-2.1-6.848-4.099-12.396-5.948-16.544
		c-1.749-4.148-3.898-7.146-6.447-8.996c-2.549-1.899-5.947-2.849-10.296-2.799c-2.249-0.05-4.548,0.399-6.897,1.3
		c-2.299,0.85-4.397,2.448-6.297,4.798c-1.899,2.449-3.249,5.897-4.099,10.445l-10.396,59.227
		c-0.649,4.049-1.349,8.047-2.049,11.945c-0.649,3.948-1.199,7.447-1.649,10.445c-0.45,3.049-0.65,5.198-0.65,6.548
		c0,1.999,0.5,3.948,1.5,5.848c0.95,1.899,2.349,3.448,4.198,4.648c1.799,1.249,3.999,1.949,6.647,1.999
		c3.849-0.05,6.798-0.899,8.847-2.549s3.549-3.749,4.448-6.298c0.899-2.648,1.55-5.447,1.899-8.446l7.747-51.18h0.3l17.743,56.678
		c1.199,4.147,2.898,7.196,5.098,9.046c2.299,1.899,5.397,2.799,9.296,2.749c3.898,0.05,6.997-0.85,9.246-2.749
		c2.199-1.85,3.898-4.898,5.148-9.046l17.693-56.678h0.3l7.746,51.18c0.351,2.999,1,5.798,1.899,8.446
		c0.899,2.549,2.399,4.648,4.448,6.298c2.05,1.649,4.998,2.499,8.847,2.549c2.648-0.05,4.848-0.75,6.647-1.999
		c1.849-1.2,3.249-2.749,4.198-4.648c1-1.899,1.499-3.849,1.499-5.848c0-1.35-0.199-3.499-0.649-6.548
		c-0.45-2.998-1-6.497-1.649-10.445c-0.699-3.898-1.399-7.896-2.049-11.945l-10.346-59.227c-0.851-4.548-2.249-7.996-4.148-10.445
		c-1.899-2.35-3.999-3.948-6.298-4.798C506.056,537.935,503.756,537.485,501.507,537.535L501.507,537.535z"/>
	<path fill="#3E4547" d="M387.202,555.428c-3.148-5.348-7.597-9.446-13.344-12.395c-5.748-2.949-12.595-4.499-20.442-4.549h-31.538
		c-3.548,0-6.547,1.149-9.096,3.398c-2.549,2.25-3.898,5.498-3.999,9.746v89.215c0.05,4.548,1.25,8.047,3.699,10.396
		c2.349,2.35,5.498,3.499,9.396,3.499s7.047-1.149,9.396-3.499c2.449-2.349,3.698-5.848,3.749-10.396v-33.236h0.3l32.287,40.634
		c1.449,2.049,3.049,3.648,4.798,4.748c1.799,1.149,4.348,1.749,7.597,1.749c3.349-0.101,5.998-0.85,7.997-2.299
		c1.949-1.45,3.349-3.149,4.198-5.049c0.9-1.898,1.3-3.498,1.25-4.848c0-2.099-0.5-4.049-1.449-5.848
		c-0.85-1.749-2.199-3.549-3.999-5.447l-22.841-24.591c8.347-1.649,14.844-5.298,19.592-10.995
		c4.748-5.648,7.147-12.745,7.247-21.342C391.951,567.073,390.351,560.775,387.202,555.428L387.202,555.428z M352.316,562.775
		c3.848,0.05,7.047,1.199,9.496,3.349c2.549,2.148,3.849,5.197,3.948,9.146c0,3.699-1.149,6.748-3.448,9.196
		c-2.349,2.35-5.648,3.599-9.996,3.699h-17.293v-25.39H352.316L352.316,562.775z"/>
	<path fill="#3E4547" d="M291.891,627.999c4.648-8.946,7.047-19.593,7.097-31.838c-0.05-12.295-2.449-22.94-7.097-31.887
		c-4.648-8.996-11.246-15.943-19.692-20.892c-8.446-4.948-18.393-7.447-29.838-7.497c-11.496,0.05-21.441,2.549-29.888,7.497
		c-8.446,4.948-15.044,11.896-19.692,20.892c-4.648,8.946-7.047,19.592-7.097,31.887c0.05,12.245,2.449,22.892,7.097,31.838
		c4.648,9.046,11.246,15.993,19.692,20.892c8.447,4.948,18.393,7.447,29.888,7.497c11.445-0.05,21.392-2.549,29.838-7.497
		C280.645,643.992,287.242,637.045,291.891,627.999L291.891,627.999z M258.754,565.374c4.148,3.448,7.197,7.847,9.146,13.295
		c2,5.447,2.999,11.245,2.949,17.492c0.05,6.198-0.95,11.996-2.949,17.443c-1.949,5.448-4.998,9.846-9.146,13.295
		c-4.249,3.349-9.696,5.098-16.394,5.248c-6.748-0.15-12.195-1.899-16.443-5.248c-4.148-3.449-7.197-7.847-9.146-13.295
		c-1.949-5.447-2.949-11.245-2.949-17.443c0-6.247,1-12.045,2.949-17.492c1.949-5.448,4.998-9.847,9.146-13.295
		c4.248-3.349,9.696-5.098,16.443-5.198C249.058,560.276,254.505,562.025,258.754,565.374L258.754,565.374z"/>
	<path fill="#3E4547" d="M179.635,541.833c-2.249-2.148-5.498-3.299-9.646-3.349h-40.184c-3.548,0-6.547,1.149-9.096,3.398
		c-2.549,2.25-3.898,5.498-3.999,9.746v89.215c0.05,4.548,1.25,8.047,3.699,10.396c2.349,2.35,5.498,3.499,9.396,3.499
		s7.047-1.149,9.396-3.499c2.449-2.349,3.698-5.848,3.749-10.396v-33.236h23.641c4.148-0.051,7.397-1.1,9.646-3.249
		s3.398-5.148,3.449-8.946c-0.05-3.749-1.2-6.697-3.449-8.847c-2.249-2.1-5.498-3.198-9.646-3.249H142.95v-20.541h27.039
		c4.148-0.051,7.397-1.1,9.646-3.249c2.249-2.1,3.399-5.098,3.449-8.946C183.034,546.932,181.884,543.982,179.635,541.833
		L179.635,541.833z"/>
</g>
</svg>
