<?xml version="1.0" encoding="utf-8"?>
<!-- Generator: Adobe Illustrator 12.0.0, SVG Export Plug-In . SVG Version: 6.00 Build 51448)  -->
<!DOCTYPE svg PUBLIC "-//W3C//DTD SVG 1.1//EN" "http://www.w3.org/Graphics/SVG/1.1/DTD/svg11.dtd" [
	<!ENTITY ns_svg "http://www.w3.org/2000/svg">
	<!ENTITY ns_xlink "http://www.w3.org/1999/xlink">
]>
<svg  version="1.1" id="Layer_1" xmlns="&ns_svg;" xmlns:xlink="&ns_xlink;" width="479.809" height="656.388"
	 viewBox="0 0 479.809 656.388" overflow="visible" enable-background="new 0 0 479.809 656.388" xml:space="preserve">
<g>
	<path fill="#3E4547" d="M479.809,239.954c0-66.273-23.441-122.851-70.272-169.682S306.128,0,239.904,0
		C173.631,0,117.053,23.441,70.222,70.272C23.391,117.103,0,173.681,0,239.954c0,66.224,23.391,122.801,70.222,169.632
		c46.831,46.832,103.409,70.272,169.682,70.322c66.224-0.05,122.801-23.491,169.632-70.322S479.809,306.178,479.809,239.954
		L479.809,239.954z M419.832,239.904c0,49.68-17.593,92.113-52.729,127.249s-77.569,52.729-127.199,52.729
		c-49.68,0-92.113-17.593-127.249-52.729c-35.136-35.136-52.729-77.569-52.679-127.249c-0.05-49.68,17.543-92.113,52.679-127.249
		c35.136-35.136,77.569-52.679,127.249-52.679c49.63,0,92.063,17.543,127.199,52.679
		C402.239,147.791,419.832,190.224,419.832,239.904L419.832,239.904z"/>
	<path fill="#FF00C9" d="M345.063,130.798c-5.848-5.848-12.945-8.796-21.192-8.796c-8.296,0-15.394,2.949-21.241,8.796
		c-0.05,0.05-0.05,0.05-0.05,0.05l-63.625,63.625l-67.373-67.423V127c-5.248-3.349-11.045-4.998-17.493-4.998
		c-8.296,0-15.394,2.949-21.241,8.796s-8.796,12.895-8.747,21.191c0,6.447,1.699,12.245,5.048,17.443v0.05l88.465,88.464v-0.05
		c0,0,0,0,0.05,0.05c1.949,1.949,3.999,3.599,6.248,4.948c0.7,0.35,1.399,0.7,2.149,1.049c3.898,1.85,8.197,2.799,12.845,2.849
		c0.55,0,1.149,0,1.699,0c1.55-0.1,3.049-0.3,4.499-0.6c3.049-0.6,5.848-1.649,8.496-3.148c0.85-0.45,1.749-1,2.599-1.6v-0.05
		l88.765-88.115c0-0.05,0-0.05,0.05-0.05c1.949-1.949,3.599-4.048,4.948-6.298c0.4-0.7,0.75-1.399,1.1-2.149
		c1.85-3.898,2.799-8.146,2.849-12.795C353.858,143.693,350.91,136.646,345.063,130.798L345.063,130.798z"/>
	<path fill="#3E4547" d="M351.06,284.736c1.85-3.898,2.799-8.147,2.849-12.795c-0.05-8.297-2.998-15.344-8.846-21.191
		s-12.945-8.797-21.192-8.797c-8.296,0-15.394,2.949-21.241,8.797c-0.05,0.05-0.05,0.05-0.05,0.05l-63.625,63.625l-67.373-67.423
		v-0.05c-5.248-3.349-11.045-4.998-17.493-4.998c-8.296,0-15.394,2.949-21.241,8.797s-8.796,12.895-8.747,21.191
		c0,6.447,1.699,12.245,5.048,17.443v0.05l88.465,88.464v-0.05c0,0,0,0,0.05,0.05c1.949,1.949,3.999,3.599,6.248,4.948
		c0.7,0.351,1.399,0.7,2.149,1.05c3.898,1.85,8.197,2.799,12.845,2.849c0.55,0,1.149,0,1.699,0c1.55-0.1,3.049-0.3,4.499-0.6
		c3.049-0.6,5.848-1.649,8.496-3.148c0.85-0.45,1.749-1,2.599-1.6v-0.05l88.765-88.115c0-0.05,0-0.05,0.05-0.05
		c1.949-1.949,3.599-4.048,4.948-6.297C350.36,286.186,350.71,285.486,351.06,284.736L351.06,284.736z"/>
	<path fill="#FF00C9" d="M147.941,559.727c1.699-2.699,2.549-5.698,2.599-8.997c-0.05-4.248-1.549-7.896-4.548-10.896
		c-2.999-3.049-6.647-4.548-10.896-4.548c-3.349,0-6.348,0.85-8.997,2.599l-45.532,45.532h0.05h-0.05
		c-1.049,0.999-1.899,2.099-2.549,3.248c-0.2,0.351-0.4,0.7-0.55,1.1c-0.95,1.999-1.45,4.198-1.45,6.598c0,0.25,0,0.55,0,0.85
		c0.05,0.8,0.15,1.6,0.3,2.349c0.3,1.55,0.85,2.999,1.649,4.349c0.25,0.45,0.5,0.899,0.8,1.35h0.05l45.332,45.682v-0.05v0.05
		c1,1,2.099,1.85,3.249,2.549c0.35,0.2,0.7,0.4,1.099,0.55c2,0.95,4.199,1.449,6.598,1.449c4.248,0,7.847-1.499,10.896-4.498
		c2.999-3.049,4.498-6.647,4.548-10.896c-0.05-4.248-1.549-7.896-4.548-10.945l-0.05-0.05l-32.687-32.737L147.941,559.727
		L147.941,559.727z"/>
	<path fill="#3E4547" d="M55.428,535.236c-4.248,0-7.896,1.499-10.896,4.548c-2.349,2.349-3.848,5.048-4.498,8.196v90.114
		c-0.05,1.399,0.15,2.749,0.5,4.049c0.1,0.399,0.2,0.8,0.35,1.199c0.75,2.099,1.949,3.998,3.648,5.697
		c2.999,2.999,6.647,4.499,10.896,4.499c4.248,0,7.896-1.5,10.945-4.499c2.999-3.049,4.499-6.697,4.499-10.945V547.98
		c-0.65-3.148-2.149-5.848-4.499-8.196C63.325,536.735,59.676,535.236,55.428,535.236L55.428,535.236z"/>
	<path fill="#3E4547" d="M432.727,564.274c-4.647-8.996-11.245-15.943-19.691-20.892c-8.447-4.948-18.393-7.447-29.839-7.497
		c-11.495,0.05-21.441,2.549-29.888,7.497s-15.044,11.896-19.692,20.892c-4.647,8.946-7.047,19.592-7.097,31.887
		c0.05,12.245,2.449,22.892,7.097,31.838c4.648,9.046,11.246,15.993,19.692,20.892c8.446,4.948,18.393,7.447,29.888,7.497
		c11.446-0.05,21.392-2.549,29.839-7.497c8.446-4.898,15.044-11.846,19.691-20.892c4.648-8.946,7.048-19.593,7.098-31.838
		C439.774,583.866,437.375,573.221,432.727,564.274L432.727,564.274z M366.753,565.374c4.249-3.349,9.696-5.098,16.444-5.198
		c6.697,0.101,12.145,1.85,16.393,5.198c4.148,3.448,7.197,7.847,9.146,13.295c1.999,5.447,2.999,11.245,2.949,17.492
		c0.05,6.198-0.95,11.996-2.949,17.443c-1.949,5.448-4.998,9.846-9.146,13.295c-4.248,3.349-9.695,5.098-16.393,5.248
		c-6.748-0.15-12.195-1.899-16.444-5.248c-4.147-3.449-7.196-7.847-9.146-13.295c-1.949-5.447-2.949-11.245-2.949-17.443
		c0-6.247,1-12.045,2.949-17.492C359.557,573.221,362.605,568.822,366.753,565.374L366.753,565.374z"/>
	<path fill="#3E4547" d="M294.282,541.033c-2.449,2.35-3.648,5.848-3.698,10.446v89.364c0.05,4.548,1.249,8.047,3.698,10.396
		c2.35,2.35,5.498,3.499,9.396,3.499s7.047-1.149,9.396-3.499c2.449-2.349,3.698-5.848,3.748-10.396v-89.364
		c-0.05-4.599-1.299-8.097-3.748-10.446c-2.35-2.349-5.498-3.498-9.396-3.498S296.632,538.685,294.282,541.033L294.282,541.033z"/>
	<path fill="#3E4547" d="M287.436,550.38c-0.051-3.448-1.25-6.397-3.549-8.946c-2.35-2.449-5.448-3.749-9.297-3.898
		c-3.198,0.05-5.697,0.649-7.547,1.749c-1.849,1.1-3.298,2.549-4.298,4.349c-1.05,1.799-1.949,3.698-2.699,5.697l-22.291,58.977
		l-22.341-58.977c-0.75-1.999-1.649-3.898-2.699-5.697c-1-1.8-2.449-3.249-4.298-4.349c-1.85-1.1-4.349-1.699-7.597-1.749
		c-3.849,0.149-6.897,1.449-9.247,3.898c-2.299,2.549-3.499,5.498-3.548,8.946c0.05,1.3,0.45,2.949,1.1,4.898
		c0.65,1.999,1.2,3.548,1.699,4.647l31.987,80.918c0.85,2.199,1.799,4.349,2.799,6.447c1.05,2.149,2.449,3.898,4.249,5.248
		c1.849,1.399,4.348,2.149,7.497,2.199c3.249-0.05,5.748-0.8,7.547-2.199c1.849-1.35,3.299-3.099,4.348-5.248
		c1-2.099,1.899-4.248,2.749-6.447l32.638-80.918c0.499-1.1,1.049-2.648,1.699-4.647C286.985,553.329,287.385,551.68,287.436,550.38
		L287.436,550.38z"/>
	<path fill="#3E4547" d="M171.832,537.535c-3.898,0-7.047,1.149-9.396,3.498c-2.449,2.35-3.648,5.848-3.698,10.446v89.364
		c0.05,4.548,1.25,8.047,3.698,10.396c2.349,2.35,5.498,3.499,9.396,3.499s7.047-1.149,9.396-3.499
		c2.449-2.349,3.699-5.848,3.749-10.396v-89.364c-0.05-4.599-1.299-8.097-3.749-10.446
		C178.878,538.685,175.73,537.535,171.832,537.535L171.832,537.535z"/>
</g>
</svg>
