<?xml version="1.0" encoding="utf-8"?>
<!-- Generator: Adobe Illustrator 12.0.0, SVG Export Plug-In . SVG Version: 6.00 Build 51448)  -->
<!DOCTYPE svg PUBLIC "-//W3C//DTD SVG 1.1//EN" "http://www.w3.org/Graphics/SVG/1.1/DTD/svg11.dtd" [
	<!ENTITY ns_svg "http://www.w3.org/2000/svg">
	<!ENTITY ns_xlink "http://www.w3.org/1999/xlink">
]>
<svg  version="1.1" id="Layer_1" xmlns="&ns_svg;" xmlns:xlink="&ns_xlink;" width="585.473" height="656.388"
	 viewBox="0 0 585.473 656.388" overflow="visible" enable-background="new 0 0 585.473 656.388" xml:space="preserve">
<g>
	<path fill="#3E4547" d="M532.645,239.954c0-66.273-23.441-122.851-70.272-169.682S358.964,0,292.741,0
		C226.467,0,169.89,23.441,123.059,70.272c-46.832,46.831-70.222,103.409-70.222,169.682c0,66.224,23.391,122.801,70.222,169.632
		c46.831,46.832,103.409,70.272,169.682,70.322c66.223-0.05,122.8-23.491,169.631-70.322S532.645,306.178,532.645,239.954
		L532.645,239.954z M292.741,59.976c49.629,0,92.063,17.543,127.199,52.679c35.136,35.136,52.729,77.569,52.729,127.249
		c0,49.68-17.593,92.113-52.729,127.249s-77.569,52.729-127.199,52.729c-49.68,0-92.113-17.593-127.249-52.729
		c-35.136-35.136-52.729-77.569-52.679-127.249c-0.05-49.68,17.543-92.113,52.679-127.249
		C200.627,77.519,243.061,59.976,292.741,59.976L292.741,59.976z"/>
	<path fill="#0069BA" d="M355.115,130.098l-88.464,88.464c0,0,0,0-0.05,0.05c-1.949,1.949-3.599,3.998-4.898,6.248
		c-0.45,0.7-0.8,1.399-1.1,2.149c-1.899,3.898-2.849,8.197-2.849,12.845c0,0.55,0,1.15,0.05,1.7c0.05,1.549,0.25,3.048,0.55,4.498
		c0.6,3.049,1.649,5.848,3.148,8.497c0.45,0.85,1,1.749,1.649,2.599l88.114,88.765h0.05c0,0,0,0,0.05,0.05
		c1.949,1.949,3.999,3.599,6.248,4.948c0.699,0.399,1.399,0.749,2.149,1.099c3.898,1.85,8.196,2.8,12.845,2.85
		c8.246-0.05,15.294-2.999,21.142-8.847s8.796-12.945,8.847-21.191c-0.051-8.297-2.999-15.394-8.847-21.242
		c-0.05-0.05-0.05-0.05-0.05-0.05l-63.575-63.625l67.423-67.373c3.349-5.248,4.998-11.046,5.049-17.493
		c-0.051-8.297-2.949-15.394-8.797-21.242s-12.945-8.796-21.191-8.746C366.161,125.05,360.313,126.75,355.115,130.098
		L355.115,130.098z"/>
	<path fill="#3E4547" d="M187.783,149.74v-0.05v175.08c0,0.05,0,0.05,0,0.1c0,2.749,0.3,5.397,0.95,7.896
		c0.2,0.75,0.45,1.55,0.75,2.3c1.449,4.048,3.798,7.746,7.097,11.095c5.848,5.848,12.895,8.747,21.191,8.747
		c8.247,0,15.344-2.899,21.192-8.747c5.848-5.897,8.796-12.994,8.796-21.291c0-0.05,0-0.05,0-0.1V149.69
		c-1.3-6.048-4.249-11.396-8.796-15.944c-5.848-5.848-12.945-8.796-21.192-8.796c-8.296,0-15.344,2.949-21.191,8.796
		C191.981,138.295,189.032,143.643,187.783,149.74L187.783,149.74z"/>
	<path fill="#0069BA" d="M95.07,535.286c-1.399,0-2.749,0.149-4.048,0.449c-1.75,0.45-3.399,1.15-4.948,2.149l-45.532,45.532h0.05
		h-0.05c-1.049,0.999-1.899,2.099-2.549,3.248c-0.2,0.351-0.4,0.7-0.55,1.1c-0.95,1.999-1.45,4.198-1.45,6.598c0,0.25,0,0.55,0,0.85
		c0.05,0.8,0.15,1.6,0.3,2.349c0.3,1.55,0.85,2.999,1.649,4.349c0.25,0.45,0.5,0.899,0.8,1.35h0.05l45.332,45.682v-0.05v0.05
		c1,1,2.099,1.85,3.249,2.549c0.35,0.2,0.7,0.4,1.1,0.55c2,0.95,4.199,1.449,6.598,1.449c4.248,0,7.847-1.499,10.896-4.498
		c2.999-3.049,4.498-6.647,4.548-10.896c-0.05-4.248-1.549-7.896-4.548-10.945l-0.05-0.05l-32.687-32.737l34.686-34.636
		c1.699-2.699,2.549-5.698,2.599-8.997c-0.05-4.248-1.549-7.896-4.548-10.896c-2.049-2.049-4.348-3.448-6.997-4.099
		C97.719,535.436,96.419,535.286,95.07,535.286L95.07,535.286z"/>
	<path fill="#3E4547" d="M26.347,539.784c-2.049-2.049-4.348-3.398-6.897-4.049c-1.299-0.35-2.648-0.499-4.048-0.499
		c-1.399,0-2.749,0.149-3.998,0.499c-2.599,0.65-4.898,2-6.897,4.049c-2.349,2.349-3.848,5.048-4.498,8.196v90.114
		c-0.05,1.399,0.15,2.749,0.5,4.049c0.1,0.399,0.2,0.8,0.35,1.199c0.75,2.099,1.949,3.998,3.648,5.697
		c2.999,2.999,6.647,4.499,10.896,4.499c4.249,0,7.897-1.5,10.946-4.499c2.999-3.049,4.498-6.697,4.498-10.945V547.98
		C30.196,544.832,28.696,542.133,26.347,539.784L26.347,539.784z"/>
	<path fill="#3E4547" d="M581.075,541.833c-2.25-2.148-5.498-3.299-9.646-3.349h-40.184c-3.549,0-6.548,1.149-9.097,3.398
		c-2.549,2.25-3.898,5.498-3.999,9.746v89.015c0.101,4.249,1.45,7.497,3.999,9.746s5.548,3.398,9.097,3.398h41.133
		c4.148-0.05,7.397-1.149,9.646-3.298c2.299-2.149,3.448-5.148,3.448-8.896c0-3.799-1.149-6.748-3.448-8.847
		c-2.249-2.1-5.498-3.199-9.646-3.249H544.39v-21.591h24.74c4.148-0.051,7.396-1.1,9.646-3.199c2.35-2.149,3.499-5.147,3.499-8.946
		c0-3.748-1.149-6.697-3.499-8.847c-2.249-2.148-5.497-3.198-9.646-3.248h-24.74v-20.892h27.039c4.148-0.051,7.396-1.1,9.646-3.249
		c2.249-2.1,3.398-5.098,3.448-8.946C584.474,546.932,583.324,543.982,581.075,541.833L581.075,541.833z"/>
	<path fill="#3E4547" d="M499.707,539.834c-3.448-1.35-7.197-2.349-11.245-2.999c-4.049-0.649-8.097-0.949-12.096-0.949
		c-11.645,0.1-21.741,2.699-30.287,7.847c-8.497,5.098-15.095,12.146-19.793,21.191c-4.647,8.997-7.047,19.393-7.097,31.237
		c0,8.347,1.249,16.094,3.698,23.291c2.549,7.297,6.198,13.694,10.996,19.242c4.848,5.448,10.796,9.796,17.793,12.945
		c7.047,3.148,15.094,4.698,24.14,4.748c3.699,0,7.598-0.351,11.746-1c4.147-0.699,8.097-1.799,11.795-3.349
		c3.698-1.449,6.747-3.448,9.097-5.997c2.349-2.449,3.599-5.498,3.648-9.097c0.05-1.199-0.2-2.749-0.7-4.648
		c-0.55-1.899-1.649-3.599-3.349-5.098c-1.649-1.5-4.198-2.299-7.597-2.449c-2.149,0.15-4.198,0.6-6.048,1.449
		c-1.899,0.85-4.348,1.699-7.297,2.6c-2.949,0.85-7.098,1.299-12.395,1.35c-6.048-0.051-11.096-1.649-15.145-4.748
		c-4.048-3.1-7.097-7.197-9.146-12.346c-2.049-5.098-3.099-10.745-3.099-16.894c-0.05-6.047,0.95-11.745,2.949-16.993
		c2.049-5.348,5.197-9.646,9.546-12.895c4.398-3.349,10.096-5.048,17.144-5.147c3.398,0.05,6.447,0.499,9.096,1.399
		c2.649,0.899,5.148,1.799,7.397,2.698c2.199,0.85,4.298,1.3,6.297,1.45c3.499-0.15,6.248-1.45,8.247-3.898
		c2.049-2.449,3.099-5.349,3.148-8.597c-0.05-3.449-1.149-6.298-3.248-8.646C505.854,543.183,503.106,541.283,499.707,539.834
		L499.707,539.834z"/>
	<path fill="#3E4547" d="M409.493,551.479c-0.05-4.599-1.299-8.097-3.748-10.446c-2.35-2.349-5.498-3.498-9.396-3.498
		s-7.047,1.149-9.396,3.498c-2.449,2.35-3.648,5.848-3.698,10.446v89.364c0.05,4.548,1.249,8.047,3.698,10.396
		c2.35,2.35,5.498,3.499,9.396,3.499s7.047-1.149,9.396-3.499c2.449-2.349,3.698-5.848,3.748-10.396V551.479L409.493,551.479z"/>
	<path fill="#3E4547" d="M374.258,541.833c-2.249-2.148-5.498-3.299-9.646-3.349h-40.184c-3.549,0-6.548,1.149-9.097,3.398
		c-2.549,2.25-3.898,5.498-3.998,9.746v89.215c0.05,4.548,1.249,8.047,3.698,10.396c2.349,2.35,5.498,3.499,9.396,3.499
		s7.047-1.149,9.396-3.499c2.449-2.349,3.699-5.848,3.749-10.396v-33.236h23.641c4.148-0.051,7.396-1.1,9.646-3.249
		c2.25-2.149,3.399-5.148,3.449-8.946c-0.05-3.749-1.199-6.697-3.449-8.847c-2.249-2.1-5.497-3.198-9.646-3.249h-23.641v-20.541
		h27.039c4.148-0.051,7.397-1.1,9.646-3.249c2.249-2.1,3.398-5.098,3.448-8.946C377.656,546.932,376.507,543.982,374.258,541.833
		L374.258,541.833z"/>
	<path fill="#3E4547" d="M302.336,541.833c-2.249-2.148-5.497-3.299-9.646-3.349h-40.184c-3.549,0-6.547,1.149-9.097,3.398
		c-2.549,2.25-3.898,5.498-3.998,9.746v89.215c0.05,4.548,1.25,8.047,3.698,10.396c2.349,2.35,5.498,3.499,9.396,3.499
		s7.047-1.149,9.396-3.499c2.449-2.349,3.699-5.848,3.749-10.396v-33.236h23.641c4.148-0.051,7.396-1.1,9.646-3.249
		s3.398-5.148,3.449-8.946c-0.051-3.749-1.2-6.697-3.449-8.847c-2.249-2.1-5.498-3.198-9.646-3.249h-23.641v-20.541h27.039
		c4.148-0.051,7.396-1.1,9.646-3.249c2.249-2.1,3.399-5.098,3.449-8.946C305.735,546.932,304.585,543.982,302.336,541.833
		L302.336,541.833z"/>
	<path fill="#3E4547" d="M222.519,564.274c-4.648-8.996-11.245-15.943-19.692-20.892s-18.393-7.447-29.838-7.497
		c-11.496,0.05-21.441,2.549-29.888,7.497s-15.044,11.896-19.692,20.892c-4.648,8.946-7.047,19.592-7.097,31.887
		c0.05,12.245,2.449,22.892,7.097,31.838c4.648,9.046,11.246,15.993,19.692,20.892c8.447,4.948,18.393,7.447,29.888,7.497
		c11.445-0.05,21.391-2.549,29.838-7.497c8.447-4.898,15.044-11.846,19.692-20.892c4.648-8.946,7.047-19.593,7.097-31.838
		C229.566,583.866,227.167,573.221,222.519,564.274L222.519,564.274z M189.382,565.374c4.148,3.448,7.197,7.847,9.146,13.295
		c1.999,5.447,2.999,11.245,2.949,17.492c0.05,6.198-0.95,11.996-2.949,17.443c-1.949,5.448-4.998,9.846-9.146,13.295
		c-4.248,3.349-9.696,5.098-16.393,5.248c-6.748-0.15-12.195-1.899-16.444-5.248c-4.148-3.449-7.197-7.847-9.146-13.295
		c-1.949-5.447-2.949-11.245-2.949-17.443c0-6.247,1-12.045,2.949-17.492c1.949-5.448,4.998-9.847,9.146-13.295
		c4.249-3.349,9.696-5.098,16.444-5.198C179.686,560.276,185.134,562.025,189.382,565.374L189.382,565.374z"/>
</g>
</svg>
