<?xml version="1.0" encoding="utf-8"?>
<!-- Generator: Adobe Illustrator 12.0.0, SVG Export Plug-In . SVG Version: 6.00 Build 51448)  -->
<!DOCTYPE svg PUBLIC "-//W3C//DTD SVG 1.1//EN" "http://www.w3.org/Graphics/SVG/1.1/DTD/svg11.dtd" [
	<!ENTITY ns_svg "http://www.w3.org/2000/svg">
	<!ENTITY ns_xlink "http://www.w3.org/1999/xlink">
]>
<svg  version="1.1" id="Layer_1" xmlns="&ns_svg;" xmlns:xlink="&ns_xlink;" width="479.809" height="654.738"
	 viewBox="0 0 479.809 654.738" overflow="visible" enable-background="new 0 0 479.809 654.738" xml:space="preserve">
<g>
	<path fill="#3E4547" d="M479.809,239.954c0-66.273-23.441-122.851-70.272-169.682S306.128,0,239.904,0
		C173.631,0,117.053,23.441,70.222,70.272C23.391,117.103,0,173.681,0,239.954c0,66.224,23.391,122.801,70.222,169.632
		c46.831,46.832,103.409,70.272,169.682,70.322c66.224-0.05,122.801-23.491,169.632-70.322S479.809,306.178,479.809,239.954
		L479.809,239.954z M419.832,239.904c0,49.68-17.593,92.113-52.729,127.249s-77.569,52.729-127.199,52.729
		c-49.68,0-92.113-17.593-127.249-52.729c-35.136-35.136-52.729-77.569-52.679-127.249c-0.05-49.68,17.543-92.113,52.679-127.249
		c35.136-35.136,77.569-52.679,127.249-52.679c49.63,0,92.063,17.543,127.199,52.679
		C402.239,147.791,419.832,190.224,419.832,239.904L419.832,239.904z"/>
	<path fill="#3E4547" d="M339.064,180.028c3.349-5.248,5.048-11.046,5.048-17.493c0-8.297-2.898-15.394-8.746-21.242
		s-12.945-8.796-21.191-8.747c-6.498,0-12.346,1.7-17.543,5.098l-74.321,74.271h0.05c-0.05,0.05-0.05,0.05-0.05,0.1
		c-1.949,1.949-3.598,3.999-4.948,6.248c-0.4,0.65-0.75,1.35-1.1,2.099c-1.849,3.898-2.799,8.197-2.799,12.895
		c-0.05,8.247,2.899,15.344,8.747,21.191s12.945,8.747,21.242,8.796c8.246-0.05,15.344-2.999,21.241-8.846c0-0.05,0-0.05,0.05-0.05
		l14.744-14.744c0.45-0.45,0.95-0.95,1.399-1.4c4.248-4.248,8.497-8.497,12.745-12.745c2.799-2.849,5.598-5.648,8.446-8.447
		L339.064,180.028L339.064,180.028z"/>
	<path fill="#FF00C9" d="M185.226,171.781c-5.897-5.848-12.995-8.796-21.242-8.796c-8.296,0-15.344,2.949-21.191,8.796
		c-4.548,4.548-7.497,9.846-8.747,15.894l-0.05,0.05v125.1h0.05c0,0,0,0,0,0.05c-0.05,2.749,0.25,5.398,0.9,7.897
		c0.25,0.75,0.5,1.549,0.8,2.299c1.399,4.048,3.748,7.747,7.047,11.095c0.4,0.4,0.8,0.8,1.2,1.15
		c1.149,1.049,2.349,1.949,3.599,2.799c2.549,1.699,5.298,2.948,8.247,3.748c0.95,0.3,1.949,0.55,2.949,0.7l0.05-0.051l125.1,0.5
		h-0.05c0.05-0.05,0.05-0.05,0.1,0c2.749,0,5.398-0.3,7.947-0.949c0.749-0.25,1.549-0.5,2.299-0.75
		c4.049-1.449,7.747-3.799,11.096-7.047c5.798-5.848,8.696-12.945,8.696-21.242c0-8.247-2.898-15.344-8.746-21.191
		s-12.945-8.796-21.242-8.796c-0.05,0-0.1,0-0.1,0h-89.964l0.05-95.362C192.673,181.627,189.774,176.33,185.226,171.781
		L185.226,171.781z"/>
	<path fill="#FF00C9" d="M137.095,559.727c1.699-2.699,2.549-5.698,2.599-8.997c-0.05-4.248-1.549-7.896-4.548-10.896
		c-2.999-3.049-6.647-4.548-10.896-4.548c-3.349,0-6.348,0.85-8.997,2.599l-45.532,45.532h0.05h-0.05
		c-1.049,0.999-1.899,2.099-2.549,3.248c-0.2,0.351-0.4,0.7-0.55,1.1c-0.95,1.999-1.449,4.198-1.449,6.598c0,0.25,0,0.55,0,0.85
		c0.05,0.8,0.15,1.6,0.3,2.349c0.3,1.55,0.85,2.999,1.649,4.349c0.25,0.45,0.5,0.899,0.799,1.35h0.05l45.332,45.682v-0.05v0.05
		c1,1,2.099,1.85,3.249,2.549c0.35,0.2,0.7,0.4,1.1,0.55c1.999,0.95,4.198,1.449,6.597,1.449c4.249,0,7.847-1.499,10.896-4.498
		c2.999-3.049,4.499-6.647,4.548-10.896c-0.05-4.248-1.549-7.896-4.548-10.945l-0.05-0.05l-32.687-32.737L137.095,559.727
		L137.095,559.727z"/>
	<path fill="#3E4547" d="M44.583,535.236c-4.249,0-7.897,1.499-10.896,4.548c-2.349,2.349-3.848,5.048-4.498,8.196v90.114
		c-0.05,1.399,0.15,2.749,0.5,4.049c0.1,0.399,0.2,0.8,0.35,1.199c0.75,2.099,1.949,3.998,3.648,5.697
		c2.999,2.999,6.647,4.499,10.896,4.499c4.248,0,7.896-1.5,10.945-4.499c2.999-3.049,4.499-6.697,4.499-10.945V547.98
		c-0.65-3.148-2.149-5.848-4.499-8.196C52.479,536.735,48.831,535.236,44.583,535.236L44.583,535.236z"/>
	<path fill="#3E4547" d="M410.036,539.234c-2.699-2.149-6.248-3.299-10.695-3.349c-4.299,0.05-7.797,1.199-10.446,3.349
		s-4.848,5.048-6.548,8.597c-1.749,3.599-3.348,7.547-4.798,11.845l-25.34,68.173c-1.1,2.999-1.949,5.498-2.499,7.447
		c-0.55,1.899-0.899,3.549-1.1,4.898c-0.149,1.299-0.25,2.599-0.25,3.848c0.051,3.249,1.2,5.848,3.549,7.747
		c2.249,1.899,5.298,2.899,9.097,2.949c4.148-0.101,7.197-1.3,9.146-3.648c1.949-2.35,3.498-5.398,4.598-9.146l3.249-10.396h43.032
		l3.249,10.396c1.1,3.748,2.599,6.797,4.548,9.146c1.949,2.349,5.049,3.548,9.196,3.648c3.799-0.05,6.848-1.05,9.097-2.949
		c2.299-1.899,3.499-4.498,3.549-7.747c0-1.249-0.101-2.549-0.25-3.848c-0.2-1.35-0.55-2.999-1.1-4.898
		c-0.55-1.949-1.399-4.448-2.549-7.447l-25.29-68.173c-1.449-4.298-3.049-8.246-4.798-11.845
		C414.935,544.282,412.735,541.384,410.036,539.234L410.036,539.234z M399.84,565.074h0.3l13.146,42.232h-27.539L399.84,565.074
		L399.84,565.074z"/>
	<path fill="#3E4547" d="M348.91,541.733c-2.349-2.1-5.697-3.199-10.146-3.249h-55.628c-4.448,0.05-7.797,1.149-10.146,3.249
		c-2.35,2.149-3.499,5.098-3.499,8.847c0,3.748,1.149,6.747,3.499,8.896c2.349,2.148,5.697,3.248,10.146,3.299h14.694v78.068
		c0.05,4.548,1.249,8.047,3.698,10.396c2.35,2.35,5.498,3.499,9.396,3.499c3.948,0,7.097-1.149,9.446-3.499
		c2.449-2.349,3.648-5.848,3.698-10.396v-78.068h14.694c4.448-0.051,7.797-1.15,10.146-3.299c2.3-2.149,3.449-5.148,3.449-8.896
		C352.359,546.831,351.21,543.883,348.91,541.733L348.91,541.733z"/>
	<path fill="#3E4547" d="M244.553,541.033c-2.449,2.35-3.649,5.848-3.699,10.446v89.364c0.05,4.548,1.25,8.047,3.699,10.396
		c2.349,2.35,5.497,3.499,9.396,3.499s7.048-1.149,9.396-3.499c2.449-2.349,3.698-5.848,3.749-10.396v-89.364
		c-0.051-4.599-1.3-8.097-3.749-10.446c-2.349-2.349-5.498-3.498-9.396-3.498S246.901,538.685,244.553,541.033L244.553,541.033z"/>
	<path fill="#3E4547" d="M212.965,543.033c-5.748-2.949-12.595-4.499-20.442-4.549h-31.537c-3.549,0-6.547,1.149-9.096,3.398
		c-2.549,2.25-3.898,5.498-3.999,9.746v89.215c0.05,4.548,1.25,8.047,3.698,10.396c2.349,2.35,5.498,3.499,9.396,3.499
		s7.047-1.149,9.396-3.499c2.449-2.349,3.699-5.848,3.749-10.396v-33.236h0.3l32.287,40.634c1.45,2.049,3.049,3.648,4.798,4.748
		c1.799,1.149,4.348,1.749,7.597,1.749c3.349-0.101,5.998-0.85,7.997-2.299c1.949-1.45,3.349-3.149,4.198-5.049
		c0.899-1.898,1.299-3.498,1.25-4.848c0-2.099-0.5-4.049-1.449-5.848c-0.85-1.749-2.199-3.549-3.999-5.447l-22.841-24.591
		c8.347-1.649,14.844-5.298,19.592-10.995c4.749-5.648,7.147-12.745,7.248-21.342c-0.05-7.247-1.649-13.545-4.798-18.893
		C223.161,550.08,218.713,545.981,212.965,543.033L212.965,543.033z M200.92,566.124c2.549,2.148,3.848,5.197,3.948,9.146
		c0,3.699-1.149,6.748-3.449,9.196c-2.349,2.35-5.647,3.599-9.996,3.699H174.13v-25.39h17.293
		C195.272,562.825,198.471,563.975,200.92,566.124L200.92,566.124z"/>
</g>
</svg>
